<?xml version="1.0" encoding="utf-8"?>
<svg viewBox="278.738 104.543 164.4 92.4" xmlns="http://www.w3.org/2000/svg">
  <clipPath id="cp45">
    <path transform="matrix(.6,0,0,-.6,213.698,318.523)" d="M 0 0 L 274 0 L 274 154 L 0 154 Z "/>
  </clipPath>
  <g clip-path="url(#cp45)" transform="matrix(1, 0, 0, 1, 65.040169, -121.579788)">
    <clipPath id="cp46">
      <path transform="matrix(.6,0,0,.6,213.698,226.12302)" d="M 0 0 L 274 0 L 274 154 L 0 154 Z "/>
    </clipPath>
    <g clip-path="url(#cp46)">
      <clipPath id="cp47">
        <path transform="matrix(.6,0,0,.6,213.698,226.12302)" d="M 0 0 L 0 154 L 274 154 L 274 0 Z "/>
      </clipPath>
      <g clip-path="url(#cp47)">
        <clipPath id="cp48">
          <path transform="matrix(.6,0,0,.6,213.698,226.12302)" d="M 0 0 L 274 0 L 274 154 L 0 154 Z "/>
        </clipPath>
        <g clip-path="url(#cp48)">
          <path transform="matrix(.6,0,0,.6,62.497987,335.92304)" d="M 252 -183 L 526 -183 L 526 -29 L 252 -29 L 252 -183 Z " fill="#ffffff"/>
          <path transform="matrix(.6,0,0,.6,62.497987,335.92304)" d="M 337.02 -167.5 L 439.02 -167.5 L 439.02 -137.5 L 337.02 -137.5 L 337.02 -167.5 Z " fill="#ffffff"/>
          <path transform="matrix(.6,0,0,.6,62.497987,335.92304)" d="M 343.32 -147.79 L 346.62 -156.38 L 347.84 -156.38 L 351.35 -147.79 L 350.07 -147.79 L 349.05 -150.4 L 345.48 -150.4 L 344.52 -147.79 L 343.32 -147.79 Z M 345.8 -151.32 L 348.71 -151.32 L 347.82 -153.69 C 347.54 -154.41 347.34 -155 347.21 -155.47 C 347.1 -154.92 346.94 -154.37 346.74 -153.83 L 345.8 -151.32 Z M 352.12 -147.79 L 352.12 -154 L 353.07 -154 L 353.07 -153.07 C 353.31 -153.5 353.53 -153.79 353.74 -153.93 C 353.94 -154.08 354.17 -154.15 354.42 -154.15 C 354.77 -154.15 355.13 -154.04 355.5 -153.82 L 355.14 -152.83 C 354.88 -152.99 354.62 -153.07 354.37 -153.07 C 354.13 -153.07 353.92 -153 353.74 -152.86 C 353.56 -152.72 353.43 -152.52 353.35 -152.27 C 353.23 -151.9 353.17 -151.49 353.17 -151.05 L 353.17 -147.79 L 352.12 -147.79 Z M 356.12 -147.79 L 356.12 -154 L 357.07 -154 L 357.07 -153.07 C 357.31 -153.5 357.53 -153.79 357.73 -153.93 C 357.94 -154.08 358.16 -154.15 358.41 -154.15 C 358.77 -154.15 359.13 -154.04 359.49 -153.82 L 359.13 -152.83 C 358.87 -152.99 358.62 -153.07 358.37 -153.07 C 358.13 -153.07 357.92 -153 357.73 -152.86 C 357.55 -152.72 357.42 -152.52 357.35 -152.27 C 357.23 -151.9 357.16 -151.49 357.16 -151.05 L 357.16 -147.79 L 356.12 -147.79 Z M 364.19 -148.55 C 363.8 -148.22 363.42 -147.98 363.06 -147.85 C 362.7 -147.71 362.31 -147.65 361.89 -147.65 C 361.21 -147.65 360.68 -147.81 360.32 -148.15 C 359.95 -148.48 359.77 -148.91 359.77 -149.43 C 359.77 -149.73 359.84 -150.01 359.97 -150.26 C 360.11 -150.52 360.29 -150.72 360.52 -150.87 C 360.75 -151.02 361 -151.14 361.28 -151.21 C 361.48 -151.27 361.8 -151.33 362.22 -151.38 C 363.07 -151.47 363.69 -151.59 364.1 -151.74 C 364.1 -151.89 364.1 -151.97 364.1 -152 C 364.1 -152.44 364 -152.75 363.8 -152.93 C 363.53 -153.16 363.13 -153.27 362.6 -153.27 C 362.11 -153.27 361.74 -153.18 361.5 -153.01 C 361.26 -152.84 361.09 -152.54 360.97 -152.1 L 359.94 -152.24 C 360.03 -152.68 360.19 -153.03 360.41 -153.3 C 360.63 -153.57 360.94 -153.78 361.35 -153.93 C 361.75 -154.07 362.22 -154.15 362.75 -154.15 C 363.28 -154.15 363.72 -154.08 364.05 -153.96 C 364.38 -153.83 364.63 -153.68 364.78 -153.49 C 364.94 -153.3 365.05 -153.06 365.11 -152.77 C 365.14 -152.59 365.16 -152.27 365.16 -151.8 L 365.16 -150.4 C 365.16 -149.42 365.18 -148.8 365.23 -148.54 C 365.28 -148.28 365.37 -148.03 365.5 -147.79 L 364.39 -147.79 C 364.29 -148 364.22 -148.26 364.19 -148.55 Z M 364.1 -150.91 C 363.71 -150.75 363.14 -150.62 362.38 -150.5 C 361.94 -150.44 361.63 -150.37 361.46 -150.29 C 361.28 -150.22 361.14 -150.1 361.04 -149.96 C 360.94 -149.81 360.89 -149.65 360.89 -149.46 C 360.89 -149.18 361 -148.94 361.21 -148.75 C 361.43 -148.57 361.74 -148.47 362.14 -148.47 C 362.55 -148.47 362.91 -148.56 363.23 -148.74 C 363.55 -148.92 363.78 -149.16 363.93 -149.47 C 364.04 -149.71 364.1 -150.06 364.1 -150.52 L 364.1 -150.91 Z M 366.76 -145.4 L 366.63 -146.38 C 366.86 -146.32 367.06 -146.29 367.24 -146.29 C 367.47 -146.29 367.65 -146.33 367.79 -146.4 C 367.94 -146.48 368.05 -146.59 368.15 -146.72 C 368.21 -146.84 368.32 -147.1 368.47 -147.52 C 368.48 -147.57 368.52 -147.66 368.57 -147.77 L 366.19 -154 L 367.33 -154 L 368.63 -150.41 C 368.8 -149.95 368.95 -149.47 369.08 -148.96 C 369.21 -149.45 369.35 -149.92 369.52 -150.38 L 370.85 -154 L 371.9 -154 L 369.54 -147.68 C 369.28 -147 369.08 -146.53 368.94 -146.27 C 368.76 -145.92 368.54 -145.66 368.29 -145.5 C 368.05 -145.34 367.76 -145.25 367.43 -145.25 C 367.23 -145.25 367.01 -145.3 366.76 -145.4 Z M 375.75 -150.9 C 375.75 -152.05 376.06 -152.91 376.7 -153.46 C 377.23 -153.92 377.88 -154.15 378.65 -154.15 C 379.51 -154.15 380.21 -153.87 380.75 -153.31 C 381.3 -152.75 381.57 -151.98 381.57 -150.99 C 381.57 -150.19 381.45 -149.56 381.21 -149.1 C 380.97 -148.64 380.62 -148.28 380.16 -148.03 C 379.7 -147.77 379.19 -147.65 378.65 -147.65 C 377.79 -147.65 377.09 -147.92 376.55 -148.48 C 376.01 -149.04 375.75 -149.84 375.75 -150.9 Z M 376.82 -150.9 C 376.82 -150.1 377 -149.51 377.35 -149.11 C 377.7 -148.72 378.13 -148.52 378.65 -148.52 C 379.18 -148.52 379.62 -148.72 379.96 -149.11 C 380.31 -149.51 380.48 -150.11 380.48 -150.93 C 380.48 -151.7 380.31 -152.28 379.96 -152.68 C 379.61 -153.07 379.17 -153.27 378.65 -153.27 C 378.13 -153.27 377.7 -153.08 377.35 -152.68 C 377 -152.29 376.82 -151.7 376.82 -150.9 Z M 383.06 -147.79 L 383.06 -153.19 L 382.12 -153.19 L 382.12 -154 L 383.06 -154 L 383.06 -154.68 C 383.06 -155.09 383.1 -155.4 383.17 -155.6 C 383.27 -155.88 383.45 -156.1 383.71 -156.27 C 383.96 -156.44 384.32 -156.52 384.78 -156.52 C 385.08 -156.52 385.41 -156.48 385.76 -156.41 L 385.61 -155.5 C 385.39 -155.54 385.18 -155.55 384.98 -155.55 C 384.66 -155.55 384.43 -155.48 384.3 -155.35 C 384.17 -155.21 384.11 -154.96 384.11 -154.58 L 384.11 -154 L 385.33 -154 L 385.33 -153.19 L 384.11 -153.19 L 384.11 -147.79 L 383.06 -147.79 Z M 389.6 -147.79 L 389.6 -156.38 L 392.85 -156.38 C 393.42 -156.38 393.85 -156.35 394.15 -156.3 C 394.58 -156.23 394.93 -156.09 395.22 -155.9 C 395.51 -155.7 395.74 -155.42 395.91 -155.07 C 396.08 -154.71 396.17 -154.32 396.17 -153.9 C 396.17 -153.17 395.93 -152.55 395.47 -152.04 C 395.01 -151.54 394.17 -151.29 392.95 -151.29 L 390.74 -151.29 L 390.74 -147.79 L 389.6 -147.79 Z M 390.74 -152.29 L 392.96 -152.29 C 393.7 -152.29 394.23 -152.42 394.53 -152.7 C 394.84 -152.98 394.99 -153.36 394.99 -153.86 C 394.99 -154.22 394.9 -154.52 394.72 -154.78 C 394.54 -155.03 394.3 -155.2 394.01 -155.29 C 393.81 -155.34 393.46 -155.36 392.95 -155.36 L 390.74 -155.36 L 390.74 -152.29 Z M 397.09 -150.9 C 397.09 -152.05 397.41 -152.91 398.04 -153.46 C 398.58 -153.92 399.23 -154.15 400 -154.15 C 400.85 -154.15 401.55 -153.87 402.1 -153.31 C 402.65 -152.75 402.92 -151.98 402.92 -150.99 C 402.92 -150.19 402.8 -149.56 402.56 -149.1 C 402.32 -148.64 401.97 -148.28 401.51 -148.03 C 401.04 -147.77 400.54 -147.65 400 -147.65 C 399.13 -147.65 398.43 -147.92 397.9 -148.48 C 397.36 -149.04 397.09 -149.84 397.09 -150.9 Z M 398.17 -150.9 C 398.17 -150.1 398.34 -149.51 398.69 -149.11 C 399.04 -148.72 399.48 -148.52 400 -148.52 C 400.53 -148.52 400.97 -148.72 401.31 -149.11 C 401.65 -149.51 401.83 -150.11 401.83 -150.93 C 401.83 -151.7 401.65 -152.28 401.3 -152.68 C 400.95 -153.07 400.52 -153.27 400 -153.27 C 399.48 -153.27 399.04 -153.08 398.69 -152.68 C 398.34 -152.29 398.17 -151.7 398.17 -150.9 Z M 404.16 -155.16 L 404.16 -156.38 L 405.22 -156.38 L 405.22 -155.16 L 404.16 -155.16 Z M 404.16 -147.79 L 404.16 -154 L 405.22 -154 L 405.22 -147.79 L 404.16 -147.79 Z M 406.82 -147.79 L 406.82 -154 L 407.76 -154 L 407.76 -153.13 C 408.22 -153.81 408.88 -154.15 409.74 -154.15 C 410.12 -154.15 410.47 -154.08 410.78 -153.94 C 411.1 -153.81 411.34 -153.63 411.49 -153.41 C 411.65 -153.19 411.76 -152.94 411.82 -152.65 C 411.85 -152.45 411.87 -152.1 411.87 -151.61 L 411.87 -147.79 L 410.82 -147.79 L 410.82 -151.57 C 410.82 -152 410.78 -152.33 410.7 -152.54 C 410.61 -152.74 410.47 -152.91 410.26 -153.04 C 410.05 -153.17 409.81 -153.24 409.52 -153.24 C 409.08 -153.24 408.69 -153.1 408.36 -152.81 C 408.03 -152.52 407.87 -151.98 407.87 -151.19 L 407.87 -147.79 L 406.82 -147.79 Z M 415.79 -148.72 L 415.95 -147.8 C 415.65 -147.74 415.38 -147.71 415.15 -147.71 C 414.77 -147.71 414.47 -147.77 414.26 -147.89 C 414.05 -148.01 413.9 -148.17 413.82 -148.36 C 413.73 -148.56 413.68 -148.98 413.68 -149.61 L 413.68 -153.19 L 412.92 -153.19 L 412.92 -154 L 413.68 -154 L 413.68 -155.55 L 414.73 -156.18 L 414.73 -154 L 415.79 -154 L 415.79 -153.19 L 414.73 -153.19 L 414.73 -149.55 C 414.73 -149.25 414.75 -149.06 414.78 -148.97 C 414.82 -148.89 414.88 -148.82 414.96 -148.77 C 415.05 -148.72 415.17 -148.69 415.32 -148.69 C 415.45 -148.69 415.6 -148.7 415.79 -148.72 Z M 421.08 -149.79 L 422.17 -149.66 C 422.01 -149.03 421.69 -148.53 421.22 -148.18 C 420.75 -147.82 420.16 -147.65 419.44 -147.65 C 418.53 -147.65 417.81 -147.93 417.27 -148.49 C 416.74 -149.05 416.47 -149.84 416.47 -150.85 C 416.47 -151.89 416.74 -152.7 417.28 -153.28 C 417.82 -153.86 418.52 -154.15 419.38 -154.15 C 420.21 -154.15 420.89 -153.86 421.42 -153.3 C 421.94 -152.74 422.2 -151.94 422.2 -150.91 C 422.2 -150.85 422.2 -150.75 422.2 -150.63 L 417.56 -150.63 C 417.61 -149.94 417.8 -149.42 418.14 -149.06 C 418.49 -148.7 418.92 -148.52 419.44 -148.52 C 419.82 -148.52 420.16 -148.62 420.43 -148.83 C 420.71 -149.03 420.92 -149.35 421.08 -149.79 Z M 417.63 -151.49 L 421.1 -151.49 C 421.05 -152.02 420.92 -152.42 420.7 -152.68 C 420.36 -153.08 419.92 -153.29 419.39 -153.29 C 418.9 -153.29 418.49 -153.12 418.17 -152.8 C 417.84 -152.48 417.66 -152.04 417.63 -151.49 Z M 423.49 -147.79 L 423.49 -154 L 424.44 -154 L 424.44 -153.07 C 424.68 -153.5 424.9 -153.79 425.1 -153.93 C 425.31 -154.08 425.53 -154.15 425.78 -154.15 C 426.14 -154.15 426.5 -154.04 426.86 -153.82 L 426.5 -152.83 C 426.24 -152.99 425.99 -153.07 425.74 -153.07 C 425.5 -153.07 425.29 -153 425.1 -152.86 C 424.92 -152.72 424.8 -152.52 424.72 -152.27 C 424.6 -151.9 424.53 -151.49 424.53 -151.05 L 424.53 -147.79 L 423.49 -147.79 Z M 427.08 -149.65 L 428.11 -149.8 C 428.17 -149.39 428.34 -149.07 428.6 -148.85 C 428.87 -148.63 429.24 -148.52 429.73 -148.52 C 430.21 -148.52 430.57 -148.62 430.8 -148.81 C 431.04 -149 431.16 -149.23 431.16 -149.5 C 431.16 -149.74 431.05 -149.93 430.84 -150.07 C 430.7 -150.16 430.34 -150.28 429.77 -150.43 C 428.99 -150.62 428.46 -150.79 428.16 -150.93 C 427.87 -151.08 427.64 -151.27 427.48 -151.52 C 427.33 -151.77 427.25 -152.05 427.25 -152.36 C 427.25 -152.64 427.31 -152.89 427.44 -153.13 C 427.56 -153.37 427.73 -153.57 427.95 -153.72 C 428.12 -153.84 428.34 -153.94 428.62 -154.02 C 428.91 -154.1 429.21 -154.15 429.55 -154.15 C 430.03 -154.15 430.45 -154.08 430.82 -153.93 C 431.19 -153.79 431.46 -153.6 431.64 -153.36 C 431.82 -153.12 431.94 -152.81 432 -152.41 L 430.97 -152.27 C 430.93 -152.58 430.79 -152.83 430.57 -153.01 C 430.35 -153.19 430.03 -153.29 429.61 -153.29 C 429.13 -153.29 428.79 -153.21 428.58 -153.04 C 428.37 -152.88 428.27 -152.69 428.27 -152.47 C 428.27 -152.34 428.31 -152.22 428.39 -152.11 C 428.48 -152 428.62 -151.91 428.8 -151.83 C 428.9 -151.79 429.21 -151.7 429.73 -151.57 C 430.48 -151.36 431 -151.19 431.3 -151.07 C 431.59 -150.94 431.82 -150.76 431.98 -150.52 C 432.15 -150.28 432.23 -149.98 432.23 -149.61 C 432.23 -149.26 432.13 -148.93 431.93 -148.62 C 431.73 -148.31 431.43 -148.08 431.05 -147.9 C 430.66 -147.73 430.22 -147.65 429.73 -147.65 C 428.92 -147.65 428.3 -147.81 427.88 -148.15 C 427.46 -148.49 427.19 -148.99 427.08 -149.65 Z "/>
          <path transform="matrix(.6,0,0,.6,62.497987,335.92304)" stroke-width="1" stroke-linecap="butt" stroke-miterlimit="1.45" stroke-linejoin="miter" fill="none" stroke="#000000" d="M 337.02 -167.5 L 439.02 -167.5 L 439.02 -137.5 L 337.02 -137.5 L 337.02 -167.5 Z "/>
          <path transform="matrix(.6,0,0,.6,64.29799,337.72303)" d="M 267.02 -117.5 L 287.02 -117.5 L 287.02 -97.5 L 267.02 -97.5 L 267.02 -117.5 Z " fill="#b3a691"/>
          <path transform="matrix(.6,0,0,.6,62.49799,335.92304)" d="M 267.02 -117.5 L 287.02 -117.5 L 287.02 -97.5 L 267.02 -97.5 L 267.02 -117.5 Z " fill="#eaeaea"/>
          <path transform="matrix(.6,0,0,.6,62.49799,335.92304)" d="M 274.18 -107.02 C 274.18 -108.04 274.29 -108.86 274.49 -109.48 C 274.7 -110.1 275.01 -110.58 275.42 -110.91 C 275.84 -111.24 276.35 -111.41 276.98 -111.41 C 277.44 -111.41 277.84 -111.32 278.19 -111.13 C 278.54 -110.94 278.83 -110.67 279.06 -110.33 C 279.29 -109.98 279.46 -109.55 279.59 -109.05 C 279.71 -108.55 279.78 -107.87 279.78 -107.02 C 279.78 -106.01 279.67 -105.2 279.47 -104.58 C 279.27 -103.97 278.96 -103.49 278.55 -103.15 C 278.14 -102.81 277.61 -102.65 276.98 -102.65 C 276.16 -102.65 275.51 -102.94 275.03 -103.54 C 274.46 -104.24 274.18 -105.41 274.18 -107.02 Z M 275.26 -107.02 C 275.26 -105.61 275.43 -104.68 275.76 -104.21 C 276.09 -103.74 276.5 -103.5 276.98 -103.5 C 277.47 -103.5 277.88 -103.74 278.21 -104.21 C 278.53 -104.68 278.7 -105.61 278.7 -107.02 C 278.7 -108.44 278.53 -109.38 278.21 -109.84 C 277.88 -110.3 277.46 -110.54 276.96 -110.54 C 276.48 -110.54 276.1 -110.33 275.81 -109.93 C 275.44 -109.41 275.26 -108.44 275.26 -107.02 Z "/>
          <path transform="matrix(.6,0,0,.6,62.49799,335.92304)" stroke-width="1" stroke-linecap="butt" stroke-miterlimit="1.45" stroke-linejoin="miter" fill="none" stroke="#000000" d="M 267.02 -117.5 L 287.02 -117.5 L 287.02 -97.5 L 267.02 -97.5 L 267.02 -117.5 Z "/>
          <path transform="matrix(.6,0,0,.6,64.29799,337.72303)" d="M 449.02 -67.5 L 465.02 -67.5 L 465.02 -47.5 L 449.02 -47.5 L 449.02 -67.5 Z " fill="#b3a691"/>
          <path transform="matrix(.6,0,0,.6,62.49799,335.92304)" d="M 449.02 -67.5 L 465.02 -67.5 L 465.02 -47.5 L 449.02 -47.5 L 449.02 -67.5 Z " fill="#b9dcb9"/>
          <path transform="matrix(.6,0,0,.6,62.49799,335.92304)" stroke-width="1" stroke-linecap="butt" stroke-miterlimit="1.45" stroke-linejoin="miter" fill="none" stroke="#000000" d="M 449.02 -67.5 L 465.02 -67.5 L 465.02 -47.5 L 449.02 -47.5 L 449.02 -67.5 Z "/>
          <path transform="matrix(.6,0,0,.6,64.29799,337.72303)" d="M 429.02 -67.5 L 445.02 -67.5 L 445.02 -47.5 L 429.02 -47.5 L 429.02 -67.5 Z " fill="#b3a691"/>
          <path transform="matrix(.6,0,0,.6,62.49799,335.92304)" d="M 429.02 -67.5 L 445.02 -67.5 L 445.02 -47.5 L 429.02 -47.5 L 429.02 -67.5 Z " fill="#cfe2f3"/>
          <path transform="matrix(.6,0,0,.6,62.49799,335.92304)" stroke-width="1" stroke-linecap="butt" stroke-miterlimit="1.45" stroke-linejoin="miter" fill="none" stroke="#000000" d="M 429.02 -67.5 L 445.02 -67.5 L 445.02 -47.5 L 429.02 -47.5 L 429.02 -67.5 Z "/>
          <path transform="matrix(.6,0,0,.6,64.29799,337.72303)" d="M 409.02 -67.5 L 425.02 -67.5 L 425.02 -47.5 L 409.02 -47.5 L 409.02 -67.5 Z " fill="#b3a691"/>
          <path transform="matrix(.6,0,0,.6,62.49799,335.92304)" d="M 409.02 -67.5 L 425.02 -67.5 L 425.02 -47.5 L 409.02 -47.5 L 409.02 -67.5 Z " fill="#eff3cf"/>
          <path transform="matrix(.6,0,0,.6,62.49799,335.92304)" stroke-width="1" stroke-linecap="butt" stroke-miterlimit="1.45" stroke-linejoin="miter" fill="none" stroke="#000000" d="M 409.02 -67.5 L 425.02 -67.5 L 425.02 -47.5 L 409.02 -47.5 L 409.02 -67.5 Z "/>
          <path transform="matrix(.6,0,0,.6,64.29799,337.72303)" d="M 389.02 -67.5 L 405.02 -67.5 L 405.02 -47.5 L 389.02 -47.5 L 389.02 -67.5 Z " fill="#b3a691"/>
          <path transform="matrix(.6,0,0,.6,62.49799,335.92304)" d="M 389.02 -67.5 L 405.02 -67.5 L 405.02 -47.5 L 389.02 -47.5 L 389.02 -67.5 Z " fill="#dfc5ca"/>
          <path transform="matrix(.6,0,0,.6,62.49799,335.92304)" stroke-width="1" stroke-linecap="butt" stroke-miterlimit="1.45" stroke-linejoin="miter" fill="none" stroke="#000000" d="M 389.02 -67.5 L 405.02 -67.5 L 405.02 -47.5 L 389.02 -47.5 L 389.02 -67.5 Z "/>
          <path transform="matrix(.6,0,0,.6,64.29799,337.72303)" d="M 369.02 -67.5 L 385.02 -67.5 L 385.02 -47.5 L 369.02 -47.5 L 369.02 -67.5 Z " fill="#b3a691"/>
          <path transform="matrix(.6,0,0,.6,62.49799,335.92304)" d="M 369.02 -67.5 L 385.02 -67.5 L 385.02 -47.5 L 369.02 -47.5 L 369.02 -67.5 Z " fill="#b9dcb9"/>
          <path transform="matrix(.6,0,0,.6,62.49799,335.92304)" stroke-width="1" stroke-linecap="butt" stroke-miterlimit="1.45" stroke-linejoin="miter" fill="none" stroke="#000000" d="M 369.02 -67.5 L 385.02 -67.5 L 385.02 -47.5 L 369.02 -47.5 L 369.02 -67.5 Z "/>
          <path transform="matrix(.6,0,0,.6,64.29799,337.72303)" d="M 349.02 -67.5 L 365.02 -67.5 L 365.02 -47.5 L 349.02 -47.5 L 349.02 -67.5 Z " fill="#b3a691"/>
          <path transform="matrix(.6,0,0,.6,62.49799,335.92304)" d="M 349.02 -67.5 L 365.02 -67.5 L 365.02 -47.5 L 349.02 -47.5 L 349.02 -67.5 Z " fill="#cfe2f3"/>
          <path transform="matrix(.6,0,0,.6,62.49799,335.92304)" stroke-width="1" stroke-linecap="butt" stroke-miterlimit="1.45" stroke-linejoin="miter" fill="none" stroke="#000000" d="M 349.02 -67.5 L 365.02 -67.5 L 365.02 -47.5 L 349.02 -47.5 L 349.02 -67.5 Z "/>
          <path transform="matrix(.6,0,0,.6,64.29799,337.72303)" d="M 329.02 -67.5 L 345.02 -67.5 L 345.02 -47.5 L 329.02 -47.5 L 329.02 -67.5 Z " fill="#b3a691"/>
          <path transform="matrix(.6,0,0,.6,62.49799,335.92304)" d="M 329.02 -67.5 L 345.02 -67.5 L 345.02 -47.5 L 329.02 -47.5 L 329.02 -67.5 Z " fill="#eff3cf"/>
          <path transform="matrix(.6,0,0,.6,62.49799,335.92304)" stroke-width="1" stroke-linecap="butt" stroke-miterlimit="1.45" stroke-linejoin="miter" fill="none" stroke="#000000" d="M 329.02 -67.5 L 345.02 -67.5 L 345.02 -47.5 L 329.02 -47.5 L 329.02 -67.5 Z "/>
          <path transform="matrix(.6,0,0,.6,64.29799,337.72303)" d="M 309.02 -67.5 L 325.02 -67.5 L 325.02 -47.5 L 309.02 -47.5 L 309.02 -67.5 Z " fill="#b3a691"/>
          <path transform="matrix(.6,0,0,.6,62.49799,335.92304)" d="M 309.02 -67.5 L 325.02 -67.5 L 325.02 -47.5 L 309.02 -47.5 L 309.02 -67.5 Z " fill="#dfc5ca"/>
          <path transform="matrix(.6,0,0,.6,62.49799,335.92304)" stroke-width="1" stroke-linecap="butt" stroke-miterlimit="1.45" stroke-linejoin="miter" fill="none" stroke="#000000" d="M 309.02 -67.5 L 325.02 -67.5 L 325.02 -47.5 L 309.02 -47.5 L 309.02 -67.5 Z "/>
          <path transform="matrix(.6,0,0,.6,64.29799,337.72303)" d="M 289.02 -67.5 L 305.02 -67.5 L 305.02 -47.5 L 289.02 -47.5 L 289.02 -67.5 Z " fill="#b3a691"/>
          <path transform="matrix(.6,0,0,.6,62.49799,335.92304)" d="M 289.02 -67.5 L 305.02 -67.5 L 305.02 -47.5 L 289.02 -47.5 L 289.02 -67.5 Z " fill="#b9dcb9"/>
          <path transform="matrix(.6,0,0,.6,62.49799,335.92304)" stroke-width="1" stroke-linecap="butt" stroke-miterlimit="1.45" stroke-linejoin="miter" fill="none" stroke="#000000" d="M 289.02 -67.5 L 305.02 -67.5 L 305.02 -47.5 L 289.02 -47.5 L 289.02 -67.5 Z "/>
          <path transform="matrix(.6,0,0,.6,64.29799,337.72303)" d="M 269.02 -67.5 L 285.02 -67.5 L 285.02 -47.5 L 269.02 -47.5 L 269.02 -67.5 Z " fill="#b3a691"/>
          <path transform="matrix(.6,0,0,.6,62.49799,335.92304)" d="M 269.02 -67.5 L 285.02 -67.5 L 285.02 -47.5 L 269.02 -47.5 L 269.02 -67.5 Z " fill="#cfe2f3"/>
          <path transform="matrix(.6,0,0,.6,62.49799,335.92304)" stroke-width="1" stroke-linecap="butt" stroke-miterlimit="1.45" stroke-linejoin="miter" fill="none" stroke="#000000" d="M 269.02 -67.5 L 285.02 -67.5 L 285.02 -47.5 L 269.02 -47.5 L 269.02 -67.5 Z "/>
          <path transform="matrix(.6,0,0,.6,64.29799,337.72303)" d="M 287.02 -117.5 L 307.02 -117.5 L 307.02 -97.5 L 287.02 -97.5 L 287.02 -117.5 Z " fill="#b3a691"/>
          <path transform="matrix(.6,0,0,.6,62.49799,335.92304)" d="M 287.02 -117.5 L 307.02 -117.5 L 307.02 -97.5 L 287.02 -97.5 L 287.02 -117.5 Z " fill="#eaeaea"/>
          <path transform="matrix(.6,0,0,.6,62.49799,335.92304)" d="M 298.15 -102.79 L 297.1 -102.79 L 297.1 -109.5 C 296.84 -109.27 296.51 -109.02 296.1 -108.78 C 295.68 -108.53 295.32 -108.35 294.99 -108.24 L 294.99 -109.25 C 295.58 -109.54 296.09 -109.87 296.53 -110.26 C 296.98 -110.65 297.29 -111.04 297.48 -111.41 L 298.15 -111.41 L 298.15 -102.79 Z "/>
          <path transform="matrix(.6,0,0,.6,62.49799,335.92304)" stroke-width="1" stroke-linecap="butt" stroke-miterlimit="1.45" stroke-linejoin="miter" fill="none" stroke="#000000" d="M 287.02 -117.5 L 307.02 -117.5 L 307.02 -97.5 L 287.02 -97.5 L 287.02 -117.5 Z "/>
          <path transform="matrix(.6,0,0,.6,64.29799,337.72303)" d="M 307.02 -117.5 L 327.02 -117.5 L 327.02 -97.5 L 307.02 -97.5 L 307.02 -117.5 Z " fill="#b3a691"/>
          <path transform="matrix(.6,0,0,.6,62.49799,335.92304)" d="M 307.02 -117.5 L 327.02 -117.5 L 327.02 -97.5 L 307.02 -97.5 L 307.02 -117.5 Z " fill="#eaeaea"/>
          <path transform="matrix(.6,0,0,.6,62.49799,335.92304)" d="M 319.73 -103.8 L 319.73 -102.79 L 314.04 -102.79 C 314.04 -103.04 314.08 -103.28 314.17 -103.52 C 314.31 -103.91 314.54 -104.29 314.86 -104.66 C 315.18 -105.04 315.64 -105.47 316.24 -105.96 C 317.18 -106.73 317.81 -107.34 318.14 -107.79 C 318.47 -108.23 318.64 -108.66 318.64 -109.05 C 318.64 -109.47 318.48 -109.82 318.18 -110.11 C 317.88 -110.39 317.49 -110.54 317.01 -110.54 C 316.5 -110.54 316.09 -110.39 315.79 -110.08 C 315.49 -109.78 315.33 -109.36 315.32 -108.82 L 314.24 -108.93 C 314.32 -109.74 314.6 -110.36 315.08 -110.78 C 315.56 -111.2 316.22 -111.41 317.04 -111.41 C 317.86 -111.41 318.52 -111.18 318.99 -110.72 C 319.47 -110.27 319.71 -109.7 319.71 -109.02 C 319.71 -108.68 319.64 -108.34 319.5 -108.01 C 319.36 -107.68 319.13 -107.34 318.8 -106.97 C 318.47 -106.6 317.93 -106.09 317.18 -105.46 C 316.55 -104.93 316.14 -104.56 315.96 -104.37 C 315.77 -104.18 315.62 -103.99 315.51 -103.8 L 319.73 -103.8 Z "/>
          <path transform="matrix(.6,0,0,.6,62.49799,335.92304)" stroke-width="1" stroke-linecap="butt" stroke-miterlimit="1.45" stroke-linejoin="miter" fill="none" stroke="#000000" d="M 307.02 -117.5 L 327.02 -117.5 L 327.02 -97.5 L 307.02 -97.5 L 307.02 -117.5 Z "/>
          <path transform="matrix(.6,0,0,.6,64.29799,337.72303)" d="M 327.02 -117.5 L 347.02 -117.5 L 347.02 -97.5 L 327.02 -97.5 L 327.02 -117.5 Z " fill="#b3a691"/>
          <path transform="matrix(.6,0,0,.6,62.49799,335.92304)" d="M 327.02 -117.5 L 347.02 -117.5 L 347.02 -97.5 L 327.02 -97.5 L 327.02 -117.5 Z " fill="#eaeaea"/>
          <path transform="matrix(.6,0,0,.6,62.49799,335.92304)" d="M 334.18 -105.05 L 335.24 -105.19 C 335.36 -104.6 335.56 -104.17 335.85 -103.9 C 336.15 -103.64 336.5 -103.5 336.92 -103.5 C 337.42 -103.5 337.84 -103.68 338.18 -104.02 C 338.53 -104.36 338.7 -104.79 338.7 -105.3 C 338.7 -105.78 338.54 -106.18 338.22 -106.5 C 337.9 -106.81 337.5 -106.97 337.01 -106.97 C 336.81 -106.97 336.56 -106.93 336.26 -106.85 L 336.39 -107.79 C 336.46 -107.78 336.52 -107.77 336.56 -107.77 C 337.01 -107.77 337.41 -107.89 337.77 -108.12 C 338.13 -108.36 338.31 -108.72 338.31 -109.21 C 338.31 -109.59 338.18 -109.91 337.92 -110.17 C 337.66 -110.42 337.32 -110.55 336.9 -110.55 C 336.49 -110.55 336.15 -110.42 335.88 -110.16 C 335.6 -109.9 335.43 -109.52 335.35 -109 L 334.29 -109.19 C 334.42 -109.89 334.71 -110.43 335.17 -110.83 C 335.62 -111.22 336.19 -111.41 336.87 -111.41 C 337.34 -111.41 337.77 -111.31 338.17 -111.11 C 338.56 -110.9 338.86 -110.63 339.07 -110.29 C 339.28 -109.94 339.39 -109.57 339.39 -109.18 C 339.39 -108.81 339.29 -108.48 339.09 -108.17 C 338.89 -107.86 338.6 -107.62 338.21 -107.44 C 338.71 -107.33 339.1 -107.09 339.39 -106.72 C 339.67 -106.35 339.81 -105.88 339.81 -105.32 C 339.81 -104.57 339.53 -103.93 338.99 -103.41 C 338.44 -102.89 337.75 -102.63 336.92 -102.63 C 336.17 -102.63 335.54 -102.86 335.04 -103.31 C 334.54 -103.76 334.26 -104.34 334.18 -105.05 Z "/>
          <path transform="matrix(.6,0,0,.6,62.49799,335.92304)" stroke-width="1" stroke-linecap="butt" stroke-miterlimit="1.45" stroke-linejoin="miter" fill="none" stroke="#000000" d="M 327.02 -117.5 L 347.02 -117.5 L 347.02 -97.5 L 327.02 -97.5 L 327.02 -117.5 Z "/>
          <path transform="matrix(.6,0,0,.6,64.29799,337.72303)" d="M 347.02 -117.5 L 367.02 -117.5 L 367.02 -97.5 L 347.02 -97.5 L 347.02 -117.5 Z " fill="#b3a691"/>
          <path transform="matrix(.6,0,0,.6,62.49799,335.92304)" d="M 347.02 -117.5 L 367.02 -117.5 L 367.02 -97.5 L 347.02 -97.5 L 347.02 -117.5 Z " fill="#eaeaea"/>
          <path transform="matrix(.6,0,0,.6,62.49799,335.92304)" d="M 357.56 -102.79 L 357.56 -104.85 L 353.84 -104.85 L 353.84 -105.82 L 357.76 -111.38 L 358.62 -111.38 L 358.62 -105.82 L 359.78 -105.82 L 359.78 -104.85 L 358.62 -104.85 L 358.62 -102.79 L 357.56 -102.79 Z M 357.56 -105.82 L 357.56 -109.68 L 354.87 -105.82 L 357.56 -105.82 Z "/>
          <path transform="matrix(.6,0,0,.6,62.49799,335.92304)" stroke-width="1" stroke-linecap="butt" stroke-miterlimit="1.45" stroke-linejoin="miter" fill="none" stroke="#000000" d="M 347.02 -117.5 L 367.02 -117.5 L 367.02 -97.5 L 347.02 -97.5 L 347.02 -117.5 Z "/>
          <path transform="matrix(.6,0,0,.6,64.29799,337.72303)" d="M 367.02 -117.5 L 387.02 -117.5 L 387.02 -97.5 L 367.02 -97.5 L 367.02 -117.5 Z " fill="#b3a691"/>
          <path transform="matrix(.6,0,0,.6,62.49799,335.92304)" d="M 367.02 -117.5 L 387.02 -117.5 L 387.02 -97.5 L 367.02 -97.5 L 367.02 -117.5 Z " fill="#eaeaea"/>
          <path transform="matrix(.6,0,0,.6,62.49799,335.92304)" d="M 374.18 -105.04 L 375.29 -105.13 C 375.37 -104.59 375.56 -104.18 375.86 -103.91 C 376.16 -103.64 376.52 -103.5 376.95 -103.5 C 377.45 -103.5 377.87 -103.7 378.23 -104.08 C 378.58 -104.47 378.76 -104.97 378.76 -105.6 C 378.76 -106.2 378.59 -106.68 378.25 -107.03 C 377.91 -107.38 377.47 -107.55 376.92 -107.55 C 376.58 -107.55 376.28 -107.47 376 -107.32 C 375.73 -107.16 375.51 -106.96 375.35 -106.72 L 374.37 -106.85 L 375.2 -111.25 L 379.48 -111.25 L 379.48 -110.25 L 376.04 -110.25 L 375.59 -107.94 C 376.1 -108.31 376.64 -108.49 377.2 -108.49 C 377.95 -108.49 378.58 -108.23 379.1 -107.71 C 379.61 -107.19 379.87 -106.52 379.87 -105.69 C 379.87 -104.92 379.65 -104.25 379.2 -103.68 C 378.65 -102.99 377.9 -102.65 376.95 -102.65 C 376.17 -102.65 375.53 -102.86 375.03 -103.3 C 374.54 -103.74 374.26 -104.32 374.18 -105.04 Z "/>
          <path transform="matrix(.6,0,0,.6,62.49799,335.92304)" stroke-width="1" stroke-linecap="butt" stroke-miterlimit="1.45" stroke-linejoin="miter" fill="none" stroke="#000000" d="M 367.02 -117.5 L 387.02 -117.5 L 387.02 -97.5 L 367.02 -97.5 L 367.02 -117.5 Z "/>
          <path transform="matrix(.6,0,0,.6,64.29799,337.72303)" d="M 387.02 -117.5 L 407.02 -117.5 L 407.02 -97.5 L 387.02 -97.5 L 387.02 -117.5 Z " fill="#b3a691"/>
          <path transform="matrix(.6,0,0,.6,62.49799,335.92304)" d="M 387.02 -117.5 L 407.02 -117.5 L 407.02 -97.5 L 387.02 -97.5 L 387.02 -117.5 Z " fill="#eaeaea"/>
          <path transform="matrix(.6,0,0,.6,62.49799,335.92304)" d="M 399.65 -109.27 L 398.6 -109.19 C 398.51 -109.61 398.38 -109.91 398.21 -110.1 C 397.92 -110.4 397.57 -110.55 397.15 -110.55 C 396.82 -110.55 396.52 -110.46 396.26 -110.27 C 395.94 -110.02 395.68 -109.66 395.49 -109.2 C 395.29 -108.74 395.19 -108.08 395.18 -107.22 C 395.43 -107.61 395.74 -107.9 396.11 -108.08 C 396.48 -108.27 396.87 -108.36 397.28 -108.36 C 397.97 -108.36 398.57 -108.1 399.06 -107.58 C 399.56 -107.06 399.81 -106.4 399.81 -105.58 C 399.81 -105.04 399.69 -104.54 399.46 -104.08 C 399.22 -103.61 398.9 -103.26 398.49 -103.01 C 398.09 -102.77 397.63 -102.65 397.12 -102.65 C 396.23 -102.65 395.52 -102.97 394.96 -103.61 C 394.41 -104.26 394.14 -105.32 394.14 -106.8 C 394.14 -108.47 394.44 -109.68 395.06 -110.43 C 395.59 -111.08 396.31 -111.41 397.21 -111.41 C 397.89 -111.41 398.45 -111.22 398.88 -110.84 C 399.31 -110.46 399.57 -109.94 399.65 -109.27 Z M 395.35 -105.57 C 395.35 -105.2 395.43 -104.86 395.58 -104.53 C 395.73 -104.2 395.95 -103.95 396.22 -103.77 C 396.5 -103.59 396.79 -103.5 397.1 -103.5 C 397.54 -103.5 397.92 -103.68 398.24 -104.04 C 398.57 -104.4 398.73 -104.89 398.73 -105.5 C 398.73 -106.1 398.57 -106.57 398.25 -106.91 C 397.93 -107.25 397.54 -107.43 397.06 -107.43 C 396.58 -107.43 396.17 -107.25 395.85 -106.91 C 395.52 -106.57 395.35 -106.12 395.35 -105.57 Z "/>
          <path transform="matrix(.6,0,0,.6,62.49799,335.92304)" stroke-width="1" stroke-linecap="butt" stroke-miterlimit="1.45" stroke-linejoin="miter" fill="none" stroke="#000000" d="M 387.02 -117.5 L 407.02 -117.5 L 407.02 -97.5 L 387.02 -97.5 L 387.02 -117.5 Z "/>
          <path transform="matrix(.6,0,0,.6,64.29799,337.72303)" d="M 407.02 -117.5 L 427.02 -117.5 L 427.02 -97.5 L 407.02 -97.5 L 407.02 -117.5 Z " fill="#b3a691"/>
          <path transform="matrix(.6,0,0,.6,62.49799,335.92304)" d="M 407.02 -117.5 L 427.02 -117.5 L 427.02 -97.5 L 407.02 -97.5 L 407.02 -117.5 Z " fill="#eaeaea"/>
          <path transform="matrix(.6,0,0,.6,62.49799,335.92304)" d="M 414.24 -110.25 L 414.24 -111.27 L 419.81 -111.27 L 419.81 -110.44 C 419.27 -109.86 418.73 -109.09 418.19 -108.12 C 417.65 -107.16 417.24 -106.17 416.95 -105.15 C 416.73 -104.43 416.59 -103.64 416.54 -102.79 L 415.45 -102.79 C 415.46 -103.46 415.59 -104.28 415.85 -105.24 C 416.1 -106.2 416.47 -107.12 416.94 -108 C 417.41 -108.89 417.92 -109.64 418.46 -110.25 L 414.24 -110.25 Z "/>
          <path transform="matrix(.6,0,0,.6,62.49799,335.92304)" stroke-width="1" stroke-linecap="butt" stroke-miterlimit="1.45" stroke-linejoin="miter" fill="none" stroke="#000000" d="M 407.02 -117.5 L 427.02 -117.5 L 427.02 -97.5 L 407.02 -97.5 L 407.02 -117.5 Z "/>
          <path transform="matrix(.6,0,0,.6,64.29799,337.72303)" d="M 427.02 -117.5 L 447.02 -117.5 L 447.02 -97.5 L 427.02 -97.5 L 427.02 -117.5 Z " fill="#b3a691"/>
          <path transform="matrix(.6,0,0,.6,62.49799,335.92304)" d="M 427.02 -117.5 L 447.02 -117.5 L 447.02 -97.5 L 427.02 -97.5 L 427.02 -117.5 Z " fill="#eaeaea"/>
          <path transform="matrix(.6,0,0,.6,62.49799,335.92304)" d="M 435.81 -107.44 C 435.37 -107.61 435.04 -107.84 434.83 -108.14 C 434.62 -108.43 434.51 -108.79 434.51 -109.19 C 434.51 -109.82 434.74 -110.34 435.19 -110.77 C 435.64 -111.2 436.24 -111.41 436.98 -111.41 C 437.73 -111.41 438.33 -111.19 438.79 -110.75 C 439.25 -110.32 439.48 -109.79 439.48 -109.16 C 439.48 -108.77 439.37 -108.42 439.17 -108.13 C 438.96 -107.84 438.64 -107.61 438.21 -107.44 C 438.74 -107.28 439.15 -107 439.42 -106.61 C 439.69 -106.23 439.82 -105.77 439.82 -105.24 C 439.82 -104.51 439.56 -103.9 439.05 -103.4 C 438.53 -102.9 437.85 -102.65 436.99 -102.65 C 436.15 -102.65 435.47 -102.9 434.95 -103.4 C 434.43 -103.9 434.17 -104.52 434.17 -105.27 C 434.17 -105.83 434.31 -106.3 434.6 -106.68 C 434.88 -107.05 435.29 -107.31 435.81 -107.44 Z M 435.59 -109.24 C 435.59 -108.83 435.72 -108.5 435.99 -108.24 C 436.25 -107.98 436.59 -107.85 437.01 -107.85 C 437.42 -107.85 437.75 -107.98 438.01 -108.23 C 438.27 -108.49 438.4 -108.8 438.4 -109.18 C 438.4 -109.56 438.27 -109.89 437.99 -110.15 C 437.72 -110.42 437.39 -110.55 436.99 -110.55 C 436.59 -110.55 436.25 -110.42 435.99 -110.16 C 435.72 -109.9 435.59 -109.59 435.59 -109.24 Z M 435.26 -105.27 C 435.26 -104.97 435.33 -104.68 435.47 -104.4 C 435.61 -104.11 435.82 -103.9 436.1 -103.74 C 436.39 -103.58 436.69 -103.5 437.01 -103.5 C 437.51 -103.5 437.92 -103.67 438.25 -103.99 C 438.58 -104.31 438.74 -104.72 438.74 -105.22 C 438.74 -105.73 438.58 -106.16 438.24 -106.49 C 437.91 -106.82 437.49 -106.99 436.98 -106.99 C 436.48 -106.99 436.07 -106.83 435.74 -106.5 C 435.42 -106.17 435.26 -105.76 435.26 -105.27 Z "/>
          <path transform="matrix(.6,0,0,.6,62.49799,335.92304)" stroke-width="1" stroke-linecap="butt" stroke-miterlimit="1.45" stroke-linejoin="miter" fill="none" stroke="#000000" d="M 427.02 -117.5 L 447.02 -117.5 L 447.02 -97.5 L 427.02 -97.5 L 427.02 -117.5 Z "/>
          <path transform="matrix(.6,0,0,.6,64.29799,337.72303)" d="M 447.02 -117.5 L 467.02 -117.5 L 467.02 -97.5 L 447.02 -97.5 L 447.02 -117.5 Z " fill="#b3a691"/>
          <path transform="matrix(.6,0,0,.6,62.49799,335.92304)" d="M 447.02 -117.5 L 467.02 -117.5 L 467.02 -97.5 L 447.02 -97.5 L 447.02 -117.5 Z " fill="#eaeaea"/>
          <path transform="matrix(.6,0,0,.6,62.49799,335.92304)" d="M 454.34 -104.77 L 455.35 -104.86 C 455.44 -104.39 455.6 -104.04 455.85 -103.83 C 456.09 -103.61 456.4 -103.5 456.78 -103.5 C 457.1 -103.5 457.38 -103.58 457.63 -103.73 C 457.87 -103.88 458.07 -104.08 458.23 -104.33 C 458.39 -104.57 458.52 -104.9 458.62 -105.33 C 458.72 -105.75 458.78 -106.18 458.78 -106.61 C 458.78 -106.67 458.78 -106.74 458.78 -106.83 C 458.57 -106.5 458.28 -106.23 457.92 -106.01 C 457.55 -105.8 457.16 -105.69 456.73 -105.69 C 456.01 -105.69 455.41 -105.95 454.92 -106.47 C 454.43 -106.98 454.18 -107.66 454.18 -108.5 C 454.18 -109.38 454.44 -110.08 454.96 -110.61 C 455.47 -111.15 456.11 -111.41 456.89 -111.41 C 457.44 -111.41 457.95 -111.26 458.41 -110.96 C 458.87 -110.66 459.22 -110.23 459.46 -109.67 C 459.7 -109.11 459.82 -108.31 459.82 -107.25 C 459.82 -106.16 459.71 -105.29 459.47 -104.64 C 459.24 -103.99 458.88 -103.49 458.41 -103.15 C 457.93 -102.81 457.39 -102.65 456.76 -102.65 C 456.08 -102.65 455.53 -102.83 455.1 -103.2 C 454.68 -103.57 454.42 -104.09 454.34 -104.77 Z M 458.65 -108.57 C 458.65 -109.17 458.49 -109.65 458.17 -110 C 457.86 -110.36 457.47 -110.54 457.01 -110.54 C 456.54 -110.54 456.13 -110.35 455.78 -109.97 C 455.43 -109.59 455.26 -109.09 455.26 -108.47 C 455.26 -107.93 455.43 -107.49 455.76 -107.15 C 456.09 -106.8 456.5 -106.63 456.98 -106.63 C 457.47 -106.63 457.87 -106.8 458.18 -107.15 C 458.49 -107.49 458.65 -107.96 458.65 -108.57 Z "/>
          <path transform="matrix(.6,0,0,.6,62.49799,335.92304)" stroke-width="1" stroke-linecap="butt" stroke-miterlimit="1.45" stroke-linejoin="miter" fill="none" stroke="#000000" d="M 447.02 -117.5 L 467.02 -117.5 L 467.02 -97.5 L 447.02 -97.5 L 447.02 -117.5 Z "/>
          <path transform="matrix(.6,0,0,.6,64.29799,337.72303)" d="M 467.02 -117.5 L 507.02 -117.5 L 507.02 -97.5 L 467.02 -97.5 L 467.02 -117.5 Z " fill="#b3a691"/>
          <path transform="matrix(.6,0,0,.6,62.49799,335.92304)" d="M 467.02 -117.5 L 507.02 -117.5 L 507.02 -97.5 L 467.02 -97.5 L 467.02 -117.5 Z " fill="#eaeaea"/>
          <path transform="matrix(.6,0,0,.6,62.49799,335.92304)" d="M 483.11 -102.79 L 483.11 -103.99 L 484.31 -103.99 L 484.31 -102.79 L 483.11 -102.79 Z M 486.45 -102.79 L 486.45 -103.99 L 487.65 -103.99 L 487.65 -102.79 L 486.45 -102.79 Z M 489.78 -102.79 L 489.78 -103.99 L 490.98 -103.99 L 490.98 -102.79 L 489.78 -102.79 Z "/>
          <path transform="matrix(.6,0,0,.6,62.49799,335.92304)" stroke-width="1" stroke-linecap="butt" stroke-miterlimit="1.45" stroke-linejoin="miter" fill="none" stroke="#000000" d="M 467.02 -117.5 L 507.02 -117.5 L 507.02 -97.5 L 467.02 -97.5 L 467.02 -117.5 Z "/>
          <path transform="matrix(.6,0,0,.6,62.49799,335.92304)" stroke-width="1" stroke-linecap="butt" stroke-miterlimit="1.45" stroke-linejoin="miter" fill="none" stroke="#000000" d="M 277.02 -97.5 L 277.02 -75.5 "/>
          <path transform="matrix(.6,0,0,.6,62.49799,335.92304)" d="M 277.02 -67.5 L 282.02 -79.5 L 277.02 -76.5 L 272.02 -79.5 Z "/>
          <path transform="matrix(.6,0,0,.6,62.49799,335.92304)" stroke-width="1" stroke-linecap="butt" stroke-miterlimit="1.45" stroke-linejoin="miter" fill="none" stroke="#000000" d="M 297.02 -97.5 L 297.02 -75.5 "/>
          <path transform="matrix(.6,0,0,.6,62.49799,335.92304)" d="M 297.02 -67.5 L 302.02 -79.5 L 297.02 -76.5 L 292.02 -79.5 Z "/>
          <path transform="matrix(.6,0,0,.6,62.49799,335.92304)" stroke-width="1" stroke-linecap="butt" stroke-miterlimit="1.45" stroke-linejoin="miter" fill="none" stroke="#000000" d="M 317.02 -97.5 L 317.02 -75.5 "/>
          <path transform="matrix(.6,0,0,.6,62.49799,335.92304)" d="M 317.02 -67.5 L 322.02 -79.5 L 317.02 -76.5 L 312.02 -79.5 Z "/>
          <path transform="matrix(.6,0,0,.6,62.49799,335.92304)" stroke-width="1" stroke-linecap="butt" stroke-miterlimit="1.45" stroke-linejoin="miter" fill="none" stroke="#000000" d="M 337.02 -97.5 L 337.02 -75.5 "/>
          <path transform="matrix(.6,0,0,.6,62.49799,335.92304)" d="M 337.02 -67.5 L 342.02 -79.5 L 337.02 -76.5 L 332.02 -79.5 Z "/>
          <path transform="matrix(.6,0,0,.6,62.49799,335.92304)" stroke-width="1" stroke-linecap="butt" stroke-miterlimit="1.45" stroke-linejoin="miter" fill="none" stroke="#000000" d="M 357.02 -97.5 L 357.02 -75.5 "/>
          <path transform="matrix(.6,0,0,.6,62.49799,335.92304)" d="M 357.02 -67.5 L 362.02 -79.5 L 357.02 -76.5 L 352.02 -79.5 Z "/>
          <path transform="matrix(.6,0,0,.6,62.49799,335.92304)" stroke-width="1" stroke-linecap="butt" stroke-miterlimit="1.45" stroke-linejoin="miter" fill="none" stroke="#000000" d="M 377.02 -97.5 L 377.02 -75.5 "/>
          <path transform="matrix(.6,0,0,.6,62.49799,335.92304)" d="M 377.02 -67.5 L 382.02 -79.5 L 377.02 -76.5 L 372.02 -79.5 Z "/>
          <path transform="matrix(.6,0,0,.6,62.49799,335.92304)" stroke-width="1" stroke-linecap="butt" stroke-miterlimit="1.45" stroke-linejoin="miter" fill="none" stroke="#000000" d="M 397.02 -97.5 L 397.02 -75.5 "/>
          <path transform="matrix(.6,0,0,.6,62.49799,335.92304)" d="M 397.02 -67.5 L 402.02 -79.5 L 397.02 -76.5 L 392.02 -79.5 Z "/>
          <path transform="matrix(.6,0,0,.6,62.49799,335.92304)" stroke-width="1" stroke-linecap="butt" stroke-miterlimit="1.45" stroke-linejoin="miter" fill="none" stroke="#000000" d="M 417.02 -97.5 L 417.02 -75.5 "/>
          <path transform="matrix(.6,0,0,.6,62.49799,335.92304)" d="M 417.02 -67.5 L 422.02 -79.5 L 417.02 -76.5 L 412.02 -79.5 Z "/>
          <path transform="matrix(.6,0,0,.6,62.49799,335.92304)" stroke-width="1" stroke-linecap="butt" stroke-miterlimit="1.45" stroke-linejoin="miter" fill="none" stroke="#000000" d="M 437.02 -97.5 L 437.02 -75.5 "/>
          <path transform="matrix(.6,0,0,.6,62.49799,335.92304)" d="M 437.02 -67.5 L 442.02 -79.5 L 437.02 -76.5 L 432.02 -79.5 Z "/>
          <path transform="matrix(.6,0,0,.6,62.49799,335.92304)" stroke-width="1" stroke-linecap="butt" stroke-miterlimit="1.45" stroke-linejoin="miter" fill="none" stroke="#000000" d="M 457.02 -97.5 L 457.02 -75.5 "/>
          <path transform="matrix(.6,0,0,.6,62.49799,335.92304)" d="M 457.02 -67.5 L 462.02 -79.5 L 457.02 -76.5 L 452.02 -79.5 Z "/>
        </g>
      </g>
      <clipPath id="cp49">
        <path transform="matrix(.6,0,0,.6,213.698,226.12302)" d="M 0 0 L 0 154 L 274 154 L 274 0 Z "/>
      </clipPath>
      <g clip-path="url(#cp49)"/>
    </g>
  </g>
</svg>