<?xml version="1.0" encoding="utf-8"?>
<svg viewBox="278.738 -7.295 164.4 61.8" xmlns="http://www.w3.org/2000/svg">
  <clipPath id="cp40">
    <path transform="matrix(.6,0,0,-.6,213.698,176.08502)" d="M 0 0 L 274 0 L 274 103 L 0 103 Z "/>
  </clipPath>
  <g clip-path="url(#cp40)" transform="matrix(1, 0, 0, 1, 65.040169, -121.579788)">
    <clipPath id="cp41">
      <path transform="matrix(.6,0,0,.6,213.698,114.28502)" d="M 0 0 L 274 0 L 274 103 L 0 103 Z "/>
    </clipPath>
    <g clip-path="url(#cp41)">
      <clipPath id="cp42">
        <path transform="matrix(.6,0,0,.6,213.698,114.28502)" d="M 0 0 L 0 103 L 274 103 L 274 0 Z "/>
      </clipPath>
      <g clip-path="url(#cp42)">
        <clipPath id="cp43">
          <path transform="matrix(.6,0,0,.6,213.698,114.28502)" d="M 0 0 L 274 0 L 274 103 L 0 103 Z "/>
        </clipPath>
        <g clip-path="url(#cp43)">
          <path transform="matrix(.6,0,0,.6,249.698,254.08502)" d="M -60 -233 L 214 -233 L 214 -130 L -60 -130 L -60 -233 Z " fill="#ffffff"/>
          <path transform="matrix(.6,0,0,.6,251.498,255.88503)" d="M -44.478 -168 L -24.478 -168 L -24.478 -148 L -44.478 -148 L -44.478 -168 Z " fill="#b3a691"/>
          <path transform="matrix(.6,0,0,.6,249.698,254.08502)" d="M -44.478 -168 L -24.478 -168 L -24.478 -148 L -44.478 -148 L -44.478 -168 Z " fill="#eaeaea"/>
          <path transform="matrix(.6,0,0,.6,249.698,254.08502)" d="M -37.315 -157.52 C -37.315 -158.54 -37.211 -159.36 -37.002 -159.98 C -36.794 -160.6 -36.484 -161.08 -36.073 -161.41 C -35.661 -161.74 -35.143 -161.91 -34.518 -161.91 C -34.059 -161.91 -33.656 -161.82 -33.307 -161.63 C -32.958 -161.44 -32.669 -161.17 -32.44 -160.83 C -32.211 -160.48 -32.033 -160.05 -31.908 -159.55 C -31.783 -159.05 -31.721 -158.37 -31.721 -157.52 C -31.721 -156.51 -31.823 -155.7 -32.026 -155.08 C -32.229 -154.47 -32.536 -153.99 -32.948 -153.65 C -33.359 -153.31 -33.882 -153.15 -34.518 -153.15 C -35.341 -153.15 -35.992 -153.44 -36.471 -154.04 C -37.033 -154.74 -37.315 -155.91 -37.315 -157.52 Z M -36.237 -157.52 C -36.237 -156.11 -36.07 -155.18 -35.737 -154.71 C -35.403 -154.24 -34.997 -154 -34.518 -154 C -34.028 -154 -33.619 -154.24 -33.291 -154.71 C -32.963 -155.18 -32.799 -156.11 -32.799 -157.52 C -32.799 -158.94 -32.963 -159.88 -33.291 -160.34 C -33.619 -160.8 -34.033 -161.04 -34.533 -161.04 C -35.013 -161.04 -35.398 -160.83 -35.69 -160.43 C -36.054 -159.91 -36.237 -158.94 -36.237 -157.52 Z "/>
          <path transform="matrix(.6,0,0,.6,249.698,254.08502)" stroke-width="1" stroke-linecap="butt" stroke-miterlimit="1.45" stroke-linejoin="miter" fill="none" stroke="#000000" d="M -44.478 -168 L -24.478 -168 L -24.478 -148 L -44.478 -148 L -44.478 -168 Z "/>
          <path transform="matrix(.6,0,0,.6,251.498,255.88503)" d="M -24.478 -168 L -4.4778 -168 L -4.4778 -148 L -24.478 -148 L -24.478 -168 Z " fill="#b3a691"/>
          <path transform="matrix(.6,0,0,.6,249.698,254.08502)" d="M -24.478 -168 L -4.4778 -168 L -4.4778 -148 L -24.478 -148 L -24.478 -168 Z " fill="#eaeaea"/>
          <path transform="matrix(.6,0,0,.6,249.698,254.08502)" d="M -13.346 -153.29 L -14.393 -153.29 L -14.393 -160 C -14.653 -159.77 -14.989 -159.52 -15.401 -159.28 C -15.812 -159.03 -16.179 -158.85 -16.502 -158.74 L -16.502 -159.75 C -15.919 -160.04 -15.406 -160.37 -14.963 -160.76 C -14.52 -161.15 -14.205 -161.54 -14.018 -161.91 L -13.346 -161.91 L -13.346 -153.29 Z "/>
          <path transform="matrix(.6,0,0,.6,249.698,254.08502)" stroke-width="1" stroke-linecap="butt" stroke-miterlimit="1.45" stroke-linejoin="miter" fill="none" stroke="#000000" d="M -24.478 -168 L -4.4778 -168 L -4.4778 -148 L -24.478 -148 L -24.478 -168 Z "/>
          <path transform="matrix(.6,0,0,.6,251.498,255.88503)" d="M -4.4778 -168 L 15.522 -168 L 15.522 -148 L -4.4778 -148 L -4.4778 -168 Z " fill="#b3a691"/>
          <path transform="matrix(.6,0,0,.6,249.698,254.08502)" d="M -4.4778 -168 L 15.522 -168 L 15.522 -148 L -4.4778 -148 L -4.4778 -168 Z " fill="#eaeaea"/>
          <path transform="matrix(.6,0,0,.6,249.698,254.08502)" d="M 8.2322 -154.3 L 8.2322 -153.29 L 2.5447 -153.29 C 2.5447 -153.54 2.5863 -153.78 2.6697 -154.02 C 2.8155 -154.41 3.0473 -154.79 3.365 -155.16 C 3.6827 -155.54 4.1436 -155.97 4.7478 -156.46 C 5.6853 -157.23 6.3181 -157.84 6.6462 -158.29 C 6.9744 -158.73 7.1384 -159.16 7.1384 -159.55 C 7.1384 -159.97 6.9874 -160.32 6.6853 -160.61 C 6.3832 -160.89 5.9926 -161.04 5.5134 -161.04 C 5.003 -161.04 4.5968 -160.89 4.2947 -160.58 C 3.9926 -160.28 3.8363 -159.86 3.8259 -159.32 L 2.7478 -159.43 C 2.8207 -160.24 3.0994 -160.86 3.5837 -161.28 C 4.0681 -161.7 4.7218 -161.91 5.5447 -161.91 C 6.3676 -161.91 7.0186 -161.68 7.4978 -161.22 C 7.977 -160.77 8.2166 -160.2 8.2166 -159.52 C 8.2166 -159.18 8.1462 -158.84 8.0056 -158.51 C 7.865 -158.18 7.6306 -157.84 7.3025 -157.47 C 6.9744 -157.1 6.4353 -156.59 5.6853 -155.96 C 5.0499 -155.43 4.641 -155.06 4.4587 -154.87 C 4.2765 -154.68 4.128 -154.49 4.0134 -154.3 L 8.2322 -154.3 Z "/>
          <path transform="matrix(.6,0,0,.6,249.698,254.08502)" stroke-width="1" stroke-linecap="butt" stroke-miterlimit="1.45" stroke-linejoin="miter" fill="none" stroke="#000000" d="M -4.4778 -168 L 15.522 -168 L 15.522 -148 L -4.4778 -148 L -4.4778 -168 Z "/>
          <path transform="matrix(.6,0,0,.6,251.498,255.88503)" d="M 15.522 -168 L 35.522 -168 L 35.522 -148 L 15.522 -148 L 15.522 -168 Z " fill="#b3a691"/>
          <path transform="matrix(.6,0,0,.6,249.698,254.08502)" d="M 15.522 -168 L 35.522 -168 L 35.522 -148 L 15.522 -148 L 15.522 -168 Z " fill="#eaeaea"/>
          <path transform="matrix(.6,0,0,.6,249.698,254.08502)" d="M 22.685 -155.55 L 23.748 -155.69 C 23.862 -155.1 24.066 -154.67 24.357 -154.4 C 24.649 -154.14 25.003 -154 25.42 -154 C 25.92 -154 26.342 -154.18 26.685 -154.52 C 27.029 -154.86 27.201 -155.29 27.201 -155.8 C 27.201 -156.28 27.042 -156.68 26.724 -157 C 26.407 -157.31 26.003 -157.47 25.513 -157.47 C 25.316 -157.47 25.066 -157.43 24.763 -157.35 L 24.888 -158.29 C 24.961 -158.28 25.019 -158.27 25.06 -158.27 C 25.508 -158.27 25.912 -158.39 26.271 -158.62 C 26.631 -158.86 26.81 -159.22 26.81 -159.71 C 26.81 -160.09 26.68 -160.41 26.42 -160.67 C 26.159 -160.92 25.821 -161.05 25.404 -161.05 C 24.998 -161.05 24.657 -160.92 24.381 -160.66 C 24.105 -160.4 23.93 -160.02 23.857 -159.5 L 22.795 -159.69 C 22.92 -160.39 23.211 -160.93 23.67 -161.33 C 24.128 -161.72 24.696 -161.91 25.373 -161.91 C 25.842 -161.91 26.274 -161.81 26.67 -161.61 C 27.066 -161.4 27.368 -161.13 27.576 -160.79 C 27.784 -160.44 27.888 -160.07 27.888 -159.68 C 27.888 -159.31 27.789 -158.98 27.592 -158.67 C 27.394 -158.36 27.102 -158.12 26.717 -157.94 C 27.217 -157.83 27.607 -157.59 27.888 -157.22 C 28.17 -156.85 28.31 -156.38 28.31 -155.82 C 28.31 -155.07 28.037 -154.43 27.49 -153.91 C 26.943 -153.39 26.253 -153.13 25.42 -153.13 C 24.67 -153.13 24.045 -153.36 23.545 -153.81 C 23.045 -154.26 22.758 -154.84 22.685 -155.55 Z "/>
          <path transform="matrix(.6,0,0,.6,249.698,254.08502)" stroke-width="1" stroke-linecap="butt" stroke-miterlimit="1.45" stroke-linejoin="miter" fill="none" stroke="#000000" d="M 15.522 -168 L 35.522 -168 L 35.522 -148 L 15.522 -148 L 15.522 -168 Z "/>
          <path transform="matrix(.6,0,0,.6,251.498,255.88503)" d="M 35.522 -168 L 55.522 -168 L 55.522 -148 L 35.522 -148 L 35.522 -168 Z " fill="#b3a691"/>
          <path transform="matrix(.6,0,0,.6,249.698,254.08502)" d="M 35.522 -168 L 55.522 -168 L 55.522 -148 L 35.522 -148 L 35.522 -168 Z " fill="#eaeaea"/>
          <path transform="matrix(.6,0,0,.6,249.698,254.08502)" d="M 46.06 -153.29 L 46.06 -155.35 L 42.342 -155.35 L 42.342 -156.32 L 46.263 -161.88 L 47.123 -161.88 L 47.123 -156.32 L 48.279 -156.32 L 48.279 -155.35 L 47.123 -155.35 L 47.123 -153.29 L 46.06 -153.29 Z M 46.06 -156.32 L 46.06 -160.18 L 43.373 -156.32 L 46.06 -156.32 Z "/>
          <path transform="matrix(.6,0,0,.6,249.698,254.08502)" stroke-width="1" stroke-linecap="butt" stroke-miterlimit="1.45" stroke-linejoin="miter" fill="none" stroke="#000000" d="M 35.522 -168 L 55.522 -168 L 55.522 -148 L 35.522 -148 L 35.522 -168 Z "/>
          <path transform="matrix(.6,0,0,.6,251.498,255.88503)" d="M 55.522 -168 L 75.522 -168 L 75.522 -148 L 55.522 -148 L 55.522 -168 Z " fill="#b3a691"/>
          <path transform="matrix(.6,0,0,.6,249.698,254.08502)" d="M 55.522 -168 L 75.522 -168 L 75.522 -148 L 55.522 -148 L 55.522 -168 Z " fill="#eaeaea"/>
          <path transform="matrix(.6,0,0,.6,249.698,254.08502)" d="M 62.685 -155.54 L 63.795 -155.63 C 63.878 -155.09 64.068 -154.68 64.365 -154.41 C 64.662 -154.14 65.024 -154 65.451 -154 C 65.951 -154 66.378 -154.2 66.732 -154.58 C 67.086 -154.97 67.263 -155.47 67.263 -156.1 C 67.263 -156.7 67.094 -157.18 66.756 -157.53 C 66.417 -157.88 65.972 -158.05 65.42 -158.05 C 65.086 -158.05 64.782 -157.97 64.506 -157.82 C 64.23 -157.66 64.013 -157.46 63.857 -157.22 L 62.873 -157.35 L 63.701 -161.75 L 67.982 -161.75 L 67.982 -160.75 L 64.545 -160.75 L 64.092 -158.44 C 64.602 -158.81 65.138 -158.99 65.701 -158.99 C 66.451 -158.99 67.084 -158.73 67.599 -158.21 C 68.115 -157.69 68.373 -157.02 68.373 -156.19 C 68.373 -155.42 68.149 -154.75 67.701 -154.18 C 67.149 -153.49 66.399 -153.15 65.451 -153.15 C 64.67 -153.15 64.032 -153.36 63.537 -153.8 C 63.042 -154.24 62.758 -154.82 62.685 -155.54 Z "/>
          <path transform="matrix(.6,0,0,.6,249.698,254.08502)" stroke-width="1" stroke-linecap="butt" stroke-miterlimit="1.45" stroke-linejoin="miter" fill="none" stroke="#000000" d="M 55.522 -168 L 75.522 -168 L 75.522 -148 L 55.522 -148 L 55.522 -168 Z "/>
          <path transform="matrix(.6,0,0,.6,251.498,255.88503)" d="M 75.522 -168 L 95.522 -168 L 95.522 -148 L 75.522 -148 L 75.522 -168 Z " fill="#b3a691"/>
          <path transform="matrix(.6,0,0,.6,249.698,254.08502)" d="M 75.522 -168 L 95.522 -168 L 95.522 -148 L 75.522 -148 L 75.522 -168 Z " fill="#eaeaea"/>
          <path transform="matrix(.6,0,0,.6,249.698,254.08502)" d="M 88.154 -159.77 L 87.107 -159.69 C 87.013 -160.11 86.883 -160.41 86.717 -160.6 C 86.425 -160.9 86.071 -161.05 85.654 -161.05 C 85.321 -161.05 85.024 -160.96 84.763 -160.77 C 84.441 -160.52 84.183 -160.16 83.99 -159.7 C 83.797 -159.24 83.696 -158.58 83.685 -157.72 C 83.935 -158.11 84.245 -158.4 84.615 -158.58 C 84.985 -158.77 85.373 -158.86 85.779 -158.86 C 86.477 -158.86 87.073 -158.6 87.568 -158.08 C 88.063 -157.56 88.31 -156.9 88.31 -156.08 C 88.31 -155.54 88.193 -155.04 87.959 -154.58 C 87.724 -154.11 87.404 -153.76 86.998 -153.51 C 86.592 -153.27 86.133 -153.15 85.623 -153.15 C 84.737 -153.15 84.019 -153.47 83.467 -154.11 C 82.914 -154.76 82.638 -155.82 82.638 -157.3 C 82.638 -158.97 82.946 -160.18 83.56 -160.93 C 84.092 -161.58 84.81 -161.91 85.717 -161.91 C 86.394 -161.91 86.948 -161.72 87.381 -161.34 C 87.813 -160.96 88.071 -160.44 88.154 -159.77 Z M 83.857 -156.07 C 83.857 -155.7 83.933 -155.36 84.084 -155.03 C 84.235 -154.7 84.448 -154.45 84.724 -154.27 C 85 -154.09 85.295 -154 85.607 -154 C 86.045 -154 86.425 -154.18 86.748 -154.54 C 87.071 -154.9 87.232 -155.39 87.232 -156 C 87.232 -156.6 87.073 -157.07 86.756 -157.41 C 86.438 -157.75 86.039 -157.93 85.56 -157.93 C 85.081 -157.93 84.677 -157.75 84.349 -157.41 C 84.021 -157.07 83.857 -156.62 83.857 -156.07 Z "/>
          <path transform="matrix(.6,0,0,.6,249.698,254.08502)" stroke-width="1" stroke-linecap="butt" stroke-miterlimit="1.45" stroke-linejoin="miter" fill="none" stroke="#000000" d="M 75.522 -168 L 95.522 -168 L 95.522 -148 L 75.522 -148 L 75.522 -168 Z "/>
          <path transform="matrix(.6,0,0,.6,251.498,255.88503)" d="M 95.522 -168 L 115.52 -168 L 115.52 -148 L 95.522 -148 L 95.522 -168 Z " fill="#b3a691"/>
          <path transform="matrix(.6,0,0,.6,249.698,254.08502)" d="M 95.522 -168 L 115.52 -168 L 115.52 -148 L 95.522 -148 L 95.522 -168 Z " fill="#eaeaea"/>
          <path transform="matrix(.6,0,0,.6,249.698,254.08502)" d="M 102.75 -160.75 L 102.75 -161.77 L 108.31 -161.77 L 108.31 -160.94 C 107.77 -160.36 107.23 -159.59 106.69 -158.62 C 106.16 -157.66 105.74 -156.67 105.45 -155.65 C 105.23 -154.93 105.1 -154.14 105.04 -153.29 L 103.95 -153.29 C 103.96 -153.96 104.09 -154.78 104.35 -155.74 C 104.6 -156.7 104.97 -157.62 105.44 -158.5 C 105.92 -159.39 106.42 -160.14 106.97 -160.75 L 102.75 -160.75 Z "/>
          <path transform="matrix(.6,0,0,.6,249.698,254.08502)" stroke-width="1" stroke-linecap="butt" stroke-miterlimit="1.45" stroke-linejoin="miter" fill="none" stroke="#000000" d="M 95.522 -168 L 115.52 -168 L 115.52 -148 L 95.522 -148 L 95.522 -168 Z "/>
          <path transform="matrix(.6,0,0,.6,251.498,255.88503)" d="M 115.52 -168 L 135.52 -168 L 135.52 -148 L 115.52 -148 L 115.52 -168 Z " fill="#b3a691"/>
          <path transform="matrix(.6,0,0,.6,249.698,254.08502)" d="M 115.52 -168 L 135.52 -168 L 135.52 -148 L 115.52 -148 L 115.52 -168 Z " fill="#eaeaea"/>
          <path transform="matrix(.6,0,0,.6,249.698,254.08502)" d="M 124.31 -157.94 C 123.87 -158.11 123.55 -158.34 123.33 -158.64 C 123.12 -158.93 123.01 -159.29 123.01 -159.69 C 123.01 -160.32 123.24 -160.84 123.69 -161.27 C 124.15 -161.7 124.74 -161.91 125.48 -161.91 C 126.23 -161.91 126.84 -161.69 127.29 -161.25 C 127.75 -160.82 127.98 -160.29 127.98 -159.66 C 127.98 -159.27 127.88 -158.92 127.67 -158.63 C 127.46 -158.34 127.14 -158.11 126.72 -157.94 C 127.25 -157.78 127.65 -157.5 127.92 -157.11 C 128.19 -156.73 128.33 -156.27 128.33 -155.74 C 128.33 -155.01 128.07 -154.4 127.55 -153.9 C 127.04 -153.4 126.35 -153.15 125.5 -153.15 C 124.65 -153.15 123.97 -153.4 123.45 -153.9 C 122.93 -154.4 122.67 -155.02 122.67 -155.77 C 122.67 -156.33 122.81 -156.8 123.1 -157.18 C 123.39 -157.55 123.79 -157.81 124.31 -157.94 Z M 124.09 -159.74 C 124.09 -159.33 124.22 -159 124.49 -158.74 C 124.76 -158.48 125.1 -158.35 125.51 -158.35 C 125.92 -158.35 126.25 -158.48 126.51 -158.73 C 126.77 -158.99 126.9 -159.3 126.9 -159.68 C 126.9 -160.06 126.77 -160.39 126.5 -160.65 C 126.23 -160.92 125.89 -161.05 125.5 -161.05 C 125.09 -161.05 124.76 -160.92 124.49 -160.66 C 124.22 -160.4 124.09 -160.09 124.09 -159.74 Z M 123.76 -155.77 C 123.76 -155.47 123.83 -155.18 123.97 -154.9 C 124.11 -154.61 124.33 -154.4 124.61 -154.24 C 124.89 -154.08 125.19 -154 125.51 -154 C 126.01 -154 126.43 -154.17 126.76 -154.49 C 127.08 -154.81 127.25 -155.22 127.25 -155.72 C 127.25 -156.23 127.08 -156.66 126.75 -156.99 C 126.41 -157.32 125.99 -157.49 125.48 -157.49 C 124.98 -157.49 124.57 -157.33 124.25 -157 C 123.92 -156.67 123.76 -156.26 123.76 -155.77 Z "/>
          <path transform="matrix(.6,0,0,.6,249.698,254.08502)" stroke-width="1" stroke-linecap="butt" stroke-miterlimit="1.45" stroke-linejoin="miter" fill="none" stroke="#000000" d="M 115.52 -168 L 135.52 -168 L 135.52 -148 L 115.52 -148 L 115.52 -168 Z "/>
          <path transform="matrix(.6,0,0,.6,251.498,255.88503)" d="M 135.52 -168 L 155.52 -168 L 155.52 -148 L 135.52 -148 L 135.52 -168 Z " fill="#b3a691"/>
          <path transform="matrix(.6,0,0,.6,249.698,254.08502)" d="M 135.52 -168 L 155.52 -168 L 155.52 -148 L 135.52 -148 L 135.52 -168 Z " fill="#eaeaea"/>
          <path transform="matrix(.6,0,0,.6,249.698,254.08502)" d="M 142.84 -155.27 L 143.86 -155.36 C 143.94 -154.89 144.1 -154.54 144.35 -154.33 C 144.59 -154.11 144.9 -154 145.28 -154 C 145.6 -154 145.89 -154.08 146.13 -154.23 C 146.38 -154.38 146.58 -154.58 146.73 -154.83 C 146.89 -155.07 147.02 -155.4 147.12 -155.83 C 147.23 -156.25 147.28 -156.68 147.28 -157.11 C 147.28 -157.17 147.28 -157.24 147.28 -157.33 C 147.07 -157 146.78 -156.73 146.42 -156.51 C 146.06 -156.3 145.66 -156.19 145.23 -156.19 C 144.51 -156.19 143.91 -156.45 143.42 -156.97 C 142.93 -157.48 142.69 -158.16 142.69 -159 C 142.69 -159.88 142.94 -160.58 143.46 -161.11 C 143.97 -161.65 144.62 -161.91 145.39 -161.91 C 145.94 -161.91 146.45 -161.76 146.91 -161.46 C 147.38 -161.16 147.73 -160.73 147.97 -160.17 C 148.21 -159.61 148.33 -158.81 148.33 -157.75 C 148.33 -156.66 148.21 -155.79 147.97 -155.14 C 147.74 -154.49 147.39 -153.99 146.91 -153.65 C 146.44 -153.31 145.89 -153.15 145.26 -153.15 C 144.59 -153.15 144.03 -153.33 143.61 -153.7 C 143.18 -154.07 142.92 -154.59 142.84 -155.27 Z M 147.15 -159.07 C 147.15 -159.67 147 -160.15 146.68 -160.5 C 146.36 -160.86 145.97 -161.04 145.51 -161.04 C 145.04 -161.04 144.64 -160.85 144.29 -160.47 C 143.94 -160.09 143.76 -159.59 143.76 -158.97 C 143.76 -158.43 143.93 -157.99 144.26 -157.65 C 144.6 -157.3 145 -157.13 145.48 -157.13 C 145.97 -157.13 146.37 -157.3 146.69 -157.65 C 147 -157.99 147.15 -158.46 147.15 -159.07 Z "/>
          <path transform="matrix(.6,0,0,.6,249.698,254.08502)" stroke-width="1" stroke-linecap="butt" stroke-miterlimit="1.45" stroke-linejoin="miter" fill="none" stroke="#000000" d="M 135.52 -168 L 155.52 -168 L 155.52 -148 L 135.52 -148 L 135.52 -168 Z "/>
          <path transform="matrix(.6,0,0,.6,251.498,255.88503)" d="M 155.52 -168 L 195.52 -168 L 195.52 -148 L 155.52 -148 L 155.52 -168 Z " fill="#b3a691"/>
          <path transform="matrix(.6,0,0,.6,249.698,254.08502)" d="M 155.52 -168 L 195.52 -168 L 195.52 -148 L 155.52 -148 L 155.52 -168 Z " fill="#eaeaea"/>
          <path transform="matrix(.6,0,0,.6,249.698,254.08502)" d="M 171.61 -153.29 L 171.61 -154.49 L 172.82 -154.49 L 172.82 -153.29 L 171.61 -153.29 Z M 174.95 -153.29 L 174.95 -154.49 L 176.15 -154.49 L 176.15 -153.29 L 174.95 -153.29 Z M 178.28 -153.29 L 178.28 -154.49 L 179.49 -154.49 L 179.49 -153.29 L 178.28 -153.29 Z "/>
          <path transform="matrix(.6,0,0,.6,249.698,254.08502)" stroke-width="1" stroke-linecap="butt" stroke-miterlimit="1.45" stroke-linejoin="miter" fill="none" stroke="#000000" d="M 155.52 -168 L 195.52 -168 L 195.52 -148 L 155.52 -148 L 155.52 -168 Z "/>
          <path transform="matrix(.6,0,0,.6,249.698,254.08502)" d="M 25.522 -218 L 115.52 -218 L 115.52 -188 L 25.522 -188 L 25.522 -218 Z " fill="#ffffff"/>
          <path transform="matrix(.6,0,0,.6,249.698,254.08502)" d="M 56.172 -198.29 L 59.469 -206.88 L 60.687 -206.88 L 64.203 -198.29 L 62.922 -198.29 L 61.906 -200.9 L 58.328 -200.9 L 57.375 -198.29 L 56.172 -198.29 Z M 58.656 -201.82 L 61.562 -201.82 L 60.672 -204.19 C 60.39 -204.91 60.187 -205.5 60.062 -205.97 C 59.948 -205.42 59.791 -204.87 59.594 -204.33 L 58.656 -201.82 Z M 64.972 -198.29 L 64.972 -204.5 L 65.926 -204.5 L 65.926 -203.57 C 66.165 -204 66.386 -204.29 66.59 -204.43 C 66.793 -204.58 67.019 -204.65 67.269 -204.65 C 67.623 -204.65 67.983 -204.54 68.347 -204.32 L 67.988 -203.33 C 67.728 -203.49 67.472 -203.57 67.222 -203.57 C 66.983 -203.57 66.772 -203.5 66.59 -203.36 C 66.407 -203.22 66.28 -203.02 66.207 -202.77 C 66.082 -202.4 66.019 -201.99 66.019 -201.55 L 66.019 -198.29 L 64.972 -198.29 Z M 68.969 -198.29 L 68.969 -204.5 L 69.922 -204.5 L 69.922 -203.57 C 70.161 -204 70.383 -204.29 70.586 -204.43 C 70.789 -204.58 71.015 -204.65 71.265 -204.65 C 71.62 -204.65 71.979 -204.54 72.344 -204.32 L 71.984 -203.33 C 71.724 -203.49 71.469 -203.57 71.219 -203.57 C 70.979 -203.57 70.768 -203.5 70.586 -203.36 C 70.403 -203.22 70.276 -203.02 70.203 -202.77 C 70.078 -202.4 70.015 -201.99 70.015 -201.55 L 70.015 -198.29 L 68.969 -198.29 Z M 77.043 -199.05 C 76.647 -198.72 76.269 -198.48 75.91 -198.35 C 75.551 -198.21 75.163 -198.15 74.746 -198.15 C 74.058 -198.15 73.532 -198.31 73.168 -198.65 C 72.803 -198.98 72.621 -199.41 72.621 -199.93 C 72.621 -200.23 72.689 -200.51 72.824 -200.76 C 72.959 -201.02 73.142 -201.22 73.371 -201.37 C 73.6 -201.52 73.855 -201.64 74.136 -201.71 C 74.334 -201.77 74.647 -201.83 75.074 -201.88 C 75.918 -201.97 76.543 -202.09 76.949 -202.24 C 76.949 -202.39 76.949 -202.47 76.949 -202.5 C 76.949 -202.94 76.85 -203.25 76.652 -203.43 C 76.381 -203.66 75.98 -203.77 75.449 -203.77 C 74.959 -203.77 74.595 -203.68 74.355 -203.51 C 74.116 -203.34 73.939 -203.04 73.824 -202.6 L 72.793 -202.74 C 72.886 -203.18 73.043 -203.53 73.261 -203.8 C 73.48 -204.07 73.793 -204.28 74.199 -204.43 C 74.605 -204.57 75.074 -204.65 75.605 -204.65 C 76.136 -204.65 76.569 -204.58 76.902 -204.46 C 77.235 -204.33 77.48 -204.18 77.636 -203.99 C 77.793 -203.8 77.902 -203.56 77.965 -203.27 C 77.996 -203.09 78.011 -202.77 78.011 -202.3 L 78.011 -200.9 C 78.011 -199.92 78.035 -199.3 78.082 -199.04 C 78.129 -198.78 78.22 -198.53 78.355 -198.29 L 77.246 -198.29 C 77.142 -198.5 77.074 -198.76 77.043 -199.05 Z M 76.949 -201.41 C 76.564 -201.25 75.991 -201.12 75.23 -201 C 74.793 -200.94 74.485 -200.87 74.308 -200.79 C 74.131 -200.72 73.993 -200.6 73.894 -200.46 C 73.795 -200.31 73.746 -200.15 73.746 -199.96 C 73.746 -199.68 73.853 -199.44 74.066 -199.25 C 74.28 -199.07 74.59 -198.97 74.996 -198.97 C 75.402 -198.97 75.764 -199.06 76.082 -199.24 C 76.399 -199.42 76.631 -199.66 76.777 -199.97 C 76.892 -200.21 76.949 -200.56 76.949 -201.02 L 76.949 -201.41 Z M 79.607 -195.9 L 79.482 -196.88 C 79.711 -196.82 79.914 -196.79 80.092 -196.79 C 80.321 -196.79 80.506 -196.83 80.646 -196.9 C 80.787 -196.98 80.904 -197.09 80.998 -197.22 C 81.06 -197.34 81.17 -197.6 81.326 -198.02 C 81.336 -198.07 81.368 -198.16 81.42 -198.27 L 79.045 -204.5 L 80.185 -204.5 L 81.482 -200.91 C 81.649 -200.45 81.8 -199.97 81.935 -199.46 C 82.06 -199.95 82.206 -200.42 82.373 -200.88 L 83.701 -204.5 L 84.748 -204.5 L 82.388 -198.18 C 82.128 -197.5 81.93 -197.03 81.795 -196.77 C 81.607 -196.42 81.391 -196.16 81.146 -196 C 80.901 -195.84 80.612 -195.75 80.279 -195.75 C 80.081 -195.75 79.857 -195.8 79.607 -195.9 Z "/>
          <path transform="matrix(.6,0,0,.6,249.698,254.08502)" stroke-width="1" stroke-linecap="butt" stroke-miterlimit="1.45" stroke-linejoin="miter" fill="none" stroke="#000000" d="M 25.522 -218 L 115.52 -218 L 115.52 -188 L 25.522 -188 L 25.522 -218 Z "/>
        </g>
      </g>
      <clipPath id="cp44">
        <path transform="matrix(.6,0,0,.6,213.698,114.28502)" d="M 0 0 L 0 103 L 274 103 L 274 0 Z "/>
      </clipPath>
      <g clip-path="url(#cp44)"/>
    </g>
  </g>
</svg>