<?xml version="1.0" encoding="utf-8"?>
<svg viewBox="204.114 -86.027 162.6 138" xmlns="http://www.w3.org/2000/svg">
  <clipPath id="cp55">
    <path transform="matrix(.6,0,0,-.6,214.598,252.28504)" d="M 0 0 L 271 0 L 271 230 L 0 230 Z "/>
  </clipPath>
  <g clip-path="url(#cp55)" transform="matrix(1, 0, 0, 1, -10.484425, -200.312164)">
    <clipPath id="cp56">
      <path transform="matrix(.6,0,0,.6,214.598,114.285037)" d="M 0 0 L 271 0 L 271 230 L 0 230 Z "/>
    </clipPath>
    <g clip-path="url(#cp56)">
      <clipPath id="cp57">
        <path transform="matrix(.6,0,0,.6,214.598,114.285037)" d="M 0 0 L 0 230 L 271 230 L 271 0 Z "/>
      </clipPath>
      <g clip-path="url(#cp57)">
        <clipPath id="cp58">
          <path transform="matrix(.6,0,0,.6,214.598,114.285037)" d="M 0 0 L 271 0 L 271 230 L 0 230 Z "/>
        </clipPath>
        <g clip-path="url(#cp58)">
          <path transform="matrix(.6,0,0,.6,252.99802,239.08504)" d="M -64 -208 L 207 -208 L 207 22 L -64 22 L -64 -208 Z " fill="#ffffff"/>
          <path transform="matrix(.6,0,0,.6,254.79802,240.88504)" d="M -48.984 -112 L -28.984 -112 L -28.984 -92 L -48.984 -92 L -48.984 -112 Z " fill="#b3a691"/>
          <path transform="matrix(.6,0,0,.6,252.99802,239.08504)" d="M -48.984 -112 L -28.984 -112 L -28.984 -92 L -48.984 -92 L -48.984 -112 Z " fill="#eaeaea"/>
          <path transform="matrix(.6,0,0,.6,252.99802,239.08504)" d="M -41.821 -101.52 C -41.821 -102.54 -41.717 -103.36 -41.509 -103.98 C -41.3 -104.6 -40.99 -105.08 -40.579 -105.41 C -40.167 -105.74 -39.649 -105.91 -39.024 -105.91 C -38.566 -105.91 -38.162 -105.82 -37.813 -105.63 C -37.464 -105.44 -37.175 -105.17 -36.946 -104.83 C -36.717 -104.48 -36.54 -104.05 -36.415 -103.55 C -36.29 -103.05 -36.227 -102.37 -36.227 -101.52 C -36.227 -100.51 -36.329 -99.698 -36.532 -99.083 C -36.735 -98.468 -37.042 -97.992 -37.454 -97.653 C -37.865 -97.315 -38.389 -97.146 -39.024 -97.146 C -39.847 -97.146 -40.498 -97.442 -40.977 -98.036 C -41.54 -98.744 -41.821 -99.906 -41.821 -101.52 Z M -40.743 -101.52 C -40.743 -100.11 -40.576 -99.177 -40.243 -98.708 C -39.91 -98.239 -39.503 -98.005 -39.024 -98.005 C -38.535 -98.005 -38.126 -98.239 -37.798 -98.708 C -37.469 -99.177 -37.305 -100.11 -37.305 -101.52 C -37.305 -102.94 -37.469 -103.88 -37.798 -104.34 C -38.126 -104.8 -38.54 -105.04 -39.04 -105.04 C -39.519 -105.04 -39.904 -104.83 -40.196 -104.43 C -40.561 -103.91 -40.743 -102.94 -40.743 -101.52 Z "/>
          <path transform="matrix(.6,0,0,.6,252.99802,239.08504)" stroke-width="1" stroke-linecap="butt" stroke-miterlimit="1.45" stroke-linejoin="miter" fill="none" stroke="#000000" d="M -48.984 -112 L -28.984 -112 L -28.984 -92 L -48.984 -92 L -48.984 -112 Z "/>
          <path transform="matrix(.6,0,0,.6,254.79802,240.88504)" d="M -28.984 -112 L -8.9841 -112 L -8.9841 -92 L -28.984 -92 L -28.984 -112 Z " fill="#b3a691"/>
          <path transform="matrix(.6,0,0,.6,252.99802,239.08504)" d="M -28.984 -112 L -8.9841 -112 L -8.9841 -92 L -28.984 -92 L -28.984 -112 Z " fill="#eaeaea"/>
          <path transform="matrix(.6,0,0,.6,252.99802,239.08504)" d="M -17.852 -97.286 L -18.899 -97.286 L -18.899 -104 C -19.16 -103.77 -19.496 -103.52 -19.907 -103.28 C -20.318 -103.03 -20.686 -102.85 -21.009 -102.74 L -21.009 -103.75 C -20.425 -104.04 -19.912 -104.37 -19.469 -104.76 C -19.027 -105.15 -18.712 -105.54 -18.524 -105.91 L -17.852 -105.91 L -17.852 -97.286 Z "/>
          <path transform="matrix(.6,0,0,.6,252.99802,239.08504)" stroke-width="1" stroke-linecap="butt" stroke-miterlimit="1.45" stroke-linejoin="miter" fill="none" stroke="#000000" d="M -28.984 -112 L -8.9841 -112 L -8.9841 -92 L -28.984 -92 L -28.984 -112 Z "/>
          <path transform="matrix(.6,0,0,.6,254.79802,240.88504)" d="M -8.9841 -112 L 11.016 -112 L 11.016 -92 L -8.9841 -92 L -8.9841 -112 Z " fill="#b3a691"/>
          <path transform="matrix(.6,0,0,.6,252.99802,239.08504)" d="M -8.9841 -112 L 11.016 -112 L 11.016 -92 L -8.9841 -92 L -8.9841 -112 Z " fill="#eaeaea"/>
          <path transform="matrix(.6,0,0,.6,252.99802,239.08504)" d="M 3.7258 -98.302 L 3.7258 -97.286 L -1.9617 -97.286 C -1.9617 -97.536 -1.92 -97.781 -1.8367 -98.021 C -1.6908 -98.406 -1.4591 -98.786 -1.1414 -99.161 C -.82365 -99.536 -.36271 -99.968 .24146 -100.46 C 1.179 -101.23 1.8118 -101.84 2.1399 -102.29 C 2.468 -102.73 2.6321 -103.16 2.6321 -103.55 C 2.6321 -103.97 2.481 -104.32 2.179 -104.61 C 1.8769 -104.89 1.4863 -105.04 1.0071 -105.04 C .49667 -105.04 .090417 -104.89 -.21167 -104.58 C -.51375 -104.28 -.67 -103.86 -.68042 -103.32 L -1.7585 -103.43 C -1.6856 -104.24 -1.407 -104.86 -.9226 -105.28 C -.43823 -105.7 .21542 -105.91 1.0383 -105.91 C 1.8613 -105.91 2.5123 -105.68 2.9915 -105.22 C 3.4706 -104.77 3.7102 -104.2 3.7102 -103.52 C 3.7102 -103.18 3.6399 -102.84 3.4993 -102.51 C 3.3586 -102.18 3.1243 -101.84 2.7961 -101.47 C 2.468 -101.1 1.929 -100.59 1.179 -99.958 C .54354 -99.427 .13469 -99.065 -.047604 -98.872 C -.2299 -98.679 -.37833 -98.489 -.49292 -98.302 L 3.7258 -98.302 Z "/>
          <path transform="matrix(.6,0,0,.6,252.99802,239.08504)" stroke-width="1" stroke-linecap="butt" stroke-miterlimit="1.45" stroke-linejoin="miter" fill="none" stroke="#000000" d="M -8.9841 -112 L 11.016 -112 L 11.016 -92 L -8.9841 -92 L -8.9841 -112 Z "/>
          <path transform="matrix(.6,0,0,.6,254.79802,240.88504)" d="M 11.016 -112 L 31.016 -112 L 31.016 -92 L 11.016 -92 L 11.016 -112 Z " fill="#b3a691"/>
          <path transform="matrix(.6,0,0,.6,252.99802,239.08504)" d="M 11.016 -112 L 31.016 -112 L 31.016 -92 L 11.016 -92 L 11.016 -112 Z " fill="#eaeaea"/>
          <path transform="matrix(.6,0,0,.6,252.99802,239.08504)" d="M 18.179 -99.552 L 19.241 -99.692 C 19.356 -99.099 19.559 -98.669 19.851 -98.403 C 20.143 -98.138 20.497 -98.005 20.913 -98.005 C 21.413 -98.005 21.835 -98.177 22.179 -98.521 C 22.523 -98.864 22.695 -99.291 22.695 -99.802 C 22.695 -100.28 22.536 -100.68 22.218 -101 C 21.9 -101.31 21.497 -101.47 21.007 -101.47 C 20.809 -101.47 20.559 -101.43 20.257 -101.35 L 20.382 -102.29 C 20.455 -102.28 20.512 -102.27 20.554 -102.27 C 21.002 -102.27 21.406 -102.39 21.765 -102.62 C 22.124 -102.86 22.304 -103.22 22.304 -103.71 C 22.304 -104.09 22.174 -104.41 21.913 -104.67 C 21.653 -104.92 21.314 -105.05 20.898 -105.05 C 20.491 -105.05 20.15 -104.92 19.874 -104.66 C 19.598 -104.4 19.424 -104.02 19.351 -103.5 L 18.288 -103.69 C 18.413 -104.39 18.705 -104.93 19.163 -105.33 C 19.622 -105.72 20.189 -105.91 20.866 -105.91 C 21.335 -105.91 21.768 -105.81 22.163 -105.61 C 22.559 -105.4 22.861 -105.13 23.07 -104.79 C 23.278 -104.44 23.382 -104.07 23.382 -103.68 C 23.382 -103.31 23.283 -102.98 23.085 -102.67 C 22.887 -102.36 22.596 -102.12 22.21 -101.94 C 22.71 -101.83 23.101 -101.59 23.382 -101.22 C 23.663 -100.85 23.804 -100.38 23.804 -99.817 C 23.804 -99.067 23.531 -98.432 22.984 -97.911 C 22.437 -97.39 21.747 -97.13 20.913 -97.13 C 20.163 -97.13 19.538 -97.356 19.038 -97.81 C 18.538 -98.263 18.252 -98.843 18.179 -99.552 Z "/>
          <path transform="matrix(.6,0,0,.6,252.99802,239.08504)" stroke-width="1" stroke-linecap="butt" stroke-miterlimit="1.45" stroke-linejoin="miter" fill="none" stroke="#000000" d="M 11.016 -112 L 31.016 -112 L 31.016 -92 L 11.016 -92 L 11.016 -112 Z "/>
          <path transform="matrix(.6,0,0,.6,254.79802,240.88504)" d="M 31.016 -112 L 51.016 -112 L 51.016 -92 L 31.016 -92 L 31.016 -112 Z " fill="#b3a691"/>
          <path transform="matrix(.6,0,0,.6,252.99802,239.08504)" d="M 31.016 -112 L 51.016 -112 L 51.016 -92 L 31.016 -92 L 31.016 -112 Z " fill="#eaeaea"/>
          <path transform="matrix(.6,0,0,.6,252.99802,239.08504)" d="M 41.554 -97.286 L 41.554 -99.349 L 37.835 -99.349 L 37.835 -100.32 L 41.757 -105.88 L 42.616 -105.88 L 42.616 -100.32 L 43.773 -100.32 L 43.773 -99.349 L 42.616 -99.349 L 42.616 -97.286 L 41.554 -97.286 Z M 41.554 -100.32 L 41.554 -104.18 L 38.866 -100.32 L 41.554 -100.32 Z "/>
          <path transform="matrix(.6,0,0,.6,252.99802,239.08504)" stroke-width="1" stroke-linecap="butt" stroke-miterlimit="1.45" stroke-linejoin="miter" fill="none" stroke="#000000" d="M 31.016 -112 L 51.016 -112 L 51.016 -92 L 31.016 -92 L 31.016 -112 Z "/>
          <path transform="matrix(.6,0,0,.6,254.79802,240.88504)" d="M 51.016 -112 L 71.016 -112 L 71.016 -92 L 51.016 -92 L 51.016 -112 Z " fill="#b3a691"/>
          <path transform="matrix(.6,0,0,.6,252.99802,239.08504)" d="M 51.016 -112 L 71.016 -112 L 71.016 -92 L 51.016 -92 L 51.016 -112 Z " fill="#eaeaea"/>
          <path transform="matrix(.6,0,0,.6,252.99802,239.08504)" d="M 58.179 -99.536 L 59.288 -99.63 C 59.372 -99.088 59.562 -98.682 59.859 -98.411 C 60.156 -98.14 60.518 -98.005 60.945 -98.005 C 61.445 -98.005 61.872 -98.198 62.226 -98.583 C 62.58 -98.968 62.757 -99.474 62.757 -100.1 C 62.757 -100.7 62.588 -101.18 62.249 -101.53 C 61.911 -101.88 61.465 -102.05 60.913 -102.05 C 60.58 -102.05 60.275 -101.97 59.999 -101.82 C 59.723 -101.66 59.507 -101.46 59.351 -101.22 L 58.366 -101.35 L 59.195 -105.75 L 63.476 -105.75 L 63.476 -104.75 L 60.038 -104.75 L 59.585 -102.44 C 60.096 -102.81 60.632 -102.99 61.195 -102.99 C 61.945 -102.99 62.577 -102.73 63.093 -102.21 C 63.609 -101.69 63.866 -101.02 63.866 -100.19 C 63.866 -99.422 63.643 -98.75 63.195 -98.177 C 62.643 -97.489 61.893 -97.146 60.945 -97.146 C 60.163 -97.146 59.525 -97.364 59.031 -97.802 C 58.536 -98.239 58.252 -98.817 58.179 -99.536 Z "/>
          <path transform="matrix(.6,0,0,.6,252.99802,239.08504)" stroke-width="1" stroke-linecap="butt" stroke-miterlimit="1.45" stroke-linejoin="miter" fill="none" stroke="#000000" d="M 51.016 -112 L 71.016 -112 L 71.016 -92 L 51.016 -92 L 51.016 -112 Z "/>
          <path transform="matrix(.6,0,0,.6,254.79802,240.88504)" d="M 71.016 -112 L 91.016 -112 L 91.016 -92 L 71.016 -92 L 71.016 -112 Z " fill="#b3a691"/>
          <path transform="matrix(.6,0,0,.6,252.99802,239.08504)" d="M 71.016 -112 L 91.016 -112 L 91.016 -92 L 71.016 -92 L 71.016 -112 Z " fill="#eaeaea"/>
          <path transform="matrix(.6,0,0,.6,252.99802,239.08504)" d="M 83.648 -103.77 L 82.601 -103.69 C 82.507 -104.11 82.377 -104.41 82.21 -104.6 C 81.919 -104.9 81.564 -105.05 81.148 -105.05 C 80.814 -105.05 80.518 -104.96 80.257 -104.77 C 79.934 -104.52 79.676 -104.16 79.484 -103.7 C 79.291 -103.24 79.189 -102.58 79.179 -101.72 C 79.429 -102.11 79.739 -102.4 80.109 -102.58 C 80.478 -102.77 80.866 -102.86 81.273 -102.86 C 81.971 -102.86 82.567 -102.6 83.062 -102.08 C 83.557 -101.56 83.804 -100.9 83.804 -100.08 C 83.804 -99.541 83.687 -99.039 83.452 -98.575 C 83.218 -98.112 82.898 -97.757 82.491 -97.513 C 82.085 -97.268 81.627 -97.146 81.116 -97.146 C 80.231 -97.146 79.512 -97.468 78.96 -98.114 C 78.408 -98.76 78.132 -99.823 78.132 -101.3 C 78.132 -102.97 78.439 -104.18 79.054 -104.93 C 79.585 -105.58 80.304 -105.91 81.21 -105.91 C 81.887 -105.91 82.442 -105.72 82.874 -105.34 C 83.307 -104.96 83.564 -104.44 83.648 -103.77 Z M 79.351 -100.07 C 79.351 -99.703 79.426 -99.356 79.577 -99.028 C 79.728 -98.7 79.942 -98.448 80.218 -98.271 C 80.494 -98.093 80.788 -98.005 81.101 -98.005 C 81.538 -98.005 81.919 -98.185 82.241 -98.544 C 82.564 -98.903 82.726 -99.39 82.726 -100 C 82.726 -100.6 82.567 -101.07 82.249 -101.41 C 81.932 -101.75 81.533 -101.93 81.054 -101.93 C 80.575 -101.93 80.171 -101.75 79.843 -101.41 C 79.515 -101.07 79.351 -100.62 79.351 -100.07 Z "/>
          <path transform="matrix(.6,0,0,.6,252.99802,239.08504)" stroke-width="1" stroke-linecap="butt" stroke-miterlimit="1.45" stroke-linejoin="miter" fill="none" stroke="#000000" d="M 71.016 -112 L 91.016 -112 L 91.016 -92 L 71.016 -92 L 71.016 -112 Z "/>
          <path transform="matrix(.6,0,0,.6,254.79802,240.88504)" d="M 91.016 -112 L 111.02 -112 L 111.02 -92 L 91.016 -92 L 91.016 -112 Z " fill="#b3a691"/>
          <path transform="matrix(.6,0,0,.6,252.99802,239.08504)" d="M 91.016 -112 L 111.02 -112 L 111.02 -92 L 91.016 -92 L 91.016 -112 Z " fill="#eaeaea"/>
          <path transform="matrix(.6,0,0,.6,252.99802,239.08504)" d="M 98.241 -104.75 L 98.241 -105.77 L 103.8 -105.77 L 103.8 -104.94 C 103.26 -104.36 102.72 -103.59 102.19 -102.62 C 101.65 -101.66 101.24 -100.67 100.94 -99.646 C 100.73 -98.927 100.59 -98.14 100.54 -97.286 L 99.445 -97.286 C 99.455 -97.963 99.588 -98.781 99.843 -99.739 C 100.1 -100.7 100.46 -101.62 100.94 -102.5 C 101.41 -103.39 101.92 -104.14 102.46 -104.75 L 98.241 -104.75 Z "/>
          <path transform="matrix(.6,0,0,.6,252.99802,239.08504)" stroke-width="1" stroke-linecap="butt" stroke-miterlimit="1.45" stroke-linejoin="miter" fill="none" stroke="#000000" d="M 91.016 -112 L 111.02 -112 L 111.02 -92 L 91.016 -92 L 91.016 -112 Z "/>
          <path transform="matrix(.6,0,0,.6,254.79802,240.88504)" d="M 111.02 -112 L 131.02 -112 L 131.02 -92 L 111.02 -92 L 111.02 -112 Z " fill="#b3a691"/>
          <path transform="matrix(.6,0,0,.6,252.99802,239.08504)" d="M 111.02 -112 L 131.02 -112 L 131.02 -92 L 111.02 -92 L 111.02 -112 Z " fill="#eaeaea"/>
          <path transform="matrix(.6,0,0,.6,252.99802,239.08504)" d="M 119.8 -101.94 C 119.37 -102.11 119.04 -102.34 118.83 -102.64 C 118.61 -102.93 118.51 -103.29 118.51 -103.69 C 118.51 -104.32 118.73 -104.84 119.19 -105.27 C 119.64 -105.7 120.24 -105.91 120.98 -105.91 C 121.73 -105.91 122.33 -105.69 122.79 -105.25 C 123.25 -104.82 123.48 -104.29 123.48 -103.66 C 123.48 -103.27 123.37 -102.92 123.16 -102.63 C 122.96 -102.34 122.64 -102.11 122.21 -101.94 C 122.74 -101.78 123.14 -101.5 123.41 -101.11 C 123.68 -100.73 123.82 -100.27 123.82 -99.739 C 123.82 -99.01 123.56 -98.396 123.05 -97.896 C 122.53 -97.396 121.85 -97.146 120.99 -97.146 C 120.15 -97.146 119.47 -97.396 118.94 -97.896 C 118.42 -98.396 118.16 -99.021 118.16 -99.771 C 118.16 -100.33 118.31 -100.8 118.59 -101.18 C 118.88 -101.55 119.28 -101.81 119.8 -101.94 Z M 119.59 -103.74 C 119.59 -103.33 119.72 -103 119.98 -102.74 C 120.25 -102.48 120.59 -102.35 121.01 -102.35 C 121.41 -102.35 121.75 -102.48 122.01 -102.73 C 122.27 -102.99 122.4 -103.3 122.4 -103.68 C 122.4 -104.06 122.26 -104.39 121.99 -104.65 C 121.72 -104.92 121.39 -105.05 120.99 -105.05 C 120.59 -105.05 120.25 -104.92 119.98 -104.66 C 119.72 -104.4 119.59 -104.09 119.59 -103.74 Z M 119.26 -99.771 C 119.26 -99.468 119.33 -99.177 119.47 -98.896 C 119.61 -98.614 119.82 -98.396 120.1 -98.239 C 120.38 -98.083 120.68 -98.005 121.01 -98.005 C 121.51 -98.005 121.92 -98.166 122.25 -98.489 C 122.58 -98.812 122.74 -99.224 122.74 -99.724 C 122.74 -100.23 122.57 -100.66 122.24 -100.99 C 121.91 -101.32 121.49 -101.49 120.98 -101.49 C 120.48 -101.49 120.06 -101.33 119.74 -101 C 119.42 -100.67 119.26 -100.26 119.26 -99.771 Z "/>
          <path transform="matrix(.6,0,0,.6,252.99802,239.08504)" stroke-width="1" stroke-linecap="butt" stroke-miterlimit="1.45" stroke-linejoin="miter" fill="none" stroke="#000000" d="M 111.02 -112 L 131.02 -112 L 131.02 -92 L 111.02 -92 L 111.02 -112 Z "/>
          <path transform="matrix(.6,0,0,.6,254.79802,240.88504)" d="M 131.02 -112 L 151.02 -112 L 151.02 -92 L 131.02 -92 L 131.02 -112 Z " fill="#b3a691"/>
          <path transform="matrix(.6,0,0,.6,252.99802,239.08504)" d="M 131.02 -112 L 151.02 -112 L 151.02 -92 L 131.02 -92 L 131.02 -112 Z " fill="#eaeaea"/>
          <path transform="matrix(.6,0,0,.6,252.99802,239.08504)" d="M 138.34 -99.271 L 139.35 -99.364 C 139.43 -98.885 139.6 -98.539 139.84 -98.325 C 140.09 -98.112 140.4 -98.005 140.77 -98.005 C 141.1 -98.005 141.38 -98.08 141.62 -98.231 C 141.87 -98.382 142.07 -98.58 142.23 -98.825 C 142.38 -99.07 142.51 -99.403 142.62 -99.825 C 142.72 -100.25 142.77 -100.68 142.77 -101.11 C 142.77 -101.17 142.77 -101.24 142.77 -101.33 C 142.56 -101 142.28 -100.73 141.91 -100.51 C 141.55 -100.3 141.15 -100.19 140.73 -100.19 C 140.01 -100.19 139.4 -100.45 138.91 -100.97 C 138.42 -101.48 138.18 -102.16 138.18 -103 C 138.18 -103.88 138.44 -104.58 138.95 -105.11 C 139.47 -105.65 140.11 -105.91 140.88 -105.91 C 141.43 -105.91 141.94 -105.76 142.41 -105.46 C 142.87 -105.16 143.22 -104.73 143.46 -104.17 C 143.7 -103.61 143.82 -102.81 143.82 -101.75 C 143.82 -100.66 143.7 -99.789 143.47 -99.138 C 143.23 -98.487 142.88 -97.992 142.41 -97.653 C 141.93 -97.315 141.38 -97.146 140.76 -97.146 C 140.08 -97.146 139.53 -97.33 139.1 -97.7 C 138.67 -98.07 138.42 -98.593 138.34 -99.271 Z M 142.65 -103.07 C 142.65 -103.67 142.49 -104.15 142.17 -104.5 C 141.85 -104.86 141.47 -105.04 141.01 -105.04 C 140.54 -105.04 140.13 -104.85 139.78 -104.47 C 139.43 -104.09 139.26 -103.59 139.26 -102.97 C 139.26 -102.43 139.42 -101.99 139.76 -101.65 C 140.09 -101.3 140.5 -101.13 140.98 -101.13 C 141.47 -101.13 141.87 -101.3 142.18 -101.65 C 142.49 -101.99 142.65 -102.46 142.65 -103.07 Z "/>
          <path transform="matrix(.6,0,0,.6,252.99802,239.08504)" stroke-width="1" stroke-linecap="butt" stroke-miterlimit="1.45" stroke-linejoin="miter" fill="none" stroke="#000000" d="M 131.02 -112 L 151.02 -112 L 151.02 -92 L 131.02 -92 L 131.02 -112 Z "/>
          <path transform="matrix(.6,0,0,.6,254.79802,240.88504)" d="M -48.984 -143 L -28.984 -143 L -28.984 -123 L -48.984 -123 L -48.984 -143 Z " fill="#b3a691"/>
          <path transform="matrix(.6,0,0,.6,252.99802,239.08504)" d="M -48.984 -143 L -28.984 -143 L -28.984 -123 L -48.984 -123 L -48.984 -143 Z " fill="#cfe2f3"/>
          <path transform="matrix(.6,0,0,.6,252.99802,239.08504)" stroke-width="1" stroke-linecap="butt" stroke-miterlimit="1.45" stroke-linejoin="miter" fill="none" stroke="#000000" d="M -48.984 -143 L -28.984 -143 L -28.984 -123 L -48.984 -123 L -48.984 -143 Z "/>
          <path transform="matrix(.6,0,0,.6,254.79802,240.88504)" d="M -28.984 -143 L -8.9841 -143 L -8.9841 -123 L -28.984 -123 L -28.984 -143 Z " fill="#b3a691"/>
          <path transform="matrix(.6,0,0,.6,252.99802,239.08504)" d="M -28.984 -143 L -8.9841 -143 L -8.9841 -123 L -28.984 -123 L -28.984 -143 Z " fill="#cfe2f3"/>
          <path transform="matrix(.6,0,0,.6,252.99802,239.08504)" stroke-width="1" stroke-linecap="butt" stroke-miterlimit="1.45" stroke-linejoin="miter" fill="none" stroke="#000000" d="M -28.984 -143 L -8.9841 -143 L -8.9841 -123 L -28.984 -123 L -28.984 -143 Z "/>
          <path transform="matrix(.6,0,0,.6,254.79802,240.88504)" d="M -8.9841 -143 L 11.016 -143 L 11.016 -123 L -8.9841 -123 L -8.9841 -143 Z " fill="#b3a691"/>
          <path transform="matrix(.6,0,0,.6,252.99802,239.08504)" d="M -8.9841 -143 L 11.016 -143 L 11.016 -123 L -8.9841 -123 L -8.9841 -143 Z " fill="#cfe2f3"/>
          <path transform="matrix(.6,0,0,.6,252.99802,239.08504)" stroke-width="1" stroke-linecap="butt" stroke-miterlimit="1.45" stroke-linejoin="miter" fill="none" stroke="#000000" d="M -8.9841 -143 L 11.016 -143 L 11.016 -123 L -8.9841 -123 L -8.9841 -143 Z "/>
          <path transform="matrix(.6,0,0,.6,252.99802,239.08504)" d="M 29.016 -193 L 111.02 -193 L 111.02 -163 L 29.016 -163 L 29.016 -193 Z " fill="#ffffff"/>
          <path transform="matrix(.6,0,0,.6,252.99802,239.08504)" d="M 42.927 -173.29 L 42.927 -181.88 L 46.177 -181.88 C 46.74 -181.88 47.172 -181.85 47.474 -181.8 C 47.901 -181.73 48.258 -181.59 48.544 -181.4 C 48.831 -181.2 49.06 -180.92 49.232 -180.57 C 49.404 -180.21 49.49 -179.82 49.49 -179.4 C 49.49 -178.67 49.258 -178.05 48.794 -177.54 C 48.331 -177.04 47.49 -176.79 46.271 -176.79 L 44.068 -176.79 L 44.068 -173.29 L 42.927 -173.29 Z M 44.068 -177.79 L 46.286 -177.79 C 47.026 -177.79 47.549 -177.92 47.857 -178.2 C 48.164 -178.48 48.318 -178.86 48.318 -179.36 C 48.318 -179.72 48.226 -180.02 48.044 -180.28 C 47.862 -180.53 47.625 -180.7 47.333 -180.79 C 47.135 -180.84 46.781 -180.86 46.271 -180.86 L 44.068 -180.86 L 44.068 -177.79 Z M 50.415 -176.4 C 50.415 -177.55 50.733 -178.41 51.368 -178.96 C 51.9 -179.42 52.551 -179.65 53.322 -179.65 C 54.176 -179.65 54.876 -179.37 55.423 -178.81 C 55.97 -178.25 56.243 -177.48 56.243 -176.49 C 56.243 -175.69 56.124 -175.06 55.884 -174.6 C 55.644 -174.14 55.293 -173.78 54.829 -173.53 C 54.366 -173.27 53.863 -173.15 53.322 -173.15 C 52.457 -173.15 51.756 -173.42 51.22 -173.98 C 50.684 -174.54 50.415 -175.34 50.415 -176.4 Z M 51.493 -176.4 C 51.493 -175.6 51.668 -175.01 52.017 -174.61 C 52.366 -174.22 52.801 -174.02 53.322 -174.02 C 53.853 -174.02 54.29 -174.22 54.634 -174.61 C 54.978 -175.01 55.15 -175.61 55.15 -176.43 C 55.15 -177.2 54.975 -177.78 54.626 -178.18 C 54.277 -178.57 53.842 -178.77 53.322 -178.77 C 52.801 -178.77 52.366 -178.58 52.017 -178.18 C 51.668 -177.79 51.493 -177.2 51.493 -176.4 Z M 57.089 -176.4 C 57.089 -177.55 57.407 -178.41 58.042 -178.96 C 58.573 -179.42 59.225 -179.65 59.995 -179.65 C 60.85 -179.65 61.55 -179.37 62.097 -178.81 C 62.644 -178.25 62.917 -177.48 62.917 -176.49 C 62.917 -175.69 62.797 -175.06 62.558 -174.6 C 62.318 -174.14 61.967 -173.78 61.503 -173.53 C 61.04 -173.27 60.537 -173.15 59.995 -173.15 C 59.131 -173.15 58.43 -173.42 57.894 -173.98 C 57.357 -174.54 57.089 -175.34 57.089 -176.4 Z M 58.167 -176.4 C 58.167 -175.6 58.342 -175.01 58.691 -174.61 C 59.04 -174.22 59.475 -174.02 59.995 -174.02 C 60.527 -174.02 60.964 -174.22 61.308 -174.61 C 61.652 -175.01 61.823 -175.61 61.823 -176.43 C 61.823 -177.2 61.649 -177.78 61.3 -178.18 C 60.951 -178.57 60.516 -178.77 59.995 -178.77 C 59.475 -178.77 59.04 -178.58 58.691 -178.18 C 58.342 -177.79 58.167 -177.2 58.167 -176.4 Z M 64.122 -173.29 L 64.122 -181.88 L 65.185 -181.88 L 65.185 -173.29 L 64.122 -173.29 Z M 69.341 -173.29 L 72.638 -181.88 L 73.857 -181.88 L 77.372 -173.29 L 76.091 -173.29 L 75.075 -175.9 L 71.497 -175.9 L 70.544 -173.29 L 69.341 -173.29 Z M 71.825 -176.82 L 74.732 -176.82 L 73.841 -179.19 C 73.56 -179.91 73.357 -180.5 73.232 -180.97 C 73.117 -180.42 72.961 -179.87 72.763 -179.33 L 71.825 -176.82 Z M 78.142 -173.29 L 78.142 -179.5 L 79.095 -179.5 L 79.095 -178.57 C 79.335 -179 79.556 -179.29 79.759 -179.43 C 79.962 -179.58 80.189 -179.65 80.439 -179.65 C 80.793 -179.65 81.152 -179.54 81.517 -179.32 L 81.157 -178.33 C 80.897 -178.49 80.642 -178.57 80.392 -178.57 C 80.152 -178.57 79.941 -178.5 79.759 -178.36 C 79.577 -178.22 79.449 -178.02 79.376 -177.77 C 79.251 -177.4 79.189 -176.99 79.189 -176.55 L 79.189 -173.29 L 78.142 -173.29 Z M 82.138 -173.29 L 82.138 -179.5 L 83.091 -179.5 L 83.091 -178.57 C 83.331 -179 83.552 -179.29 83.755 -179.43 C 83.958 -179.58 84.185 -179.65 84.435 -179.65 C 84.789 -179.65 85.148 -179.54 85.513 -179.32 L 85.154 -178.33 C 84.893 -178.49 84.638 -178.57 84.388 -178.57 C 84.148 -178.57 83.937 -178.5 83.755 -178.36 C 83.573 -178.22 83.445 -178.02 83.372 -177.77 C 83.247 -177.4 83.185 -176.99 83.185 -176.55 L 83.185 -173.29 L 82.138 -173.29 Z M 90.212 -174.05 C 89.816 -173.72 89.439 -173.48 89.079 -173.35 C 88.72 -173.21 88.332 -173.15 87.915 -173.15 C 87.228 -173.15 86.702 -173.31 86.337 -173.65 C 85.973 -173.98 85.79 -174.41 85.79 -174.93 C 85.79 -175.23 85.858 -175.51 85.993 -175.76 C 86.129 -176.02 86.311 -176.22 86.54 -176.37 C 86.769 -176.52 87.025 -176.64 87.306 -176.71 C 87.504 -176.77 87.816 -176.83 88.243 -176.88 C 89.087 -176.97 89.712 -177.09 90.118 -177.24 C 90.118 -177.39 90.118 -177.47 90.118 -177.5 C 90.118 -177.94 90.019 -178.25 89.822 -178.43 C 89.551 -178.66 89.15 -178.77 88.618 -178.77 C 88.129 -178.77 87.764 -178.68 87.525 -178.51 C 87.285 -178.34 87.108 -178.04 86.993 -177.6 L 85.962 -177.74 C 86.056 -178.18 86.212 -178.53 86.431 -178.8 C 86.65 -179.07 86.962 -179.28 87.368 -179.43 C 87.775 -179.57 88.243 -179.65 88.775 -179.65 C 89.306 -179.65 89.738 -179.58 90.072 -179.46 C 90.405 -179.33 90.65 -179.18 90.806 -178.99 C 90.962 -178.8 91.072 -178.56 91.134 -178.27 C 91.165 -178.09 91.181 -177.77 91.181 -177.3 L 91.181 -175.9 C 91.181 -174.92 91.204 -174.3 91.251 -174.04 C 91.298 -173.78 91.389 -173.53 91.525 -173.29 L 90.415 -173.29 C 90.311 -173.5 90.243 -173.76 90.212 -174.05 Z M 90.118 -176.41 C 89.733 -176.25 89.16 -176.12 88.4 -176 C 87.962 -175.94 87.655 -175.87 87.478 -175.79 C 87.301 -175.72 87.163 -175.6 87.064 -175.46 C 86.965 -175.31 86.915 -175.15 86.915 -174.96 C 86.915 -174.68 87.022 -174.44 87.236 -174.25 C 87.449 -174.07 87.759 -173.97 88.165 -173.97 C 88.572 -173.97 88.934 -174.06 89.251 -174.24 C 89.569 -174.42 89.801 -174.66 89.947 -174.97 C 90.061 -175.21 90.118 -175.56 90.118 -176.02 L 90.118 -176.41 Z M 92.777 -170.9 L 92.652 -171.88 C 92.881 -171.82 93.084 -171.79 93.261 -171.79 C 93.49 -171.79 93.675 -171.83 93.816 -171.9 C 93.956 -171.98 94.073 -172.09 94.167 -172.22 C 94.23 -172.34 94.339 -172.6 94.495 -173.02 C 94.506 -173.07 94.537 -173.16 94.589 -173.27 L 92.214 -179.5 L 93.355 -179.5 L 94.652 -175.91 C 94.818 -175.45 94.969 -174.97 95.105 -174.46 C 95.23 -174.95 95.376 -175.42 95.542 -175.88 L 96.87 -179.5 L 97.917 -179.5 L 95.558 -173.18 C 95.297 -172.5 95.1 -172.03 94.964 -171.77 C 94.777 -171.42 94.56 -171.16 94.316 -171 C 94.071 -170.84 93.782 -170.75 93.448 -170.75 C 93.251 -170.75 93.027 -170.8 92.777 -170.9 Z "/>
          <path transform="matrix(.6,0,0,.6,252.99802,239.08504)" stroke-width="1" stroke-linecap="butt" stroke-miterlimit="1.45" stroke-linejoin="miter" fill="none" stroke="#000000" d="M 29.016 -193 L 111.02 -193 L 111.02 -163 L 29.016 -163 L 29.016 -193 Z "/>
          <path transform="matrix(.6,0,0,.6,252.99802,239.08504)" d="M 130.52 -101.5 L 191.52 -101.5 L 191.52 -86.5 L 130.52 -86.5 L 130.52 -101.5 Z " fill="#ffffff"/>
          <path transform="matrix(.6,0,0,.6,252.99802,239.08504)" d="M 137.33 -89.286 L 137.33 -97.88 L 143.13 -97.88 L 143.13 -96.864 L 138.47 -96.864 L 138.47 -94.208 L 142.5 -94.208 L 142.5 -93.192 L 138.47 -93.192 L 138.47 -89.286 L 137.33 -89.286 Z M 144.47 -96.661 L 144.47 -97.88 L 145.53 -97.88 L 145.53 -96.661 L 144.47 -96.661 Z M 144.47 -89.286 L 144.47 -95.505 L 145.53 -95.505 L 145.53 -89.286 L 144.47 -89.286 Z M 147.12 -89.286 L 147.12 -95.505 L 148.08 -95.505 L 148.08 -94.567 C 148.32 -95.005 148.54 -95.294 148.74 -95.435 C 148.94 -95.575 149.17 -95.646 149.42 -95.646 C 149.77 -95.646 150.13 -95.536 150.5 -95.317 L 150.14 -94.333 C 149.88 -94.489 149.62 -94.567 149.37 -94.567 C 149.13 -94.567 148.92 -94.497 148.74 -94.356 C 148.56 -94.216 148.43 -94.021 148.36 -93.771 C 148.23 -93.396 148.17 -92.989 148.17 -92.552 L 148.17 -89.286 L 147.12 -89.286 Z M 150.71 -91.146 L 151.74 -91.302 C 151.81 -90.885 151.97 -90.567 152.24 -90.349 C 152.5 -90.13 152.88 -90.021 153.37 -90.021 C 153.85 -90.021 154.2 -90.117 154.44 -90.31 C 154.67 -90.502 154.79 -90.734 154.79 -91.005 C 154.79 -91.244 154.69 -91.432 154.48 -91.567 C 154.33 -91.661 153.97 -91.781 153.4 -91.927 C 152.63 -92.125 152.09 -92.294 151.8 -92.435 C 151.5 -92.575 151.27 -92.771 151.12 -93.021 C 150.96 -93.271 150.88 -93.552 150.88 -93.864 C 150.88 -94.135 150.95 -94.39 151.07 -94.63 C 151.2 -94.869 151.37 -95.067 151.59 -95.224 C 151.75 -95.338 151.98 -95.437 152.26 -95.521 C 152.54 -95.604 152.85 -95.646 153.18 -95.646 C 153.66 -95.646 154.08 -95.575 154.45 -95.435 C 154.82 -95.294 155.1 -95.104 155.27 -94.864 C 155.45 -94.625 155.57 -94.307 155.63 -93.911 L 154.6 -93.771 C 154.56 -94.083 154.43 -94.33 154.2 -94.513 C 153.98 -94.695 153.66 -94.786 153.24 -94.786 C 152.76 -94.786 152.42 -94.705 152.21 -94.544 C 152 -94.382 151.9 -94.192 151.9 -93.974 C 151.9 -93.838 151.94 -93.718 152.02 -93.614 C 152.12 -93.5 152.25 -93.406 152.43 -93.333 C 152.54 -93.291 152.85 -93.203 153.37 -93.067 C 154.12 -92.859 154.64 -92.692 154.93 -92.567 C 155.22 -92.442 155.45 -92.26 155.62 -92.021 C 155.79 -91.781 155.87 -91.479 155.87 -91.114 C 155.87 -90.76 155.77 -90.429 155.56 -90.122 C 155.36 -89.815 155.07 -89.575 154.68 -89.403 C 154.3 -89.231 153.86 -89.146 153.37 -89.146 C 152.56 -89.146 151.94 -89.315 151.52 -89.653 C 151.09 -89.992 150.83 -90.489 150.71 -91.146 Z M 159.43 -90.224 L 159.59 -89.302 C 159.29 -89.239 159.02 -89.208 158.79 -89.208 C 158.4 -89.208 158.11 -89.268 157.9 -89.388 C 157.69 -89.507 157.54 -89.666 157.45 -89.864 C 157.37 -90.062 157.32 -90.479 157.32 -91.114 L 157.32 -94.692 L 156.56 -94.692 L 156.56 -95.505 L 157.32 -95.505 L 157.32 -97.052 L 158.37 -97.677 L 158.37 -95.505 L 159.43 -95.505 L 159.43 -94.692 L 158.37 -94.692 L 158.37 -91.052 C 158.37 -90.75 158.39 -90.557 158.42 -90.474 C 158.46 -90.39 158.52 -90.323 158.6 -90.271 C 158.69 -90.218 158.81 -90.192 158.96 -90.192 C 159.09 -90.192 159.24 -90.203 159.43 -90.224 Z M 167.96 -92.661 L 167.96 -93.661 L 171.58 -93.677 L 171.58 -90.489 C 171.03 -90.041 170.46 -89.705 169.86 -89.481 C 169.27 -89.257 168.66 -89.146 168.04 -89.146 C 167.19 -89.146 166.42 -89.325 165.73 -89.685 C 165.04 -90.044 164.52 -90.565 164.17 -91.247 C 163.82 -91.929 163.65 -92.692 163.65 -93.536 C 163.65 -94.38 163.82 -95.164 164.17 -95.888 C 164.52 -96.612 165.02 -97.148 165.68 -97.497 C 166.33 -97.846 167.09 -98.021 167.94 -98.021 C 168.57 -98.021 169.13 -97.922 169.63 -97.724 C 170.13 -97.526 170.52 -97.247 170.81 -96.888 C 171.1 -96.528 171.31 -96.057 171.46 -95.474 L 170.44 -95.192 C 170.31 -95.63 170.14 -95.974 169.95 -96.224 C 169.76 -96.474 169.48 -96.674 169.13 -96.825 C 168.78 -96.976 168.39 -97.052 167.96 -97.052 C 167.44 -97.052 166.99 -96.974 166.61 -96.817 C 166.23 -96.661 165.92 -96.453 165.68 -96.192 C 165.45 -95.932 165.27 -95.646 165.15 -95.333 C 164.93 -94.802 164.82 -94.229 164.82 -93.614 C 164.82 -92.843 164.95 -92.2 165.22 -91.685 C 165.48 -91.169 165.86 -90.786 166.36 -90.536 C 166.86 -90.286 167.4 -90.161 167.97 -90.161 C 168.46 -90.161 168.94 -90.257 169.41 -90.45 C 169.88 -90.643 170.23 -90.843 170.47 -91.052 L 170.47 -92.661 L 167.96 -92.661 Z M 177.2 -90.052 C 176.8 -89.718 176.43 -89.484 176.07 -89.349 C 175.71 -89.213 175.32 -89.146 174.9 -89.146 C 174.21 -89.146 173.69 -89.312 173.32 -89.646 C 172.96 -89.979 172.78 -90.406 172.78 -90.927 C 172.78 -91.229 172.84 -91.507 172.98 -91.763 C 173.12 -92.018 173.3 -92.221 173.53 -92.372 C 173.76 -92.523 174.01 -92.635 174.29 -92.708 C 174.49 -92.771 174.8 -92.828 175.23 -92.88 C 176.07 -92.974 176.7 -93.093 177.1 -93.239 C 177.1 -93.385 177.1 -93.474 177.1 -93.505 C 177.1 -93.942 177.01 -94.25 176.81 -94.427 C 176.54 -94.656 176.14 -94.771 175.6 -94.771 C 175.12 -94.771 174.75 -94.685 174.51 -94.513 C 174.27 -94.341 174.09 -94.036 173.98 -93.599 L 172.95 -93.739 C 173.04 -94.177 173.2 -94.531 173.42 -94.802 C 173.64 -95.073 173.95 -95.281 174.35 -95.427 C 174.76 -95.573 175.23 -95.646 175.76 -95.646 C 176.29 -95.646 176.72 -95.583 177.06 -95.458 C 177.39 -95.333 177.64 -95.177 177.79 -94.989 C 177.95 -94.802 178.06 -94.562 178.12 -94.271 C 178.15 -94.093 178.17 -93.771 178.17 -93.302 L 178.17 -91.896 C 178.17 -90.916 178.19 -90.297 178.24 -90.036 C 178.28 -89.776 178.38 -89.526 178.51 -89.286 L 177.4 -89.286 C 177.3 -89.505 177.23 -89.76 177.2 -90.052 Z M 177.1 -92.411 C 176.72 -92.255 176.15 -92.119 175.39 -92.005 C 174.95 -91.942 174.64 -91.872 174.46 -91.794 C 174.29 -91.716 174.15 -91.604 174.05 -91.458 C 173.95 -91.312 173.9 -91.146 173.9 -90.958 C 173.9 -90.677 174.01 -90.442 174.22 -90.255 C 174.44 -90.067 174.75 -89.974 175.15 -89.974 C 175.56 -89.974 175.92 -90.062 176.24 -90.239 C 176.56 -90.416 176.79 -90.661 176.93 -90.974 C 177.05 -91.213 177.1 -91.562 177.1 -92.021 L 177.1 -92.411 Z M 179.81 -86.896 L 179.81 -95.505 L 180.76 -95.505 L 180.76 -94.708 C 180.99 -95.021 181.25 -95.255 181.54 -95.411 C 181.82 -95.567 182.17 -95.646 182.58 -95.646 C 183.11 -95.646 183.58 -95.51 183.98 -95.239 C 184.39 -94.968 184.69 -94.583 184.9 -94.083 C 185.1 -93.583 185.2 -93.036 185.2 -92.442 C 185.2 -91.807 185.09 -91.234 184.86 -90.724 C 184.64 -90.213 184.31 -89.823 183.87 -89.552 C 183.43 -89.281 182.98 -89.146 182.5 -89.146 C 182.14 -89.146 181.83 -89.221 181.54 -89.372 C 181.26 -89.523 181.03 -89.708 180.86 -89.927 L 180.86 -86.896 L 179.81 -86.896 Z M 180.76 -92.364 C 180.76 -91.562 180.92 -90.971 181.25 -90.591 C 181.57 -90.211 181.96 -90.021 182.42 -90.021 C 182.89 -90.021 183.29 -90.218 183.62 -90.614 C 183.96 -91.01 184.12 -91.625 184.12 -92.458 C 184.12 -93.25 183.96 -93.841 183.64 -94.231 C 183.32 -94.622 182.92 -94.817 182.47 -94.817 C 182.02 -94.817 181.62 -94.609 181.28 -94.192 C 180.93 -93.776 180.76 -93.166 180.76 -92.364 Z "/>
          <path transform="matrix(.6,0,0,.6,252.99802,239.08504)" stroke-width="1" stroke-linecap="butt" stroke-miterlimit="1.45" stroke-linejoin="miter" fill="none" stroke="#000000" d="M 130.52 -101.5 L 191.52 -101.5 L 191.52 -86.5 L 130.52 -86.5 L 130.52 -101.5 Z "/>
          <path transform="matrix(.6,0,0,.6,252.99802,239.08504)" d="M 130.52 -82.573 L 191.52 -82.573 L 191.52 -67.573 L 130.52 -67.573 L 130.52 -82.573 Z " fill="#ffffff"/>
          <path transform="matrix(.6,0,0,.6,252.99802,239.08504)" d="M 137.54 -70.359 L 137.54 -78.953 L 138.68 -78.953 L 138.68 -71.375 L 142.92 -71.375 L 142.92 -70.359 L 137.54 -70.359 Z M 148.2 -71.125 C 147.8 -70.791 147.43 -70.557 147.07 -70.421 C 146.71 -70.286 146.32 -70.218 145.9 -70.218 C 145.22 -70.218 144.69 -70.385 144.33 -70.718 C 143.96 -71.052 143.78 -71.479 143.78 -72 C 143.78 -72.302 143.85 -72.58 143.98 -72.836 C 144.12 -73.091 144.3 -73.294 144.53 -73.445 C 144.76 -73.596 145.01 -73.708 145.29 -73.781 C 145.49 -73.843 145.8 -73.901 146.23 -73.953 C 147.08 -74.046 147.7 -74.166 148.11 -74.312 C 148.11 -74.458 148.11 -74.546 148.11 -74.578 C 148.11 -75.015 148.01 -75.323 147.81 -75.5 C 147.54 -75.729 147.14 -75.843 146.61 -75.843 C 146.12 -75.843 145.75 -75.757 145.51 -75.586 C 145.27 -75.414 145.1 -75.109 144.98 -74.671 L 143.95 -74.812 C 144.04 -75.25 144.2 -75.604 144.42 -75.875 C 144.64 -76.145 144.95 -76.354 145.36 -76.5 C 145.76 -76.645 146.23 -76.718 146.76 -76.718 C 147.29 -76.718 147.73 -76.656 148.06 -76.531 C 148.39 -76.406 148.64 -76.25 148.79 -76.062 C 148.95 -75.875 149.06 -75.635 149.12 -75.343 C 149.15 -75.166 149.17 -74.843 149.17 -74.375 L 149.17 -72.968 C 149.17 -71.989 149.19 -71.369 149.24 -71.109 C 149.29 -70.849 149.38 -70.599 149.51 -70.359 L 148.4 -70.359 C 148.3 -70.578 148.23 -70.833 148.2 -71.125 Z M 148.11 -73.484 C 147.72 -73.328 147.15 -73.192 146.39 -73.078 C 145.95 -73.015 145.64 -72.945 145.47 -72.867 C 145.29 -72.789 145.15 -72.677 145.05 -72.531 C 144.95 -72.385 144.9 -72.218 144.9 -72.031 C 144.9 -71.75 145.01 -71.515 145.22 -71.328 C 145.44 -71.14 145.75 -71.046 146.15 -71.046 C 146.56 -71.046 146.92 -71.135 147.24 -71.312 C 147.56 -71.489 147.79 -71.734 147.93 -72.046 C 148.05 -72.286 148.11 -72.635 148.11 -73.093 L 148.11 -73.484 Z M 150.39 -72.218 L 151.42 -72.375 C 151.48 -71.958 151.65 -71.64 151.91 -71.421 C 152.18 -71.203 152.56 -71.093 153.05 -71.093 C 153.53 -71.093 153.88 -71.19 154.12 -71.382 C 154.35 -71.575 154.47 -71.807 154.47 -72.078 C 154.47 -72.317 154.36 -72.505 154.16 -72.64 C 154.01 -72.734 153.65 -72.854 153.08 -73 C 152.31 -73.198 151.77 -73.367 151.48 -73.507 C 151.18 -73.648 150.95 -73.843 150.8 -74.093 C 150.64 -74.343 150.56 -74.625 150.56 -74.937 C 150.56 -75.208 150.62 -75.463 150.75 -75.703 C 150.87 -75.942 151.05 -76.14 151.26 -76.296 C 151.43 -76.411 151.66 -76.51 151.94 -76.593 C 152.22 -76.677 152.53 -76.718 152.86 -76.718 C 153.34 -76.718 153.76 -76.648 154.13 -76.507 C 154.5 -76.367 154.78 -76.177 154.95 -75.937 C 155.13 -75.698 155.25 -75.38 155.31 -74.984 L 154.28 -74.843 C 154.24 -75.156 154.11 -75.403 153.88 -75.586 C 153.66 -75.768 153.34 -75.859 152.92 -75.859 C 152.44 -75.859 152.1 -75.778 151.89 -75.617 C 151.68 -75.455 151.58 -75.265 151.58 -75.046 C 151.58 -74.911 151.62 -74.791 151.7 -74.687 C 151.8 -74.573 151.93 -74.479 152.11 -74.406 C 152.21 -74.364 152.53 -74.276 153.05 -74.14 C 153.8 -73.932 154.32 -73.765 154.61 -73.64 C 154.9 -73.515 155.13 -73.333 155.3 -73.093 C 155.46 -72.854 155.55 -72.552 155.55 -72.187 C 155.55 -71.833 155.44 -71.502 155.24 -71.195 C 155.04 -70.888 154.74 -70.648 154.36 -70.476 C 153.97 -70.304 153.54 -70.218 153.05 -70.218 C 152.23 -70.218 151.62 -70.388 151.19 -70.726 C 150.77 -71.065 150.5 -71.562 150.39 -72.218 Z M 159.11 -71.296 L 159.26 -70.375 C 158.96 -70.312 158.7 -70.281 158.47 -70.281 C 158.08 -70.281 157.79 -70.341 157.58 -70.461 C 157.37 -70.58 157.22 -70.739 157.13 -70.937 C 157.04 -71.135 157 -71.552 157 -72.187 L 157 -75.765 L 156.23 -75.765 L 156.23 -76.578 L 157 -76.578 L 157 -78.125 L 158.05 -78.75 L 158.05 -76.578 L 159.11 -76.578 L 159.11 -75.765 L 158.05 -75.765 L 158.05 -72.125 C 158.05 -71.823 158.06 -71.63 158.1 -71.546 C 158.14 -71.463 158.2 -71.395 158.28 -71.343 C 158.36 -71.291 158.48 -71.265 158.64 -71.265 C 158.76 -71.265 158.92 -71.276 159.11 -71.296 Z M 167.64 -73.734 L 167.64 -74.734 L 171.26 -74.75 L 171.26 -71.562 C 170.71 -71.114 170.14 -70.778 169.54 -70.554 C 168.95 -70.33 168.34 -70.218 167.71 -70.218 C 166.87 -70.218 166.1 -70.398 165.41 -70.757 C 164.72 -71.117 164.2 -71.638 163.85 -72.32 C 163.5 -73.002 163.32 -73.765 163.32 -74.609 C 163.32 -75.453 163.5 -76.237 163.85 -76.961 C 164.2 -77.685 164.7 -78.221 165.35 -78.57 C 166.01 -78.919 166.77 -79.093 167.62 -79.093 C 168.25 -79.093 168.81 -78.994 169.31 -78.796 C 169.81 -78.599 170.2 -78.32 170.49 -77.961 C 170.77 -77.601 170.99 -77.13 171.14 -76.546 L 170.12 -76.265 C 169.98 -76.703 169.82 -77.046 169.63 -77.296 C 169.44 -77.546 169.16 -77.747 168.81 -77.898 C 168.45 -78.049 168.06 -78.125 167.64 -78.125 C 167.12 -78.125 166.66 -78.046 166.28 -77.89 C 165.9 -77.734 165.6 -77.526 165.36 -77.265 C 165.13 -77.005 164.95 -76.718 164.82 -76.406 C 164.6 -75.875 164.5 -75.302 164.5 -74.687 C 164.5 -73.916 164.63 -73.273 164.89 -72.757 C 165.16 -72.242 165.54 -71.859 166.04 -71.609 C 166.54 -71.359 167.08 -71.234 167.65 -71.234 C 168.14 -71.234 168.62 -71.33 169.09 -71.523 C 169.56 -71.716 169.91 -71.916 170.15 -72.125 L 170.15 -73.734 L 167.64 -73.734 Z M 176.88 -71.125 C 176.48 -70.791 176.1 -70.557 175.74 -70.421 C 175.38 -70.286 175 -70.218 174.58 -70.218 C 173.89 -70.218 173.37 -70.385 173 -70.718 C 172.64 -71.052 172.45 -71.479 172.45 -72 C 172.45 -72.302 172.52 -72.58 172.66 -72.836 C 172.79 -73.091 172.98 -73.294 173.2 -73.445 C 173.43 -73.596 173.69 -73.708 173.97 -73.781 C 174.17 -73.843 174.48 -73.901 174.91 -73.953 C 175.75 -74.046 176.38 -74.166 176.78 -74.312 C 176.78 -74.458 176.78 -74.546 176.78 -74.578 C 176.78 -75.015 176.68 -75.323 176.49 -75.5 C 176.21 -75.729 175.81 -75.843 175.28 -75.843 C 174.79 -75.843 174.43 -75.757 174.19 -75.586 C 173.95 -75.414 173.77 -75.109 173.66 -74.671 L 172.63 -74.812 C 172.72 -75.25 172.88 -75.604 173.09 -75.875 C 173.31 -76.145 173.63 -76.354 174.03 -76.5 C 174.44 -76.645 174.91 -76.718 175.44 -76.718 C 175.97 -76.718 176.4 -76.656 176.74 -76.531 C 177.07 -76.406 177.31 -76.25 177.47 -76.062 C 177.63 -75.875 177.74 -75.635 177.8 -75.343 C 177.83 -75.166 177.84 -74.843 177.84 -74.375 L 177.84 -72.968 C 177.84 -71.989 177.87 -71.369 177.92 -71.109 C 177.96 -70.849 178.05 -70.599 178.19 -70.359 L 177.08 -70.359 C 176.98 -70.578 176.91 -70.833 176.88 -71.125 Z M 176.78 -73.484 C 176.4 -73.328 175.82 -73.192 175.06 -73.078 C 174.63 -73.015 174.32 -72.945 174.14 -72.867 C 173.96 -72.789 173.83 -72.677 173.73 -72.531 C 173.63 -72.385 173.58 -72.218 173.58 -72.031 C 173.58 -71.75 173.69 -71.515 173.9 -71.328 C 174.11 -71.14 174.42 -71.046 174.83 -71.046 C 175.24 -71.046 175.6 -71.135 175.92 -71.312 C 176.23 -71.489 176.46 -71.734 176.61 -72.046 C 176.73 -72.286 176.78 -72.635 176.78 -73.093 L 176.78 -73.484 Z M 179.49 -67.968 L 179.49 -76.578 L 180.44 -76.578 L 180.44 -75.781 C 180.67 -76.093 180.93 -76.328 181.21 -76.484 C 181.5 -76.64 181.85 -76.718 182.25 -76.718 C 182.78 -76.718 183.25 -76.583 183.66 -76.312 C 184.07 -76.041 184.37 -75.656 184.57 -75.156 C 184.78 -74.656 184.88 -74.109 184.88 -73.515 C 184.88 -72.88 184.77 -72.307 184.54 -71.796 C 184.32 -71.286 183.99 -70.895 183.55 -70.625 C 183.11 -70.354 182.65 -70.218 182.18 -70.218 C 181.82 -70.218 181.5 -70.294 181.22 -70.445 C 180.94 -70.596 180.71 -70.781 180.53 -71 L 180.53 -67.968 L 179.49 -67.968 Z M 180.44 -73.437 C 180.44 -72.635 180.6 -72.044 180.93 -71.664 C 181.25 -71.283 181.64 -71.093 182.1 -71.093 C 182.57 -71.093 182.97 -71.291 183.3 -71.687 C 183.63 -72.083 183.8 -72.698 183.8 -73.531 C 183.8 -74.323 183.64 -74.914 183.32 -75.304 C 182.99 -75.695 182.6 -75.89 182.14 -75.89 C 181.7 -75.89 181.3 -75.682 180.96 -75.265 C 180.61 -74.849 180.44 -74.239 180.44 -73.437 Z "/>
          <path transform="matrix(.6,0,0,.6,252.99802,239.08504)" stroke-width="1" stroke-linecap="butt" stroke-miterlimit="1.45" stroke-linejoin="miter" fill="none" stroke="#000000" d="M 130.52 -82.573 L 191.52 -82.573 L 191.52 -67.573 L 130.52 -67.573 L 130.52 -82.573 Z "/>
          <path transform="matrix(.6,0,0,.6,254.79802,240.88504)" d="M 11.016 -143 L 31.016 -143 L 31.016 -123 L 11.016 -123 L 11.016 -143 Z " fill="#b3a691"/>
          <path transform="matrix(.6,0,0,.6,252.99802,239.08504)" d="M 11.016 -143 L 31.016 -143 L 31.016 -123 L 11.016 -123 L 11.016 -143 Z " fill="#cfe2f3"/>
          <path transform="matrix(.6,0,0,.6,252.99802,239.08504)" stroke-width="1" stroke-linecap="butt" stroke-miterlimit="1.45" stroke-linejoin="miter" fill="none" stroke="#000000" d="M 11.016 -143 L 31.016 -143 L 31.016 -123 L 11.016 -123 L 11.016 -143 Z "/>
          <path transform="matrix(.6,0,0,.6,254.79802,240.88504)" d="M 31.016 -143 L 51.016 -143 L 51.016 -123 L 31.016 -123 L 31.016 -143 Z " fill="#b3a691"/>
          <path transform="matrix(.6,0,0,.6,252.99802,239.08504)" d="M 31.016 -143 L 51.016 -143 L 51.016 -123 L 31.016 -123 L 31.016 -143 Z " fill="#cfe2f3"/>
          <path transform="matrix(.6,0,0,.6,252.99802,239.08504)" stroke-width="1" stroke-linecap="butt" stroke-miterlimit="1.45" stroke-linejoin="miter" fill="none" stroke="#000000" d="M 31.016 -143 L 51.016 -143 L 51.016 -123 L 31.016 -123 L 31.016 -143 Z "/>
          <path transform="matrix(.6,0,0,.6,254.79802,240.88504)" d="M 51.016 -143 L 71.016 -143 L 71.016 -123 L 51.016 -123 L 51.016 -143 Z " fill="#b3a691"/>
          <path transform="matrix(.6,0,0,.6,252.99802,239.08504)" d="M 51.016 -143 L 71.016 -143 L 71.016 -123 L 51.016 -123 L 51.016 -143 Z " fill="#cfe2f3"/>
          <path transform="matrix(.6,0,0,.6,252.99802,239.08504)" stroke-width="1" stroke-linecap="butt" stroke-miterlimit="1.45" stroke-linejoin="miter" fill="none" stroke="#000000" d="M 51.016 -143 L 71.016 -143 L 71.016 -123 L 51.016 -123 L 51.016 -143 Z "/>
          <path transform="matrix(.6,0,0,.6,252.99802,239.08504)" d="M 171.02 -143 L 191.02 -143 L 191.02 -123 L 171.02 -123 L 171.02 -143 Z " fill="#ffffff"/>
          <path transform="matrix(.6,0,0,.6,252.99802,239.08504)" stroke-width="1" stroke-linecap="butt" stroke-dasharray="6,2" stroke-miterlimit="1.45" stroke-linejoin="miter" fill="none" stroke="#000000" d="M 171.02 -143 L 191.02 -143 L 191.02 -123 L 171.02 -123 L 171.02 -143 Z "/>
          <path transform="matrix(.6,0,0,.6,254.79802,240.88504)" d="M 71.016 -143 L 91.016 -143 L 91.016 -123 L 71.016 -123 L 71.016 -143 Z " fill="#b3a691"/>
          <path transform="matrix(.6,0,0,.6,252.99802,239.08504)" d="M 71.016 -143 L 91.016 -143 L 91.016 -123 L 71.016 -123 L 71.016 -143 Z " fill="#cfe2f3"/>
          <path transform="matrix(.6,0,0,.6,252.99802,239.08504)" stroke-width="1" stroke-linecap="butt" stroke-miterlimit="1.45" stroke-linejoin="miter" fill="none" stroke="#000000" d="M 71.016 -143 L 91.016 -143 L 91.016 -123 L 71.016 -123 L 71.016 -143 Z "/>
          <path transform="matrix(.6,0,0,.6,254.79802,240.88504)" d="M 91.016 -143 L 111.02 -143 L 111.02 -123 L 91.016 -123 L 91.016 -143 Z " fill="#b3a691"/>
          <path transform="matrix(.6,0,0,.6,252.99802,239.08504)" d="M 91.016 -143 L 111.02 -143 L 111.02 -123 L 91.016 -123 L 91.016 -143 Z " fill="#cfe2f3"/>
          <path transform="matrix(.6,0,0,.6,252.99802,239.08504)" stroke-width="1" stroke-linecap="butt" stroke-miterlimit="1.45" stroke-linejoin="miter" fill="none" stroke="#000000" d="M 91.016 -143 L 111.02 -143 L 111.02 -123 L 91.016 -123 L 91.016 -143 Z "/>
          <path transform="matrix(.6,0,0,.6,254.79802,240.88504)" d="M 111.02 -143 L 131.02 -143 L 131.02 -123 L 111.02 -123 L 111.02 -143 Z " fill="#b3a691"/>
          <path transform="matrix(.6,0,0,.6,252.99802,239.08504)" d="M 111.02 -143 L 131.02 -143 L 131.02 -123 L 111.02 -123 L 111.02 -143 Z " fill="#cfe2f3"/>
          <path transform="matrix(.6,0,0,.6,252.99802,239.08504)" stroke-width="1" stroke-linecap="butt" stroke-miterlimit="1.45" stroke-linejoin="miter" fill="none" stroke="#000000" d="M 111.02 -143 L 131.02 -143 L 131.02 -123 L 111.02 -123 L 111.02 -143 Z "/>
          <path transform="matrix(.6,0,0,.6,254.79802,240.88504)" d="M 131.02 -143 L 151.02 -143 L 151.02 -123 L 131.02 -123 L 131.02 -143 Z " fill="#b3a691"/>
          <path transform="matrix(.6,0,0,.6,252.99802,239.08504)" d="M 131.02 -143 L 151.02 -143 L 151.02 -123 L 131.02 -123 L 131.02 -143 Z " fill="#cfe2f3"/>
          <path transform="matrix(.6,0,0,.6,252.99802,239.08504)" stroke-width="1" stroke-linecap="butt" stroke-miterlimit="1.45" stroke-linejoin="miter" fill="none" stroke="#000000" d="M 131.02 -143 L 151.02 -143 L 151.02 -123 L 131.02 -123 L 131.02 -143 Z "/>
          <path transform="matrix(.6,0,0,.6,254.79802,240.88504)" d="M -48.984 -20.904 L -28.984 -20.904 L -28.984 -.904 L -48.984 -.904 L -48.984 -20.904 Z " fill="#b3a691"/>
          <path transform="matrix(.6,0,0,.6,252.99802,239.08504)" d="M -48.984 -20.904 L -28.984 -20.904 L -28.984 -.904 L -48.984 -.904 L -48.984 -20.904 Z " fill="#eaeaea"/>
          <path transform="matrix(.6,0,0,.6,252.99802,239.08504)" d="M -41.821 -10.425 C -41.821 -11.445 -41.717 -12.266 -41.509 -12.885 C -41.3 -13.505 -40.99 -13.982 -40.579 -14.315 C -40.167 -14.648 -39.649 -14.815 -39.024 -14.815 C -38.566 -14.815 -38.162 -14.721 -37.813 -14.534 C -37.464 -14.346 -37.175 -14.078 -36.946 -13.729 C -36.717 -13.38 -36.54 -12.956 -36.415 -12.456 C -36.29 -11.956 -36.227 -11.279 -36.227 -10.425 C -36.227 -9.4141 -36.329 -8.6016 -36.532 -7.987 C -36.735 -7.3724 -37.042 -6.8959 -37.454 -6.5573 C -37.865 -6.2188 -38.389 -6.0495 -39.024 -6.0495 C -39.847 -6.0495 -40.498 -6.3464 -40.977 -6.9401 C -41.54 -7.6485 -41.821 -8.8099 -41.821 -10.425 Z M -40.743 -10.425 C -40.743 -9.0183 -40.576 -8.0808 -40.243 -7.612 C -39.91 -7.1433 -39.503 -6.9089 -39.024 -6.9089 C -38.535 -6.9089 -38.126 -7.1433 -37.798 -7.612 C -37.469 -8.0808 -37.305 -9.0183 -37.305 -10.425 C -37.305 -11.841 -37.469 -12.781 -37.798 -13.245 C -38.126 -13.708 -38.54 -13.94 -39.04 -13.94 C -39.519 -13.94 -39.904 -13.737 -40.196 -13.331 C -40.561 -12.81 -40.743 -11.841 -40.743 -10.425 Z "/>
          <path transform="matrix(.6,0,0,.6,252.99802,239.08504)" stroke-width="1" stroke-linecap="butt" stroke-miterlimit="1.45" stroke-linejoin="miter" fill="none" stroke="#000000" d="M -48.984 -20.904 L -28.984 -20.904 L -28.984 -.904 L -48.984 -.904 L -48.984 -20.904 Z "/>
          <path transform="matrix(.6,0,0,.6,254.79802,240.88504)" d="M -28.984 -20.904 L -8.9841 -20.904 L -8.9841 -.904 L -28.984 -.904 L -28.984 -20.904 Z " fill="#b3a691"/>
          <path transform="matrix(.6,0,0,.6,252.99802,239.08504)" d="M -28.984 -20.904 L -8.9841 -20.904 L -8.9841 -.904 L -28.984 -.904 L -28.984 -20.904 Z " fill="#eaeaea"/>
          <path transform="matrix(.6,0,0,.6,252.99802,239.08504)" d="M -17.852 -6.1901 L -18.899 -6.1901 L -18.899 -12.909 C -19.16 -12.669 -19.496 -12.427 -19.907 -12.182 C -20.318 -11.938 -20.686 -11.758 -21.009 -11.643 L -21.009 -12.659 C -20.425 -12.94 -19.912 -13.276 -19.469 -13.667 C -19.027 -14.057 -18.712 -14.44 -18.524 -14.815 L -17.852 -14.815 L -17.852 -6.1901 Z "/>
          <path transform="matrix(.6,0,0,.6,252.99802,239.08504)" stroke-width="1" stroke-linecap="butt" stroke-miterlimit="1.45" stroke-linejoin="miter" fill="none" stroke="#000000" d="M -28.984 -20.904 L -8.9841 -20.904 L -8.9841 -.904 L -28.984 -.904 L -28.984 -20.904 Z "/>
          <path transform="matrix(.6,0,0,.6,254.79802,240.88504)" d="M -8.9841 -20.904 L 11.016 -20.904 L 11.016 -.904 L -8.9841 -.904 L -8.9841 -20.904 Z " fill="#b3a691"/>
          <path transform="matrix(.6,0,0,.6,252.99802,239.08504)" d="M -8.9841 -20.904 L 11.016 -20.904 L 11.016 -.904 L -8.9841 -.904 L -8.9841 -20.904 Z " fill="#eaeaea"/>
          <path transform="matrix(.6,0,0,.6,252.99802,239.08504)" d="M 3.7258 -7.2058 L 3.7258 -6.1901 L -1.9617 -6.1901 C -1.9617 -6.4401 -1.92 -6.6849 -1.8367 -6.9245 C -1.6908 -7.3099 -1.4591 -7.6901 -1.1414 -8.0651 C -.82365 -8.4401 -.36271 -8.8724 .24146 -9.362 C 1.179 -10.133 1.8118 -10.742 2.1399 -11.19 C 2.468 -11.638 2.6321 -12.06 2.6321 -12.456 C 2.6321 -12.872 2.481 -13.224 2.179 -13.51 C 1.8769 -13.797 1.4863 -13.94 1.0071 -13.94 C .49667 -13.94 .090417 -13.789 -.21167 -13.487 C -.51375 -13.185 -.67 -12.763 -.68042 -12.221 L -1.7585 -12.331 C -1.6856 -13.143 -1.407 -13.76 -.9226 -14.182 C -.43823 -14.604 .21542 -14.815 1.0383 -14.815 C 1.8613 -14.815 2.5123 -14.586 2.9915 -14.128 C 3.4706 -13.669 3.7102 -13.102 3.7102 -12.425 C 3.7102 -12.081 3.6399 -11.745 3.4993 -11.417 C 3.3586 -11.089 3.1243 -10.74 2.7961 -10.37 C 2.468 -10 1.929 -9.4974 1.179 -8.862 C .54354 -8.3308 .13469 -7.9688 -.047604 -7.7761 C -.2299 -7.5834 -.37833 -7.3933 -.49292 -7.2058 L 3.7258 -7.2058 Z "/>
          <path transform="matrix(.6,0,0,.6,252.99802,239.08504)" stroke-width="1" stroke-linecap="butt" stroke-miterlimit="1.45" stroke-linejoin="miter" fill="none" stroke="#000000" d="M -8.9841 -20.904 L 11.016 -20.904 L 11.016 -.904 L -8.9841 -.904 L -8.9841 -20.904 Z "/>
          <path transform="matrix(.6,0,0,.6,254.79802,240.88504)" d="M 11.016 -20.904 L 31.016 -20.904 L 31.016 -.904 L 11.016 -.904 L 11.016 -20.904 Z " fill="#b3a691"/>
          <path transform="matrix(.6,0,0,.6,252.99802,239.08504)" d="M 11.016 -20.904 L 31.016 -20.904 L 31.016 -.904 L 11.016 -.904 L 11.016 -20.904 Z " fill="#eaeaea"/>
          <path transform="matrix(.6,0,0,.6,252.99802,239.08504)" d="M 18.179 -8.4558 L 19.241 -8.5964 C 19.356 -8.0026 19.559 -7.5729 19.851 -7.3073 C 20.143 -7.0417 20.497 -6.9089 20.913 -6.9089 C 21.413 -6.9089 21.835 -7.0808 22.179 -7.4245 C 22.523 -7.7683 22.695 -8.1953 22.695 -8.7058 C 22.695 -9.1849 22.536 -9.5834 22.218 -9.9011 C 21.9 -10.219 21.497 -10.378 21.007 -10.378 C 20.809 -10.378 20.559 -10.336 20.257 -10.253 L 20.382 -11.19 C 20.455 -11.18 20.512 -11.175 20.554 -11.175 C 21.002 -11.175 21.406 -11.292 21.765 -11.526 C 22.124 -11.76 22.304 -12.122 22.304 -12.612 C 22.304 -12.997 22.174 -13.318 21.913 -13.573 C 21.653 -13.828 21.314 -13.956 20.898 -13.956 C 20.491 -13.956 20.15 -13.826 19.874 -13.565 C 19.598 -13.305 19.424 -12.919 19.351 -12.409 L 18.288 -12.596 C 18.413 -13.294 18.705 -13.839 19.163 -14.229 C 19.622 -14.62 20.189 -14.815 20.866 -14.815 C 21.335 -14.815 21.768 -14.714 22.163 -14.51 C 22.559 -14.307 22.861 -14.034 23.07 -13.69 C 23.278 -13.346 23.382 -12.977 23.382 -12.581 C 23.382 -12.216 23.283 -11.88 23.085 -11.573 C 22.887 -11.266 22.596 -11.023 22.21 -10.846 C 22.71 -10.732 23.101 -10.49 23.382 -10.12 C 23.663 -9.75 23.804 -9.2839 23.804 -8.7214 C 23.804 -7.9714 23.531 -7.336 22.984 -6.8151 C 22.437 -6.2943 21.747 -6.0339 20.913 -6.0339 C 20.163 -6.0339 19.538 -6.2604 19.038 -6.7136 C 18.538 -7.1667 18.252 -7.7474 18.179 -8.4558 Z "/>
          <path transform="matrix(.6,0,0,.6,252.99802,239.08504)" stroke-width="1" stroke-linecap="butt" stroke-miterlimit="1.45" stroke-linejoin="miter" fill="none" stroke="#000000" d="M 11.016 -20.904 L 31.016 -20.904 L 31.016 -.904 L 11.016 -.904 L 11.016 -20.904 Z "/>
          <path transform="matrix(.6,0,0,.6,254.79802,240.88504)" d="M 31.016 -20.904 L 51.016 -20.904 L 51.016 -.904 L 31.016 -.904 L 31.016 -20.904 Z " fill="#b3a691"/>
          <path transform="matrix(.6,0,0,.6,252.99802,239.08504)" d="M 31.016 -20.904 L 51.016 -20.904 L 51.016 -.904 L 31.016 -.904 L 31.016 -20.904 Z " fill="#eaeaea"/>
          <path transform="matrix(.6,0,0,.6,252.99802,239.08504)" d="M 41.554 -6.1901 L 41.554 -8.2526 L 37.835 -8.2526 L 37.835 -9.2214 L 41.757 -14.784 L 42.616 -14.784 L 42.616 -9.2214 L 43.773 -9.2214 L 43.773 -8.2526 L 42.616 -8.2526 L 42.616 -6.1901 L 41.554 -6.1901 Z M 41.554 -9.2214 L 41.554 -13.081 L 38.866 -9.2214 L 41.554 -9.2214 Z "/>
          <path transform="matrix(.6,0,0,.6,252.99802,239.08504)" stroke-width="1" stroke-linecap="butt" stroke-miterlimit="1.45" stroke-linejoin="miter" fill="none" stroke="#000000" d="M 31.016 -20.904 L 51.016 -20.904 L 51.016 -.904 L 31.016 -.904 L 31.016 -20.904 Z "/>
          <path transform="matrix(.6,0,0,.6,254.79802,240.88504)" d="M 51.016 -20.904 L 71.016 -20.904 L 71.016 -.904 L 51.016 -.904 L 51.016 -20.904 Z " fill="#b3a691"/>
          <path transform="matrix(.6,0,0,.6,252.99802,239.08504)" d="M 51.016 -20.904 L 71.016 -20.904 L 71.016 -.904 L 51.016 -.904 L 51.016 -20.904 Z " fill="#eaeaea"/>
          <path transform="matrix(.6,0,0,.6,252.99802,239.08504)" d="M 58.179 -8.4401 L 59.288 -8.5339 C 59.372 -7.9922 59.562 -7.586 59.859 -7.3151 C 60.156 -7.0443 60.518 -6.9089 60.945 -6.9089 C 61.445 -6.9089 61.872 -7.1016 62.226 -7.487 C 62.58 -7.8724 62.757 -8.3776 62.757 -9.0026 C 62.757 -9.6068 62.588 -10.083 62.249 -10.432 C 61.911 -10.781 61.465 -10.956 60.913 -10.956 C 60.58 -10.956 60.275 -10.878 59.999 -10.721 C 59.723 -10.565 59.507 -10.367 59.351 -10.128 L 58.366 -10.253 L 59.195 -14.659 L 63.476 -14.659 L 63.476 -13.659 L 60.038 -13.659 L 59.585 -11.346 C 60.096 -11.711 60.632 -11.893 61.195 -11.893 C 61.945 -11.893 62.577 -11.633 63.093 -11.112 C 63.609 -10.591 63.866 -9.9193 63.866 -9.0964 C 63.866 -8.3255 63.643 -7.6537 63.195 -7.0808 C 62.643 -6.3933 61.893 -6.0495 60.945 -6.0495 C 60.163 -6.0495 59.525 -6.2683 59.031 -6.7058 C 58.536 -7.1433 58.252 -7.7214 58.179 -8.4401 Z "/>
          <path transform="matrix(.6,0,0,.6,252.99802,239.08504)" stroke-width="1" stroke-linecap="butt" stroke-miterlimit="1.45" stroke-linejoin="miter" fill="none" stroke="#000000" d="M 51.016 -20.904 L 71.016 -20.904 L 71.016 -.904 L 51.016 -.904 L 51.016 -20.904 Z "/>
          <path transform="matrix(.6,0,0,.6,254.79802,240.88504)" d="M 71.016 -20.904 L 91.016 -20.904 L 91.016 -.904 L 71.016 -.904 L 71.016 -20.904 Z " fill="#b3a691"/>
          <path transform="matrix(.6,0,0,.6,252.99802,239.08504)" d="M 71.016 -20.904 L 91.016 -20.904 L 91.016 -.904 L 71.016 -.904 L 71.016 -20.904 Z " fill="#eaeaea"/>
          <path transform="matrix(.6,0,0,.6,252.99802,239.08504)" d="M 83.648 -12.675 L 82.601 -12.596 C 82.507 -13.013 82.377 -13.315 82.21 -13.503 C 81.919 -13.805 81.564 -13.956 81.148 -13.956 C 80.814 -13.956 80.518 -13.862 80.257 -13.675 C 79.934 -13.425 79.676 -13.068 79.484 -12.604 C 79.291 -12.141 79.189 -11.482 79.179 -10.628 C 79.429 -11.013 79.739 -11.3 80.109 -11.487 C 80.478 -11.675 80.866 -11.768 81.273 -11.768 C 81.971 -11.768 82.567 -11.508 83.062 -10.987 C 83.557 -10.466 83.804 -9.7995 83.804 -8.987 C 83.804 -8.4453 83.687 -7.9427 83.452 -7.4792 C 83.218 -7.0157 82.898 -6.6615 82.491 -6.4167 C 82.085 -6.1719 81.627 -6.0495 81.116 -6.0495 C 80.231 -6.0495 79.512 -6.3724 78.96 -7.0183 C 78.408 -7.6641 78.132 -8.7266 78.132 -10.206 C 78.132 -11.872 78.439 -13.081 79.054 -13.831 C 79.585 -14.487 80.304 -14.815 81.21 -14.815 C 81.887 -14.815 82.442 -14.625 82.874 -14.245 C 83.307 -13.865 83.564 -13.341 83.648 -12.675 Z M 79.351 -8.9714 C 79.351 -8.6068 79.426 -8.2604 79.577 -7.9323 C 79.728 -7.6042 79.942 -7.3516 80.218 -7.1745 C 80.494 -6.9974 80.788 -6.9089 81.101 -6.9089 C 81.538 -6.9089 81.919 -7.0886 82.241 -7.4479 C 82.564 -7.8073 82.726 -8.2943 82.726 -8.9089 C 82.726 -9.5026 82.567 -9.9714 82.249 -10.315 C 81.932 -10.659 81.533 -10.831 81.054 -10.831 C 80.575 -10.831 80.171 -10.659 79.843 -10.315 C 79.515 -9.9714 79.351 -9.5235 79.351 -8.9714 Z "/>
          <path transform="matrix(.6,0,0,.6,252.99802,239.08504)" stroke-width="1" stroke-linecap="butt" stroke-miterlimit="1.45" stroke-linejoin="miter" fill="none" stroke="#000000" d="M 71.016 -20.904 L 91.016 -20.904 L 91.016 -.904 L 71.016 -.904 L 71.016 -20.904 Z "/>
          <path transform="matrix(.6,0,0,.6,254.79802,240.88504)" d="M 91.016 -20.904 L 111.02 -20.904 L 111.02 -.904 L 91.016 -.904 L 91.016 -20.904 Z " fill="#b3a691"/>
          <path transform="matrix(.6,0,0,.6,252.99802,239.08504)" d="M 91.016 -20.904 L 111.02 -20.904 L 111.02 -.904 L 91.016 -.904 L 91.016 -20.904 Z " fill="#eaeaea"/>
          <path transform="matrix(.6,0,0,.6,252.99802,239.08504)" d="M 98.241 -13.659 L 98.241 -14.675 L 103.8 -14.675 L 103.8 -13.846 C 103.26 -13.263 102.72 -12.49 102.19 -11.526 C 101.65 -10.563 101.24 -9.5703 100.94 -8.5495 C 100.73 -7.8308 100.59 -7.0443 100.54 -6.1901 L 99.445 -6.1901 C 99.455 -6.8672 99.588 -7.6849 99.843 -8.6433 C 100.1 -9.6016 100.46 -10.523 100.94 -11.409 C 101.41 -12.294 101.92 -13.044 102.46 -13.659 L 98.241 -13.659 Z "/>
          <path transform="matrix(.6,0,0,.6,252.99802,239.08504)" stroke-width="1" stroke-linecap="butt" stroke-miterlimit="1.45" stroke-linejoin="miter" fill="none" stroke="#000000" d="M 91.016 -20.904 L 111.02 -20.904 L 111.02 -.904 L 91.016 -.904 L 91.016 -20.904 Z "/>
          <path transform="matrix(.6,0,0,.6,254.79802,240.88504)" d="M 111.02 -20.904 L 131.02 -20.904 L 131.02 -.904 L 111.02 -.904 L 111.02 -20.904 Z " fill="#b3a691"/>
          <path transform="matrix(.6,0,0,.6,252.99802,239.08504)" d="M 111.02 -20.904 L 131.02 -20.904 L 131.02 -.904 L 111.02 -.904 L 111.02 -20.904 Z " fill="#eaeaea"/>
          <path transform="matrix(.6,0,0,.6,252.99802,239.08504)" d="M 119.8 -10.846 C 119.37 -11.013 119.04 -11.245 118.83 -11.542 C 118.61 -11.839 118.51 -12.19 118.51 -12.596 C 118.51 -13.221 118.73 -13.747 119.19 -14.175 C 119.64 -14.602 120.24 -14.815 120.98 -14.815 C 121.73 -14.815 122.33 -14.596 122.79 -14.159 C 123.25 -13.721 123.48 -13.19 123.48 -12.565 C 123.48 -12.169 123.37 -11.826 123.16 -11.534 C 122.96 -11.242 122.64 -11.013 122.21 -10.846 C 122.74 -10.68 123.14 -10.404 123.41 -10.018 C 123.68 -9.6328 123.82 -9.1745 123.82 -8.6433 C 123.82 -7.9141 123.56 -7.2995 123.05 -6.7995 C 122.53 -6.2995 121.85 -6.0495 120.99 -6.0495 C 120.15 -6.0495 119.47 -6.2995 118.94 -6.7995 C 118.42 -7.2995 118.16 -7.9245 118.16 -8.6745 C 118.16 -9.237 118.31 -9.7058 118.59 -10.081 C 118.88 -10.456 119.28 -10.711 119.8 -10.846 Z M 119.59 -12.643 C 119.59 -12.237 119.72 -11.904 119.98 -11.643 C 120.25 -11.383 120.59 -11.253 121.01 -11.253 C 121.41 -11.253 121.75 -11.38 122.01 -11.635 C 122.27 -11.891 122.4 -12.206 122.4 -12.581 C 122.4 -12.966 122.26 -13.292 121.99 -13.557 C 121.72 -13.823 121.39 -13.956 120.99 -13.956 C 120.59 -13.956 120.25 -13.826 119.98 -13.565 C 119.72 -13.305 119.59 -12.997 119.59 -12.643 Z M 119.26 -8.6745 C 119.26 -8.3724 119.33 -8.0808 119.47 -7.7995 C 119.61 -7.5183 119.82 -7.2995 120.1 -7.1433 C 120.38 -6.987 120.68 -6.9089 121.01 -6.9089 C 121.51 -6.9089 121.92 -7.0703 122.25 -7.3933 C 122.58 -7.7162 122.74 -8.1276 122.74 -8.6276 C 122.74 -9.138 122.57 -9.5599 122.24 -9.8933 C 121.91 -10.227 121.49 -10.393 120.98 -10.393 C 120.48 -10.393 120.06 -10.229 119.74 -9.9011 C 119.42 -9.5729 119.26 -9.1641 119.26 -8.6745 Z "/>
          <path transform="matrix(.6,0,0,.6,252.99802,239.08504)" stroke-width="1" stroke-linecap="butt" stroke-miterlimit="1.45" stroke-linejoin="miter" fill="none" stroke="#000000" d="M 111.02 -20.904 L 131.02 -20.904 L 131.02 -.904 L 111.02 -.904 L 111.02 -20.904 Z "/>
          <path transform="matrix(.6,0,0,.6,254.79802,240.88504)" d="M 131.02 -20.904 L 151.02 -20.904 L 151.02 -.904 L 131.02 -.904 L 131.02 -20.904 Z " fill="#b3a691"/>
          <path transform="matrix(.6,0,0,.6,252.99802,239.08504)" d="M 131.02 -20.904 L 151.02 -20.904 L 151.02 -.904 L 131.02 -.904 L 131.02 -20.904 Z " fill="#eaeaea"/>
          <path transform="matrix(.6,0,0,.6,252.99802,239.08504)" d="M 138.34 -8.1745 L 139.35 -8.2683 C 139.43 -7.7891 139.6 -7.4427 139.84 -7.2292 C 140.09 -7.0157 140.4 -6.9089 140.77 -6.9089 C 141.1 -6.9089 141.38 -6.9844 141.62 -7.1354 C 141.87 -7.2865 142.07 -7.4844 142.23 -7.7292 C 142.38 -7.974 142.51 -8.3073 142.62 -8.7292 C 142.72 -9.1511 142.77 -9.5808 142.77 -10.018 C 142.77 -10.07 142.77 -10.143 142.77 -10.237 C 142.56 -9.9037 142.28 -9.6302 141.91 -9.4167 C 141.55 -9.2032 141.15 -9.0964 140.73 -9.0964 C 140.01 -9.0964 139.4 -9.3542 138.91 -9.8698 C 138.42 -10.385 138.18 -11.065 138.18 -11.909 C 138.18 -12.784 138.44 -13.487 138.95 -14.018 C 139.47 -14.55 140.11 -14.815 140.88 -14.815 C 141.43 -14.815 141.94 -14.664 142.41 -14.362 C 142.87 -14.06 143.22 -13.63 143.46 -13.073 C 143.7 -12.516 143.82 -11.711 143.82 -10.659 C 143.82 -9.5651 143.7 -8.6927 143.47 -8.0417 C 143.23 -7.3907 142.88 -6.8959 142.41 -6.5573 C 141.93 -6.2188 141.38 -6.0495 140.76 -6.0495 C 140.08 -6.0495 139.53 -6.2344 139.1 -6.6042 C 138.67 -6.974 138.42 -7.4974 138.34 -8.1745 Z M 142.65 -11.971 C 142.65 -12.576 142.49 -13.055 142.17 -13.409 C 141.85 -13.763 141.47 -13.94 141.01 -13.94 C 140.54 -13.94 140.13 -13.75 139.78 -13.37 C 139.43 -12.99 139.26 -12.492 139.26 -11.878 C 139.26 -11.336 139.42 -10.893 139.76 -10.55 C 140.09 -10.206 140.5 -10.034 140.98 -10.034 C 141.47 -10.034 141.87 -10.206 142.18 -10.55 C 142.49 -10.893 142.65 -11.367 142.65 -11.971 Z "/>
          <path transform="matrix(.6,0,0,.6,252.99802,239.08504)" stroke-width="1" stroke-linecap="butt" stroke-miterlimit="1.45" stroke-linejoin="miter" fill="none" stroke="#000000" d="M 131.02 -20.904 L 151.02 -20.904 L 151.02 -.904 L 131.02 -.904 L 131.02 -20.904 Z "/>
          <path transform="matrix(.6,0,0,.6,254.79802,240.88504)" d="M -48.984 -51.904 L -28.984 -51.904 L -28.984 -31.904 L -48.984 -31.904 L -48.984 -51.904 Z " fill="#b3a691"/>
          <path transform="matrix(.6,0,0,.6,252.99802,239.08504)" d="M -48.984 -51.904 L -28.984 -51.904 L -28.984 -31.904 L -48.984 -31.904 L -48.984 -51.904 Z " fill="#cfe2f3"/>
          <path transform="matrix(.6,0,0,.6,252.99802,239.08504)" stroke-width="1" stroke-linecap="butt" stroke-miterlimit="1.45" stroke-linejoin="miter" fill="none" stroke="#000000" d="M -48.984 -51.904 L -28.984 -51.904 L -28.984 -31.904 L -48.984 -31.904 L -48.984 -51.904 Z "/>
          <path transform="matrix(.6,0,0,.6,254.79802,240.88504)" d="M -28.984 -51.904 L -8.9841 -51.904 L -8.9841 -31.904 L -28.984 -31.904 L -28.984 -51.904 Z " fill="#b3a691"/>
          <path transform="matrix(.6,0,0,.6,252.99802,239.08504)" d="M -28.984 -51.904 L -8.9841 -51.904 L -8.9841 -31.904 L -28.984 -31.904 L -28.984 -51.904 Z " fill="#cfe2f3"/>
          <path transform="matrix(.6,0,0,.6,252.99802,239.08504)" stroke-width="1" stroke-linecap="butt" stroke-miterlimit="1.45" stroke-linejoin="miter" fill="none" stroke="#000000" d="M -28.984 -51.904 L -8.9841 -51.904 L -8.9841 -31.904 L -28.984 -31.904 L -28.984 -51.904 Z "/>
          <path transform="matrix(.6,0,0,.6,254.79802,240.88504)" d="M -8.9841 -51.904 L 11.016 -51.904 L 11.016 -31.904 L -8.9841 -31.904 L -8.9841 -51.904 Z " fill="#b3a691"/>
          <path transform="matrix(.6,0,0,.6,252.99802,239.08504)" d="M -8.9841 -51.904 L 11.016 -51.904 L 11.016 -31.904 L -8.9841 -31.904 L -8.9841 -51.904 Z " fill="#cfe2f3"/>
          <path transform="matrix(.6,0,0,.6,252.99802,239.08504)" stroke-width="1" stroke-linecap="butt" stroke-miterlimit="1.45" stroke-linejoin="miter" fill="none" stroke="#000000" d="M -8.9841 -51.904 L 11.016 -51.904 L 11.016 -31.904 L -8.9841 -31.904 L -8.9841 -51.904 Z "/>
          <path transform="matrix(.6,0,0,.6,252.99802,239.08504)" d="M -9.4841 -10.404 L 51.516 -10.404 L 51.516 4.596 L -9.4841 4.596 L -9.4841 -10.404 Z " fill="#ffffff"/>
          <path transform="matrix(.6,0,0,.6,252.99802,239.08504)" d="M -2.6707 1.8099 L -2.6707 -6.7839 L 3.1262 -6.7839 L 3.1262 -5.7683 L -1.53 -5.7683 L -1.53 -3.112 L 2.5012 -3.112 L 2.5012 -2.0964 L -1.53 -2.0964 L -1.53 1.8099 L -2.6707 1.8099 Z M 4.4719 -5.5651 L 4.4719 -6.7839 L 5.5344 -6.7839 L 5.5344 -5.5651 L 4.4719 -5.5651 Z M 4.4719 1.8099 L 4.4719 -4.4089 L 5.5344 -4.4089 L 5.5344 1.8099 L 4.4719 1.8099 Z M 7.1223 1.8099 L 7.1223 -4.4089 L 8.0754 -4.4089 L 8.0754 -3.4714 C 8.315 -3.9089 8.5364 -4.1979 8.7395 -4.3386 C 8.9426 -4.4792 9.1692 -4.5495 9.4192 -4.5495 C 9.7734 -4.5495 10.133 -4.4401 10.497 -4.2214 L 10.138 -3.237 C 9.8775 -3.3933 9.6223 -3.4714 9.3723 -3.4714 C 9.1327 -3.4714 8.9218 -3.4011 8.7395 -3.2604 C 8.5572 -3.1198 8.4296 -2.9245 8.3567 -2.6745 C 8.2317 -2.2995 8.1692 -1.8933 8.1692 -1.4558 L 8.1692 1.8099 L 7.1223 1.8099 Z M 10.712 -.049508 L 11.743 -.20576 C 11.806 .21091 11.97 .52862 12.236 .74737 C 12.501 .96612 12.879 1.0755 13.368 1.0755 C 13.848 1.0755 14.204 .97914 14.439 .78643 C 14.673 .59372 14.79 .36195 14.79 .091117 C 14.79 -.14847 14.686 -.33597 14.478 -.47138 C 14.332 -.56513 13.973 -.68492 13.4 -.83076 C 12.629 -1.0287 12.095 -1.1979 11.798 -1.3386 C 11.501 -1.4792 11.275 -1.6745 11.118 -1.9245 C 10.962 -2.1745 10.884 -2.4558 10.884 -2.7683 C 10.884 -3.0391 10.947 -3.2943 11.072 -3.5339 C 11.197 -3.7735 11.368 -3.9714 11.587 -4.1276 C 11.754 -4.2422 11.978 -4.3412 12.259 -4.4245 C 12.54 -4.5078 12.848 -4.5495 13.181 -4.5495 C 13.66 -4.5495 14.085 -4.4792 14.454 -4.3386 C 14.824 -4.1979 15.098 -4.0078 15.275 -3.7683 C 15.452 -3.5287 15.572 -3.211 15.634 -2.8151 L 14.603 -2.6745 C 14.561 -2.987 14.428 -3.2344 14.204 -3.4167 C 13.98 -3.599 13.66 -3.6901 13.243 -3.6901 C 12.764 -3.6901 12.42 -3.6094 12.212 -3.4479 C 12.004 -3.2865 11.9 -3.0964 11.9 -2.8776 C 11.9 -2.7422 11.941 -2.6224 12.025 -2.5183 C 12.118 -2.4037 12.254 -2.3099 12.431 -2.237 C 12.535 -2.1953 12.848 -2.1068 13.368 -1.9714 C 14.118 -1.763 14.639 -1.5964 14.931 -1.4714 C 15.223 -1.3464 15.452 -1.1641 15.618 -.92451 C 15.785 -.68492 15.868 -.38284 15.868 -.018258 C 15.868 .33591 15.767 .66664 15.564 .97393 C 15.361 1.2812 15.066 1.5208 14.681 1.6927 C 14.295 1.8646 13.858 1.9505 13.368 1.9505 C 12.556 1.9505 11.939 1.7812 11.517 1.4427 C 11.095 1.1041 10.827 .60674 10.712 -.049508 Z M 19.431 .87237 L 19.587 1.7942 C 19.285 1.8567 19.019 1.888 18.79 1.888 C 18.405 1.888 18.108 1.8281 17.9 1.7083 C 17.691 1.5885 17.543 1.4297 17.454 1.2317 C 17.366 1.0338 17.322 .61716 17.322 -.018258 L 17.322 -3.5964 L 16.556 -3.5964 L 16.556 -4.4089 L 17.322 -4.4089 L 17.322 -5.9558 L 18.368 -6.5808 L 18.368 -4.4089 L 19.431 -4.4089 L 19.431 -3.5964 L 18.368 -3.5964 L 18.368 .044242 C 18.368 .34633 18.387 .53903 18.423 .62237 C 18.46 .7057 18.519 .77341 18.603 .82549 C 18.686 .87758 18.806 .90362 18.962 .90362 C 19.087 .90362 19.243 .8932 19.431 .87237 Z M 27.958 -1.5651 L 27.958 -2.5651 L 31.583 -2.5808 L 31.583 .60674 C 31.031 1.0547 30.458 1.3906 29.865 1.6146 C 29.271 1.8385 28.661 1.9505 28.036 1.9505 C 27.193 1.9505 26.424 1.7708 25.732 1.4114 C 25.039 1.0521 24.518 .53122 24.169 -.15107 C 23.82 -.83336 23.646 -1.5964 23.646 -2.4401 C 23.646 -3.2839 23.82 -4.0677 24.169 -4.7917 C 24.518 -5.5157 25.021 -6.0521 25.677 -6.4011 C 26.333 -6.75 27.088 -6.9245 27.943 -6.9245 C 28.568 -6.9245 29.13 -6.8255 29.63 -6.6276 C 30.13 -6.4297 30.523 -6.1511 30.81 -5.7917 C 31.096 -5.4323 31.312 -4.961 31.458 -4.3776 L 30.443 -4.0964 C 30.307 -4.5339 30.143 -4.8776 29.95 -5.1276 C 29.758 -5.3776 29.484 -5.5782 29.13 -5.7292 C 28.776 -5.8802 28.385 -5.9558 27.958 -5.9558 C 27.437 -5.9558 26.987 -5.8776 26.607 -5.7214 C 26.226 -5.5651 25.919 -5.3568 25.685 -5.0964 C 25.45 -4.836 25.271 -4.5495 25.146 -4.237 C 24.927 -3.7058 24.818 -3.1328 24.818 -2.5183 C 24.818 -1.7474 24.95 -1.1042 25.216 -.58857 C 25.482 -.072945 25.865 .30987 26.365 .55987 C 26.865 .80987 27.401 .93487 27.974 .93487 C 28.463 .93487 28.943 .83851 29.411 .6458 C 29.88 .4531 30.234 .25258 30.474 .044242 L 30.474 -1.5651 L 27.958 -1.5651 Z M 37.198 1.0442 C 36.803 1.3776 36.425 1.612 36.066 1.7474 C 35.706 1.8828 35.318 1.9505 34.902 1.9505 C 34.214 1.9505 33.688 1.7838 33.323 1.4505 C 32.959 1.1172 32.777 .69008 32.777 .16924 C 32.777 -.13284 32.844 -.41149 32.98 -.6667 C 33.115 -.9219 33.297 -1.125 33.527 -1.2761 C 33.756 -1.4271 34.011 -1.5391 34.292 -1.612 C 34.49 -1.6745 34.803 -1.7318 35.23 -1.7839 C 36.073 -1.8776 36.698 -1.9974 37.105 -2.1433 C 37.105 -2.2891 37.105 -2.3776 37.105 -2.4089 C 37.105 -2.8464 37.006 -3.1537 36.808 -3.3308 C 36.537 -3.5599 36.136 -3.6745 35.605 -3.6745 C 35.115 -3.6745 34.751 -3.5886 34.511 -3.4167 C 34.271 -3.2448 34.094 -2.9401 33.98 -2.5026 L 32.948 -2.6433 C 33.042 -3.0808 33.198 -3.4349 33.417 -3.7058 C 33.636 -3.9766 33.948 -4.1849 34.355 -4.3308 C 34.761 -4.4766 35.23 -4.5495 35.761 -4.5495 C 36.292 -4.5495 36.725 -4.487 37.058 -4.362 C 37.391 -4.237 37.636 -4.0808 37.792 -3.8933 C 37.948 -3.7058 38.058 -3.4662 38.12 -3.1745 C 38.152 -2.9974 38.167 -2.6745 38.167 -2.2058 L 38.167 -.79951 C 38.167 .17966 38.191 .79945 38.238 1.0599 C 38.284 1.3203 38.376 1.5703 38.511 1.8099 L 37.402 1.8099 C 37.297 1.5911 37.23 1.3359 37.198 1.0442 Z M 37.105 -1.3151 C 36.719 -1.1589 36.146 -1.0235 35.386 -.90888 C 34.948 -.84638 34.641 -.77607 34.464 -.69795 C 34.287 -.61982 34.149 -.50784 34.05 -.36201 C 33.951 -.21617 33.902 -.049508 33.902 .13799 C 33.902 .41924 34.008 .65362 34.222 .84112 C 34.435 1.0286 34.745 1.1224 35.152 1.1224 C 35.558 1.1224 35.92 1.0338 36.238 .85674 C 36.555 .67966 36.787 .43487 36.933 .12237 C 37.047 -.11722 37.105 -.46617 37.105 -.92451 L 37.105 -1.3151 Z M 39.81 4.2005 L 39.81 -4.4089 L 40.763 -4.4089 L 40.763 -3.612 C 40.992 -3.9245 41.25 -4.1589 41.536 -4.3151 C 41.823 -4.4714 42.169 -4.5495 42.575 -4.5495 C 43.107 -4.5495 43.575 -4.4141 43.982 -4.1433 C 44.388 -3.8724 44.693 -3.487 44.896 -2.987 C 45.099 -2.487 45.2 -1.9401 45.2 -1.3464 C 45.2 -.71097 45.088 -.13805 44.865 .37237 C 44.641 .88278 44.31 1.2734 43.872 1.5442 C 43.435 1.8151 42.976 1.9505 42.497 1.9505 C 42.143 1.9505 41.825 1.875 41.544 1.7239 C 41.263 1.5729 41.034 1.388 40.857 1.1692 L 40.857 4.2005 L 39.81 4.2005 Z M 40.763 -1.2683 C 40.763 -.46617 40.924 .12497 41.247 .50518 C 41.57 .88539 41.961 1.0755 42.419 1.0755 C 42.888 1.0755 43.289 .87758 43.622 .48174 C 43.956 .085909 44.122 -.52867 44.122 -1.362 C 44.122 -2.1537 43.961 -2.7448 43.638 -3.1354 C 43.315 -3.5261 42.924 -3.7214 42.466 -3.7214 C 42.018 -3.7214 41.622 -3.513 41.279 -3.0964 C 40.935 -2.6797 40.763 -2.0703 40.763 -1.2683 Z "/>
          <path transform="matrix(.6,0,0,.6,252.99802,239.08504)" stroke-width="1" stroke-linecap="butt" stroke-miterlimit="1.45" stroke-linejoin="miter" fill="none" stroke="#000000" d="M -9.4841 -10.404 L 51.516 -10.404 L 51.516 4.596 L -9.4841 4.596 L -9.4841 -10.404 Z "/>
          <path transform="matrix(.6,0,0,.6,252.99802,239.08504)" d="M 91.016 -10.404 L 152.02 -10.404 L 152.02 4.596 L 91.016 4.596 L 91.016 -10.404 Z " fill="#ffffff"/>
          <path transform="matrix(.6,0,0,.6,252.99802,239.08504)" d="M 98.042 1.8099 L 98.042 -6.7839 L 99.183 -6.7839 L 99.183 .79424 L 103.42 .79424 L 103.42 1.8099 L 98.042 1.8099 Z M 108.7 1.0442 C 108.3 1.3776 107.93 1.612 107.57 1.7474 C 107.21 1.8828 106.82 1.9505 106.4 1.9505 C 105.72 1.9505 105.19 1.7838 104.83 1.4505 C 104.46 1.1172 104.28 .69008 104.28 .16924 C 104.28 -.13284 104.35 -.41149 104.48 -.6667 C 104.62 -.9219 104.8 -1.125 105.03 -1.2761 C 105.26 -1.4271 105.51 -1.5391 105.79 -1.612 C 105.99 -1.6745 106.3 -1.7318 106.73 -1.7839 C 107.58 -1.8776 108.2 -1.9974 108.61 -2.1433 C 108.61 -2.2891 108.61 -2.3776 108.61 -2.4089 C 108.61 -2.8464 108.51 -3.1537 108.31 -3.3308 C 108.04 -3.5599 107.64 -3.6745 107.11 -3.6745 C 106.62 -3.6745 106.25 -3.5886 106.01 -3.4167 C 105.77 -3.2448 105.6 -2.9401 105.48 -2.5026 L 104.45 -2.6433 C 104.54 -3.0808 104.7 -3.4349 104.92 -3.7058 C 105.14 -3.9766 105.45 -4.1849 105.86 -4.3308 C 106.26 -4.4766 106.73 -4.5495 107.26 -4.5495 C 107.79 -4.5495 108.23 -4.487 108.56 -4.362 C 108.89 -4.237 109.14 -4.0808 109.29 -3.8933 C 109.45 -3.7058 109.56 -3.4662 109.62 -3.1745 C 109.65 -2.9974 109.67 -2.6745 109.67 -2.2058 L 109.67 -.79951 C 109.67 .17966 109.69 .79945 109.74 1.0599 C 109.79 1.3203 109.88 1.5703 110.01 1.8099 L 108.9 1.8099 C 108.8 1.5911 108.73 1.3359 108.7 1.0442 Z M 108.61 -1.3151 C 108.22 -1.1589 107.65 -1.0235 106.89 -.90888 C 106.45 -.84638 106.14 -.77607 105.97 -.69795 C 105.79 -.61982 105.65 -.50784 105.55 -.36201 C 105.45 -.21617 105.4 -.049508 105.4 .13799 C 105.4 .41924 105.51 .65362 105.72 .84112 C 105.94 1.0286 106.25 1.1224 106.65 1.1224 C 107.06 1.1224 107.42 1.0338 107.74 .85674 C 108.06 .67966 108.29 .43487 108.43 .12237 C 108.55 -.11722 108.61 -.46617 108.61 -.92451 L 108.61 -1.3151 Z M 110.89 -.049508 L 111.92 -.20576 C 111.98 .21091 112.15 .52862 112.41 .74737 C 112.68 .96612 113.06 1.0755 113.55 1.0755 C 114.03 1.0755 114.38 .97914 114.62 .78643 C 114.85 .59372 114.97 .36195 114.97 .091117 C 114.97 -.14847 114.86 -.33597 114.66 -.47138 C 114.51 -.56513 114.15 -.68492 113.58 -.83076 C 112.81 -1.0287 112.27 -1.1979 111.98 -1.3386 C 111.68 -1.4792 111.45 -1.6745 111.3 -1.9245 C 111.14 -2.1745 111.06 -2.4558 111.06 -2.7683 C 111.06 -3.0391 111.12 -3.2943 111.25 -3.5339 C 111.37 -3.7735 111.55 -3.9714 111.76 -4.1276 C 111.93 -4.2422 112.16 -4.3412 112.44 -4.4245 C 112.72 -4.5078 113.03 -4.5495 113.36 -4.5495 C 113.84 -4.5495 114.26 -4.4792 114.63 -4.3386 C 115 -4.1979 115.28 -4.0078 115.45 -3.7683 C 115.63 -3.5287 115.75 -3.211 115.81 -2.8151 L 114.78 -2.6745 C 114.74 -2.987 114.61 -3.2344 114.38 -3.4167 C 114.16 -3.599 113.84 -3.6901 113.42 -3.6901 C 112.94 -3.6901 112.6 -3.6094 112.39 -3.4479 C 112.18 -3.2865 112.08 -3.0964 112.08 -2.8776 C 112.08 -2.7422 112.12 -2.6224 112.2 -2.5183 C 112.3 -2.4037 112.43 -2.3099 112.61 -2.237 C 112.71 -2.1953 113.03 -2.1068 113.55 -1.9714 C 114.3 -1.763 114.82 -1.5964 115.11 -1.4714 C 115.4 -1.3464 115.63 -1.1641 115.8 -.92451 C 115.96 -.68492 116.05 -.38284 116.05 -.018258 C 116.05 .33591 115.94 .66664 115.74 .97393 C 115.54 1.2812 115.24 1.5208 114.86 1.6927 C 114.47 1.8646 114.04 1.9505 113.55 1.9505 C 112.73 1.9505 112.12 1.7812 111.69 1.4427 C 111.27 1.1041 111 .60674 110.89 -.049508 Z M 119.61 .87237 L 119.76 1.7942 C 119.46 1.8567 119.2 1.888 118.97 1.888 C 118.58 1.888 118.29 1.8281 118.08 1.7083 C 117.87 1.5885 117.72 1.4297 117.63 1.2317 C 117.54 1.0338 117.5 .61716 117.5 -.018258 L 117.5 -3.5964 L 116.73 -3.5964 L 116.73 -4.4089 L 117.5 -4.4089 L 117.5 -5.9558 L 118.55 -6.5808 L 118.55 -4.4089 L 119.61 -4.4089 L 119.61 -3.5964 L 118.55 -3.5964 L 118.55 .044242 C 118.55 .34633 118.56 .53903 118.6 .62237 C 118.64 .7057 118.7 .77341 118.78 .82549 C 118.86 .87758 118.98 .90362 119.14 .90362 C 119.26 .90362 119.42 .8932 119.61 .87237 Z M 128.14 -1.5651 L 128.14 -2.5651 L 131.76 -2.5808 L 131.76 .60674 C 131.21 1.0547 130.64 1.3906 130.04 1.6146 C 129.45 1.8385 128.84 1.9505 128.21 1.9505 C 127.37 1.9505 126.6 1.7708 125.91 1.4114 C 125.22 1.0521 124.7 .53122 124.35 -.15107 C 124 -.83336 123.82 -1.5964 123.82 -2.4401 C 123.82 -3.2839 124 -4.0677 124.35 -4.7917 C 124.7 -5.5157 125.2 -6.0521 125.85 -6.4011 C 126.51 -6.75 127.27 -6.9245 128.12 -6.9245 C 128.75 -6.9245 129.31 -6.8255 129.81 -6.6276 C 130.31 -6.4297 130.7 -6.1511 130.99 -5.7917 C 131.27 -5.4323 131.49 -4.961 131.64 -4.3776 L 130.62 -4.0964 C 130.48 -4.5339 130.32 -4.8776 130.13 -5.1276 C 129.94 -5.3776 129.66 -5.5782 129.31 -5.7292 C 128.95 -5.8802 128.56 -5.9558 128.14 -5.9558 C 127.62 -5.9558 127.16 -5.8776 126.78 -5.7214 C 126.4 -5.5651 126.1 -5.3568 125.86 -5.0964 C 125.63 -4.836 125.45 -4.5495 125.32 -4.237 C 125.1 -3.7058 125 -3.1328 125 -2.5183 C 125 -1.7474 125.13 -1.1042 125.39 -.58857 C 125.66 -.072945 126.04 .30987 126.54 .55987 C 127.04 .80987 127.58 .93487 128.15 .93487 C 128.64 .93487 129.12 .83851 129.59 .6458 C 130.06 .4531 130.41 .25258 130.65 .044242 L 130.65 -1.5651 L 128.14 -1.5651 Z M 137.38 1.0442 C 136.98 1.3776 136.6 1.612 136.24 1.7474 C 135.88 1.8828 135.5 1.9505 135.08 1.9505 C 134.39 1.9505 133.87 1.7838 133.5 1.4505 C 133.14 1.1172 132.95 .69008 132.95 .16924 C 132.95 -.13284 133.02 -.41149 133.16 -.6667 C 133.29 -.9219 133.48 -1.125 133.7 -1.2761 C 133.93 -1.4271 134.19 -1.5391 134.47 -1.612 C 134.67 -1.6745 134.98 -1.7318 135.41 -1.7839 C 136.25 -1.8776 136.88 -1.9974 137.28 -2.1433 C 137.28 -2.2891 137.28 -2.3776 137.28 -2.4089 C 137.28 -2.8464 137.18 -3.1537 136.99 -3.3308 C 136.71 -3.5599 136.31 -3.6745 135.78 -3.6745 C 135.29 -3.6745 134.93 -3.5886 134.69 -3.4167 C 134.45 -3.2448 134.27 -2.9401 134.16 -2.5026 L 133.13 -2.6433 C 133.22 -3.0808 133.38 -3.4349 133.59 -3.7058 C 133.81 -3.9766 134.13 -4.1849 134.53 -4.3308 C 134.94 -4.4766 135.41 -4.5495 135.94 -4.5495 C 136.47 -4.5495 136.9 -4.487 137.24 -4.362 C 137.57 -4.237 137.81 -4.0808 137.97 -3.8933 C 138.13 -3.7058 138.24 -3.4662 138.3 -3.1745 C 138.33 -2.9974 138.34 -2.6745 138.34 -2.2058 L 138.34 -.79951 C 138.34 .17966 138.37 .79945 138.42 1.0599 C 138.46 1.3203 138.55 1.5703 138.69 1.8099 L 137.58 1.8099 C 137.48 1.5911 137.41 1.3359 137.38 1.0442 Z M 137.28 -1.3151 C 136.9 -1.1589 136.32 -1.0235 135.56 -.90888 C 135.13 -.84638 134.82 -.77607 134.64 -.69795 C 134.46 -.61982 134.33 -.50784 134.23 -.36201 C 134.13 -.21617 134.08 -.049508 134.08 .13799 C 134.08 .41924 134.19 .65362 134.4 .84112 C 134.61 1.0286 134.92 1.1224 135.33 1.1224 C 135.74 1.1224 136.1 1.0338 136.42 .85674 C 136.73 .67966 136.96 .43487 137.11 .12237 C 137.23 -.11722 137.28 -.46617 137.28 -.92451 L 137.28 -1.3151 Z M 139.99 4.2005 L 139.99 -4.4089 L 140.94 -4.4089 L 140.94 -3.612 C 141.17 -3.9245 141.43 -4.1589 141.71 -4.3151 C 142 -4.4714 142.35 -4.5495 142.75 -4.5495 C 143.28 -4.5495 143.75 -4.4141 144.16 -4.1433 C 144.57 -3.8724 144.87 -3.487 145.07 -2.987 C 145.28 -2.487 145.38 -1.9401 145.38 -1.3464 C 145.38 -.71097 145.27 -.13805 145.04 .37237 C 144.82 .88278 144.49 1.2734 144.05 1.5442 C 143.61 1.8151 143.15 1.9505 142.68 1.9505 C 142.32 1.9505 142 1.875 141.72 1.7239 C 141.44 1.5729 141.21 1.388 141.03 1.1692 L 141.03 4.2005 L 139.99 4.2005 Z M 140.94 -1.2683 C 140.94 -.46617 141.1 .12497 141.43 .50518 C 141.75 .88539 142.14 1.0755 142.6 1.0755 C 143.07 1.0755 143.47 .87758 143.8 .48174 C 144.13 .085909 144.3 -.52867 144.3 -1.362 C 144.3 -2.1537 144.14 -2.7448 143.82 -3.1354 C 143.49 -3.5261 143.1 -3.7214 142.64 -3.7214 C 142.2 -3.7214 141.8 -3.513 141.46 -3.0964 C 141.11 -2.6797 140.94 -2.0703 140.94 -1.2683 Z "/>
          <path transform="matrix(.6,0,0,.6,252.99802,239.08504)" stroke-width="1" stroke-linecap="butt" stroke-miterlimit="1.45" stroke-linejoin="miter" fill="none" stroke="#000000" d="M 91.016 -10.404 L 152.02 -10.404 L 152.02 4.596 L 91.016 4.596 L 91.016 -10.404 Z "/>
          <path transform="matrix(.6,0,0,.6,254.79802,240.88504)" d="M 11.016 -51.904 L 31.016 -51.904 L 31.016 -31.904 L 11.016 -31.904 L 11.016 -51.904 Z " fill="#b3a691"/>
          <path transform="matrix(.6,0,0,.6,252.99802,239.08504)" d="M 11.016 -51.904 L 31.016 -51.904 L 31.016 -31.904 L 11.016 -31.904 L 11.016 -51.904 Z " fill="#dfc5ca"/>
          <path transform="matrix(.6,0,0,.6,252.99802,239.08504)" d="M 18.11 -37.19 L 20.375 -40.425 L 18.281 -43.409 L 19.594 -43.409 L 20.547 -41.956 C 20.724 -41.675 20.87 -41.44 20.985 -41.253 C 21.151 -41.513 21.308 -41.742 21.453 -41.94 L 22.5 -43.409 L 23.766 -43.409 L 21.61 -40.487 L 23.922 -37.19 L 22.641 -37.19 L 21.36 -39.128 L 21.016 -39.643 L 19.375 -37.19 L 18.11 -37.19 Z "/>
          <path transform="matrix(.6,0,0,.6,252.99802,239.08504)" stroke-width="1" stroke-linecap="butt" stroke-miterlimit="1.45" stroke-linejoin="miter" fill="none" stroke="#000000" d="M 11.016 -51.904 L 31.016 -51.904 L 31.016 -31.904 L 11.016 -31.904 L 11.016 -51.904 Z "/>
          <path transform="matrix(.6,0,0,.6,254.79802,240.88504)" d="M 31.016 -51.904 L 51.016 -51.904 L 51.016 -31.904 L 31.016 -31.904 L 31.016 -51.904 Z " fill="#b3a691"/>
          <path transform="matrix(.6,0,0,.6,252.99802,239.08504)" d="M 31.016 -51.904 L 51.016 -51.904 L 51.016 -31.904 L 31.016 -31.904 L 31.016 -51.904 Z " fill="#dfc5ca"/>
          <path transform="matrix(.6,0,0,.6,252.99802,239.08504)" d="M 38.11 -37.19 L 40.375 -40.425 L 38.281 -43.409 L 39.594 -43.409 L 40.547 -41.956 C 40.724 -41.675 40.87 -41.44 40.985 -41.253 C 41.151 -41.513 41.308 -41.742 41.453 -41.94 L 42.5 -43.409 L 43.766 -43.409 L 41.61 -40.487 L 43.922 -37.19 L 42.641 -37.19 L 41.36 -39.128 L 41.016 -39.643 L 39.375 -37.19 L 38.11 -37.19 Z "/>
          <path transform="matrix(.6,0,0,.6,252.99802,239.08504)" stroke-width="1" stroke-linecap="butt" stroke-miterlimit="1.45" stroke-linejoin="miter" fill="none" stroke="#000000" d="M 31.016 -51.904 L 51.016 -51.904 L 51.016 -31.904 L 31.016 -31.904 L 31.016 -51.904 Z "/>
          <path transform="matrix(.6,0,0,.6,254.79802,240.88504)" d="M 51.016 -51.904 L 71.016 -51.904 L 71.016 -31.904 L 51.016 -31.904 L 51.016 -51.904 Z " fill="#b3a691"/>
          <path transform="matrix(.6,0,0,.6,252.99802,239.08504)" d="M 51.016 -51.904 L 71.016 -51.904 L 71.016 -31.904 L 51.016 -31.904 L 51.016 -51.904 Z " fill="#cfe2f3"/>
          <path transform="matrix(.6,0,0,.6,252.99802,239.08504)" stroke-width="1" stroke-linecap="butt" stroke-miterlimit="1.45" stroke-linejoin="miter" fill="none" stroke="#000000" d="M 51.016 -51.904 L 71.016 -51.904 L 71.016 -31.904 L 51.016 -31.904 L 51.016 -51.904 Z "/>
          <path transform="matrix(.6,0,0,.6,252.99802,239.08504)" d="M 171.02 -51.904 L 191.02 -51.904 L 191.02 -31.904 L 171.02 -31.904 L 171.02 -51.904 Z " fill="#ffffff"/>
          <path transform="matrix(.6,0,0,.6,252.99802,239.08504)" stroke-width="1" stroke-linecap="butt" stroke-dasharray="6,2" stroke-miterlimit="1.45" stroke-linejoin="miter" fill="none" stroke="#000000" d="M 171.02 -51.904 L 191.02 -51.904 L 191.02 -31.904 L 171.02 -31.904 L 171.02 -51.904 Z "/>
          <path transform="matrix(.6,0,0,.6,254.79802,240.88504)" d="M 71.016 -51.904 L 91.016 -51.904 L 91.016 -31.904 L 71.016 -31.904 L 71.016 -51.904 Z " fill="#b3a691"/>
          <path transform="matrix(.6,0,0,.6,252.99802,239.08504)" d="M 71.016 -51.904 L 91.016 -51.904 L 91.016 -31.904 L 71.016 -31.904 L 71.016 -51.904 Z " fill="#dfc5ca"/>
          <path transform="matrix(.6,0,0,.6,252.99802,239.08504)" d="M 78.11 -37.19 L 80.375 -40.425 L 78.282 -43.409 L 79.594 -43.409 L 80.547 -41.956 C 80.724 -41.675 80.87 -41.44 80.985 -41.253 C 81.151 -41.513 81.308 -41.742 81.453 -41.94 L 82.5 -43.409 L 83.766 -43.409 L 81.61 -40.487 L 83.922 -37.19 L 82.641 -37.19 L 81.36 -39.128 L 81.016 -39.643 L 79.375 -37.19 L 78.11 -37.19 Z "/>
          <path transform="matrix(.6,0,0,.6,252.99802,239.08504)" stroke-width="1" stroke-linecap="butt" stroke-miterlimit="1.45" stroke-linejoin="miter" fill="none" stroke="#000000" d="M 71.016 -51.904 L 91.016 -51.904 L 91.016 -31.904 L 71.016 -31.904 L 71.016 -51.904 Z "/>
          <path transform="matrix(.6,0,0,.6,254.79802,240.88504)" d="M 91.016 -51.904 L 111.02 -51.904 L 111.02 -31.904 L 91.016 -31.904 L 91.016 -51.904 Z " fill="#b3a691"/>
          <path transform="matrix(.6,0,0,.6,252.99802,239.08504)" d="M 91.016 -51.904 L 111.02 -51.904 L 111.02 -31.904 L 91.016 -31.904 L 91.016 -51.904 Z " fill="#cfe2f3"/>
          <path transform="matrix(.6,0,0,.6,252.99802,239.08504)" stroke-width="1" stroke-linecap="butt" stroke-miterlimit="1.45" stroke-linejoin="miter" fill="none" stroke="#000000" d="M 91.016 -51.904 L 111.02 -51.904 L 111.02 -31.904 L 91.016 -31.904 L 91.016 -51.904 Z "/>
          <path transform="matrix(.6,0,0,.6,254.79802,240.88504)" d="M 111.02 -51.904 L 131.02 -51.904 L 131.02 -31.904 L 111.02 -31.904 L 111.02 -51.904 Z " fill="#b3a691"/>
          <path transform="matrix(.6,0,0,.6,252.99802,239.08504)" d="M 111.02 -51.904 L 131.02 -51.904 L 131.02 -31.904 L 111.02 -31.904 L 111.02 -51.904 Z " fill="#dfc5ca"/>
          <path transform="matrix(.6,0,0,.6,252.99802,239.08504)" d="M 118.11 -37.19 L 120.38 -40.425 L 118.28 -43.409 L 119.59 -43.409 L 120.55 -41.956 C 120.72 -41.675 120.87 -41.44 120.98 -41.253 C 121.15 -41.513 121.31 -41.742 121.45 -41.94 L 122.5 -43.409 L 123.77 -43.409 L 121.61 -40.487 L 123.92 -37.19 L 122.64 -37.19 L 121.36 -39.128 L 121.02 -39.643 L 119.38 -37.19 L 118.11 -37.19 Z "/>
          <path transform="matrix(.6,0,0,.6,252.99802,239.08504)" stroke-width="1" stroke-linecap="butt" stroke-miterlimit="1.45" stroke-linejoin="miter" fill="none" stroke="#000000" d="M 111.02 -51.904 L 131.02 -51.904 L 131.02 -31.904 L 111.02 -31.904 L 111.02 -51.904 Z "/>
          <path transform="matrix(.6,0,0,.6,254.79802,240.88504)" d="M 131.02 -51.904 L 151.02 -51.904 L 151.02 -31.904 L 131.02 -31.904 L 131.02 -51.904 Z " fill="#b3a691"/>
          <path transform="matrix(.6,0,0,.6,252.99802,239.08504)" d="M 131.02 -51.904 L 151.02 -51.904 L 151.02 -31.904 L 131.02 -31.904 L 131.02 -51.904 Z " fill="#dfc5ca"/>
          <path transform="matrix(.6,0,0,.6,252.99802,239.08504)" d="M 138.11 -37.19 L 140.38 -40.425 L 138.28 -43.409 L 139.59 -43.409 L 140.55 -41.956 C 140.72 -41.675 140.87 -41.44 140.98 -41.253 C 141.15 -41.513 141.31 -41.742 141.45 -41.94 L 142.5 -43.409 L 143.77 -43.409 L 141.61 -40.487 L 143.92 -37.19 L 142.64 -37.19 L 141.36 -39.128 L 141.02 -39.643 L 139.38 -37.19 L 138.11 -37.19 Z "/>
          <path transform="matrix(.6,0,0,.6,252.99802,239.08504)" stroke-width="1" stroke-linecap="butt" stroke-miterlimit="1.45" stroke-linejoin="miter" fill="none" stroke="#000000" d="M 131.02 -51.904 L 151.02 -51.904 L 151.02 -31.904 L 131.02 -31.904 L 131.02 -51.904 Z "/>
          <path transform="matrix(.6,0,0,.6,252.99802,239.08504)" d="M 151.02 -51.904 L 171.02 -51.904 L 171.02 -31.904 L 151.02 -31.904 L 151.02 -51.904 Z " fill="#ffffff"/>
          <path transform="matrix(.6,0,0,.6,252.99802,239.08504)" stroke-width="1" stroke-linecap="butt" stroke-dasharray="6,2" stroke-miterlimit="1.45" stroke-linejoin="miter" fill="none" stroke="#000000" d="M 151.02 -51.904 L 171.02 -51.904 L 171.02 -31.904 L 151.02 -31.904 L 151.02 -51.904 Z "/>
          <path transform="matrix(.6,0,0,.6,252.99802,239.08504)" d="M 151.02 -143 L 171.02 -143 L 171.02 -123 L 151.02 -123 L 151.02 -143 Z " fill="#ffffff"/>
          <path transform="matrix(.6,0,0,.6,252.99802,239.08504)" stroke-width="1" stroke-linecap="butt" stroke-dasharray="6,2" stroke-miterlimit="1.45" stroke-linejoin="miter" fill="none" stroke="#000000" d="M 151.02 -143 L 171.02 -143 L 171.02 -123 L 151.02 -123 L 151.02 -143 Z "/>
          <path transform="matrix(.6,0,0,.6,252.99802,239.08504)" stroke-width="1" stroke-linecap="butt" stroke-miterlimit="1.45" stroke-linejoin="miter" fill="none" stroke="#000000" d="M 161.02 -82.573 L 161.02 -86.5 "/>
          <path transform="matrix(.6,0,0,.6,252.99802,239.08504)" stroke-width="1" stroke-linecap="butt" stroke-miterlimit="1.45" stroke-linejoin="miter" fill="none" stroke="#000000" d="M 21.016 -10.404 L 21.016 -23.904 "/>
          <path transform="matrix(.6,0,0,.6,252.99802,239.08504)" d="M 21.016 -31.904 L 16.016 -19.904 L 21.016 -22.904 L 26.016 -19.904 Z "/>
          <path transform="matrix(.6,0,0,.6,252.99802,239.08504)" stroke-width="1" stroke-linecap="butt" stroke-miterlimit="1.45" stroke-linejoin="miter" fill="none" stroke="#000000" d="M 121.42 -10.404 L 121.25 -23.905 "/>
          <path transform="matrix(.6,0,0,.6,252.99802,239.08504)" d="M 121.14 -31.904 L 116.3 -19.841 L 121.26 -22.905 L 126.3 -19.969 Z "/>
          <path transform="matrix(.6,0,0,.6,252.99802,239.08504)" stroke-width="1" stroke-linecap="butt" stroke-miterlimit="1.45" stroke-linejoin="miter" fill="none" stroke="#000000" d="M 161.02 -101.5 L 161.02 -115 "/>
          <path transform="matrix(.6,0,0,.6,252.99802,239.08504)" d="M 161.02 -123 L 156.02 -111 L 161.02 -114 L 166.02 -111 Z "/>
        </g>
      </g>
      <clipPath id="cp59">
        <path transform="matrix(.6,0,0,.6,214.598,114.285037)" d="M 0 0 L 0 230 L 271 230 L 271 0 Z "/>
      </clipPath>
      <g clip-path="url(#cp59)"/>
    </g>
  </g>
</svg>