<?xml version="1.0" encoding="utf-8"?>
<svg viewBox="275.738 435.139 170.4 91.8" xmlns="http://www.w3.org/2000/svg">
  <clipPath id="cp50">
    <path transform="matrix(.6,0,0,-.6,210.698,648.51907)" d="M 0 0 L 284 0 L 284 153 L 0 153 Z "/>
  </clipPath>
  <g clip-path="url(#cp50)" transform="matrix(1, 0, 0, 1, 65.040169, -121.579788)">
    <clipPath id="cp51">
      <path transform="matrix(.6,0,0,.6,210.698,556.71908)" d="M 0 0 L 284 0 L 284 153 L 0 153 Z "/>
    </clipPath>
    <g clip-path="url(#cp51)">
      <clipPath id="cp52">
        <path transform="matrix(.6,0,0,.6,210.698,556.71908)" d="M 0 0 L 0 153 L 284 153 L 284 0 Z "/>
      </clipPath>
      <g clip-path="url(#cp52)">
        <clipPath id="cp53">
          <path transform="matrix(.6,0,0,.6,210.698,556.71908)" d="M 0 0 L 284 0 L 284 153 L 0 153 Z "/>
        </clipPath>
        <g clip-path="url(#cp53)">
          <path transform="matrix(.6,0,0,.6,247.898,542.31906)" d="M -62 24 L 222 24 L 222 177 L -62 177 L -62 24 Z " fill="#ffffff"/>
          <path transform="matrix(.6,0,0,.6,249.698,544.119)" d="M -44.478 139 L -28.478 139 L -28.478 159 L -44.478 159 L -44.478 139 Z " fill="#b3a691"/>
          <path transform="matrix(.6,0,0,.6,247.898,542.31906)" d="M -44.478 139 L -28.478 139 L -28.478 159 L -44.478 159 L -44.478 139 Z " fill="#cfe2f3"/>
          <path transform="matrix(.6,0,0,.6,247.898,542.31906)" d="M -39.315 149.48 C -39.315 148.46 -39.211 147.64 -39.002 147.02 C -38.794 146.4 -38.484 145.92 -38.073 145.59 C -37.661 145.26 -37.143 145.09 -36.518 145.09 C -36.059 145.09 -35.656 145.18 -35.307 145.37 C -34.958 145.56 -34.669 145.83 -34.44 146.17 C -34.211 146.52 -34.033 146.95 -33.908 147.45 C -33.783 147.95 -33.721 148.63 -33.721 149.48 C -33.721 150.49 -33.823 151.3 -34.026 151.92 C -34.229 152.53 -34.536 153.01 -34.948 153.35 C -35.359 153.69 -35.882 153.85 -36.518 153.85 C -37.341 153.85 -37.992 153.56 -38.471 152.96 C -39.033 152.26 -39.315 151.09 -39.315 149.48 Z M -38.237 149.48 C -38.237 150.89 -38.07 151.82 -37.737 152.29 C -37.403 152.76 -36.997 153 -36.518 153 C -36.028 153 -35.619 152.76 -35.291 152.29 C -34.963 151.82 -34.799 150.89 -34.799 149.48 C -34.799 148.06 -34.963 147.12 -35.291 146.66 C -35.619 146.2 -36.033 145.96 -36.533 145.96 C -37.013 145.96 -37.398 146.17 -37.69 146.57 C -38.054 147.09 -38.237 148.06 -38.237 149.48 Z "/>
          <path transform="matrix(.6,0,0,.6,247.898,542.31906)" stroke-width="1" stroke-linecap="butt" stroke-miterlimit="1.45" stroke-linejoin="miter" fill="none" stroke="#000000" d="M -44.478 139 L -28.478 139 L -28.478 159 L -44.478 159 L -44.478 139 Z "/>
          <path transform="matrix(.6,0,0,.6,249.698,544.119)" d="M -12.478 139 L 3.5222 139 L 3.5222 159 L -12.478 159 L -12.478 139 Z " fill="#b3a691"/>
          <path transform="matrix(.6,0,0,.6,247.898,542.31906)" d="M -12.478 139 L 3.5222 139 L 3.5222 159 L -12.478 159 L -12.478 139 Z " fill="#b9dcb9"/>
          <path transform="matrix(.6,0,0,.6,247.898,542.31906)" d="M -7.3147 149.48 C -7.3147 148.46 -7.2105 147.64 -7.0022 147.02 C -6.7939 146.4 -6.484 145.92 -6.0725 145.59 C -5.661 145.26 -5.1428 145.09 -4.5178 145.09 C -4.0595 145.09 -3.6558 145.18 -3.3069 145.37 C -2.9579 145.56 -2.6689 145.83 -2.4397 146.17 C -2.2105 146.52 -2.0334 146.95 -1.9084 147.45 C -1.7834 147.95 -1.7209 148.63 -1.7209 149.48 C -1.7209 150.49 -1.8225 151.3 -2.0256 151.92 C -2.2288 152.53 -2.536 153.01 -2.9475 153.35 C -3.359 153.69 -3.8824 153.85 -4.5178 153.85 C -5.3407 153.85 -5.9918 153.56 -6.4709 152.96 C -7.0334 152.26 -7.3147 151.09 -7.3147 149.48 Z M -6.2366 149.48 C -6.2366 150.89 -6.0699 151.82 -5.7366 152.29 C -5.4032 152.76 -4.997 153 -4.5178 153 C -4.0282 153 -3.6194 152.76 -3.2913 152.29 C -2.9631 151.82 -2.7991 150.89 -2.7991 149.48 C -2.7991 148.06 -2.9631 147.12 -3.2913 146.66 C -3.6194 146.2 -4.0334 145.96 -4.5334 145.96 C -5.0126 145.96 -5.398 146.17 -5.6897 146.57 C -6.0543 147.09 -6.2366 148.06 -6.2366 149.48 Z "/>
          <path transform="matrix(.6,0,0,.6,247.898,542.31906)" stroke-width="1" stroke-linecap="butt" stroke-miterlimit="1.45" stroke-linejoin="miter" fill="none" stroke="#000000" d="M -12.478 139 L 3.5222 139 L 3.5222 159 L -12.478 159 L -12.478 139 Z "/>
          <path transform="matrix(.6,0,0,.6,249.698,544.119)" d="M 3.5222 139 L 19.522 139 L 19.522 159 L 3.5222 159 L 3.5222 139 Z " fill="#b3a691"/>
          <path transform="matrix(.6,0,0,.6,247.898,542.31906)" d="M 3.5222 139 L 19.522 139 L 19.522 159 L 3.5222 159 L 3.5222 139 Z " fill="#b9dcb9"/>
          <path transform="matrix(.6,0,0,.6,247.898,542.31906)" d="M 12.654 153.71 L 11.607 153.71 L 11.607 147 C 11.347 147.23 11.011 147.48 10.599 147.72 C 10.188 147.97 9.8207 148.15 9.4978 148.26 L 9.4978 147.25 C 10.081 146.96 10.594 146.63 11.037 146.24 C 11.48 145.85 11.795 145.46 11.982 145.09 L 12.654 145.09 L 12.654 153.71 Z "/>
          <path transform="matrix(.6,0,0,.6,247.898,542.31906)" stroke-width="1" stroke-linecap="butt" stroke-miterlimit="1.45" stroke-linejoin="miter" fill="none" stroke="#000000" d="M 3.5222 139 L 19.522 139 L 19.522 159 L 3.5222 159 L 3.5222 139 Z "/>
          <path transform="matrix(.6,0,0,.6,249.698,544.119)" d="M 35.522 139 L 51.522 139 L 51.522 159 L 35.522 159 L 35.522 139 Z " fill="#b3a691"/>
          <path transform="matrix(.6,0,0,.6,247.898,542.31906)" d="M 35.522 139 L 51.522 139 L 51.522 159 L 35.522 159 L 35.522 139 Z " fill="#dfc5ca"/>
          <path transform="matrix(.6,0,0,.6,247.898,542.31906)" d="M 40.685 149.48 C 40.685 148.46 40.789 147.64 40.998 147.02 C 41.206 146.4 41.516 145.92 41.927 145.59 C 42.339 145.26 42.857 145.09 43.482 145.09 C 43.941 145.09 44.344 145.18 44.693 145.37 C 45.042 145.56 45.331 145.83 45.56 146.17 C 45.789 146.52 45.967 146.95 46.092 147.45 C 46.217 147.95 46.279 148.63 46.279 149.48 C 46.279 150.49 46.177 151.3 45.974 151.92 C 45.771 152.53 45.464 153.01 45.052 153.35 C 44.641 153.69 44.118 153.85 43.482 153.85 C 42.659 153.85 42.008 153.56 41.529 152.96 C 40.967 152.26 40.685 151.09 40.685 149.48 Z M 41.763 149.48 C 41.763 150.89 41.93 151.82 42.263 152.29 C 42.597 152.76 43.003 153 43.482 153 C 43.972 153 44.381 152.76 44.709 152.29 C 45.037 151.82 45.201 150.89 45.201 149.48 C 45.201 148.06 45.037 147.12 44.709 146.66 C 44.381 146.2 43.967 145.96 43.467 145.96 C 42.987 145.96 42.602 146.17 42.31 146.57 C 41.946 147.09 41.763 148.06 41.763 149.48 Z "/>
          <path transform="matrix(.6,0,0,.6,247.898,542.31906)" stroke-width="1" stroke-linecap="butt" stroke-miterlimit="1.45" stroke-linejoin="miter" fill="none" stroke="#000000" d="M 35.522 139 L 51.522 139 L 51.522 159 L 35.522 159 L 35.522 139 Z "/>
          <path transform="matrix(.6,0,0,.6,249.698,544.119)" d="M 51.522 139 L 67.522 139 L 67.522 159 L 51.522 159 L 51.522 139 Z " fill="#b3a691"/>
          <path transform="matrix(.6,0,0,.6,247.898,542.31906)" d="M 51.522 139 L 67.522 139 L 67.522 159 L 51.522 159 L 51.522 139 Z " fill="#dfc5ca"/>
          <path transform="matrix(.6,0,0,.6,247.898,542.31906)" d="M 60.654 153.71 L 59.607 153.71 L 59.607 147 C 59.347 147.23 59.011 147.48 58.599 147.72 C 58.188 147.97 57.821 148.15 57.498 148.26 L 57.498 147.25 C 58.081 146.96 58.594 146.63 59.037 146.24 C 59.48 145.85 59.795 145.46 59.982 145.09 L 60.654 145.09 L 60.654 153.71 Z "/>
          <path transform="matrix(.6,0,0,.6,247.898,542.31906)" stroke-width="1" stroke-linecap="butt" stroke-miterlimit="1.45" stroke-linejoin="miter" fill="none" stroke="#000000" d="M 51.522 139 L 67.522 139 L 67.522 159 L 51.522 159 L 51.522 139 Z "/>
          <path transform="matrix(.6,0,0,.6,249.698,544.119)" d="M 67.522 139 L 83.522 139 L 83.522 159 L 67.522 159 L 67.522 139 Z " fill="#b3a691"/>
          <path transform="matrix(.6,0,0,.6,247.898,542.31906)" d="M 67.522 139 L 83.522 139 L 83.522 159 L 67.522 159 L 67.522 139 Z " fill="#dfc5ca"/>
          <path transform="matrix(.6,0,0,.6,247.898,542.31906)" d="M 78.232 152.7 L 78.232 153.71 L 72.545 153.71 C 72.545 153.46 72.586 153.22 72.67 152.98 C 72.816 152.59 73.047 152.21 73.365 151.84 C 73.683 151.46 74.144 151.03 74.748 150.54 C 75.685 149.77 76.318 149.16 76.646 148.71 C 76.974 148.27 77.138 147.84 77.138 147.45 C 77.138 147.03 76.987 146.68 76.685 146.39 C 76.383 146.11 75.993 145.96 75.513 145.96 C 75.003 145.96 74.597 146.11 74.295 146.42 C 73.993 146.72 73.836 147.14 73.826 147.68 L 72.748 147.57 C 72.821 146.76 73.099 146.14 73.584 145.72 C 74.068 145.3 74.722 145.09 75.545 145.09 C 76.368 145.09 77.019 145.32 77.498 145.78 C 77.977 146.23 78.217 146.8 78.217 147.48 C 78.217 147.82 78.146 148.16 78.006 148.49 C 77.865 148.82 77.631 149.16 77.302 149.53 C 76.974 149.9 76.435 150.41 75.685 151.04 C 75.05 151.57 74.641 151.94 74.459 152.13 C 74.276 152.32 74.128 152.51 74.013 152.7 L 78.232 152.7 Z "/>
          <path transform="matrix(.6,0,0,.6,247.898,542.31906)" stroke-width="1" stroke-linecap="butt" stroke-miterlimit="1.45" stroke-linejoin="miter" fill="none" stroke="#000000" d="M 67.522 139 L 83.522 139 L 83.522 159 L 67.522 159 L 67.522 139 Z "/>
          <path transform="matrix(.6,0,0,.6,249.698,544.119)" d="M 83.522 139 L 99.522 139 L 99.522 159 L 83.522 159 L 83.522 139 Z " fill="#b3a691"/>
          <path transform="matrix(.6,0,0,.6,247.898,542.31906)" d="M 83.522 139 L 99.522 139 L 99.522 159 L 83.522 159 L 83.522 139 Z " fill="#dfc5ca"/>
          <path transform="matrix(.6,0,0,.6,247.898,542.31906)" d="M 88.685 151.45 L 89.748 151.31 C 89.862 151.9 90.066 152.33 90.357 152.6 C 90.649 152.86 91.003 153 91.42 153 C 91.92 153 92.342 152.82 92.685 152.48 C 93.029 152.14 93.201 151.71 93.201 151.2 C 93.201 150.72 93.042 150.32 92.724 150 C 92.407 149.69 92.003 149.53 91.513 149.53 C 91.316 149.53 91.066 149.57 90.763 149.65 L 90.888 148.71 C 90.961 148.72 91.019 148.73 91.06 148.73 C 91.508 148.73 91.912 148.61 92.271 148.38 C 92.631 148.14 92.81 147.78 92.81 147.29 C 92.81 146.91 92.68 146.59 92.42 146.33 C 92.159 146.08 91.821 145.95 91.404 145.95 C 90.998 145.95 90.657 146.08 90.381 146.34 C 90.105 146.6 89.93 146.98 89.857 147.5 L 88.795 147.31 C 88.92 146.61 89.211 146.07 89.67 145.67 C 90.128 145.28 90.696 145.09 91.373 145.09 C 91.842 145.09 92.274 145.19 92.67 145.39 C 93.066 145.6 93.368 145.87 93.576 146.21 C 93.784 146.56 93.888 146.93 93.888 147.32 C 93.888 147.69 93.789 148.02 93.592 148.33 C 93.394 148.64 93.102 148.88 92.717 149.06 C 93.217 149.17 93.607 149.41 93.888 149.78 C 94.17 150.15 94.31 150.62 94.31 151.18 C 94.31 151.93 94.037 152.57 93.49 153.09 C 92.943 153.61 92.253 153.87 91.42 153.87 C 90.67 153.87 90.045 153.64 89.545 153.19 C 89.045 152.74 88.758 152.16 88.685 151.45 Z "/>
          <path transform="matrix(.6,0,0,.6,247.898,542.31906)" stroke-width="1" stroke-linecap="butt" stroke-miterlimit="1.45" stroke-linejoin="miter" fill="none" stroke="#000000" d="M 83.522 139 L 99.522 139 L 99.522 159 L 83.522 159 L 83.522 139 Z "/>
          <path transform="matrix(.6,0,0,.6,249.698,544.119)" d="M 115.52 139 L 131.52 139 L 131.52 159 L 115.52 159 L 115.52 139 Z " fill="#b3a691"/>
          <path transform="matrix(.6,0,0,.6,247.898,542.31906)" d="M 115.52 139 L 131.52 139 L 131.52 159 L 115.52 159 L 115.52 139 Z " fill="#eff3cf"/>
          <path transform="matrix(.6,0,0,.6,247.898,542.31906)" d="M 120.69 149.48 C 120.69 148.46 120.79 147.64 121 147.02 C 121.21 146.4 121.52 145.92 121.93 145.59 C 122.34 145.26 122.86 145.09 123.48 145.09 C 123.94 145.09 124.34 145.18 124.69 145.37 C 125.04 145.56 125.33 145.83 125.56 146.17 C 125.79 146.52 125.97 146.95 126.09 147.45 C 126.22 147.95 126.28 148.63 126.28 149.48 C 126.28 150.49 126.18 151.3 125.97 151.92 C 125.77 152.53 125.46 153.01 125.05 153.35 C 124.64 153.69 124.12 153.85 123.48 153.85 C 122.66 153.85 122.01 153.56 121.53 152.96 C 120.97 152.26 120.69 151.09 120.69 149.48 Z M 121.76 149.48 C 121.76 150.89 121.93 151.82 122.26 152.29 C 122.6 152.76 123 153 123.48 153 C 123.97 153 124.38 152.76 124.71 152.29 C 125.04 151.82 125.2 150.89 125.2 149.48 C 125.2 148.06 125.04 147.12 124.71 146.66 C 124.38 146.2 123.97 145.96 123.47 145.96 C 122.99 145.96 122.6 146.17 122.31 146.57 C 121.95 147.09 121.76 148.06 121.76 149.48 Z "/>
          <path transform="matrix(.6,0,0,.6,247.898,542.31906)" stroke-width="1" stroke-linecap="butt" stroke-miterlimit="1.45" stroke-linejoin="miter" fill="none" stroke="#000000" d="M 115.52 139 L 131.52 139 L 131.52 159 L 115.52 159 L 115.52 139 Z "/>
          <path transform="matrix(.6,0,0,.6,249.698,544.119)" d="M 131.52 139 L 147.52 139 L 147.52 159 L 131.52 159 L 131.52 139 Z " fill="#b3a691"/>
          <path transform="matrix(.6,0,0,.6,247.898,542.31906)" d="M 131.52 139 L 147.52 139 L 147.52 159 L 131.52 159 L 131.52 139 Z " fill="#eff3cf"/>
          <path transform="matrix(.6,0,0,.6,247.898,542.31906)" d="M 140.65 153.71 L 139.61 153.71 L 139.61 147 C 139.35 147.23 139.01 147.48 138.6 147.72 C 138.19 147.97 137.82 148.15 137.5 148.26 L 137.5 147.25 C 138.08 146.96 138.59 146.63 139.04 146.24 C 139.48 145.85 139.79 145.46 139.98 145.09 L 140.65 145.09 L 140.65 153.71 Z "/>
          <path transform="matrix(.6,0,0,.6,247.898,542.31906)" stroke-width="1" stroke-linecap="butt" stroke-miterlimit="1.45" stroke-linejoin="miter" fill="none" stroke="#000000" d="M 131.52 139 L 147.52 139 L 147.52 159 L 131.52 159 L 131.52 139 Z "/>
          <path transform="matrix(.6,0,0,.6,249.698,544.119)" d="M 147.52 139 L 163.52 139 L 163.52 159 L 147.52 159 L 147.52 139 Z " fill="#b3a691"/>
          <path transform="matrix(.6,0,0,.6,247.898,542.31906)" d="M 147.52 139 L 163.52 139 L 163.52 159 L 147.52 159 L 147.52 139 Z " fill="#eff3cf"/>
          <path transform="matrix(.6,0,0,.6,247.898,542.31906)" d="M 158.23 152.7 L 158.23 153.71 L 152.54 153.71 C 152.54 153.46 152.59 153.22 152.67 152.98 C 152.82 152.59 153.05 152.21 153.36 151.84 C 153.68 151.46 154.14 151.03 154.75 150.54 C 155.69 149.77 156.32 149.16 156.65 148.71 C 156.97 148.27 157.14 147.84 157.14 147.45 C 157.14 147.03 156.99 146.68 156.69 146.39 C 156.38 146.11 155.99 145.96 155.51 145.96 C 155 145.96 154.6 146.11 154.29 146.42 C 153.99 146.72 153.84 147.14 153.83 147.68 L 152.75 147.57 C 152.82 146.76 153.1 146.14 153.58 145.72 C 154.07 145.3 154.72 145.09 155.54 145.09 C 156.37 145.09 157.02 145.32 157.5 145.78 C 157.98 146.23 158.22 146.8 158.22 147.48 C 158.22 147.82 158.15 148.16 158.01 148.49 C 157.86 148.82 157.63 149.16 157.3 149.53 C 156.97 149.9 156.44 150.41 155.69 151.04 C 155.05 151.57 154.64 151.94 154.46 152.13 C 154.28 152.32 154.13 152.51 154.01 152.7 L 158.23 152.7 Z "/>
          <path transform="matrix(.6,0,0,.6,247.898,542.31906)" stroke-width="1" stroke-linecap="butt" stroke-miterlimit="1.45" stroke-linejoin="miter" fill="none" stroke="#000000" d="M 147.52 139 L 163.52 139 L 163.52 159 L 147.52 159 L 147.52 139 Z "/>
          <path transform="matrix(.6,0,0,.6,249.698,544.119)" d="M 163.52 139 L 203.52 139 L 203.52 159 L 163.52 159 L 163.52 139 Z " fill="#b3a691"/>
          <path transform="matrix(.6,0,0,.6,247.898,542.31906)" d="M 163.52 139 L 203.52 139 L 203.52 159 L 163.52 159 L 163.52 139 Z " fill="#eff3cf"/>
          <path transform="matrix(.6,0,0,.6,247.898,542.31906)" d="M 179.61 153.71 L 179.61 152.51 L 180.82 152.51 L 180.82 153.71 L 179.61 153.71 Z M 182.95 153.71 L 182.95 152.51 L 184.15 152.51 L 184.15 153.71 L 182.95 153.71 Z M 186.28 153.71 L 186.28 152.51 L 187.49 152.51 L 187.49 153.71 L 186.28 153.71 Z "/>
          <path transform="matrix(.6,0,0,.6,247.898,542.31906)" stroke-width="1" stroke-linecap="butt" stroke-miterlimit="1.45" stroke-linejoin="miter" fill="none" stroke="#000000" d="M 163.52 139 L 203.52 139 L 203.52 159 L 163.52 159 L 163.52 139 Z "/>
          <path transform="matrix(.6,0,0,.6,249.698,544.119)" d="M -46.478 89 L -26.478 89 L -26.478 109 L -46.478 109 L -46.478 89 Z " fill="#b3a691"/>
          <path transform="matrix(.6,0,0,.6,247.898,542.31906)" d="M -46.478 89 L -26.478 89 L -26.478 109 L -46.478 109 L -46.478 89 Z " fill="#eaeaea"/>
          <path transform="matrix(.6,0,0,.6,247.898,542.31906)" d="M -39.315 99.479 C -39.315 98.459 -39.211 97.638 -39.002 97.019 C -38.794 96.399 -38.484 95.922 -38.073 95.589 C -37.661 95.256 -37.143 95.089 -36.518 95.089 C -36.059 95.089 -35.656 95.183 -35.307 95.37 C -34.958 95.558 -34.669 95.826 -34.44 96.175 C -34.211 96.524 -34.033 96.948 -33.908 97.448 C -33.783 97.948 -33.721 98.625 -33.721 99.479 C -33.721 100.49 -33.823 101.3 -34.026 101.92 C -34.229 102.53 -34.536 103.01 -34.948 103.35 C -35.359 103.69 -35.882 103.85 -36.518 103.85 C -37.341 103.85 -37.992 103.56 -38.471 102.96 C -39.033 102.26 -39.315 101.09 -39.315 99.479 Z M -38.237 99.479 C -38.237 100.89 -38.07 101.82 -37.737 102.29 C -37.403 102.76 -36.997 103 -36.518 103 C -36.028 103 -35.619 102.76 -35.291 102.29 C -34.963 101.82 -34.799 100.89 -34.799 99.479 C -34.799 98.063 -34.963 97.123 -35.291 96.659 C -35.619 96.196 -36.033 95.964 -36.533 95.964 C -37.013 95.964 -37.398 96.167 -37.69 96.573 C -38.054 97.094 -38.237 98.063 -38.237 99.479 Z "/>
          <path transform="matrix(.6,0,0,.6,247.898,542.31906)" stroke-width="1" stroke-linecap="butt" stroke-miterlimit="1.45" stroke-linejoin="miter" fill="none" stroke="#000000" d="M -46.478 89 L -26.478 89 L -26.478 109 L -46.478 109 L -46.478 89 Z "/>
          <path transform="matrix(.6,0,0,.6,249.698,544.119)" d="M -26.478 89 L -6.4778 89 L -6.4778 109 L -26.478 109 L -26.478 89 Z " fill="#b3a691"/>
          <path transform="matrix(.6,0,0,.6,247.898,542.31906)" d="M -26.478 89 L -6.4778 89 L -6.4778 109 L -26.478 109 L -26.478 89 Z " fill="#eaeaea"/>
          <path transform="matrix(.6,0,0,.6,247.898,542.31906)" d="M -15.346 103.71 L -16.393 103.71 L -16.393 96.995 C -16.653 97.235 -16.989 97.477 -17.401 97.722 C -17.812 97.966 -18.179 98.146 -18.502 98.261 L -18.502 97.245 C -17.919 96.964 -17.406 96.628 -16.963 96.237 C -16.52 95.847 -16.205 95.464 -16.018 95.089 L -15.346 95.089 L -15.346 103.71 Z "/>
          <path transform="matrix(.6,0,0,.6,247.898,542.31906)" stroke-width="1" stroke-linecap="butt" stroke-miterlimit="1.45" stroke-linejoin="miter" fill="none" stroke="#000000" d="M -26.478 89 L -6.4778 89 L -6.4778 109 L -26.478 109 L -26.478 89 Z "/>
          <path transform="matrix(.6,0,0,.6,249.698,544.119)" d="M -6.4778 89 L 13.522 89 L 13.522 109 L -6.4778 109 L -6.4778 89 Z " fill="#b3a691"/>
          <path transform="matrix(.6,0,0,.6,247.898,542.31906)" d="M -6.4778 89 L 13.522 89 L 13.522 109 L -6.4778 109 L -6.4778 89 Z " fill="#eaeaea"/>
          <path transform="matrix(.6,0,0,.6,247.898,542.31906)" d="M 6.2322 102.7 L 6.2322 103.71 L .54468 103.71 C .54468 103.46 .58635 103.22 .66968 102.98 C .81552 102.59 1.0473 102.21 1.365 101.84 C 1.6827 101.46 2.1436 101.03 2.7478 100.54 C 3.6853 99.771 4.3181 99.162 4.6462 98.714 C 4.9744 98.266 5.1384 97.844 5.1384 97.448 C 5.1384 97.032 4.9874 96.68 4.6853 96.394 C 4.3832 96.107 3.9926 95.964 3.5134 95.964 C 3.003 95.964 2.5968 96.115 2.2947 96.417 C 1.9926 96.719 1.8363 97.141 1.8259 97.683 L .74781 97.573 C .82072 96.761 1.0994 96.144 1.5837 95.722 C 2.0681 95.3 2.7218 95.089 3.5447 95.089 C 4.3676 95.089 5.0186 95.318 5.4978 95.776 C 5.977 96.235 6.2166 96.802 6.2166 97.479 C 6.2166 97.823 6.1462 98.159 6.0056 98.487 C 5.865 98.815 5.6306 99.164 5.3025 99.534 C 4.9744 99.904 4.4353 100.41 3.6853 101.04 C 3.0499 101.57 2.641 101.94 2.4587 102.13 C 2.2765 102.32 2.128 102.51 2.0134 102.7 L 6.2322 102.7 Z "/>
          <path transform="matrix(.6,0,0,.6,247.898,542.31906)" stroke-width="1" stroke-linecap="butt" stroke-miterlimit="1.45" stroke-linejoin="miter" fill="none" stroke="#000000" d="M -6.4778 89 L 13.522 89 L 13.522 109 L -6.4778 109 L -6.4778 89 Z "/>
          <path transform="matrix(.6,0,0,.6,249.698,544.119)" d="M 13.522 89 L 33.522 89 L 33.522 109 L 13.522 109 L 13.522 89 Z " fill="#b3a691"/>
          <path transform="matrix(.6,0,0,.6,247.898,542.31906)" d="M 13.522 89 L 33.522 89 L 33.522 109 L 13.522 109 L 13.522 89 Z " fill="#eaeaea"/>
          <path transform="matrix(.6,0,0,.6,247.898,542.31906)" d="M 20.685 101.45 L 21.748 101.31 C 21.862 101.9 22.066 102.33 22.357 102.6 C 22.649 102.86 23.003 103 23.42 103 C 23.92 103 24.342 102.82 24.685 102.48 C 25.029 102.14 25.201 101.71 25.201 101.2 C 25.201 100.72 25.042 100.32 24.724 100 C 24.407 99.685 24.003 99.526 23.513 99.526 C 23.316 99.526 23.066 99.568 22.763 99.651 L 22.888 98.714 C 22.961 98.724 23.019 98.729 23.06 98.729 C 23.508 98.729 23.912 98.612 24.271 98.378 C 24.631 98.144 24.81 97.782 24.81 97.292 C 24.81 96.907 24.68 96.586 24.42 96.331 C 24.159 96.076 23.821 95.948 23.404 95.948 C 22.998 95.948 22.657 96.078 22.381 96.339 C 22.105 96.599 21.93 96.985 21.857 97.495 L 20.795 97.308 C 20.92 96.61 21.211 96.065 21.67 95.675 C 22.128 95.284 22.696 95.089 23.373 95.089 C 23.842 95.089 24.274 95.19 24.67 95.394 C 25.066 95.597 25.368 95.87 25.576 96.214 C 25.784 96.558 25.888 96.927 25.888 97.323 C 25.888 97.688 25.789 98.024 25.592 98.331 C 25.394 98.638 25.102 98.881 24.717 99.058 C 25.217 99.172 25.607 99.414 25.888 99.784 C 26.17 100.15 26.31 100.62 26.31 101.18 C 26.31 101.93 26.037 102.57 25.49 103.09 C 24.943 103.61 24.253 103.87 23.42 103.87 C 22.67 103.87 22.045 103.64 21.545 103.19 C 21.045 102.74 20.758 102.16 20.685 101.45 Z "/>
          <path transform="matrix(.6,0,0,.6,247.898,542.31906)" stroke-width="1" stroke-linecap="butt" stroke-miterlimit="1.45" stroke-linejoin="miter" fill="none" stroke="#000000" d="M 13.522 89 L 33.522 89 L 33.522 109 L 13.522 109 L 13.522 89 Z "/>
          <path transform="matrix(.6,0,0,.6,249.698,544.119)" d="M 33.522 89 L 53.522 89 L 53.522 109 L 33.522 109 L 33.522 89 Z " fill="#b3a691"/>
          <path transform="matrix(.6,0,0,.6,247.898,542.31906)" d="M 33.522 89 L 53.522 89 L 53.522 109 L 33.522 109 L 33.522 89 Z " fill="#eaeaea"/>
          <path transform="matrix(.6,0,0,.6,247.898,542.31906)" d="M 44.06 103.71 L 44.06 101.65 L 40.342 101.65 L 40.342 100.68 L 44.263 95.12 L 45.123 95.12 L 45.123 100.68 L 46.279 100.68 L 46.279 101.65 L 45.123 101.65 L 45.123 103.71 L 44.06 103.71 Z M 44.06 100.68 L 44.06 96.823 L 41.373 100.68 L 44.06 100.68 Z "/>
          <path transform="matrix(.6,0,0,.6,247.898,542.31906)" stroke-width="1" stroke-linecap="butt" stroke-miterlimit="1.45" stroke-linejoin="miter" fill="none" stroke="#000000" d="M 33.522 89 L 53.522 89 L 53.522 109 L 33.522 109 L 33.522 89 Z "/>
          <path transform="matrix(.6,0,0,.6,249.698,544.119)" d="M 53.522 89 L 73.522 89 L 73.522 109 L 53.522 109 L 53.522 89 Z " fill="#b3a691"/>
          <path transform="matrix(.6,0,0,.6,247.898,542.31906)" d="M 53.522 89 L 73.522 89 L 73.522 109 L 53.522 109 L 53.522 89 Z " fill="#eaeaea"/>
          <path transform="matrix(.6,0,0,.6,247.898,542.31906)" d="M 60.685 101.46 L 61.795 101.37 C 61.878 101.91 62.068 102.32 62.365 102.59 C 62.662 102.86 63.024 103 63.451 103 C 63.951 103 64.378 102.8 64.732 102.42 C 65.086 102.03 65.263 101.53 65.263 100.9 C 65.263 100.3 65.094 99.821 64.756 99.472 C 64.417 99.123 63.972 98.948 63.42 98.948 C 63.086 98.948 62.782 99.026 62.506 99.183 C 62.23 99.339 62.013 99.537 61.857 99.776 L 60.873 99.651 L 61.701 95.245 L 65.982 95.245 L 65.982 96.245 L 62.545 96.245 L 62.092 98.558 C 62.602 98.193 63.138 98.011 63.701 98.011 C 64.451 98.011 65.084 98.271 65.599 98.792 C 66.115 99.313 66.373 99.985 66.373 100.81 C 66.373 101.58 66.149 102.25 65.701 102.82 C 65.149 103.51 64.399 103.85 63.451 103.85 C 62.67 103.85 62.032 103.64 61.537 103.2 C 61.042 102.76 60.758 102.18 60.685 101.46 Z "/>
          <path transform="matrix(.6,0,0,.6,247.898,542.31906)" stroke-width="1" stroke-linecap="butt" stroke-miterlimit="1.45" stroke-linejoin="miter" fill="none" stroke="#000000" d="M 53.522 89 L 73.522 89 L 73.522 109 L 53.522 109 L 53.522 89 Z "/>
          <path transform="matrix(.6,0,0,.6,249.698,544.119)" d="M 73.522 89 L 93.522 89 L 93.522 109 L 73.522 109 L 73.522 89 Z " fill="#b3a691"/>
          <path transform="matrix(.6,0,0,.6,247.898,542.31906)" d="M 73.522 89 L 93.522 89 L 93.522 109 L 73.522 109 L 73.522 89 Z " fill="#eaeaea"/>
          <path transform="matrix(.6,0,0,.6,247.898,542.31906)" d="M 86.154 97.229 L 85.107 97.308 C 85.013 96.891 84.883 96.589 84.717 96.401 C 84.425 96.099 84.071 95.948 83.654 95.948 C 83.321 95.948 83.024 96.042 82.763 96.229 C 82.441 96.479 82.183 96.836 81.99 97.3 C 81.797 97.763 81.696 98.422 81.685 99.276 C 81.935 98.891 82.245 98.604 82.615 98.417 C 82.985 98.229 83.373 98.136 83.779 98.136 C 84.477 98.136 85.073 98.396 85.568 98.917 C 86.063 99.438 86.31 100.1 86.31 100.92 C 86.31 101.46 86.193 101.96 85.959 102.42 C 85.724 102.89 85.404 103.24 84.998 103.49 C 84.592 103.73 84.133 103.85 83.623 103.85 C 82.737 103.85 82.019 103.53 81.467 102.89 C 80.914 102.24 80.638 101.18 80.638 99.698 C 80.638 98.032 80.946 96.823 81.56 96.073 C 82.092 95.417 82.81 95.089 83.717 95.089 C 84.394 95.089 84.948 95.279 85.381 95.659 C 85.813 96.039 86.071 96.563 86.154 97.229 Z M 81.857 100.93 C 81.857 101.3 81.933 101.64 82.084 101.97 C 82.235 102.3 82.448 102.55 82.724 102.73 C 83 102.91 83.295 103 83.607 103 C 84.045 103 84.425 102.82 84.748 102.46 C 85.071 102.1 85.232 101.61 85.232 101 C 85.232 100.4 85.073 99.933 84.756 99.589 C 84.438 99.245 84.039 99.073 83.56 99.073 C 83.081 99.073 82.677 99.245 82.349 99.589 C 82.021 99.933 81.857 100.38 81.857 100.93 Z "/>
          <path transform="matrix(.6,0,0,.6,247.898,542.31906)" stroke-width="1" stroke-linecap="butt" stroke-miterlimit="1.45" stroke-linejoin="miter" fill="none" stroke="#000000" d="M 73.522 89 L 93.522 89 L 93.522 109 L 73.522 109 L 73.522 89 Z "/>
          <path transform="matrix(.6,0,0,.6,249.698,544.119)" d="M 93.522 89 L 113.52 89 L 113.52 109 L 93.522 109 L 93.522 89 Z " fill="#b3a691"/>
          <path transform="matrix(.6,0,0,.6,247.898,542.31906)" d="M 93.522 89 L 113.52 89 L 113.52 109 L 93.522 109 L 93.522 89 Z " fill="#eaeaea"/>
          <path transform="matrix(.6,0,0,.6,247.898,542.31906)" d="M 100.75 96.245 L 100.75 95.229 L 106.31 95.229 L 106.31 96.058 C 105.77 96.641 105.23 97.414 104.69 98.378 C 104.16 99.341 103.74 100.33 103.45 101.35 C 103.23 102.07 103.1 102.86 103.04 103.71 L 101.95 103.71 C 101.96 103.04 102.09 102.22 102.35 101.26 C 102.6 100.3 102.97 99.381 103.44 98.495 C 103.92 97.61 104.42 96.86 104.97 96.245 L 100.75 96.245 Z "/>
          <path transform="matrix(.6,0,0,.6,247.898,542.31906)" stroke-width="1" stroke-linecap="butt" stroke-miterlimit="1.45" stroke-linejoin="miter" fill="none" stroke="#000000" d="M 93.522 89 L 113.52 89 L 113.52 109 L 93.522 109 L 93.522 89 Z "/>
          <path transform="matrix(.6,0,0,.6,249.698,544.119)" d="M 113.52 89 L 133.52 89 L 133.52 109 L 113.52 109 L 113.52 89 Z " fill="#b3a691"/>
          <path transform="matrix(.6,0,0,.6,247.898,542.31906)" d="M 113.52 89 L 133.52 89 L 133.52 109 L 113.52 109 L 113.52 89 Z " fill="#eaeaea"/>
          <path transform="matrix(.6,0,0,.6,247.898,542.31906)" d="M 122.31 99.058 C 121.87 98.891 121.55 98.659 121.33 98.362 C 121.12 98.065 121.01 97.714 121.01 97.308 C 121.01 96.683 121.24 96.157 121.69 95.729 C 122.15 95.302 122.74 95.089 123.48 95.089 C 124.23 95.089 124.84 95.308 125.29 95.745 C 125.75 96.183 125.98 96.714 125.98 97.339 C 125.98 97.735 125.88 98.078 125.67 98.37 C 125.46 98.662 125.14 98.891 124.72 99.058 C 125.25 99.224 125.65 99.5 125.92 99.886 C 126.19 100.27 126.33 100.73 126.33 101.26 C 126.33 101.99 126.07 102.6 125.55 103.1 C 125.04 103.6 124.35 103.85 123.5 103.85 C 122.65 103.85 121.97 103.6 121.45 103.1 C 120.93 102.6 120.67 101.98 120.67 101.23 C 120.67 100.67 120.81 100.2 121.1 99.823 C 121.39 99.448 121.79 99.193 122.31 99.058 Z M 122.09 97.261 C 122.09 97.667 122.22 98 122.49 98.261 C 122.76 98.521 123.1 98.651 123.51 98.651 C 123.92 98.651 124.25 98.524 124.51 98.269 C 124.77 98.013 124.9 97.698 124.9 97.323 C 124.9 96.938 124.77 96.612 124.5 96.347 C 124.23 96.081 123.89 95.948 123.5 95.948 C 123.09 95.948 122.76 96.078 122.49 96.339 C 122.22 96.599 122.09 96.907 122.09 97.261 Z M 121.76 101.23 C 121.76 101.53 121.83 101.82 121.97 102.1 C 122.11 102.39 122.33 102.6 122.61 102.76 C 122.89 102.92 123.19 103 123.51 103 C 124.01 103 124.43 102.83 124.76 102.51 C 125.08 102.19 125.25 101.78 125.25 101.28 C 125.25 100.77 125.08 100.34 124.75 100.01 C 124.41 99.677 123.99 99.511 123.48 99.511 C 122.98 99.511 122.57 99.675 122.25 100 C 121.92 100.33 121.76 100.74 121.76 101.23 Z "/>
          <path transform="matrix(.6,0,0,.6,247.898,542.31906)" stroke-width="1" stroke-linecap="butt" stroke-miterlimit="1.45" stroke-linejoin="miter" fill="none" stroke="#000000" d="M 113.52 89 L 133.52 89 L 133.52 109 L 113.52 109 L 113.52 89 Z "/>
          <path transform="matrix(.6,0,0,.6,249.698,544.119)" d="M 133.52 89 L 153.52 89 L 153.52 109 L 133.52 109 L 133.52 89 Z " fill="#b3a691"/>
          <path transform="matrix(.6,0,0,.6,247.898,542.31906)" d="M 133.52 89 L 153.52 89 L 153.52 109 L 133.52 109 L 133.52 89 Z " fill="#eaeaea"/>
          <path transform="matrix(.6,0,0,.6,247.898,542.31906)" d="M 140.84 101.73 L 141.86 101.64 C 141.94 102.11 142.1 102.46 142.35 102.67 C 142.59 102.89 142.9 103 143.28 103 C 143.6 103 143.89 102.92 144.13 102.77 C 144.38 102.62 144.58 102.42 144.73 102.17 C 144.89 101.93 145.02 101.6 145.12 101.17 C 145.23 100.75 145.28 100.32 145.28 99.886 C 145.28 99.834 145.28 99.761 145.28 99.667 C 145.07 100 144.78 100.27 144.42 100.49 C 144.06 100.7 143.66 100.81 143.23 100.81 C 142.51 100.81 141.91 100.55 141.42 100.03 C 140.93 99.519 140.69 98.839 140.69 97.995 C 140.69 97.12 140.94 96.417 141.46 95.886 C 141.97 95.354 142.62 95.089 143.39 95.089 C 143.94 95.089 144.45 95.24 144.91 95.542 C 145.38 95.844 145.73 96.274 145.97 96.831 C 146.21 97.388 146.33 98.193 146.33 99.245 C 146.33 100.34 146.21 101.21 145.97 101.86 C 145.74 102.51 145.39 103.01 144.91 103.35 C 144.44 103.69 143.89 103.85 143.26 103.85 C 142.59 103.85 142.03 103.67 141.61 103.3 C 141.18 102.93 140.92 102.41 140.84 101.73 Z M 145.15 97.933 C 145.15 97.328 145 96.849 144.68 96.495 C 144.36 96.141 143.97 95.964 143.51 95.964 C 143.04 95.964 142.64 96.154 142.29 96.534 C 141.94 96.914 141.76 97.412 141.76 98.026 C 141.76 98.568 141.93 99.011 142.26 99.354 C 142.6 99.698 143 99.87 143.48 99.87 C 143.97 99.87 144.37 99.698 144.69 99.354 C 145 99.011 145.15 98.537 145.15 97.933 Z "/>
          <path transform="matrix(.6,0,0,.6,247.898,542.31906)" stroke-width="1" stroke-linecap="butt" stroke-miterlimit="1.45" stroke-linejoin="miter" fill="none" stroke="#000000" d="M 133.52 89 L 153.52 89 L 153.52 109 L 133.52 109 L 133.52 89 Z "/>
          <path transform="matrix(.6,0,0,.6,249.698,544.119)" d="M 153.52 89 L 193.52 89 L 193.52 109 L 153.52 109 L 153.52 89 Z " fill="#b3a691"/>
          <path transform="matrix(.6,0,0,.6,247.898,542.31906)" d="M 153.52 89 L 193.52 89 L 193.52 109 L 153.52 109 L 153.52 89 Z " fill="#eaeaea"/>
          <path transform="matrix(.6,0,0,.6,247.898,542.31906)" d="M 169.61 103.71 L 169.61 102.51 L 170.82 102.51 L 170.82 103.71 L 169.61 103.71 Z M 172.95 103.71 L 172.95 102.51 L 174.15 102.51 L 174.15 103.71 L 172.95 103.71 Z M 176.28 103.71 L 176.28 102.51 L 177.49 102.51 L 177.49 103.71 L 176.28 103.71 Z "/>
          <path transform="matrix(.6,0,0,.6,247.898,542.31906)" stroke-width="1" stroke-linecap="butt" stroke-miterlimit="1.45" stroke-linejoin="miter" fill="none" stroke="#000000" d="M 153.52 89 L 193.52 89 L 193.52 109 L 153.52 109 L 153.52 89 Z "/>
          <path transform="matrix(.6,0,0,.6,247.898,542.31906)" d="M 23.522 39 L 125.52 39 L 125.52 69 L 23.522 69 L 23.522 39 Z " fill="#ffffff"/>
          <path transform="matrix(.6,0,0,.6,247.898,542.31906)" d="M 32.052 55.948 L 33.115 55.854 C 33.167 56.292 33.287 56.646 33.474 56.917 C 33.662 57.188 33.951 57.409 34.342 57.581 C 34.732 57.753 35.172 57.839 35.662 57.839 C 36.089 57.839 36.469 57.774 36.802 57.644 C 37.136 57.513 37.383 57.336 37.545 57.112 C 37.706 56.888 37.787 56.646 37.787 56.386 C 37.787 56.115 37.709 55.878 37.552 55.675 C 37.396 55.472 37.141 55.302 36.787 55.167 C 36.547 55.073 36.034 54.933 35.248 54.745 C 34.461 54.558 33.912 54.381 33.599 54.214 C 33.183 53.995 32.875 53.727 32.677 53.409 C 32.48 53.091 32.381 52.735 32.381 52.339 C 32.381 51.912 32.503 51.508 32.748 51.128 C 32.993 50.748 33.352 50.461 33.826 50.269 C 34.3 50.076 34.823 49.979 35.396 49.979 C 36.032 49.979 36.594 50.081 37.084 50.284 C 37.573 50.487 37.948 50.789 38.209 51.19 C 38.469 51.591 38.61 52.042 38.631 52.542 L 37.537 52.62 C 37.474 52.078 37.274 51.67 36.935 51.394 C 36.597 51.118 36.099 50.979 35.443 50.979 C 34.756 50.979 34.256 51.104 33.943 51.354 C 33.631 51.604 33.474 51.907 33.474 52.261 C 33.474 52.573 33.584 52.828 33.802 53.026 C 34.021 53.224 34.592 53.427 35.513 53.636 C 36.435 53.844 37.068 54.026 37.412 54.183 C 37.912 54.422 38.282 54.716 38.521 55.065 C 38.761 55.414 38.881 55.823 38.881 56.292 C 38.881 56.75 38.75 57.18 38.49 57.581 C 38.23 57.982 37.855 58.295 37.365 58.519 C 36.875 58.743 36.323 58.854 35.709 58.854 C 34.927 58.854 34.274 58.743 33.748 58.519 C 33.222 58.295 32.81 57.953 32.513 57.495 C 32.217 57.037 32.063 56.521 32.052 55.948 Z M 42.603 57.776 L 42.76 58.698 C 42.457 58.761 42.192 58.792 41.963 58.792 C 41.577 58.792 41.28 58.732 41.072 58.612 C 40.864 58.493 40.715 58.334 40.627 58.136 C 40.538 57.938 40.494 57.521 40.494 56.886 L 40.494 53.308 L 39.728 53.308 L 39.728 52.495 L 40.494 52.495 L 40.494 50.948 L 41.541 50.323 L 41.541 52.495 L 42.603 52.495 L 42.603 53.308 L 41.541 53.308 L 41.541 56.948 C 41.541 57.25 41.559 57.443 41.595 57.526 C 41.632 57.61 41.692 57.677 41.775 57.729 C 41.858 57.782 41.978 57.808 42.135 57.808 C 42.26 57.808 42.416 57.797 42.603 57.776 Z M 47.703 57.948 C 47.307 58.282 46.929 58.516 46.57 58.651 C 46.211 58.787 45.823 58.854 45.406 58.854 C 44.719 58.854 44.192 58.688 43.828 58.354 C 43.463 58.021 43.281 57.594 43.281 57.073 C 43.281 56.771 43.349 56.493 43.484 56.237 C 43.62 55.982 43.802 55.779 44.031 55.628 C 44.26 55.477 44.515 55.365 44.797 55.292 C 44.995 55.229 45.307 55.172 45.734 55.12 C 46.578 55.026 47.203 54.907 47.609 54.761 C 47.609 54.615 47.609 54.526 47.609 54.495 C 47.609 54.058 47.51 53.75 47.312 53.573 C 47.041 53.344 46.64 53.229 46.109 53.229 C 45.62 53.229 45.255 53.315 45.015 53.487 C 44.776 53.659 44.599 53.964 44.484 54.401 L 43.453 54.261 C 43.547 53.823 43.703 53.469 43.922 53.198 C 44.14 52.927 44.453 52.719 44.859 52.573 C 45.265 52.427 45.734 52.354 46.265 52.354 C 46.797 52.354 47.229 52.417 47.562 52.542 C 47.896 52.667 48.14 52.823 48.297 53.011 C 48.453 53.198 48.562 53.438 48.625 53.729 C 48.656 53.907 48.672 54.229 48.672 54.698 L 48.672 56.104 C 48.672 57.084 48.695 57.703 48.742 57.964 C 48.789 58.224 48.88 58.474 49.015 58.714 L 47.906 58.714 C 47.802 58.495 47.734 58.24 47.703 57.948 Z M 47.609 55.589 C 47.224 55.745 46.651 55.881 45.89 55.995 C 45.453 56.058 45.146 56.128 44.969 56.206 C 44.791 56.284 44.653 56.396 44.554 56.542 C 44.455 56.688 44.406 56.854 44.406 57.042 C 44.406 57.323 44.513 57.558 44.726 57.745 C 44.94 57.933 45.25 58.026 45.656 58.026 C 46.062 58.026 46.424 57.938 46.742 57.761 C 47.06 57.584 47.291 57.339 47.437 57.026 C 47.552 56.787 47.609 56.438 47.609 55.979 L 47.609 55.589 Z M 52.611 57.776 L 52.767 58.698 C 52.465 58.761 52.2 58.792 51.97 58.792 C 51.585 58.792 51.288 58.732 51.08 58.612 C 50.872 58.493 50.723 58.334 50.635 58.136 C 50.546 57.938 50.502 57.521 50.502 56.886 L 50.502 53.308 L 49.736 53.308 L 49.736 52.495 L 50.502 52.495 L 50.502 50.948 L 51.549 50.323 L 51.549 52.495 L 52.611 52.495 L 52.611 53.308 L 51.549 53.308 L 51.549 56.948 C 51.549 57.25 51.567 57.443 51.603 57.526 C 51.64 57.61 51.7 57.677 51.783 57.729 C 51.866 57.782 51.986 57.808 52.142 57.808 C 52.267 57.808 52.424 57.797 52.611 57.776 Z M 53.648 51.339 L 53.648 50.12 L 54.711 50.12 L 54.711 51.339 L 53.648 51.339 Z M 53.648 58.714 L 53.648 52.495 L 54.711 52.495 L 54.711 58.714 L 53.648 58.714 Z M 55.924 55.604 C 55.924 54.448 56.241 53.594 56.877 53.042 C 57.408 52.584 58.059 52.354 58.83 52.354 C 59.684 52.354 60.385 52.633 60.931 53.19 C 61.478 53.748 61.752 54.521 61.752 55.511 C 61.752 56.313 61.632 56.943 61.392 57.401 C 61.153 57.86 60.801 58.216 60.338 58.472 C 59.874 58.727 59.372 58.854 58.83 58.854 C 57.965 58.854 57.265 58.576 56.728 58.019 C 56.192 57.461 55.924 56.657 55.924 55.604 Z M 57.002 55.604 C 57.002 56.396 57.176 56.99 57.525 57.386 C 57.874 57.782 58.309 57.979 58.83 57.979 C 59.361 57.979 59.799 57.782 60.142 57.386 C 60.486 56.99 60.658 56.386 60.658 55.573 C 60.658 54.802 60.483 54.219 60.135 53.823 C 59.786 53.427 59.351 53.229 58.83 53.229 C 58.309 53.229 57.874 53.425 57.525 53.815 C 57.176 54.206 57.002 54.802 57.002 55.604 Z M 62.988 58.714 L 62.988 52.495 L 63.926 52.495 L 63.926 53.37 C 64.384 52.693 65.045 52.354 65.91 52.354 C 66.285 52.354 66.631 52.422 66.949 52.558 C 67.267 52.693 67.504 52.87 67.66 53.089 C 67.816 53.308 67.926 53.563 67.988 53.854 C 68.019 54.052 68.035 54.396 68.035 54.886 L 68.035 58.714 L 66.988 58.714 L 66.988 54.933 C 66.988 54.495 66.946 54.172 66.863 53.964 C 66.78 53.756 66.634 53.586 66.426 53.456 C 66.217 53.326 65.972 53.261 65.691 53.261 C 65.243 53.261 64.855 53.404 64.527 53.69 C 64.199 53.977 64.035 54.516 64.035 55.308 L 64.035 58.714 L 62.988 58.714 Z M 73.724 57.948 C 73.329 58.282 72.951 58.516 72.592 58.651 C 72.232 58.787 71.844 58.854 71.427 58.854 C 70.74 58.854 70.214 58.688 69.849 58.354 C 69.485 58.021 69.302 57.594 69.302 57.073 C 69.302 56.771 69.37 56.493 69.506 56.237 C 69.641 55.982 69.823 55.779 70.052 55.628 C 70.282 55.477 70.537 55.365 70.818 55.292 C 71.016 55.229 71.329 55.172 71.756 55.12 C 72.599 55.026 73.224 54.907 73.631 54.761 C 73.631 54.615 73.631 54.526 73.631 54.495 C 73.631 54.058 73.532 53.75 73.334 53.573 C 73.063 53.344 72.662 53.229 72.131 53.229 C 71.641 53.229 71.276 53.315 71.037 53.487 C 70.797 53.659 70.62 53.964 70.506 54.401 L 69.474 54.261 C 69.568 53.823 69.724 53.469 69.943 53.198 C 70.162 52.927 70.474 52.719 70.881 52.573 C 71.287 52.427 71.756 52.354 72.287 52.354 C 72.818 52.354 73.25 52.417 73.584 52.542 C 73.917 52.667 74.162 52.823 74.318 53.011 C 74.474 53.198 74.584 53.438 74.646 53.729 C 74.677 53.907 74.693 54.229 74.693 54.698 L 74.693 56.104 C 74.693 57.084 74.717 57.703 74.763 57.964 C 74.81 58.224 74.901 58.474 75.037 58.714 L 73.927 58.714 C 73.823 58.495 73.756 58.24 73.724 57.948 Z M 73.631 55.589 C 73.245 55.745 72.672 55.881 71.912 55.995 C 71.474 56.058 71.167 56.128 70.99 56.206 C 70.813 56.284 70.675 56.396 70.576 56.542 C 70.477 56.688 70.427 56.854 70.427 57.042 C 70.427 57.323 70.534 57.558 70.748 57.745 C 70.961 57.933 71.271 58.026 71.677 58.026 C 72.084 58.026 72.446 57.938 72.763 57.761 C 73.081 57.584 73.313 57.339 73.459 57.026 C 73.573 56.787 73.631 56.438 73.631 55.979 L 73.631 55.589 Z M 76.32 58.714 L 76.32 52.495 L 77.273 52.495 L 77.273 53.433 C 77.513 52.995 77.734 52.706 77.937 52.565 C 78.14 52.425 78.367 52.354 78.617 52.354 C 78.971 52.354 79.33 52.464 79.695 52.683 L 79.336 53.667 C 79.075 53.511 78.82 53.433 78.57 53.433 C 78.33 53.433 78.12 53.503 77.937 53.644 C 77.755 53.784 77.627 53.979 77.554 54.229 C 77.429 54.604 77.367 55.011 77.367 55.448 L 77.367 58.714 L 76.32 58.714 Z M 80.285 61.104 L 80.16 60.12 C 80.389 60.183 80.592 60.214 80.769 60.214 C 80.998 60.214 81.183 60.175 81.324 60.097 C 81.465 60.019 81.582 59.912 81.676 59.776 C 81.738 59.662 81.847 59.396 82.004 58.979 C 82.014 58.927 82.045 58.844 82.097 58.729 L 79.722 52.495 L 80.863 52.495 L 82.16 56.089 C 82.327 56.547 82.478 57.032 82.613 57.542 C 82.738 57.052 82.884 56.578 83.051 56.12 L 84.379 52.495 L 85.426 52.495 L 83.066 58.823 C 82.806 59.5 82.608 59.969 82.472 60.229 C 82.285 60.584 82.069 60.841 81.824 61.003 C 81.579 61.164 81.29 61.245 80.957 61.245 C 80.759 61.245 80.535 61.198 80.285 61.104 Z M 88.853 58.714 L 92.15 50.12 L 93.369 50.12 L 96.885 58.714 L 95.603 58.714 L 94.588 56.104 L 91.01 56.104 L 90.056 58.714 L 88.853 58.714 Z M 91.338 55.183 L 94.244 55.183 L 93.353 52.808 C 93.072 52.089 92.869 51.495 92.744 51.026 C 92.629 51.578 92.473 52.125 92.275 52.667 L 91.338 55.183 Z M 97.654 58.714 L 97.654 52.495 L 98.607 52.495 L 98.607 53.433 C 98.847 52.995 99.068 52.706 99.271 52.565 C 99.474 52.425 99.701 52.354 99.951 52.354 C 100.31 52.354 100.66 52.464 101.03 52.683 L 100.67 53.667 C 100.41 53.511 100.15 53.433 99.904 53.433 C 99.664 53.433 99.454 53.503 99.271 53.644 C 99.089 53.784 98.961 53.979 98.888 54.229 C 98.763 54.604 98.701 55.011 98.701 55.448 L 98.701 58.714 L 97.654 58.714 Z M 101.65 58.714 L 101.65 52.495 L 102.6 52.495 L 102.6 53.433 C 102.84 52.995 103.06 52.706 103.27 52.565 C 103.47 52.425 103.7 52.354 103.95 52.354 C 104.3 52.354 104.66 52.464 105.03 52.683 L 104.67 53.667 C 104.41 53.511 104.15 53.433 103.9 53.433 C 103.66 53.433 103.45 53.503 103.27 53.644 C 103.09 53.784 102.96 53.979 102.88 54.229 C 102.76 54.604 102.7 55.011 102.7 55.448 L 102.7 58.714 L 101.65 58.714 Z M 109.72 57.948 C 109.33 58.282 108.95 58.516 108.59 58.651 C 108.23 58.787 107.84 58.854 107.43 58.854 C 106.74 58.854 106.21 58.688 105.85 58.354 C 105.48 58.021 105.3 57.594 105.3 57.073 C 105.3 56.771 105.37 56.493 105.51 56.237 C 105.64 55.982 105.82 55.779 106.05 55.628 C 106.28 55.477 106.54 55.365 106.82 55.292 C 107.02 55.229 107.33 55.172 107.76 55.12 C 108.6 55.026 109.22 54.907 109.63 54.761 C 109.63 54.615 109.63 54.526 109.63 54.495 C 109.63 54.058 109.53 53.75 109.33 53.573 C 109.06 53.344 108.66 53.229 108.13 53.229 C 107.64 53.229 107.28 53.315 107.04 53.487 C 106.8 53.659 106.62 53.964 106.51 54.401 L 105.47 54.261 C 105.57 53.823 105.72 53.469 105.94 53.198 C 106.16 52.927 106.47 52.719 106.88 52.573 C 107.29 52.427 107.76 52.354 108.29 52.354 C 108.82 52.354 109.25 52.417 109.58 52.542 C 109.92 52.667 110.16 52.823 110.32 53.011 C 110.47 53.198 110.58 53.438 110.65 53.729 C 110.68 53.907 110.69 54.229 110.69 54.698 L 110.69 56.104 C 110.69 57.084 110.72 57.703 110.76 57.964 C 110.81 58.224 110.9 58.474 111.04 58.714 L 109.93 58.714 C 109.82 58.495 109.76 58.24 109.72 57.948 Z M 109.63 55.589 C 109.25 55.745 108.67 55.881 107.91 55.995 C 107.47 56.058 107.17 56.128 106.99 56.206 C 106.81 56.284 106.67 56.396 106.58 56.542 C 106.48 56.688 106.43 56.854 106.43 57.042 C 106.43 57.323 106.53 57.558 106.75 57.745 C 106.96 57.933 107.27 58.026 107.68 58.026 C 108.08 58.026 108.45 57.938 108.76 57.761 C 109.08 57.584 109.31 57.339 109.46 57.026 C 109.57 56.787 109.63 56.438 109.63 55.979 L 109.63 55.589 Z M 112.29 61.104 L 112.16 60.12 C 112.39 60.183 112.6 60.214 112.77 60.214 C 113 60.214 113.19 60.175 113.33 60.097 C 113.47 60.019 113.59 59.912 113.68 59.776 C 113.74 59.662 113.85 59.396 114.01 58.979 C 114.02 58.927 114.05 58.844 114.1 58.729 L 111.73 52.495 L 112.87 52.495 L 114.16 56.089 C 114.33 56.547 114.48 57.032 114.62 57.542 C 114.74 57.052 114.89 56.578 115.05 56.12 L 116.38 52.495 L 117.43 52.495 L 115.07 58.823 C 114.81 59.5 114.61 59.969 114.48 60.229 C 114.29 60.584 114.07 60.841 113.83 61.003 C 113.58 61.164 113.29 61.245 112.96 61.245 C 112.76 61.245 112.54 61.198 112.29 61.104 Z "/>
          <path transform="matrix(.6,0,0,.6,247.898,542.31906)" stroke-width="1" stroke-linecap="butt" stroke-miterlimit="1.45" stroke-linejoin="miter" fill="none" stroke="#000000" d="M 23.522 39 L 125.52 39 L 125.52 69 L 23.522 69 L 23.522 39 Z "/>
          <path transform="matrix(.6,0,0,.6,247.898,542.31906)" stroke-width="1" stroke-linecap="butt" stroke-miterlimit="1.45" stroke-linejoin="miter" fill="none" stroke="#000000" d="M -36.478 109 L -36.478 131 "/>
          <path transform="matrix(.6,0,0,.6,247.898,542.31906)" d="M -36.478 139 L -31.478 127 L -36.478 130 L -41.478 127 Z "/>
          <path transform="matrix(.6,0,0,.6,247.898,542.31906)" stroke-width="1" stroke-linecap="butt" stroke-miterlimit="1.45" stroke-linejoin="miter" fill="none" stroke="#000000" d="M -14.078 109 L -8.7448 131.22 "/>
          <path transform="matrix(.6,0,0,.6,247.898,542.31906)" d="M -6.8778 139 L -4.8163 126.16 L -8.9781 130.25 L -14.54 128.5 Z "/>
          <path transform="matrix(.6,0,0,.6,247.898,542.31906)" stroke-width="1" stroke-linecap="butt" stroke-miterlimit="1.45" stroke-linejoin="miter" fill="none" stroke="#000000" d="M 5.1222 109 L 8.6583 131.1 "/>
          <path transform="matrix(.6,0,0,.6,247.898,542.31906)" d="M 9.9222 139 L 12.964 126.36 L 8.5003 130.11 L 3.0891 127.94 Z "/>
          <path transform="matrix(.6,0,0,.6,247.898,542.31906)" stroke-width="1" stroke-linecap="butt" stroke-miterlimit="1.45" stroke-linejoin="miter" fill="none" stroke="#000000" d="M 27.522 109 L 36.551 131.57 "/>
          <path transform="matrix(.6,0,0,.6,247.898,542.31906)" d="M 39.522 139 L 39.708 126 L 36.18 130.64 L 30.423 129.72 Z "/>
          <path transform="matrix(.6,0,0,.6,247.898,542.31906)" stroke-width="1" stroke-linecap="butt" stroke-miterlimit="1.45" stroke-linejoin="miter" fill="none" stroke="#000000" d="M 46.722 109 L 53.884 131.38 "/>
          <path transform="matrix(.6,0,0,.6,247.898,542.31906)" d="M 56.322 139 L 57.427 126.05 L 53.579 130.43 L 47.903 129.09 Z "/>
          <path transform="matrix(.6,0,0,.6,247.898,542.31906)" stroke-width="1" stroke-linecap="butt" stroke-miterlimit="1.45" stroke-linejoin="miter" fill="none" stroke="#000000" d="M 65.922 109 L 71.255 131.22 "/>
          <path transform="matrix(.6,0,0,.6,247.898,542.31906)" d="M 73.122 139 L 75.184 126.16 L 71.022 130.25 L 65.46 128.5 Z "/>
          <path transform="matrix(.6,0,0,.6,247.898,542.31906)" stroke-width="1" stroke-linecap="butt" stroke-miterlimit="1.45" stroke-linejoin="miter" fill="none" stroke="#000000" d="M 85.122 109 L 88.658 131.1 "/>
          <path transform="matrix(.6,0,0,.6,247.898,542.31906)" d="M 89.922 139 L 92.964 126.36 L 88.5 130.11 L 83.089 127.94 Z "/>
          <path transform="matrix(.6,0,0,.6,247.898,542.31906)" stroke-width="1" stroke-linecap="butt" stroke-miterlimit="1.45" stroke-linejoin="miter" fill="none" stroke="#000000" d="M 107.52 109 L 116.55 131.57 "/>
          <path transform="matrix(.6,0,0,.6,247.898,542.31906)" d="M 119.52 139 L 119.71 126 L 116.18 130.64 L 110.42 129.72 Z "/>
          <path transform="matrix(.6,0,0,.6,247.898,542.31906)" stroke-width="1" stroke-linecap="butt" stroke-miterlimit="1.45" stroke-linejoin="miter" fill="none" stroke="#000000" d="M 126.72 109 L 133.88 131.38 "/>
          <path transform="matrix(.6,0,0,.6,247.898,542.31906)" d="M 136.32 139 L 137.43 126.05 L 133.58 130.43 L 127.9 129.09 Z "/>
          <path transform="matrix(.6,0,0,.6,247.898,542.31906)" stroke-width="1" stroke-linecap="butt" stroke-miterlimit="1.45" stroke-linejoin="miter" fill="none" stroke="#000000" d="M 145.92 109 L 151.26 131.22 "/>
          <path transform="matrix(.6,0,0,.6,247.898,542.31906)" d="M 153.12 139 L 155.18 126.16 L 151.02 130.25 L 145.46 128.5 Z "/>
        </g>
      </g>
      <clipPath id="cp54">
        <path transform="matrix(.6,0,0,.6,210.698,556.71908)" d="M 0 0 L 0 153 L 284 153 L 284 0 Z "/>
      </clipPath>
      <g clip-path="url(#cp54)"/>
    </g>
  </g>
</svg>