<?xml version="1.0" encoding="UTF-8" standalone="no"?>
<!DOCTYPE svg PUBLIC "-//W3C//DTD SVG 1.1//EN" "http://www.w3.org/Graphics/SVG/1.1/DTD/svg11.dtd">
<svg xmlns="http://www.w3.org/2000/svg" xmlns:xlink="http://www.w3.org/1999/xlink" version="1.1" width="501pt" height="230pt" viewBox="0 0 501 230">
<g enable-background="new">
<clipPath id="cp0">
<path d="M 0 0 L 501 0 L 501 230 L 0 230 Z "/>
</clipPath>
<g clip-path="url(#cp0)">
<clipPath id="cp1">
<path d="M 0 0 L 0 230 L 501 230 L 501 0 Z "/>
</clipPath>
<g clip-path="url(#cp1)">
<clipPath id="cp2">
<path d="M 0 0 L 501 0 L 501 230 L 0 230 Z "/>
</clipPath>
<g clip-path="url(#cp2)">
<path transform="matrix(1,0,0,1,0,215)" d="M 0 -215 L 501 -215 L 501 15 L 0 15 L 0 -215 Z " fill="#ffffff"/>
<path transform="matrix(1,0,0,1,0,215)" d="M 346.06 -90 L 410.76 -90 L 410.76 -60 L 346.06 -60 L 346.06 -90 Z " fill="#ffffff"/>
<path transform="matrix(1,0,0,1,0,215)" d="M 353.05 -70.286 L 356.34 -78.88 L 357.56 -78.88 L 361.08 -70.286 L 359.8 -70.286 L 358.78 -72.896 L 355.2 -72.896 L 354.25 -70.286 L 353.05 -70.286 Z M 355.53 -73.817 L 358.44 -73.817 L 357.55 -76.192 C 357.26 -76.911 357.06 -77.505 356.94 -77.974 C 356.82 -77.422 356.66 -76.875 356.47 -76.333 L 355.53 -73.817 Z M 361.86 -70.286 L 361.86 -76.505 L 362.8 -76.505 L 362.8 -75.63 C 363.26 -76.307 363.92 -76.646 364.78 -76.646 C 365.16 -76.646 365.5 -76.578 365.82 -76.442 C 366.14 -76.307 366.38 -76.13 366.53 -75.911 C 366.69 -75.692 366.8 -75.437 366.86 -75.146 C 366.89 -74.948 366.91 -74.604 366.91 -74.114 L 366.91 -70.286 L 365.86 -70.286 L 365.86 -74.067 C 365.86 -74.505 365.82 -74.828 365.74 -75.036 C 365.65 -75.244 365.51 -75.414 365.3 -75.544 C 365.09 -75.674 364.85 -75.739 364.56 -75.739 C 364.12 -75.739 363.73 -75.596 363.4 -75.31 C 363.07 -75.023 362.91 -74.484 362.91 -73.692 L 362.91 -70.286 L 361.86 -70.286 Z M 368.54 -77.661 L 368.54 -78.88 L 369.6 -78.88 L 369.6 -77.661 L 368.54 -77.661 Z M 368.54 -70.286 L 368.54 -76.505 L 369.6 -76.505 L 369.6 -70.286 L 368.54 -70.286 Z M 371.2 -70.286 L 371.2 -76.505 L 372.14 -76.505 L 372.14 -75.63 C 372.34 -75.942 372.6 -76.19 372.92 -76.372 C 373.24 -76.554 373.61 -76.646 374.03 -76.646 C 374.49 -76.646 374.87 -76.552 375.16 -76.364 C 375.46 -76.177 375.66 -75.911 375.78 -75.567 C 376.28 -76.286 376.92 -76.646 377.7 -76.646 C 378.33 -76.646 378.8 -76.476 379.13 -76.138 C 379.46 -75.799 379.62 -75.271 379.62 -74.552 L 379.62 -70.286 L 378.58 -70.286 L 378.58 -74.208 C 378.58 -74.625 378.54 -74.927 378.47 -75.114 C 378.41 -75.302 378.28 -75.453 378.11 -75.567 C 377.93 -75.682 377.72 -75.739 377.47 -75.739 C 377.03 -75.739 376.67 -75.593 376.38 -75.302 C 376.09 -75.01 375.95 -74.541 375.95 -73.896 L 375.95 -70.286 L 374.89 -70.286 L 374.89 -74.333 C 374.89 -74.802 374.8 -75.153 374.63 -75.388 C 374.46 -75.622 374.18 -75.739 373.8 -75.739 C 373.49 -75.739 373.22 -75.661 372.97 -75.505 C 372.72 -75.349 372.53 -75.119 372.42 -74.817 C 372.31 -74.515 372.25 -74.083 372.25 -73.521 L 372.25 -70.286 L 371.2 -70.286 Z M 385.26 -71.052 C 384.86 -70.718 384.49 -70.484 384.13 -70.349 C 383.77 -70.213 383.38 -70.146 382.96 -70.146 C 382.28 -70.146 381.75 -70.312 381.38 -70.646 C 381.02 -70.979 380.84 -71.406 380.84 -71.927 C 380.84 -72.229 380.91 -72.507 381.04 -72.763 C 381.18 -73.018 381.36 -73.221 381.59 -73.372 C 381.82 -73.523 382.07 -73.635 382.35 -73.708 C 382.55 -73.771 382.86 -73.828 383.29 -73.88 C 384.13 -73.974 384.76 -74.093 385.17 -74.239 C 385.17 -74.385 385.17 -74.474 385.17 -74.505 C 385.17 -74.942 385.07 -75.25 384.87 -75.427 C 384.6 -75.656 384.2 -75.771 383.67 -75.771 C 383.18 -75.771 382.81 -75.685 382.57 -75.513 C 382.33 -75.341 382.16 -75.036 382.04 -74.599 L 381.01 -74.739 C 381.1 -75.177 381.26 -75.531 381.48 -75.802 C 381.7 -76.073 382.01 -76.281 382.42 -76.427 C 382.82 -76.573 383.29 -76.646 383.82 -76.646 C 384.35 -76.646 384.79 -76.583 385.12 -76.458 C 385.45 -76.333 385.7 -76.177 385.85 -75.989 C 386.01 -75.802 386.12 -75.562 386.18 -75.271 C 386.21 -75.093 386.23 -74.771 386.23 -74.302 L 386.23 -72.896 C 386.23 -71.916 386.25 -71.297 386.3 -71.036 C 386.35 -70.776 386.44 -70.526 386.57 -70.286 L 385.46 -70.286 C 385.36 -70.505 385.29 -70.76 385.26 -71.052 Z M 385.17 -73.411 C 384.78 -73.255 384.21 -73.119 383.45 -73.005 C 383.01 -72.942 382.7 -72.872 382.53 -72.794 C 382.35 -72.716 382.21 -72.604 382.11 -72.458 C 382.01 -72.312 381.96 -72.146 381.96 -71.958 C 381.96 -71.677 382.07 -71.442 382.28 -71.255 C 382.5 -71.067 382.81 -70.974 383.21 -70.974 C 383.62 -70.974 383.98 -71.062 384.3 -71.239 C 384.62 -71.416 384.85 -71.661 384.99 -71.974 C 385.11 -72.213 385.17 -72.562 385.17 -73.021 L 385.17 -73.411 Z M 390.17 -71.224 L 390.32 -70.302 C 390.02 -70.239 389.76 -70.208 389.53 -70.208 C 389.14 -70.208 388.85 -70.268 388.64 -70.388 C 388.43 -70.507 388.28 -70.666 388.19 -70.864 C 388.1 -71.062 388.06 -71.479 388.06 -72.114 L 388.06 -75.692 L 387.29 -75.692 L 387.29 -76.505 L 388.06 -76.505 L 388.06 -78.052 L 389.11 -78.677 L 389.11 -76.505 L 390.17 -76.505 L 390.17 -75.692 L 389.11 -75.692 L 389.11 -72.052 C 389.11 -71.75 389.12 -71.557 389.16 -71.474 C 389.2 -71.39 389.26 -71.323 389.34 -71.271 C 389.42 -71.218 389.54 -71.192 389.7 -71.192 C 389.82 -71.192 389.98 -71.203 390.17 -71.224 Z M 395.46 -72.286 L 396.55 -72.161 C 396.38 -71.526 396.06 -71.031 395.6 -70.677 C 395.13 -70.323 394.53 -70.146 393.81 -70.146 C 392.91 -70.146 392.19 -70.427 391.65 -70.989 C 391.11 -71.552 390.85 -72.338 390.85 -73.349 C 390.85 -74.39 391.12 -75.2 391.66 -75.778 C 392.2 -76.356 392.9 -76.646 393.75 -76.646 C 394.59 -76.646 395.27 -76.364 395.79 -75.802 C 396.32 -75.239 396.58 -74.442 396.58 -73.411 C 396.58 -73.349 396.58 -73.255 396.58 -73.13 L 391.94 -73.13 C 391.98 -72.442 392.17 -71.919 392.52 -71.56 C 392.86 -71.2 393.29 -71.021 393.81 -71.021 C 394.2 -71.021 394.53 -71.122 394.81 -71.325 C 395.08 -71.528 395.3 -71.849 395.46 -72.286 Z M 392 -73.989 L 395.47 -73.989 C 395.43 -74.521 395.3 -74.916 395.08 -75.177 C 394.74 -75.583 394.3 -75.786 393.77 -75.786 C 393.28 -75.786 392.87 -75.625 392.54 -75.302 C 392.21 -74.979 392.03 -74.541 392 -73.989 Z M 401.91 -70.286 L 401.91 -71.067 C 401.51 -70.453 400.94 -70.146 400.18 -70.146 C 399.68 -70.146 399.22 -70.284 398.8 -70.56 C 398.38 -70.836 398.06 -71.218 397.83 -71.708 C 397.6 -72.198 397.49 -72.76 397.49 -73.396 C 397.49 -74.01 397.59 -74.573 397.8 -75.083 C 398.01 -75.593 398.32 -75.981 398.74 -76.247 C 399.16 -76.513 399.62 -76.646 400.13 -76.646 C 400.5 -76.646 400.84 -76.567 401.13 -76.411 C 401.42 -76.255 401.66 -76.052 401.85 -75.802 L 401.85 -78.88 L 402.89 -78.88 L 402.89 -70.286 L 401.91 -70.286 Z M 398.58 -73.396 C 398.58 -72.593 398.75 -71.997 399.08 -71.606 C 399.42 -71.216 399.81 -71.021 400.27 -71.021 C 400.73 -71.021 401.12 -71.208 401.44 -71.583 C 401.76 -71.958 401.93 -72.531 401.93 -73.302 C 401.93 -74.156 401.76 -74.781 401.43 -75.177 C 401.11 -75.573 400.7 -75.771 400.22 -75.771 C 399.75 -75.771 399.36 -75.58 399.05 -75.2 C 398.74 -74.82 398.58 -74.218 398.58 -73.396 Z "/>
<path transform="matrix(1,0,0,1,0,215)" stroke-width="1" stroke-linecap="butt" stroke-miterlimit="1.45" stroke-linejoin="miter" fill="none" stroke="#000000" d="M 346.06 -90 L 410.76 -90 L 410.76 -60 L 346.06 -60 L 346.06 -90 Z "/>
<path transform="matrix(1,0,0,1,0,215)" d="M 89.337 -90 L 152.69 -90 L 152.69 -60 L 89.337 -60 L 89.337 -90 Z " fill="#ffffff"/>
<path transform="matrix(1,0,0,1,0,215)" d="M 97.259 -70.286 L 97.259 -78.88 L 100.51 -78.88 C 101.07 -78.88 101.5 -78.854 101.81 -78.802 C 102.23 -78.729 102.59 -78.593 102.88 -78.396 C 103.16 -78.198 103.39 -77.922 103.56 -77.567 C 103.74 -77.213 103.82 -76.823 103.82 -76.396 C 103.82 -75.666 103.59 -75.049 103.13 -74.544 C 102.66 -74.039 101.82 -73.786 100.6 -73.786 L 98.4 -73.786 L 98.4 -70.286 L 97.259 -70.286 Z M 98.4 -74.786 L 100.62 -74.786 C 101.36 -74.786 101.88 -74.924 102.19 -75.2 C 102.5 -75.476 102.65 -75.864 102.65 -76.364 C 102.65 -76.718 102.56 -77.023 102.38 -77.278 C 102.19 -77.534 101.96 -77.703 101.67 -77.786 C 101.47 -77.838 101.11 -77.864 100.6 -77.864 L 98.4 -77.864 L 98.4 -74.786 Z M 105.12 -70.286 L 105.12 -76.505 L 106.08 -76.505 L 106.08 -75.567 C 106.31 -76.005 106.54 -76.294 106.74 -76.435 C 106.94 -76.575 107.17 -76.646 107.42 -76.646 C 107.77 -76.646 108.13 -76.536 108.5 -76.317 L 108.14 -75.333 C 107.88 -75.489 107.62 -75.567 107.37 -75.567 C 107.13 -75.567 106.92 -75.497 106.74 -75.356 C 106.56 -75.216 106.43 -75.021 106.36 -74.771 C 106.23 -74.396 106.17 -73.989 106.17 -73.552 L 106.17 -70.286 L 105.12 -70.286 Z M 108.74 -73.396 C 108.74 -74.552 109.06 -75.406 109.7 -75.958 C 110.23 -76.416 110.88 -76.646 111.65 -76.646 C 112.5 -76.646 113.2 -76.367 113.75 -75.81 C 114.3 -75.252 114.57 -74.479 114.57 -73.489 C 114.57 -72.687 114.45 -72.057 114.21 -71.599 C 113.97 -71.14 113.62 -70.784 113.16 -70.528 C 112.69 -70.273 112.19 -70.146 111.65 -70.146 C 110.79 -70.146 110.08 -70.424 109.55 -70.981 C 109.01 -71.539 108.74 -72.343 108.74 -73.396 Z M 109.82 -73.396 C 109.82 -72.604 110 -72.01 110.34 -71.614 C 110.69 -71.218 111.13 -71.021 111.65 -71.021 C 112.18 -71.021 112.62 -71.218 112.96 -71.614 C 113.31 -72.01 113.48 -72.614 113.48 -73.427 C 113.48 -74.198 113.3 -74.781 112.95 -75.177 C 112.61 -75.573 112.17 -75.771 111.65 -75.771 C 111.13 -75.771 110.69 -75.575 110.34 -75.185 C 110 -74.794 109.82 -74.198 109.82 -73.396 Z M 115.79 -77.646 L 115.79 -78.88 L 116.85 -78.88 L 116.85 -77.646 L 115.79 -77.646 Z M 114.46 -67.864 L 114.65 -68.771 C 114.87 -68.718 115.04 -68.692 115.15 -68.692 C 115.37 -68.692 115.53 -68.763 115.64 -68.903 C 115.74 -69.044 115.79 -69.401 115.79 -69.974 L 115.79 -76.505 L 116.85 -76.505 L 116.85 -69.942 C 116.85 -69.182 116.76 -68.651 116.56 -68.349 C 116.3 -67.953 115.88 -67.755 115.29 -67.755 C 115 -67.755 114.72 -67.791 114.46 -67.864 Z M 122.72 -72.286 L 123.82 -72.161 C 123.65 -71.526 123.33 -71.031 122.86 -70.677 C 122.4 -70.323 121.8 -70.146 121.08 -70.146 C 120.18 -70.146 119.46 -70.427 118.92 -70.989 C 118.38 -71.552 118.11 -72.338 118.11 -73.349 C 118.11 -74.39 118.39 -75.2 118.93 -75.778 C 119.47 -76.356 120.17 -76.646 121.02 -76.646 C 121.85 -76.646 122.53 -76.364 123.06 -75.802 C 123.59 -75.239 123.85 -74.442 123.85 -73.411 C 123.85 -73.349 123.85 -73.255 123.85 -73.13 L 119.21 -73.13 C 119.25 -72.442 119.44 -71.919 119.79 -71.56 C 120.13 -71.2 120.56 -71.021 121.08 -71.021 C 121.47 -71.021 121.8 -71.122 122.08 -71.325 C 122.35 -71.528 122.57 -71.849 122.72 -72.286 Z M 119.27 -73.989 L 122.74 -73.989 C 122.7 -74.521 122.57 -74.916 122.35 -75.177 C 122.01 -75.583 121.57 -75.786 121.04 -75.786 C 120.55 -75.786 120.14 -75.625 119.81 -75.302 C 119.48 -74.979 119.3 -74.541 119.27 -73.989 Z M 129.21 -72.567 L 130.24 -72.427 C 130.13 -71.718 129.84 -71.161 129.37 -70.755 C 128.9 -70.349 128.32 -70.146 127.65 -70.146 C 126.79 -70.146 126.11 -70.424 125.59 -70.981 C 125.08 -71.539 124.82 -72.338 124.82 -73.38 C 124.82 -74.047 124.93 -74.632 125.16 -75.138 C 125.38 -75.643 125.72 -76.021 126.17 -76.271 C 126.62 -76.521 127.12 -76.646 127.66 -76.646 C 128.33 -76.646 128.88 -76.476 129.31 -76.138 C 129.74 -75.799 130.02 -75.312 130.15 -74.677 L 129.12 -74.521 C 129.02 -74.937 128.85 -75.252 128.6 -75.466 C 128.35 -75.679 128.05 -75.786 127.69 -75.786 C 127.16 -75.786 126.73 -75.596 126.4 -75.216 C 126.06 -74.836 125.9 -74.234 125.9 -73.411 C 125.9 -72.567 126.06 -71.958 126.38 -71.583 C 126.7 -71.208 127.12 -71.021 127.63 -71.021 C 128.05 -71.021 128.4 -71.146 128.67 -71.396 C 128.95 -71.646 129.13 -72.036 129.21 -72.567 Z M 133.44 -71.224 L 133.6 -70.302 C 133.3 -70.239 133.03 -70.208 132.8 -70.208 C 132.42 -70.208 132.12 -70.268 131.91 -70.388 C 131.7 -70.507 131.56 -70.666 131.47 -70.864 C 131.38 -71.062 131.34 -71.479 131.34 -72.114 L 131.34 -75.692 L 130.57 -75.692 L 130.57 -76.505 L 131.34 -76.505 L 131.34 -78.052 L 132.38 -78.677 L 132.38 -76.505 L 133.44 -76.505 L 133.44 -75.692 L 132.38 -75.692 L 132.38 -72.052 C 132.38 -71.75 132.4 -71.557 132.44 -71.474 C 132.47 -71.39 132.53 -71.323 132.62 -71.271 C 132.7 -71.218 132.82 -71.192 132.98 -71.192 C 133.1 -71.192 133.26 -71.203 133.44 -71.224 Z M 134.48 -77.661 L 134.48 -78.88 L 135.54 -78.88 L 135.54 -77.661 L 134.48 -77.661 Z M 134.48 -70.286 L 134.48 -76.505 L 135.54 -76.505 L 135.54 -70.286 L 134.48 -70.286 Z M 137.12 -70.286 L 137.12 -78.88 L 138.18 -78.88 L 138.18 -70.286 L 137.12 -70.286 Z M 144.06 -72.286 L 145.16 -72.161 C 144.99 -71.526 144.67 -71.031 144.2 -70.677 C 143.74 -70.323 143.14 -70.146 142.42 -70.146 C 141.52 -70.146 140.8 -70.427 140.26 -70.989 C 139.72 -71.552 139.45 -72.338 139.45 -73.349 C 139.45 -74.39 139.73 -75.2 140.27 -75.778 C 140.81 -76.356 141.51 -76.646 142.36 -76.646 C 143.19 -76.646 143.87 -76.364 144.4 -75.802 C 144.93 -75.239 145.19 -74.442 145.19 -73.411 C 145.19 -73.349 145.19 -73.255 145.19 -73.13 L 140.55 -73.13 C 140.59 -72.442 140.78 -71.919 141.13 -71.56 C 141.47 -71.2 141.9 -71.021 142.42 -71.021 C 142.81 -71.021 143.14 -71.122 143.42 -71.325 C 143.69 -71.528 143.91 -71.849 144.06 -72.286 Z M 140.61 -73.989 L 144.08 -73.989 C 144.04 -74.521 143.91 -74.916 143.69 -75.177 C 143.34 -75.583 142.91 -75.786 142.38 -75.786 C 141.89 -75.786 141.48 -75.625 141.15 -75.302 C 140.82 -74.979 140.64 -74.541 140.61 -73.989 Z "/>
<path transform="matrix(1,0,0,1,0,215)" stroke-width="1" stroke-linecap="butt" stroke-miterlimit="1.45" stroke-linejoin="miter" fill="none" stroke="#000000" d="M 89.337 -90 L 152.69 -90 L 152.69 -60 L 89.337 -60 L 89.337 -90 Z "/>
<path transform="matrix(1,0,0,1,0,215)" d="M 212.69 -90 L 286.06 -90 L 286.06 -60 L 212.69 -60 L 212.69 -90 Z " fill="#ffffff"/>
<path transform="matrix(1,0,0,1,0,215)" d="M 226.75 -73.302 L 227.88 -73.005 C 227.64 -72.078 227.21 -71.369 226.6 -70.88 C 225.98 -70.39 225.23 -70.146 224.33 -70.146 C 223.41 -70.146 222.65 -70.333 222.07 -70.708 C 221.48 -71.083 221.04 -71.627 220.74 -72.341 C 220.44 -73.054 220.29 -73.823 220.29 -74.646 C 220.29 -75.541 220.46 -76.323 220.8 -76.989 C 221.15 -77.656 221.63 -78.161 222.26 -78.505 C 222.89 -78.849 223.59 -79.021 224.35 -79.021 C 225.2 -79.021 225.92 -78.802 226.51 -78.364 C 227.1 -77.927 227.51 -77.312 227.74 -76.521 L 226.61 -76.255 C 226.42 -76.88 226.13 -77.336 225.75 -77.622 C 225.37 -77.909 224.89 -78.052 224.32 -78.052 C 223.66 -78.052 223.11 -77.893 222.67 -77.575 C 222.23 -77.257 221.91 -76.833 221.73 -76.302 C 221.55 -75.771 221.46 -75.218 221.46 -74.646 C 221.46 -73.916 221.56 -73.281 221.78 -72.739 C 221.99 -72.198 222.32 -71.791 222.77 -71.521 C 223.22 -71.25 223.71 -71.114 224.24 -71.114 C 224.87 -71.114 225.41 -71.297 225.86 -71.661 C 226.3 -72.026 226.6 -72.573 226.75 -73.302 Z M 228.76 -73.396 C 228.76 -74.552 229.08 -75.406 229.72 -75.958 C 230.25 -76.416 230.9 -76.646 231.67 -76.646 C 232.52 -76.646 233.23 -76.367 233.77 -75.81 C 234.32 -75.252 234.59 -74.479 234.59 -73.489 C 234.59 -72.687 234.47 -72.057 234.23 -71.599 C 233.99 -71.14 233.64 -70.784 233.18 -70.528 C 232.71 -70.273 232.21 -70.146 231.67 -70.146 C 230.81 -70.146 230.11 -70.424 229.57 -70.981 C 229.03 -71.539 228.76 -72.343 228.76 -73.396 Z M 229.84 -73.396 C 229.84 -72.604 230.02 -72.01 230.37 -71.614 C 230.71 -71.218 231.15 -71.021 231.67 -71.021 C 232.2 -71.021 232.64 -71.218 232.98 -71.614 C 233.33 -72.01 233.5 -72.614 233.5 -73.427 C 233.5 -74.198 233.32 -74.781 232.98 -75.177 C 232.63 -75.573 232.19 -75.771 231.67 -75.771 C 231.15 -75.771 230.71 -75.575 230.37 -75.185 C 230.02 -74.794 229.84 -74.198 229.84 -73.396 Z M 235.8 -70.286 L 235.8 -78.88 L 236.86 -78.88 L 236.86 -70.286 L 235.8 -70.286 Z M 238.46 -70.286 L 238.46 -78.88 L 239.53 -78.88 L 239.53 -70.286 L 238.46 -70.286 Z M 245.41 -72.286 L 246.5 -72.161 C 246.34 -71.526 246.02 -71.031 245.55 -70.677 C 245.08 -70.323 244.49 -70.146 243.77 -70.146 C 242.86 -70.146 242.14 -70.427 241.61 -70.989 C 241.07 -71.552 240.8 -72.338 240.8 -73.349 C 240.8 -74.39 241.07 -75.2 241.61 -75.778 C 242.16 -76.356 242.85 -76.646 243.71 -76.646 C 244.54 -76.646 245.22 -76.364 245.75 -75.802 C 246.27 -75.239 246.54 -74.442 246.54 -73.411 C 246.54 -73.349 246.54 -73.255 246.54 -73.13 L 241.9 -73.13 C 241.94 -72.442 242.13 -71.919 242.47 -71.56 C 242.82 -71.2 243.25 -71.021 243.77 -71.021 C 244.16 -71.021 244.49 -71.122 244.76 -71.325 C 245.04 -71.528 245.25 -71.849 245.41 -72.286 Z M 241.96 -73.989 L 245.43 -73.989 C 245.38 -74.521 245.25 -74.916 245.04 -75.177 C 244.69 -75.583 244.25 -75.786 243.72 -75.786 C 243.23 -75.786 242.83 -75.625 242.5 -75.302 C 242.17 -74.979 241.99 -74.541 241.96 -73.989 Z M 251.9 -72.567 L 252.93 -72.427 C 252.81 -71.718 252.52 -71.161 252.05 -70.755 C 251.58 -70.349 251.01 -70.146 250.33 -70.146 C 249.48 -70.146 248.8 -70.424 248.28 -70.981 C 247.76 -71.539 247.51 -72.338 247.51 -73.38 C 247.51 -74.047 247.62 -74.632 247.84 -75.138 C 248.07 -75.643 248.41 -76.021 248.86 -76.271 C 249.31 -76.521 249.81 -76.646 250.35 -76.646 C 251.02 -76.646 251.57 -76.476 252 -76.138 C 252.43 -75.799 252.71 -75.312 252.83 -74.677 L 251.8 -74.521 C 251.71 -74.937 251.54 -75.252 251.29 -75.466 C 251.04 -75.679 250.74 -75.786 250.38 -75.786 C 249.85 -75.786 249.42 -75.596 249.08 -75.216 C 248.75 -74.836 248.58 -74.234 248.58 -73.411 C 248.58 -72.567 248.75 -71.958 249.07 -71.583 C 249.39 -71.208 249.81 -71.021 250.32 -71.021 C 250.74 -71.021 251.08 -71.146 251.36 -71.396 C 251.63 -71.646 251.81 -72.036 251.9 -72.567 Z M 256.13 -71.224 L 256.29 -70.302 C 255.99 -70.239 255.72 -70.208 255.49 -70.208 C 255.11 -70.208 254.81 -70.268 254.6 -70.388 C 254.39 -70.507 254.24 -70.666 254.16 -70.864 C 254.07 -71.062 254.02 -71.479 254.02 -72.114 L 254.02 -75.692 L 253.26 -75.692 L 253.26 -76.505 L 254.02 -76.505 L 254.02 -78.052 L 255.07 -78.677 L 255.07 -76.505 L 256.13 -76.505 L 256.13 -75.692 L 255.07 -75.692 L 255.07 -72.052 C 255.07 -71.75 255.09 -71.557 255.12 -71.474 C 255.16 -71.39 255.22 -71.323 255.3 -71.271 C 255.39 -71.218 255.51 -71.192 255.66 -71.192 C 255.79 -71.192 255.94 -71.203 256.13 -71.224 Z M 261.23 -71.052 C 260.84 -70.718 260.46 -70.484 260.1 -70.349 C 259.74 -70.213 259.35 -70.146 258.93 -70.146 C 258.25 -70.146 257.72 -70.312 257.36 -70.646 C 256.99 -70.979 256.81 -71.406 256.81 -71.927 C 256.81 -72.229 256.88 -72.507 257.01 -72.763 C 257.15 -73.018 257.33 -73.221 257.56 -73.372 C 257.79 -73.523 258.04 -73.635 258.33 -73.708 C 258.52 -73.771 258.84 -73.828 259.26 -73.88 C 260.11 -73.974 260.73 -74.093 261.14 -74.239 C 261.14 -74.385 261.14 -74.474 261.14 -74.505 C 261.14 -74.942 261.04 -75.25 260.84 -75.427 C 260.57 -75.656 260.17 -75.771 259.64 -75.771 C 259.15 -75.771 258.78 -75.685 258.54 -75.513 C 258.3 -75.341 258.13 -75.036 258.01 -74.599 L 256.98 -74.739 C 257.08 -75.177 257.23 -75.531 257.45 -75.802 C 257.67 -76.073 257.98 -76.281 258.39 -76.427 C 258.79 -76.573 259.26 -76.646 259.79 -76.646 C 260.33 -76.646 260.76 -76.583 261.09 -76.458 C 261.42 -76.333 261.67 -76.177 261.83 -75.989 C 261.98 -75.802 262.09 -75.562 262.15 -75.271 C 262.18 -75.093 262.2 -74.771 262.2 -74.302 L 262.2 -72.896 C 262.2 -71.916 262.22 -71.297 262.27 -71.036 C 262.32 -70.776 262.41 -70.526 262.54 -70.286 L 261.43 -70.286 C 261.33 -70.505 261.26 -70.76 261.23 -71.052 Z M 261.14 -73.411 C 260.75 -73.255 260.18 -73.119 259.42 -73.005 C 258.98 -72.942 258.67 -72.872 258.5 -72.794 C 258.32 -72.716 258.18 -72.604 258.08 -72.458 C 257.98 -72.312 257.93 -72.146 257.93 -71.958 C 257.93 -71.677 258.04 -71.442 258.25 -71.255 C 258.47 -71.067 258.78 -70.974 259.18 -70.974 C 259.59 -70.974 259.95 -71.062 260.27 -71.239 C 260.59 -71.416 260.82 -71.661 260.97 -71.974 C 261.08 -72.213 261.14 -72.562 261.14 -73.021 L 261.14 -73.411 Z M 264.81 -70.286 L 263.83 -70.286 L 263.83 -78.88 L 264.89 -78.88 L 264.89 -75.817 C 265.34 -76.369 265.91 -76.646 266.59 -76.646 C 266.98 -76.646 267.34 -76.57 267.68 -76.419 C 268.02 -76.268 268.3 -76.052 268.52 -75.771 C 268.75 -75.489 268.92 -75.151 269.05 -74.755 C 269.17 -74.359 269.23 -73.937 269.23 -73.489 C 269.23 -72.427 268.97 -71.604 268.44 -71.021 C 267.91 -70.437 267.27 -70.146 266.55 -70.146 C 265.81 -70.146 265.23 -70.453 264.81 -71.067 L 264.81 -70.286 Z M 264.8 -73.442 C 264.8 -72.703 264.9 -72.166 265.11 -71.833 C 265.44 -71.291 265.89 -71.021 266.45 -71.021 C 266.91 -71.021 267.31 -71.218 267.65 -71.614 C 267.99 -72.01 268.16 -72.609 268.16 -73.411 C 268.16 -74.224 267.99 -74.823 267.67 -75.208 C 267.35 -75.593 266.96 -75.786 266.5 -75.786 C 266.04 -75.786 265.64 -75.586 265.3 -75.185 C 264.96 -74.784 264.8 -74.203 264.8 -73.442 Z M 270.49 -70.286 L 270.49 -78.88 L 271.55 -78.88 L 271.55 -70.286 L 270.49 -70.286 Z M 277.43 -72.286 L 278.53 -72.161 C 278.36 -71.526 278.04 -71.031 277.57 -70.677 C 277.1 -70.323 276.51 -70.146 275.79 -70.146 C 274.89 -70.146 274.16 -70.427 273.63 -70.989 C 273.09 -71.552 272.82 -72.338 272.82 -73.349 C 272.82 -74.39 273.09 -75.2 273.64 -75.778 C 274.18 -76.356 274.88 -76.646 275.73 -76.646 C 276.56 -76.646 277.24 -76.364 277.77 -75.802 C 278.29 -75.239 278.56 -74.442 278.56 -73.411 C 278.56 -73.349 278.56 -73.255 278.56 -73.13 L 273.92 -73.13 C 273.96 -72.442 274.15 -71.919 274.49 -71.56 C 274.84 -71.2 275.27 -71.021 275.79 -71.021 C 276.18 -71.021 276.51 -71.122 276.78 -71.325 C 277.06 -71.528 277.28 -71.849 277.43 -72.286 Z M 273.98 -73.989 L 277.45 -73.989 C 277.41 -74.521 277.28 -74.916 277.06 -75.177 C 276.71 -75.583 276.28 -75.786 275.74 -75.786 C 275.26 -75.786 274.85 -75.625 274.52 -75.302 C 274.19 -74.979 274.01 -74.541 273.98 -73.989 Z "/>
<path transform="matrix(1,0,0,1,0,215)" stroke-width="1" stroke-linecap="butt" stroke-miterlimit="1.45" stroke-linejoin="miter" fill="none" stroke="#000000" d="M 212.69 -90 L 286.06 -90 L 286.06 -60 L 212.69 -60 L 212.69 -90 Z "/>
<path transform="matrix(1,0,0,1,0,215)" d="M 15 -30 L 68.346 -30 L 68.346 0 L 15 0 L 15 -30 Z " fill="#ffffff"/>
<path transform="matrix(1,0,0,1,0,215)" d="M 22.985 -10.286 L 22.985 -18.88 L 28.781 -18.88 L 28.781 -17.864 L 24.125 -17.864 L 24.125 -15.208 L 28.156 -15.208 L 28.156 -14.192 L 24.125 -14.192 L 24.125 -10.286 L 22.985 -10.286 Z M 30.127 -17.661 L 30.127 -18.88 L 31.19 -18.88 L 31.19 -17.661 L 30.127 -17.661 Z M 30.127 -10.286 L 30.127 -16.505 L 31.19 -16.505 L 31.19 -10.286 L 30.127 -10.286 Z M 32.778 -10.286 L 32.778 -16.505 L 33.731 -16.505 L 33.731 -15.567 C 33.97 -16.005 34.192 -16.294 34.395 -16.435 C 34.598 -16.575 34.824 -16.646 35.074 -16.646 C 35.429 -16.646 35.788 -16.536 36.153 -16.317 L 35.793 -15.333 C 35.533 -15.489 35.278 -15.567 35.028 -15.567 C 34.788 -15.567 34.577 -15.497 34.395 -15.356 C 34.212 -15.216 34.085 -15.021 34.012 -14.771 C 33.887 -14.396 33.824 -13.989 33.824 -13.552 L 33.824 -10.286 L 32.778 -10.286 Z M 41.039 -12.286 L 42.133 -12.161 C 41.966 -11.526 41.649 -11.031 41.18 -10.677 C 40.711 -10.323 40.117 -10.146 39.399 -10.146 C 38.492 -10.146 37.771 -10.427 37.235 -10.989 C 36.698 -11.552 36.43 -12.338 36.43 -13.349 C 36.43 -14.39 36.701 -15.2 37.242 -15.778 C 37.784 -16.356 38.482 -16.646 39.336 -16.646 C 40.169 -16.646 40.849 -16.364 41.375 -15.802 C 41.901 -15.239 42.164 -14.442 42.164 -13.411 C 42.164 -13.349 42.164 -13.255 42.164 -13.13 L 37.524 -13.13 C 37.565 -12.442 37.758 -11.919 38.102 -11.56 C 38.445 -11.2 38.878 -11.021 39.399 -11.021 C 39.784 -11.021 40.115 -11.122 40.391 -11.325 C 40.667 -11.528 40.883 -11.849 41.039 -12.286 Z M 37.586 -13.989 L 41.055 -13.989 C 41.013 -14.521 40.883 -14.916 40.664 -15.177 C 40.32 -15.583 39.883 -15.786 39.352 -15.786 C 38.862 -15.786 38.453 -15.625 38.125 -15.302 C 37.797 -14.979 37.617 -14.541 37.586 -13.989 Z M 44.432 -10.286 L 43.447 -10.286 L 43.447 -18.88 L 44.51 -18.88 L 44.51 -15.817 C 44.958 -16.369 45.526 -16.646 46.213 -16.646 C 46.598 -16.646 46.96 -16.57 47.299 -16.419 C 47.638 -16.268 47.919 -16.052 48.143 -15.771 C 48.367 -15.489 48.541 -15.151 48.666 -14.755 C 48.791 -14.359 48.854 -13.937 48.854 -13.489 C 48.854 -12.427 48.588 -11.604 48.057 -11.021 C 47.526 -10.437 46.895 -10.146 46.166 -10.146 C 45.427 -10.146 44.848 -10.453 44.432 -11.067 L 44.432 -10.286 Z M 44.416 -13.442 C 44.416 -12.703 44.52 -12.166 44.729 -11.833 C 45.062 -11.291 45.51 -11.021 46.072 -11.021 C 46.531 -11.021 46.929 -11.218 47.268 -11.614 C 47.606 -12.01 47.776 -12.609 47.776 -13.411 C 47.776 -14.224 47.614 -14.823 47.291 -15.208 C 46.968 -15.593 46.578 -15.786 46.119 -15.786 C 45.661 -15.786 45.263 -15.586 44.924 -15.185 C 44.585 -14.784 44.416 -14.203 44.416 -13.442 Z M 54.199 -11.052 C 53.804 -10.718 53.426 -10.484 53.067 -10.349 C 52.707 -10.213 52.319 -10.146 51.903 -10.146 C 51.215 -10.146 50.689 -10.312 50.324 -10.646 C 49.96 -10.979 49.778 -11.406 49.778 -11.927 C 49.778 -12.229 49.845 -12.507 49.981 -12.763 C 50.116 -13.018 50.298 -13.221 50.528 -13.372 C 50.757 -13.523 51.012 -13.635 51.293 -13.708 C 51.491 -13.771 51.804 -13.828 52.231 -13.88 C 53.074 -13.974 53.699 -14.093 54.106 -14.239 C 54.106 -14.385 54.106 -14.474 54.106 -14.505 C 54.106 -14.942 54.007 -15.25 53.809 -15.427 C 53.538 -15.656 53.137 -15.771 52.606 -15.771 C 52.116 -15.771 51.751 -15.685 51.512 -15.513 C 51.272 -15.341 51.095 -15.036 50.981 -14.599 L 49.949 -14.739 C 50.043 -15.177 50.199 -15.531 50.418 -15.802 C 50.637 -16.073 50.949 -16.281 51.356 -16.427 C 51.762 -16.573 52.231 -16.646 52.762 -16.646 C 53.293 -16.646 53.725 -16.583 54.059 -16.458 C 54.392 -16.333 54.637 -16.177 54.793 -15.989 C 54.949 -15.802 55.059 -15.562 55.121 -15.271 C 55.153 -15.093 55.168 -14.771 55.168 -14.302 L 55.168 -12.896 C 55.168 -11.916 55.192 -11.297 55.238 -11.036 C 55.285 -10.776 55.376 -10.526 55.512 -10.286 L 54.403 -10.286 C 54.298 -10.505 54.231 -10.76 54.199 -11.052 Z M 54.106 -13.411 C 53.72 -13.255 53.147 -13.119 52.387 -13.005 C 51.949 -12.942 51.642 -12.872 51.465 -12.794 C 51.288 -12.716 51.15 -12.604 51.051 -12.458 C 50.952 -12.312 50.903 -12.146 50.903 -11.958 C 50.903 -11.677 51.009 -11.442 51.223 -11.255 C 51.436 -11.067 51.746 -10.974 52.153 -10.974 C 52.559 -10.974 52.921 -11.062 53.238 -11.239 C 53.556 -11.416 53.788 -11.661 53.934 -11.974 C 54.048 -12.213 54.106 -12.562 54.106 -13.021 L 54.106 -13.411 Z M 56.779 -10.286 L 56.779 -18.88 L 57.842 -18.88 L 57.842 -10.286 L 56.779 -10.286 Z M 59.445 -10.286 L 59.445 -18.88 L 60.508 -18.88 L 60.508 -10.286 L 59.445 -10.286 Z "/>
<path transform="matrix(1,0,0,1,0,215)" stroke-width="1" stroke-linecap="butt" stroke-miterlimit="1.45" stroke-linejoin="miter" fill="none" stroke="#000000" d="M 15 -30 L 68.346 -30 L 68.346 0 L 15 0 L 15 -30 Z "/>
<path transform="matrix(1,0,0,1,0,215)" d="M 262.38 -30 L 324.4 -30 L 324.4 0 L 262.38 0 L 262.38 -30 Z " fill="#ffffff"/>
<path transform="matrix(1,0,0,1,0,215)" d="M 272.49 -10.286 L 272.49 -17.864 L 269.66 -17.864 L 269.66 -18.88 L 276.47 -18.88 L 276.47 -17.864 L 273.63 -17.864 L 273.63 -10.286 L 272.49 -10.286 Z M 277.49 -10.286 L 277.49 -16.505 L 278.44 -16.505 L 278.44 -15.567 C 278.68 -16.005 278.9 -16.294 279.11 -16.435 C 279.31 -16.575 279.54 -16.646 279.79 -16.646 C 280.14 -16.646 280.5 -16.536 280.86 -16.317 L 280.5 -15.333 C 280.24 -15.489 279.99 -15.567 279.74 -15.567 C 279.5 -15.567 279.29 -15.497 279.11 -15.356 C 278.92 -15.216 278.8 -15.021 278.72 -14.771 C 278.6 -14.396 278.54 -13.989 278.54 -13.552 L 278.54 -10.286 L 277.49 -10.286 Z M 285.75 -12.286 L 286.84 -12.161 C 286.68 -11.526 286.36 -11.031 285.89 -10.677 C 285.42 -10.323 284.83 -10.146 284.11 -10.146 C 283.2 -10.146 282.48 -10.427 281.95 -10.989 C 281.41 -11.552 281.14 -12.338 281.14 -13.349 C 281.14 -14.39 281.41 -15.2 281.95 -15.778 C 282.5 -16.356 283.19 -16.646 284.05 -16.646 C 284.88 -16.646 285.56 -16.364 286.09 -15.802 C 286.61 -15.239 286.88 -14.442 286.88 -13.411 C 286.88 -13.349 286.88 -13.255 286.88 -13.13 L 282.24 -13.13 C 282.28 -12.442 282.47 -11.919 282.81 -11.56 C 283.16 -11.2 283.59 -11.021 284.11 -11.021 C 284.5 -11.021 284.83 -11.122 285.1 -11.325 C 285.38 -11.528 285.59 -11.849 285.75 -12.286 Z M 282.3 -13.989 L 285.77 -13.989 C 285.72 -14.521 285.59 -14.916 285.38 -15.177 C 285.03 -15.583 284.59 -15.786 284.06 -15.786 C 283.57 -15.786 283.16 -15.625 282.84 -15.302 C 282.51 -14.979 282.33 -14.541 282.3 -13.989 Z M 292.24 -11.052 C 291.84 -10.718 291.46 -10.484 291.1 -10.349 C 290.74 -10.213 290.36 -10.146 289.94 -10.146 C 289.25 -10.146 288.73 -10.312 288.36 -10.646 C 288 -10.979 287.82 -11.406 287.82 -11.927 C 287.82 -12.229 287.88 -12.507 288.02 -12.763 C 288.15 -13.018 288.34 -13.221 288.57 -13.372 C 288.79 -13.523 289.05 -13.635 289.33 -13.708 C 289.53 -13.771 289.84 -13.828 290.27 -13.88 C 291.11 -13.974 291.74 -14.093 292.14 -14.239 C 292.14 -14.385 292.14 -14.474 292.14 -14.505 C 292.14 -14.942 292.04 -15.25 291.85 -15.427 C 291.58 -15.656 291.17 -15.771 290.64 -15.771 C 290.15 -15.771 289.79 -15.685 289.55 -15.513 C 289.31 -15.341 289.13 -15.036 289.02 -14.599 L 287.99 -14.739 C 288.08 -15.177 288.24 -15.531 288.46 -15.802 C 288.67 -16.073 288.99 -16.281 289.39 -16.427 C 289.8 -16.573 290.27 -16.646 290.8 -16.646 C 291.33 -16.646 291.76 -16.583 292.1 -16.458 C 292.43 -16.333 292.67 -16.177 292.83 -15.989 C 292.99 -15.802 293.1 -15.562 293.16 -15.271 C 293.19 -15.093 293.21 -14.771 293.21 -14.302 L 293.21 -12.896 C 293.21 -11.916 293.23 -11.297 293.28 -11.036 C 293.32 -10.776 293.41 -10.526 293.55 -10.286 L 292.44 -10.286 C 292.34 -10.505 292.27 -10.76 292.24 -11.052 Z M 292.14 -13.411 C 291.76 -13.255 291.19 -13.119 290.42 -13.005 C 289.99 -12.942 289.68 -12.872 289.5 -12.794 C 289.33 -12.716 289.19 -12.604 289.09 -12.458 C 288.99 -12.312 288.94 -12.146 288.94 -11.958 C 288.94 -11.677 289.05 -11.442 289.26 -11.255 C 289.47 -11.067 289.78 -10.974 290.19 -10.974 C 290.6 -10.974 290.96 -11.062 291.28 -11.239 C 291.59 -11.416 291.83 -11.661 291.97 -11.974 C 292.09 -12.213 292.14 -12.562 292.14 -13.021 L 292.14 -13.411 Z M 294.43 -12.146 L 295.46 -12.302 C 295.52 -11.885 295.68 -11.567 295.95 -11.349 C 296.22 -11.13 296.59 -11.021 297.08 -11.021 C 297.56 -11.021 297.92 -11.117 298.15 -11.31 C 298.39 -11.502 298.5 -11.734 298.5 -12.005 C 298.5 -12.244 298.4 -12.432 298.19 -12.567 C 298.05 -12.661 297.69 -12.781 297.11 -12.927 C 296.34 -13.125 295.81 -13.294 295.51 -13.435 C 295.22 -13.575 294.99 -13.771 294.83 -14.021 C 294.68 -14.271 294.6 -14.552 294.6 -14.864 C 294.6 -15.135 294.66 -15.39 294.79 -15.63 C 294.91 -15.869 295.08 -16.067 295.3 -16.224 C 295.47 -16.338 295.69 -16.437 295.97 -16.521 C 296.25 -16.604 296.56 -16.646 296.9 -16.646 C 297.37 -16.646 297.8 -16.575 298.17 -16.435 C 298.54 -16.294 298.81 -16.104 298.99 -15.864 C 299.17 -15.625 299.29 -15.307 299.35 -14.911 L 298.32 -14.771 C 298.28 -15.083 298.14 -15.33 297.92 -15.513 C 297.69 -15.695 297.37 -15.786 296.96 -15.786 C 296.48 -15.786 296.13 -15.705 295.93 -15.544 C 295.72 -15.382 295.61 -15.192 295.61 -14.974 C 295.61 -14.838 295.66 -14.718 295.74 -14.614 C 295.83 -14.5 295.97 -14.406 296.15 -14.333 C 296.25 -14.291 296.56 -14.203 297.08 -14.067 C 297.83 -13.859 298.35 -13.692 298.65 -13.567 C 298.94 -13.442 299.17 -13.26 299.33 -13.021 C 299.5 -12.781 299.58 -12.479 299.58 -12.114 C 299.58 -11.76 299.48 -11.429 299.28 -11.122 C 299.07 -10.815 298.78 -10.575 298.4 -10.403 C 298.01 -10.231 297.57 -10.146 297.08 -10.146 C 296.27 -10.146 295.65 -10.315 295.23 -10.653 C 294.81 -10.992 294.54 -11.489 294.43 -12.146 Z M 304.93 -10.286 L 304.93 -11.208 C 304.44 -10.5 303.78 -10.146 302.94 -10.146 C 302.58 -10.146 302.24 -10.216 301.92 -10.356 C 301.6 -10.497 301.36 -10.674 301.21 -10.888 C 301.05 -11.101 300.94 -11.364 300.88 -11.677 C 300.84 -11.875 300.82 -12.203 300.82 -12.661 L 300.82 -16.505 L 301.88 -16.505 L 301.88 -13.052 C 301.88 -12.51 301.9 -12.14 301.94 -11.942 C 302 -11.672 302.14 -11.455 302.36 -11.294 C 302.57 -11.132 302.84 -11.052 303.16 -11.052 C 303.47 -11.052 303.77 -11.132 304.04 -11.294 C 304.32 -11.455 304.52 -11.677 304.64 -11.958 C 304.76 -12.239 304.82 -12.646 304.82 -13.177 L 304.82 -16.505 L 305.86 -16.505 L 305.86 -10.286 L 304.93 -10.286 Z M 307.51 -10.286 L 307.51 -16.505 L 308.46 -16.505 L 308.46 -15.567 C 308.7 -16.005 308.92 -16.294 309.12 -16.435 C 309.33 -16.575 309.55 -16.646 309.8 -16.646 C 310.16 -16.646 310.52 -16.536 310.88 -16.317 L 310.52 -15.333 C 310.26 -15.489 310.01 -15.567 309.76 -15.567 C 309.52 -15.567 309.31 -15.497 309.12 -15.356 C 308.94 -15.216 308.81 -15.021 308.74 -14.771 C 308.62 -14.396 308.55 -13.989 308.55 -13.552 L 308.55 -10.286 L 307.51 -10.286 Z M 315.77 -12.286 L 316.86 -12.161 C 316.7 -11.526 316.38 -11.031 315.91 -10.677 C 315.44 -10.323 314.85 -10.146 314.13 -10.146 C 313.22 -10.146 312.5 -10.427 311.96 -10.989 C 311.43 -11.552 311.16 -12.338 311.16 -13.349 C 311.16 -14.39 311.43 -15.2 311.97 -15.778 C 312.51 -16.356 313.21 -16.646 314.07 -16.646 C 314.9 -16.646 315.58 -16.364 316.1 -15.802 C 316.63 -15.239 316.89 -14.442 316.89 -13.411 C 316.89 -13.349 316.89 -13.255 316.89 -13.13 L 312.25 -13.13 C 312.29 -12.442 312.49 -11.919 312.83 -11.56 C 313.17 -11.2 313.61 -11.021 314.13 -11.021 C 314.51 -11.021 314.84 -11.122 315.12 -11.325 C 315.4 -11.528 315.61 -11.849 315.77 -12.286 Z M 312.32 -13.989 L 315.78 -13.989 C 315.74 -14.521 315.61 -14.916 315.39 -15.177 C 315.05 -15.583 314.61 -15.786 314.08 -15.786 C 313.59 -15.786 313.18 -15.625 312.85 -15.302 C 312.53 -14.979 312.35 -14.541 312.32 -13.989 Z "/>
<path transform="matrix(1,0,0,1,0,215)" stroke-width="1" stroke-linecap="butt" stroke-miterlimit="1.45" stroke-linejoin="miter" fill="none" stroke="#000000" d="M 262.38 -30 L 324.4 -30 L 324.4 0 L 262.38 0 L 262.38 -30 Z "/>
<path transform="matrix(1,0,0,1,0,215)" d="M 173.68 -30 L 232.38 -30 L 232.38 0 L 173.68 0 L 173.68 -30 Z " fill="#ffffff"/>
<path transform="matrix(1,0,0,1,0,215)" d="M 183.1 -10.286 L 180.82 -18.88 L 181.99 -18.88 L 183.31 -13.239 C 183.44 -12.656 183.56 -12.073 183.67 -11.489 C 183.89 -12.406 184.02 -12.937 184.06 -13.083 L 185.68 -18.88 L 187.06 -18.88 L 188.29 -14.536 C 188.59 -13.453 188.82 -12.437 188.96 -11.489 C 189.07 -12.031 189.21 -12.656 189.39 -13.364 L 190.73 -18.88 L 191.87 -18.88 L 189.53 -10.286 L 188.42 -10.286 L 186.62 -16.833 C 186.46 -17.375 186.37 -17.708 186.34 -17.833 C 186.26 -17.448 186.17 -17.114 186.09 -16.833 L 184.28 -10.286 L 183.1 -10.286 Z M 197.06 -12.286 L 198.15 -12.161 C 197.98 -11.526 197.66 -11.031 197.2 -10.677 C 196.73 -10.323 196.13 -10.146 195.41 -10.146 C 194.51 -10.146 193.79 -10.427 193.25 -10.989 C 192.71 -11.552 192.45 -12.338 192.45 -13.349 C 192.45 -14.39 192.72 -15.2 193.26 -15.778 C 193.8 -16.356 194.5 -16.646 195.35 -16.646 C 196.19 -16.646 196.87 -16.364 197.39 -15.802 C 197.92 -15.239 198.18 -14.442 198.18 -13.411 C 198.18 -13.349 198.18 -13.255 198.18 -13.13 L 193.54 -13.13 C 193.58 -12.442 193.77 -11.919 194.12 -11.56 C 194.46 -11.2 194.89 -11.021 195.41 -11.021 C 195.8 -11.021 196.13 -11.122 196.41 -11.325 C 196.68 -11.528 196.9 -11.849 197.06 -12.286 Z M 193.6 -13.989 L 197.07 -13.989 C 197.03 -14.521 196.9 -14.916 196.68 -15.177 C 196.34 -15.583 195.9 -15.786 195.37 -15.786 C 194.88 -15.786 194.47 -15.625 194.14 -15.302 C 193.81 -14.979 193.63 -14.541 193.6 -13.989 Z M 203.54 -11.052 C 203.15 -10.718 202.77 -10.484 202.41 -10.349 C 202.05 -10.213 201.66 -10.146 201.24 -10.146 C 200.56 -10.146 200.03 -10.312 199.67 -10.646 C 199.3 -10.979 199.12 -11.406 199.12 -11.927 C 199.12 -12.229 199.19 -12.507 199.32 -12.763 C 199.46 -13.018 199.64 -13.221 199.87 -13.372 C 200.1 -13.523 200.35 -13.635 200.64 -13.708 C 200.83 -13.771 201.15 -13.828 201.57 -13.88 C 202.42 -13.974 203.04 -14.093 203.45 -14.239 C 203.45 -14.385 203.45 -14.474 203.45 -14.505 C 203.45 -14.942 203.35 -15.25 203.15 -15.427 C 202.88 -15.656 202.48 -15.771 201.95 -15.771 C 201.46 -15.771 201.09 -15.685 200.85 -15.513 C 200.61 -15.341 200.44 -15.036 200.32 -14.599 L 199.29 -14.739 C 199.39 -15.177 199.54 -15.531 199.76 -15.802 C 199.98 -16.073 200.29 -16.281 200.7 -16.427 C 201.1 -16.573 201.57 -16.646 202.1 -16.646 C 202.64 -16.646 203.07 -16.583 203.4 -16.458 C 203.73 -16.333 203.98 -16.177 204.14 -15.989 C 204.29 -15.802 204.4 -15.562 204.46 -15.271 C 204.49 -15.093 204.51 -14.771 204.51 -14.302 L 204.51 -12.896 C 204.51 -11.916 204.53 -11.297 204.58 -11.036 C 204.63 -10.776 204.72 -10.526 204.85 -10.286 L 203.74 -10.286 C 203.64 -10.505 203.57 -10.76 203.54 -11.052 Z M 203.45 -13.411 C 203.06 -13.255 202.49 -13.119 201.73 -13.005 C 201.29 -12.942 200.98 -12.872 200.81 -12.794 C 200.63 -12.716 200.49 -12.604 200.39 -12.458 C 200.29 -12.312 200.24 -12.146 200.24 -11.958 C 200.24 -11.677 200.35 -11.442 200.56 -11.255 C 200.78 -11.067 201.09 -10.974 201.49 -10.974 C 201.9 -10.974 202.26 -11.062 202.58 -11.239 C 202.9 -11.416 203.13 -11.661 203.28 -11.974 C 203.39 -12.213 203.45 -12.562 203.45 -13.021 L 203.45 -13.411 Z M 206.15 -7.8955 L 206.15 -16.505 L 207.11 -16.505 L 207.11 -15.708 C 207.34 -16.021 207.59 -16.255 207.88 -16.411 C 208.17 -16.567 208.51 -16.646 208.92 -16.646 C 209.45 -16.646 209.92 -16.51 210.32 -16.239 C 210.73 -15.968 211.04 -15.583 211.24 -15.083 C 211.44 -14.583 211.54 -14.036 211.54 -13.442 C 211.54 -12.807 211.43 -12.234 211.21 -11.724 C 210.98 -11.213 210.65 -10.823 210.22 -10.552 C 209.78 -10.281 209.32 -10.146 208.84 -10.146 C 208.49 -10.146 208.17 -10.221 207.89 -10.372 C 207.61 -10.523 207.38 -10.708 207.2 -10.927 L 207.2 -7.8955 L 206.15 -7.8955 Z M 207.11 -13.364 C 207.11 -12.562 207.27 -11.971 207.59 -11.591 C 207.91 -11.211 208.3 -11.021 208.76 -11.021 C 209.23 -11.021 209.63 -11.218 209.97 -11.614 C 210.3 -12.01 210.47 -12.625 210.47 -13.458 C 210.47 -14.25 210.3 -14.841 209.98 -15.231 C 209.66 -15.622 209.27 -15.817 208.81 -15.817 C 208.36 -15.817 207.97 -15.609 207.62 -15.192 C 207.28 -14.776 207.11 -14.166 207.11 -13.364 Z M 212.44 -13.396 C 212.44 -14.552 212.75 -15.406 213.39 -15.958 C 213.92 -16.416 214.57 -16.646 215.34 -16.646 C 216.2 -16.646 216.9 -16.367 217.44 -15.81 C 217.99 -15.252 218.26 -14.479 218.26 -13.489 C 218.26 -12.687 218.14 -12.057 217.9 -11.599 C 217.67 -11.14 217.31 -10.784 216.85 -10.528 C 216.39 -10.273 215.88 -10.146 215.34 -10.146 C 214.48 -10.146 213.78 -10.424 213.24 -10.981 C 212.7 -11.539 212.44 -12.343 212.44 -13.396 Z M 213.51 -13.396 C 213.51 -12.604 213.69 -12.01 214.04 -11.614 C 214.39 -11.218 214.82 -11.021 215.34 -11.021 C 215.87 -11.021 216.31 -11.218 216.65 -11.614 C 217 -12.01 217.17 -12.614 217.17 -13.427 C 217.17 -14.198 217 -14.781 216.65 -15.177 C 216.3 -15.573 215.86 -15.771 215.34 -15.771 C 214.82 -15.771 214.39 -15.575 214.04 -15.185 C 213.69 -14.794 213.51 -14.198 213.51 -13.396 Z M 219.5 -10.286 L 219.5 -16.505 L 220.44 -16.505 L 220.44 -15.63 C 220.9 -16.307 221.56 -16.646 222.42 -16.646 C 222.8 -16.646 223.14 -16.578 223.46 -16.442 C 223.78 -16.307 224.02 -16.13 224.17 -15.911 C 224.33 -15.692 224.44 -15.437 224.5 -15.146 C 224.53 -14.948 224.55 -14.604 224.55 -14.114 L 224.55 -10.286 L 223.5 -10.286 L 223.5 -14.067 C 223.5 -14.505 223.46 -14.828 223.38 -15.036 C 223.29 -15.244 223.15 -15.414 222.94 -15.544 C 222.73 -15.674 222.48 -15.739 222.2 -15.739 C 221.76 -15.739 221.37 -15.596 221.04 -15.31 C 220.71 -15.023 220.55 -14.484 220.55 -13.692 L 220.55 -10.286 L 219.5 -10.286 Z "/>
<path transform="matrix(1,0,0,1,0,215)" stroke-width="1" stroke-linecap="butt" stroke-miterlimit="1.45" stroke-linejoin="miter" fill="none" stroke="#000000" d="M 173.68 -30 L 232.38 -30 L 232.38 0 L 173.68 0 L 173.68 -30 Z "/>
<path transform="matrix(1,0,0,1,0,215)" d="M 98.346 -30 L 143.68 -30 L 143.68 0 L 98.346 0 L 98.346 -30 Z " fill="#ffffff"/>
<path transform="matrix(1,0,0,1,0,215)" d="M 105.33 -10.286 L 108.63 -18.88 L 109.85 -18.88 L 113.36 -10.286 L 112.08 -10.286 L 111.06 -12.896 L 107.49 -12.896 L 106.53 -10.286 L 105.33 -10.286 Z M 107.81 -13.817 L 110.72 -13.817 L 109.83 -16.192 C 109.55 -16.911 109.35 -17.505 109.22 -17.974 C 109.11 -17.422 108.95 -16.875 108.75 -16.333 L 107.81 -13.817 Z M 114.13 -10.286 L 114.13 -16.505 L 115.08 -16.505 L 115.08 -15.567 C 115.32 -16.005 115.55 -16.294 115.75 -16.435 C 115.95 -16.575 116.18 -16.646 116.43 -16.646 C 116.78 -16.646 117.14 -16.536 117.51 -16.317 L 117.15 -15.333 C 116.89 -15.489 116.63 -15.567 116.38 -15.567 C 116.14 -15.567 115.93 -15.497 115.75 -15.356 C 115.57 -15.216 115.44 -15.021 115.37 -14.771 C 115.24 -14.396 115.18 -13.989 115.18 -13.552 L 115.18 -10.286 L 114.13 -10.286 Z M 118.13 -10.286 L 118.13 -16.505 L 119.08 -16.505 L 119.08 -15.567 C 119.32 -16.005 119.54 -16.294 119.74 -16.435 C 119.95 -16.575 120.17 -16.646 120.42 -16.646 C 120.78 -16.646 121.14 -16.536 121.5 -16.317 L 121.14 -15.333 C 120.88 -15.489 120.63 -15.567 120.38 -15.567 C 120.14 -15.567 119.93 -15.497 119.74 -15.356 C 119.56 -15.216 119.43 -15.021 119.36 -14.771 C 119.24 -14.396 119.17 -13.989 119.17 -13.552 L 119.17 -10.286 L 118.13 -10.286 Z M 121.75 -13.396 C 121.75 -14.552 122.07 -15.406 122.7 -15.958 C 123.23 -16.416 123.88 -16.646 124.65 -16.646 C 125.51 -16.646 126.21 -16.367 126.76 -15.81 C 127.3 -15.252 127.58 -14.479 127.58 -13.489 C 127.58 -12.687 127.46 -12.057 127.22 -11.599 C 126.98 -11.14 126.63 -10.784 126.16 -10.528 C 125.7 -10.273 125.2 -10.146 124.65 -10.146 C 123.79 -10.146 123.09 -10.424 122.55 -10.981 C 122.02 -11.539 121.75 -12.343 121.75 -13.396 Z M 122.83 -13.396 C 122.83 -12.604 123 -12.01 123.35 -11.614 C 123.7 -11.218 124.13 -11.021 124.65 -11.021 C 125.19 -11.021 125.62 -11.218 125.97 -11.614 C 126.31 -12.01 126.48 -12.614 126.48 -13.427 C 126.48 -14.198 126.31 -14.781 125.96 -15.177 C 125.61 -15.573 125.18 -15.771 124.65 -15.771 C 124.13 -15.771 123.7 -15.575 123.35 -15.185 C 123 -14.794 122.83 -14.198 122.83 -13.396 Z M 129.95 -10.286 L 128.05 -16.505 L 129.14 -16.505 L 130.13 -12.911 L 130.5 -11.583 C 130.52 -11.646 130.63 -12.073 130.83 -12.864 L 131.81 -16.505 L 132.89 -16.505 L 133.83 -12.896 L 134.14 -11.708 L 134.5 -12.911 L 135.56 -16.505 L 136.59 -16.505 L 134.64 -10.286 L 133.55 -10.286 L 132.56 -14.021 L 132.31 -15.067 L 131.06 -10.286 L 129.95 -10.286 Z "/>
<path transform="matrix(1,0,0,1,0,215)" stroke-width="1" stroke-linecap="butt" stroke-miterlimit="1.45" stroke-linejoin="miter" fill="none" stroke="#000000" d="M 98.346 -30 L 143.68 -30 L 143.68 0 L 98.346 0 L 98.346 -30 Z "/>
<path transform="matrix(1,0,0,1,0,215)" d="M 354.4 -30 L 402.42 -30 L 402.42 0 L 354.4 0 L 354.4 -30 Z " fill="#ffffff"/>
<path transform="matrix(1,0,0,1,0,215)" d="M 362.27 -10.286 L 362.27 -18.88 L 363.41 -18.88 L 363.41 -14.614 L 367.68 -18.88 L 369.22 -18.88 L 365.61 -15.396 L 369.38 -10.286 L 367.88 -10.286 L 364.82 -14.63 L 363.41 -13.271 L 363.41 -10.286 L 362.27 -10.286 Z M 370.2 -10.286 L 370.2 -16.505 L 371.13 -16.505 L 371.13 -15.63 C 371.59 -16.307 372.25 -16.646 373.12 -16.646 C 373.49 -16.646 373.84 -16.578 374.16 -16.442 C 374.48 -16.307 374.71 -16.13 374.87 -15.911 C 375.02 -15.692 375.13 -15.437 375.2 -15.146 C 375.23 -14.948 375.24 -14.604 375.24 -14.114 L 375.24 -10.286 L 374.2 -10.286 L 374.2 -14.067 C 374.2 -14.505 374.15 -14.828 374.07 -15.036 C 373.99 -15.244 373.84 -15.414 373.63 -15.544 C 373.43 -15.674 373.18 -15.739 372.9 -15.739 C 372.45 -15.739 372.06 -15.596 371.74 -15.31 C 371.41 -15.023 371.24 -14.484 371.24 -13.692 L 371.24 -10.286 L 370.2 -10.286 Z M 376.87 -17.661 L 376.87 -18.88 L 377.93 -18.88 L 377.93 -17.661 L 376.87 -17.661 Z M 376.87 -10.286 L 376.87 -16.505 L 377.93 -16.505 L 377.93 -10.286 L 376.87 -10.286 Z M 379.33 -9.7705 L 380.36 -9.6143 C 380.41 -9.3018 380.53 -9.0726 380.72 -8.9268 C 380.98 -8.7288 381.34 -8.6299 381.79 -8.6299 C 382.28 -8.6299 382.65 -8.7288 382.92 -8.9268 C 383.18 -9.1247 383.36 -9.3955 383.46 -9.7393 C 383.52 -9.958 383.55 -10.411 383.54 -11.099 C 383.08 -10.557 382.51 -10.286 381.82 -10.286 C 380.96 -10.286 380.3 -10.596 379.83 -11.216 C 379.36 -11.836 379.13 -12.573 379.13 -13.427 C 379.13 -14.021 379.24 -14.57 379.45 -15.075 C 379.66 -15.58 379.97 -15.968 380.38 -16.239 C 380.79 -16.51 381.27 -16.646 381.82 -16.646 C 382.56 -16.646 383.17 -16.349 383.65 -15.755 L 383.65 -16.505 L 384.61 -16.505 L 384.61 -11.13 C 384.61 -10.161 384.52 -9.4736 384.32 -9.0674 C 384.12 -8.6611 383.81 -8.3408 383.38 -8.1064 C 382.95 -7.8721 382.43 -7.7549 381.8 -7.7549 C 381.06 -7.7549 380.46 -7.9215 380.01 -8.2549 C 379.55 -8.5882 379.32 -9.0934 379.33 -9.7705 Z M 380.21 -13.505 C 380.21 -12.692 380.37 -12.099 380.69 -11.724 C 381.02 -11.349 381.42 -11.161 381.91 -11.161 C 382.4 -11.161 382.81 -11.349 383.14 -11.724 C 383.47 -12.099 383.63 -12.682 383.63 -13.474 C 383.63 -14.234 383.46 -14.807 383.12 -15.192 C 382.78 -15.578 382.37 -15.771 381.9 -15.771 C 381.43 -15.771 381.03 -15.58 380.7 -15.2 C 380.37 -14.82 380.21 -14.255 380.21 -13.505 Z M 386.21 -10.286 L 386.21 -18.88 L 387.26 -18.88 L 387.26 -15.802 C 387.75 -16.364 388.37 -16.646 389.12 -16.646 C 389.59 -16.646 389.99 -16.554 390.33 -16.372 C 390.67 -16.19 390.91 -15.94 391.05 -15.622 C 391.2 -15.304 391.27 -14.838 391.27 -14.224 L 391.27 -10.286 L 390.23 -10.286 L 390.23 -14.224 C 390.23 -14.755 390.11 -15.14 389.88 -15.38 C 389.65 -15.619 389.33 -15.739 388.91 -15.739 C 388.6 -15.739 388.31 -15.659 388.03 -15.497 C 387.75 -15.336 387.56 -15.117 387.44 -14.841 C 387.32 -14.565 387.26 -14.182 387.26 -13.692 L 387.26 -10.286 L 386.21 -10.286 Z M 395.18 -11.224 L 395.34 -10.302 C 395.03 -10.239 394.77 -10.208 394.54 -10.208 C 394.15 -10.208 393.86 -10.268 393.65 -10.388 C 393.44 -10.507 393.29 -10.666 393.2 -10.864 C 393.12 -11.062 393.07 -11.479 393.07 -12.114 L 393.07 -15.692 L 392.31 -15.692 L 392.31 -16.505 L 393.07 -16.505 L 393.07 -18.052 L 394.12 -18.677 L 394.12 -16.505 L 395.18 -16.505 L 395.18 -15.692 L 394.12 -15.692 L 394.12 -12.052 C 394.12 -11.75 394.14 -11.557 394.17 -11.474 C 394.21 -11.39 394.27 -11.323 394.35 -11.271 C 394.44 -11.218 394.56 -11.192 394.71 -11.192 C 394.84 -11.192 394.99 -11.203 395.18 -11.224 Z "/>
<path transform="matrix(1,0,0,1,0,215)" stroke-width="1" stroke-linecap="butt" stroke-miterlimit="1.45" stroke-linejoin="miter" fill="none" stroke="#000000" d="M 354.4 -30 L 402.42 -30 L 402.42 0 L 354.4 0 L 354.4 -30 Z "/>
<path transform="matrix(1,0,0,1,0,215)" d="M 432.42 -30 L 485.78 -30 L 485.78 0 L 432.42 0 L 432.42 -30 Z " fill="#ffffff"/>
<path transform="matrix(1,0,0,1,0,215)" d="M 440.34 -10.286 L 440.34 -18.88 L 443.31 -18.88 C 443.98 -18.88 444.49 -18.838 444.84 -18.755 C 445.33 -18.64 445.75 -18.437 446.09 -18.146 C 446.55 -17.76 446.89 -17.268 447.12 -16.669 C 447.34 -16.07 447.45 -15.39 447.45 -14.63 C 447.45 -13.974 447.38 -13.396 447.23 -12.896 C 447.07 -12.396 446.88 -11.979 446.64 -11.646 C 446.4 -11.312 446.14 -11.052 445.85 -10.864 C 445.56 -10.677 445.22 -10.534 444.83 -10.435 C 444.43 -10.336 443.97 -10.286 443.45 -10.286 L 440.34 -10.286 Z M 441.48 -11.302 L 443.31 -11.302 C 443.88 -11.302 444.33 -11.354 444.66 -11.458 C 444.98 -11.562 445.23 -11.713 445.42 -11.911 C 445.69 -12.172 445.9 -12.531 446.05 -12.989 C 446.21 -13.448 446.28 -14 446.28 -14.646 C 446.28 -15.541 446.13 -16.231 445.84 -16.716 C 445.54 -17.2 445.18 -17.526 444.77 -17.692 C 444.45 -17.807 443.96 -17.864 443.3 -17.864 L 441.48 -17.864 L 441.48 -11.302 Z M 448.87 -10.286 L 448.87 -16.505 L 449.82 -16.505 L 449.82 -15.567 C 450.06 -16.005 450.28 -16.294 450.49 -16.435 C 450.69 -16.575 450.92 -16.646 451.17 -16.646 C 451.52 -16.646 451.88 -16.536 452.24 -16.317 L 451.88 -15.333 C 451.62 -15.489 451.37 -15.567 451.12 -15.567 C 450.88 -15.567 450.67 -15.497 450.49 -15.356 C 450.3 -15.216 450.18 -15.021 450.1 -14.771 C 449.98 -14.396 449.92 -13.989 449.92 -13.552 L 449.92 -10.286 L 448.87 -10.286 Z M 456.94 -11.052 C 456.55 -10.718 456.17 -10.484 455.81 -10.349 C 455.45 -10.213 455.06 -10.146 454.65 -10.146 C 453.96 -10.146 453.43 -10.312 453.07 -10.646 C 452.7 -10.979 452.52 -11.406 452.52 -11.927 C 452.52 -12.229 452.59 -12.507 452.72 -12.763 C 452.86 -13.018 453.04 -13.221 453.27 -13.372 C 453.5 -13.523 453.76 -13.635 454.04 -13.708 C 454.23 -13.771 454.55 -13.828 454.97 -13.88 C 455.82 -13.974 456.44 -14.093 456.85 -14.239 C 456.85 -14.385 456.85 -14.474 456.85 -14.505 C 456.85 -14.942 456.75 -15.25 456.55 -15.427 C 456.28 -15.656 455.88 -15.771 455.35 -15.771 C 454.86 -15.771 454.49 -15.685 454.26 -15.513 C 454.02 -15.341 453.84 -15.036 453.72 -14.599 L 452.69 -14.739 C 452.79 -15.177 452.94 -15.531 453.16 -15.802 C 453.38 -16.073 453.69 -16.281 454.1 -16.427 C 454.51 -16.573 454.97 -16.646 455.51 -16.646 C 456.04 -16.646 456.47 -16.583 456.8 -16.458 C 457.14 -16.333 457.38 -16.177 457.54 -15.989 C 457.69 -15.802 457.8 -15.562 457.86 -15.271 C 457.9 -15.093 457.91 -14.771 457.91 -14.302 L 457.91 -12.896 C 457.91 -11.916 457.93 -11.297 457.98 -11.036 C 458.03 -10.776 458.12 -10.526 458.26 -10.286 L 457.15 -10.286 C 457.04 -10.505 456.97 -10.76 456.94 -11.052 Z M 456.85 -13.411 C 456.46 -13.255 455.89 -13.119 455.13 -13.005 C 454.69 -12.942 454.39 -12.872 454.21 -12.794 C 454.03 -12.716 453.89 -12.604 453.79 -12.458 C 453.7 -12.312 453.65 -12.146 453.65 -11.958 C 453.65 -11.677 453.75 -11.442 453.97 -11.255 C 454.18 -11.067 454.49 -10.974 454.9 -10.974 C 455.3 -10.974 455.66 -11.062 455.98 -11.239 C 456.3 -11.416 456.53 -11.661 456.68 -11.974 C 456.79 -12.213 456.85 -12.562 456.85 -13.021 L 456.85 -13.411 Z M 459.35 -9.7705 L 460.38 -9.6143 C 460.42 -9.3018 460.54 -9.0726 460.74 -8.9268 C 461 -8.7288 461.36 -8.6299 461.8 -8.6299 C 462.29 -8.6299 462.67 -8.7288 462.94 -8.9268 C 463.2 -9.1247 463.38 -9.3955 463.48 -9.7393 C 463.54 -9.958 463.56 -10.411 463.55 -11.099 C 463.1 -10.557 462.52 -10.286 461.84 -10.286 C 460.98 -10.286 460.32 -10.596 459.85 -11.216 C 459.38 -11.836 459.15 -12.573 459.15 -13.427 C 459.15 -14.021 459.25 -14.57 459.47 -15.075 C 459.68 -15.58 459.99 -15.968 460.4 -16.239 C 460.8 -16.51 461.28 -16.646 461.84 -16.646 C 462.57 -16.646 463.18 -16.349 463.66 -15.755 L 463.66 -16.505 L 464.63 -16.505 L 464.63 -11.13 C 464.63 -10.161 464.53 -9.4736 464.34 -9.0674 C 464.14 -8.6611 463.82 -8.3408 463.4 -8.1064 C 462.97 -7.8721 462.44 -7.7549 461.82 -7.7549 C 461.08 -7.7549 460.48 -7.9215 460.02 -8.2549 C 459.56 -8.5882 459.34 -9.0934 459.35 -9.7705 Z M 460.23 -13.505 C 460.23 -12.692 460.39 -12.099 460.71 -11.724 C 461.03 -11.349 461.44 -11.161 461.93 -11.161 C 462.42 -11.161 462.83 -11.349 463.16 -11.724 C 463.48 -12.099 463.65 -12.682 463.65 -13.474 C 463.65 -14.234 463.48 -14.807 463.14 -15.192 C 462.8 -15.578 462.39 -15.771 461.91 -15.771 C 461.44 -15.771 461.05 -15.58 460.72 -15.2 C 460.39 -14.82 460.23 -14.255 460.23 -13.505 Z M 465.84 -13.396 C 465.84 -14.552 466.16 -15.406 466.79 -15.958 C 467.32 -16.416 467.97 -16.646 468.74 -16.646 C 469.6 -16.646 470.3 -16.367 470.85 -15.81 C 471.39 -15.252 471.67 -14.479 471.67 -13.489 C 471.67 -12.687 471.55 -12.057 471.31 -11.599 C 471.07 -11.14 470.71 -10.784 470.25 -10.528 C 469.79 -10.273 469.29 -10.146 468.74 -10.146 C 467.88 -10.146 467.18 -10.424 466.64 -10.981 C 466.11 -11.539 465.84 -12.343 465.84 -13.396 Z M 466.92 -13.396 C 466.92 -12.604 467.09 -12.01 467.44 -11.614 C 467.79 -11.218 468.22 -11.021 468.74 -11.021 C 469.27 -11.021 469.71 -11.218 470.06 -11.614 C 470.4 -12.01 470.57 -12.614 470.57 -13.427 C 470.57 -14.198 470.4 -14.781 470.05 -15.177 C 469.7 -15.573 469.26 -15.771 468.74 -15.771 C 468.22 -15.771 467.79 -15.575 467.44 -15.185 C 467.09 -14.794 466.92 -14.198 466.92 -13.396 Z M 472.9 -10.286 L 472.9 -16.505 L 473.84 -16.505 L 473.84 -15.63 C 474.3 -16.307 474.96 -16.646 475.82 -16.646 C 476.2 -16.646 476.54 -16.578 476.86 -16.442 C 477.18 -16.307 477.42 -16.13 477.57 -15.911 C 477.73 -15.692 477.84 -15.437 477.9 -15.146 C 477.93 -14.948 477.95 -14.604 477.95 -14.114 L 477.95 -10.286 L 476.9 -10.286 L 476.9 -14.067 C 476.9 -14.505 476.86 -14.828 476.78 -15.036 C 476.69 -15.244 476.55 -15.414 476.34 -15.544 C 476.13 -15.674 475.89 -15.739 475.6 -15.739 C 475.16 -15.739 474.77 -15.596 474.44 -15.31 C 474.11 -15.023 473.95 -14.484 473.95 -13.692 L 473.95 -10.286 L 472.9 -10.286 Z "/>
<path transform="matrix(1,0,0,1,0,215)" stroke-width="1" stroke-linecap="butt" stroke-miterlimit="1.45" stroke-linejoin="miter" fill="none" stroke="#000000" d="M 432.42 -30 L 485.78 -30 L 485.78 0 L 432.42 0 L 432.42 -30 Z "/>
<path transform="matrix(1,0,0,1,0,215)" d="M 217.03 -150 L 281.72 -150 L 281.72 -120 L 217.03 -120 L 217.03 -150 Z " fill="#ffffff"/>
<path transform="matrix(1,0,0,1,0,215)" d="M 224.95 -130.29 L 224.95 -138.88 L 227.92 -138.88 C 228.59 -138.88 229.1 -138.84 229.45 -138.75 C 229.94 -138.64 230.36 -138.44 230.7 -138.15 C 231.16 -137.76 231.5 -137.27 231.73 -136.67 C 231.95 -136.07 232.06 -135.39 232.06 -134.63 C 232.06 -133.97 231.99 -133.4 231.84 -132.9 C 231.68 -132.4 231.49 -131.98 231.25 -131.65 C 231.01 -131.31 230.75 -131.05 230.46 -130.86 C 230.17 -130.68 229.83 -130.53 229.44 -130.43 C 229.04 -130.34 228.58 -130.29 228.06 -130.29 L 224.95 -130.29 Z M 226.09 -131.3 L 227.92 -131.3 C 228.49 -131.3 228.94 -131.35 229.27 -131.46 C 229.59 -131.56 229.84 -131.71 230.03 -131.91 C 230.3 -132.17 230.51 -132.53 230.66 -132.99 C 230.81 -133.45 230.89 -134 230.89 -134.65 C 230.89 -135.54 230.74 -136.23 230.45 -136.72 C 230.15 -137.2 229.79 -137.53 229.37 -137.69 C 229.06 -137.81 228.57 -137.86 227.91 -137.86 L 226.09 -137.86 L 226.09 -131.3 Z M 233.48 -130.29 L 233.48 -136.5 L 234.43 -136.5 L 234.43 -135.57 C 234.67 -136 234.89 -136.29 235.1 -136.43 C 235.3 -136.58 235.53 -136.65 235.78 -136.65 C 236.13 -136.65 236.49 -136.54 236.85 -136.32 L 236.49 -135.33 C 236.23 -135.49 235.98 -135.57 235.73 -135.57 C 235.49 -135.57 235.28 -135.5 235.1 -135.36 C 234.91 -135.22 234.79 -135.02 234.71 -134.77 C 234.59 -134.4 234.53 -133.99 234.53 -133.55 L 234.53 -130.29 L 233.48 -130.29 Z M 241.55 -131.05 C 241.16 -130.72 240.78 -130.48 240.42 -130.35 C 240.06 -130.21 239.67 -130.15 239.26 -130.15 C 238.57 -130.15 238.04 -130.31 237.68 -130.65 C 237.31 -130.98 237.13 -131.41 237.13 -131.93 C 237.13 -132.23 237.2 -132.51 237.33 -132.76 C 237.47 -133.02 237.65 -133.22 237.88 -133.37 C 238.11 -133.52 238.37 -133.64 238.65 -133.71 C 238.84 -133.77 239.16 -133.83 239.58 -133.88 C 240.43 -133.97 241.05 -134.09 241.46 -134.24 C 241.46 -134.39 241.46 -134.47 241.46 -134.5 C 241.46 -134.94 241.36 -135.25 241.16 -135.43 C 240.89 -135.66 240.49 -135.77 239.96 -135.77 C 239.47 -135.77 239.1 -135.68 238.87 -135.51 C 238.63 -135.34 238.45 -135.04 238.33 -134.6 L 237.3 -134.74 C 237.4 -135.18 237.55 -135.53 237.77 -135.8 C 237.99 -136.07 238.3 -136.28 238.71 -136.43 C 239.12 -136.57 239.58 -136.65 240.12 -136.65 C 240.65 -136.65 241.08 -136.58 241.41 -136.46 C 241.75 -136.33 241.99 -136.18 242.15 -135.99 C 242.3 -135.8 242.41 -135.56 242.47 -135.27 C 242.51 -135.09 242.52 -134.77 242.52 -134.3 L 242.52 -132.9 C 242.52 -131.92 242.54 -131.3 242.59 -131.04 C 242.64 -130.78 242.73 -130.53 242.87 -130.29 L 241.76 -130.29 C 241.65 -130.5 241.58 -130.76 241.55 -131.05 Z M 241.46 -133.41 C 241.07 -133.25 240.5 -133.12 239.74 -133 C 239.3 -132.94 239 -132.87 238.82 -132.79 C 238.64 -132.72 238.5 -132.6 238.4 -132.46 C 238.31 -132.31 238.26 -132.15 238.26 -131.96 C 238.26 -131.68 238.36 -131.44 238.58 -131.25 C 238.79 -131.07 239.1 -130.97 239.51 -130.97 C 239.91 -130.97 240.27 -131.06 240.59 -131.24 C 240.91 -131.42 241.14 -131.66 241.29 -131.97 C 241.4 -132.21 241.46 -132.56 241.46 -133.02 L 241.46 -133.41 Z M 245.3 -130.29 L 243.4 -136.5 L 244.49 -136.5 L 245.48 -132.91 L 245.85 -131.58 C 245.87 -131.65 245.98 -132.07 246.18 -132.86 L 247.16 -136.5 L 248.24 -136.5 L 249.18 -132.9 L 249.49 -131.71 L 249.85 -132.91 L 250.91 -136.5 L 251.95 -136.5 L 249.99 -130.29 L 248.9 -130.29 L 247.91 -134.02 L 247.66 -135.07 L 246.41 -130.29 L 245.3 -130.29 Z M 256.89 -131.05 C 256.5 -130.72 256.12 -130.48 255.76 -130.35 C 255.4 -130.21 255.01 -130.15 254.6 -130.15 C 253.91 -130.15 253.38 -130.31 253.02 -130.65 C 252.65 -130.98 252.47 -131.41 252.47 -131.93 C 252.47 -132.23 252.54 -132.51 252.67 -132.76 C 252.81 -133.02 252.99 -133.22 253.22 -133.37 C 253.45 -133.52 253.7 -133.64 253.99 -133.71 C 254.18 -133.77 254.5 -133.83 254.92 -133.88 C 255.77 -133.97 256.39 -134.09 256.8 -134.24 C 256.8 -134.39 256.8 -134.47 256.8 -134.5 C 256.8 -134.94 256.7 -135.25 256.5 -135.43 C 256.23 -135.66 255.83 -135.77 255.3 -135.77 C 254.81 -135.77 254.44 -135.68 254.2 -135.51 C 253.97 -135.34 253.79 -135.04 253.67 -134.6 L 252.64 -134.74 C 252.74 -135.18 252.89 -135.53 253.11 -135.8 C 253.33 -136.07 253.64 -136.28 254.05 -136.43 C 254.45 -136.57 254.92 -136.65 255.45 -136.65 C 255.99 -136.65 256.42 -136.58 256.75 -136.46 C 257.09 -136.33 257.33 -136.18 257.49 -135.99 C 257.64 -135.8 257.75 -135.56 257.81 -135.27 C 257.85 -135.09 257.86 -134.77 257.86 -134.3 L 257.86 -132.9 C 257.86 -131.92 257.88 -131.3 257.93 -131.04 C 257.98 -130.78 258.07 -130.53 258.2 -130.29 L 257.1 -130.29 C 256.99 -130.5 256.92 -130.76 256.89 -131.05 Z M 256.8 -133.41 C 256.41 -133.25 255.84 -133.12 255.08 -133 C 254.64 -132.94 254.34 -132.87 254.16 -132.79 C 253.98 -132.72 253.84 -132.6 253.74 -132.46 C 253.64 -132.31 253.6 -132.15 253.6 -131.96 C 253.6 -131.68 253.7 -131.44 253.92 -131.25 C 254.13 -131.07 254.44 -130.97 254.85 -130.97 C 255.25 -130.97 255.61 -131.06 255.93 -131.24 C 256.25 -131.42 256.48 -131.66 256.63 -131.97 C 256.74 -132.21 256.8 -132.56 256.8 -133.02 L 256.8 -133.41 Z M 260.47 -130.29 L 259.49 -130.29 L 259.49 -138.88 L 260.55 -138.88 L 260.55 -135.82 C 261 -136.37 261.57 -136.65 262.25 -136.65 C 262.64 -136.65 263 -136.57 263.34 -136.42 C 263.68 -136.27 263.96 -136.05 264.18 -135.77 C 264.41 -135.49 264.58 -135.15 264.71 -134.75 C 264.83 -134.36 264.89 -133.94 264.89 -133.49 C 264.89 -132.43 264.63 -131.6 264.1 -131.02 C 263.57 -130.44 262.94 -130.15 262.21 -130.15 C 261.47 -130.15 260.89 -130.45 260.47 -131.07 L 260.47 -130.29 Z M 260.46 -133.44 C 260.46 -132.7 260.56 -132.17 260.77 -131.83 C 261.1 -131.29 261.55 -131.02 262.11 -131.02 C 262.57 -131.02 262.97 -131.22 263.31 -131.61 C 263.65 -132.01 263.82 -132.61 263.82 -133.41 C 263.82 -134.22 263.65 -134.82 263.33 -135.21 C 263.01 -135.59 262.62 -135.79 262.16 -135.79 C 261.7 -135.79 261.3 -135.59 260.96 -135.18 C 260.63 -134.78 260.46 -134.2 260.46 -133.44 Z M 266.15 -130.29 L 266.15 -138.88 L 267.21 -138.88 L 267.21 -130.29 L 266.15 -130.29 Z M 273.09 -132.29 L 274.19 -132.16 C 274.02 -131.53 273.7 -131.03 273.23 -130.68 C 272.77 -130.32 272.17 -130.15 271.45 -130.15 C 270.55 -130.15 269.83 -130.43 269.29 -130.99 C 268.75 -131.55 268.48 -132.34 268.48 -133.35 C 268.48 -134.39 268.76 -135.2 269.3 -135.78 C 269.84 -136.36 270.54 -136.65 271.39 -136.65 C 272.22 -136.65 272.9 -136.36 273.43 -135.8 C 273.96 -135.24 274.22 -134.44 274.22 -133.41 C 274.22 -133.35 274.22 -133.25 274.22 -133.13 L 269.58 -133.13 C 269.62 -132.44 269.81 -131.92 270.16 -131.56 C 270.5 -131.2 270.93 -131.02 271.45 -131.02 C 271.84 -131.02 272.17 -131.12 272.45 -131.33 C 272.72 -131.53 272.94 -131.85 273.09 -132.29 Z M 269.64 -133.99 L 273.11 -133.99 C 273.07 -134.52 272.94 -134.92 272.72 -135.18 C 272.37 -135.58 271.94 -135.79 271.41 -135.79 C 270.92 -135.79 270.51 -135.62 270.18 -135.3 C 269.85 -134.98 269.67 -134.54 269.64 -133.99 Z "/>
<path transform="matrix(1,0,0,1,0,215)" stroke-width="1" stroke-linecap="butt" stroke-miterlimit="1.45" stroke-linejoin="miter" fill="none" stroke="#000000" d="M 217.03 -150 L 281.72 -150 L 281.72 -120 L 217.03 -120 L 217.03 -150 Z "/>
<path transform="matrix(1,0,0,1,0,215)" stroke-width="1" stroke-linecap="butt" stroke-miterlimit="1.45" stroke-linejoin="miter" fill="none" stroke="#000000" d="M 41.673 -30.029 L 41.673 -45 L 121.01 -45 L 121.01 -60 "/>
<path transform="matrix(1,0,0,1,0,215)" stroke-width="1" stroke-linecap="butt" stroke-miterlimit="1.45" stroke-linejoin="miter" fill="none" stroke="#000000" d="M 293.39 -30.029 L 293.39 -45 L 249.38 -45 L 249.38 -60 "/>
<path transform="matrix(1,0,0,1,0,215)" stroke-width="1" stroke-linecap="butt" stroke-miterlimit="1.45" stroke-linejoin="miter" fill="none" stroke="#000000" d="M 203.03 -30.029 L 203.03 -45 L 249.38 -45 L 249.38 -60 "/>
<path transform="matrix(1,0,0,1,0,215)" stroke-width="1" stroke-linecap="butt" stroke-miterlimit="1.45" stroke-linejoin="miter" fill="none" stroke="#000000" d="M 121.01 -30.029 L 121.01 -60 "/>
<path transform="matrix(1,0,0,1,0,215)" stroke-width="1" stroke-linecap="butt" stroke-miterlimit="1.45" stroke-linejoin="miter" fill="none" stroke="#000000" d="M 378.41 -30.029 L 378.41 -60 "/>
<path transform="matrix(1,0,0,1,0,215)" stroke-width="1" stroke-linecap="butt" stroke-miterlimit="1.45" stroke-linejoin="miter" fill="none" stroke="#000000" d="M 459.1 -30.029 L 459.1 -45 L 378.41 -45 L 378.41 -60 "/>
<path transform="matrix(1,0,0,1,0,215)" stroke-width="1" stroke-linecap="butt" stroke-miterlimit="1.45" stroke-linejoin="miter" fill="none" stroke="#000000" d="M 249.38 -90.029 L 249.38 -120 "/>
<path transform="matrix(1,0,0,1,0,215)" stroke-width="1" stroke-linecap="butt" stroke-miterlimit="1.45" stroke-linejoin="miter" fill="none" stroke="#000000" d="M 378.41 -90.029 L 378.41 -105 L 249.38 -105 L 249.38 -120 "/>
<path transform="matrix(1,0,0,1,0,215)" stroke-width="1" stroke-linecap="butt" stroke-miterlimit="1.45" stroke-linejoin="miter" fill="none" stroke="#000000" d="M 121.01 -90.029 L 121.01 -105 L 249.38 -105 L 249.38 -120 "/>
<path transform="matrix(1,0,0,1,0,215)" d="M 225.36 -200 L 273.39 -200 L 273.39 -170 L 225.36 -170 L 225.36 -200 Z " fill="#ffffff"/>
<path transform="matrix(1,0,0,1,0,215)" d="M 235.32 -180.29 L 235.32 -188.88 L 241.53 -188.88 L 241.53 -187.86 L 236.46 -187.86 L 236.46 -185.24 L 241.21 -185.24 L 241.21 -184.22 L 236.46 -184.22 L 236.46 -181.3 L 241.73 -181.3 L 241.73 -180.29 L 235.32 -180.29 Z M 243.17 -180.29 L 243.17 -186.5 L 244.11 -186.5 L 244.11 -185.63 C 244.57 -186.31 245.23 -186.65 246.09 -186.65 C 246.47 -186.65 246.81 -186.58 247.13 -186.44 C 247.45 -186.31 247.69 -186.13 247.84 -185.91 C 248 -185.69 248.11 -185.44 248.17 -185.15 C 248.2 -184.95 248.22 -184.6 248.22 -184.11 L 248.22 -180.29 L 247.17 -180.29 L 247.17 -184.07 C 247.17 -184.5 247.13 -184.83 247.05 -185.04 C 246.96 -185.24 246.82 -185.41 246.61 -185.54 C 246.4 -185.67 246.16 -185.74 245.87 -185.74 C 245.43 -185.74 245.04 -185.6 244.71 -185.31 C 244.38 -185.02 244.22 -184.48 244.22 -183.69 L 244.22 -180.29 L 243.17 -180.29 Z M 252.14 -181.22 L 252.3 -180.3 C 252 -180.24 251.73 -180.21 251.5 -180.21 C 251.12 -180.21 250.82 -180.27 250.61 -180.39 C 250.4 -180.51 250.25 -180.67 250.16 -180.86 C 250.08 -181.06 250.03 -181.48 250.03 -182.11 L 250.03 -185.69 L 249.27 -185.69 L 249.27 -186.5 L 250.03 -186.5 L 250.03 -188.05 L 251.08 -188.68 L 251.08 -186.5 L 252.14 -186.5 L 252.14 -185.69 L 251.08 -185.69 L 251.08 -182.05 C 251.08 -181.75 251.1 -181.56 251.13 -181.47 C 251.17 -181.39 251.23 -181.32 251.31 -181.27 C 251.4 -181.22 251.52 -181.19 251.67 -181.19 C 251.8 -181.19 251.95 -181.2 252.14 -181.22 Z M 253.18 -187.66 L 253.18 -188.88 L 254.24 -188.88 L 254.24 -187.66 L 253.18 -187.66 Z M 253.18 -180.29 L 253.18 -186.5 L 254.24 -186.5 L 254.24 -180.29 L 253.18 -180.29 Z M 258.14 -181.22 L 258.3 -180.3 C 258 -180.24 257.73 -180.21 257.5 -180.21 C 257.12 -180.21 256.82 -180.27 256.61 -180.39 C 256.4 -180.51 256.25 -180.67 256.16 -180.86 C 256.08 -181.06 256.03 -181.48 256.03 -182.11 L 256.03 -185.69 L 255.27 -185.69 L 255.27 -186.5 L 256.03 -186.5 L 256.03 -188.05 L 257.08 -188.68 L 257.08 -186.5 L 258.14 -186.5 L 258.14 -185.69 L 257.08 -185.69 L 257.08 -182.05 C 257.08 -181.75 257.1 -181.56 257.13 -181.47 C 257.17 -181.39 257.23 -181.32 257.31 -181.27 C 257.4 -181.22 257.52 -181.19 257.67 -181.19 C 257.8 -181.19 257.95 -181.2 258.14 -181.22 Z M 259.13 -177.9 L 259.01 -178.88 C 259.24 -178.82 259.44 -178.79 259.62 -178.79 C 259.85 -178.79 260.03 -178.83 260.17 -178.9 C 260.31 -178.98 260.43 -179.09 260.52 -179.22 C 260.58 -179.34 260.69 -179.6 260.85 -180.02 C 260.86 -180.07 260.89 -180.16 260.94 -180.27 L 258.57 -186.5 L 259.71 -186.5 L 261.01 -182.91 C 261.17 -182.45 261.32 -181.97 261.46 -181.46 C 261.58 -181.95 261.73 -182.42 261.9 -182.88 L 263.23 -186.5 L 264.27 -186.5 L 261.91 -180.18 C 261.65 -179.5 261.45 -179.03 261.32 -178.77 C 261.13 -178.42 260.92 -178.16 260.67 -178 C 260.43 -177.84 260.14 -177.75 259.8 -177.75 C 259.61 -177.75 259.38 -177.8 259.13 -177.9 Z "/>
<path transform="matrix(1,0,0,1,0,215)" stroke-width="1" stroke-linecap="butt" stroke-miterlimit="1.45" stroke-linejoin="miter" fill="none" stroke="#000000" d="M 225.36 -200 L 273.39 -200 L 273.39 -170 L 225.36 -170 L 225.36 -200 Z "/>
<path transform="matrix(1,0,0,1,0,215)" stroke-width="1" stroke-linecap="butt" stroke-miterlimit="1.45" stroke-linejoin="miter" fill="none" stroke="#000000" d="M 249.38 -150.04 L 249.38 -170 "/>
</g>
</g>
<clipPath id="cp3">
<path d="M 0 0 L 0 230 L 501 230 L 501 0 Z "/>
</clipPath>
<g clip-path="url(#cp3)">
</g>
</g>
</g>
</svg>
