<?xml version="1.0" encoding="UTF-8" standalone="no"?>
<!DOCTYPE svg PUBLIC "-//W3C//DTD SVG 1.1//EN" "http://www.w3.org/Graphics/SVG/1.1/DTD/svg11.dtd">
<svg xmlns="http://www.w3.org/2000/svg" xmlns:xlink="http://www.w3.org/1999/xlink" version="1.1" width="274pt" height="240pt" viewBox="0 0 274 240">
<g enable-background="new">
<clipPath id="cp0">
<path d="M 0 0 L 274 0 L 274 240 L 0 240 Z "/>
</clipPath>
<g clip-path="url(#cp0)">
<clipPath id="cp1">
<path d="M 0 0 L 0 240 L 274 240 L 274 0 Z "/>
</clipPath>
<g clip-path="url(#cp1)">
<clipPath id="cp2">
<path d="M 0 0 L 274 0 L 274 240 L 0 240 Z "/>
</clipPath>
<g clip-path="url(#cp2)">
<path transform="matrix(1,0,0,1,-8,225)" d="M 8 -225 L 282 -225 L 282 15 L 8 15 L 8 -225 Z " fill="#ffffff"/>
<path transform="matrix(1,0,0,1,-8,225)" d="M 163.89 -150 L 266.6 -150 L 266.6 -120 L 163.89 -120 L 163.89 -150 Z " fill="#ffffff"/>
<path transform="matrix(1,0,0,1,-8,225)" d="M 183.11 -133.05 L 184.17 -133.15 C 184.23 -132.71 184.35 -132.35 184.53 -132.08 C 184.72 -131.81 185.01 -131.59 185.4 -131.42 C 185.79 -131.25 186.23 -131.16 186.72 -131.16 C 187.15 -131.16 187.53 -131.23 187.86 -131.36 C 188.2 -131.49 188.44 -131.66 188.6 -131.89 C 188.77 -132.11 188.85 -132.35 188.85 -132.61 C 188.85 -132.89 188.77 -133.12 188.61 -133.33 C 188.46 -133.53 188.2 -133.7 187.85 -133.83 C 187.61 -133.93 187.09 -134.07 186.31 -134.25 C 185.52 -134.44 184.97 -134.62 184.66 -134.79 C 184.24 -135 183.94 -135.27 183.74 -135.59 C 183.54 -135.91 183.44 -136.27 183.44 -136.66 C 183.44 -137.09 183.56 -137.49 183.81 -137.87 C 184.05 -138.25 184.41 -138.54 184.89 -138.73 C 185.36 -138.92 185.88 -139.02 186.46 -139.02 C 187.09 -139.02 187.65 -138.92 188.14 -138.72 C 188.63 -138.51 189.01 -138.21 189.27 -137.81 C 189.53 -137.41 189.67 -136.96 189.69 -136.46 L 188.6 -136.38 C 188.53 -136.92 188.33 -137.33 188 -137.61 C 187.66 -137.88 187.16 -138.02 186.5 -138.02 C 185.82 -138.02 185.32 -137.9 185 -137.65 C 184.69 -137.4 184.53 -137.09 184.53 -136.74 C 184.53 -136.43 184.64 -136.17 184.86 -135.97 C 185.08 -135.78 185.65 -135.57 186.57 -135.36 C 187.5 -135.16 188.13 -134.97 188.47 -134.82 C 188.97 -134.58 189.34 -134.28 189.58 -133.93 C 189.82 -133.59 189.94 -133.18 189.94 -132.71 C 189.94 -132.25 189.81 -131.82 189.55 -131.42 C 189.29 -131.02 188.91 -130.71 188.42 -130.48 C 187.94 -130.26 187.38 -130.15 186.77 -130.15 C 185.99 -130.15 185.33 -130.26 184.81 -130.48 C 184.28 -130.71 183.87 -131.05 183.57 -131.5 C 183.28 -131.96 183.12 -132.48 183.11 -133.05 Z M 195.44 -130.29 L 195.44 -131.21 C 194.95 -130.5 194.29 -130.15 193.46 -130.15 C 193.1 -130.15 192.75 -130.22 192.44 -130.36 C 192.12 -130.5 191.88 -130.67 191.73 -130.89 C 191.57 -131.1 191.46 -131.36 191.4 -131.68 C 191.36 -131.87 191.33 -132.2 191.33 -132.66 L 191.33 -136.5 L 192.4 -136.5 L 192.4 -133.05 C 192.4 -132.51 192.42 -132.14 192.46 -131.94 C 192.52 -131.67 192.66 -131.46 192.87 -131.29 C 193.09 -131.13 193.36 -131.05 193.68 -131.05 C 193.99 -131.05 194.29 -131.13 194.56 -131.29 C 194.84 -131.46 195.04 -131.68 195.16 -131.96 C 195.27 -132.24 195.33 -132.65 195.33 -133.18 L 195.33 -136.5 L 196.38 -136.5 L 196.38 -130.29 L 195.44 -130.29 Z M 199.01 -130.29 L 198.02 -130.29 L 198.02 -138.88 L 199.09 -138.88 L 199.09 -135.82 C 199.53 -136.37 200.1 -136.65 200.79 -136.65 C 201.18 -136.65 201.54 -136.57 201.88 -136.42 C 202.21 -136.27 202.5 -136.05 202.72 -135.77 C 202.94 -135.49 203.12 -135.15 203.24 -134.75 C 203.37 -134.36 203.43 -133.94 203.43 -133.49 C 203.43 -132.43 203.16 -131.6 202.63 -131.02 C 202.1 -130.44 201.47 -130.15 200.74 -130.15 C 200 -130.15 199.43 -130.45 199.01 -131.07 L 199.01 -130.29 Z M 198.99 -133.44 C 198.99 -132.7 199.1 -132.17 199.31 -131.83 C 199.64 -131.29 200.09 -131.02 200.65 -131.02 C 201.11 -131.02 201.51 -131.22 201.84 -131.61 C 202.18 -132.01 202.35 -132.61 202.35 -133.41 C 202.35 -134.22 202.19 -134.82 201.87 -135.21 C 201.55 -135.59 201.15 -135.79 200.7 -135.79 C 200.24 -135.79 199.84 -135.59 199.5 -135.18 C 199.16 -134.78 198.99 -134.2 198.99 -133.44 Z M 204.29 -132.15 L 205.32 -132.3 C 205.39 -131.89 205.55 -131.57 205.82 -131.35 C 206.08 -131.13 206.46 -131.02 206.95 -131.02 C 207.43 -131.02 207.78 -131.12 208.02 -131.31 C 208.25 -131.5 208.37 -131.73 208.37 -132 C 208.37 -132.24 208.27 -132.43 208.06 -132.57 C 207.91 -132.66 207.55 -132.78 206.98 -132.93 C 206.21 -133.12 205.67 -133.29 205.38 -133.43 C 205.08 -133.58 204.85 -133.77 204.7 -134.02 C 204.54 -134.27 204.46 -134.55 204.46 -134.86 C 204.46 -135.14 204.53 -135.39 204.65 -135.63 C 204.78 -135.87 204.95 -136.07 205.17 -136.22 C 205.33 -136.34 205.56 -136.44 205.84 -136.52 C 206.12 -136.6 206.43 -136.65 206.76 -136.65 C 207.24 -136.65 207.66 -136.58 208.03 -136.43 C 208.4 -136.29 208.68 -136.1 208.85 -135.86 C 209.03 -135.62 209.15 -135.31 209.21 -134.91 L 208.18 -134.77 C 208.14 -135.08 208.01 -135.33 207.78 -135.51 C 207.56 -135.69 207.24 -135.79 206.82 -135.79 C 206.34 -135.79 206 -135.71 205.79 -135.54 C 205.58 -135.38 205.48 -135.19 205.48 -134.97 C 205.48 -134.84 205.52 -134.72 205.6 -134.61 C 205.7 -134.5 205.83 -134.41 206.01 -134.33 C 206.11 -134.29 206.43 -134.2 206.95 -134.07 C 207.7 -133.86 208.22 -133.69 208.51 -133.57 C 208.8 -133.44 209.03 -133.26 209.2 -133.02 C 209.36 -132.78 209.45 -132.48 209.45 -132.11 C 209.45 -131.76 209.35 -131.43 209.14 -131.12 C 208.94 -130.81 208.65 -130.58 208.26 -130.4 C 207.88 -130.23 207.44 -130.15 206.95 -130.15 C 206.14 -130.15 205.52 -130.31 205.1 -130.65 C 204.67 -130.99 204.41 -131.49 204.29 -132.15 Z M 210.67 -127.9 L 210.54 -128.88 C 210.77 -128.82 210.97 -128.79 211.15 -128.79 C 211.38 -128.79 211.57 -128.83 211.71 -128.9 C 211.85 -128.98 211.96 -129.09 212.06 -129.22 C 212.12 -129.34 212.23 -129.6 212.39 -130.02 C 212.4 -130.07 212.43 -130.16 212.48 -130.27 L 210.1 -136.5 L 211.25 -136.5 L 212.54 -132.91 C 212.71 -132.45 212.86 -131.97 213 -131.46 C 213.12 -131.95 213.27 -132.42 213.43 -132.88 L 214.76 -136.5 L 215.81 -136.5 L 213.45 -130.18 C 213.19 -129.5 212.99 -129.03 212.85 -128.77 C 212.67 -128.42 212.45 -128.16 212.21 -128 C 211.96 -127.84 211.67 -127.75 211.34 -127.75 C 211.14 -127.75 210.92 -127.8 210.67 -127.9 Z M 216.29 -132.15 L 217.32 -132.3 C 217.39 -131.89 217.55 -131.57 217.82 -131.35 C 218.08 -131.13 218.46 -131.02 218.95 -131.02 C 219.43 -131.02 219.78 -131.12 220.02 -131.31 C 220.25 -131.5 220.37 -131.73 220.37 -132 C 220.37 -132.24 220.27 -132.43 220.06 -132.57 C 219.91 -132.66 219.55 -132.78 218.98 -132.93 C 218.21 -133.12 217.67 -133.29 217.38 -133.43 C 217.08 -133.58 216.85 -133.77 216.7 -134.02 C 216.54 -134.27 216.46 -134.55 216.46 -134.86 C 216.46 -135.14 216.53 -135.39 216.65 -135.63 C 216.78 -135.87 216.95 -136.07 217.17 -136.22 C 217.33 -136.34 217.56 -136.44 217.84 -136.52 C 218.12 -136.6 218.43 -136.65 218.76 -136.65 C 219.24 -136.65 219.66 -136.58 220.03 -136.43 C 220.4 -136.29 220.68 -136.1 220.85 -135.86 C 221.03 -135.62 221.15 -135.31 221.21 -134.91 L 220.18 -134.77 C 220.14 -135.08 220.01 -135.33 219.78 -135.51 C 219.56 -135.69 219.24 -135.79 218.82 -135.79 C 218.34 -135.79 218 -135.71 217.79 -135.54 C 217.58 -135.38 217.48 -135.19 217.48 -134.97 C 217.48 -134.84 217.52 -134.72 217.6 -134.61 C 217.7 -134.5 217.83 -134.41 218.01 -134.33 C 218.11 -134.29 218.43 -134.2 218.95 -134.07 C 219.7 -133.86 220.22 -133.69 220.51 -133.57 C 220.8 -133.44 221.03 -133.26 221.2 -133.02 C 221.36 -132.78 221.45 -132.48 221.45 -132.11 C 221.45 -131.76 221.35 -131.43 221.14 -131.12 C 220.94 -130.81 220.65 -130.58 220.26 -130.4 C 219.88 -130.23 219.44 -130.15 218.95 -130.15 C 218.14 -130.15 217.52 -130.31 217.1 -130.65 C 216.67 -130.99 216.41 -131.49 216.29 -132.15 Z M 225.01 -131.22 L 225.17 -130.3 C 224.86 -130.24 224.6 -130.21 224.37 -130.21 C 223.98 -130.21 223.69 -130.27 223.48 -130.39 C 223.27 -130.51 223.12 -130.67 223.03 -130.86 C 222.95 -131.06 222.9 -131.48 222.9 -132.11 L 222.9 -135.69 L 222.14 -135.69 L 222.14 -136.5 L 222.9 -136.5 L 222.9 -138.05 L 223.95 -138.68 L 223.95 -136.5 L 225.01 -136.5 L 225.01 -135.69 L 223.95 -135.69 L 223.95 -132.05 C 223.95 -131.75 223.97 -131.56 224 -131.47 C 224.04 -131.39 224.1 -131.32 224.18 -131.27 C 224.27 -131.22 224.39 -131.19 224.54 -131.19 C 224.67 -131.19 224.82 -131.2 225.01 -131.22 Z M 230.3 -132.29 L 231.39 -132.16 C 231.22 -131.53 230.91 -131.03 230.44 -130.68 C 229.97 -130.32 229.38 -130.15 228.66 -130.15 C 227.75 -130.15 227.03 -130.43 226.49 -130.99 C 225.96 -131.55 225.69 -132.34 225.69 -133.35 C 225.69 -134.39 225.96 -135.2 226.5 -135.78 C 227.04 -136.36 227.74 -136.65 228.59 -136.65 C 229.43 -136.65 230.11 -136.36 230.63 -135.8 C 231.16 -135.24 231.42 -134.44 231.42 -133.41 C 231.42 -133.35 231.42 -133.25 231.42 -133.13 L 226.78 -133.13 C 226.82 -132.44 227.02 -131.92 227.36 -131.56 C 227.7 -131.2 228.14 -131.02 228.66 -131.02 C 229.04 -131.02 229.37 -131.12 229.65 -131.33 C 229.93 -131.53 230.14 -131.85 230.3 -132.29 Z M 226.84 -133.99 L 230.31 -133.99 C 230.27 -134.52 230.14 -134.92 229.92 -135.18 C 229.58 -135.58 229.14 -135.79 228.61 -135.79 C 228.12 -135.79 227.71 -135.62 227.38 -135.3 C 227.06 -134.98 226.88 -134.54 226.84 -133.99 Z M 232.72 -130.29 L 232.72 -136.5 L 233.66 -136.5 L 233.66 -135.63 C 233.86 -135.94 234.12 -136.19 234.44 -136.37 C 234.76 -136.55 235.13 -136.65 235.55 -136.65 C 236.01 -136.65 236.39 -136.55 236.68 -136.36 C 236.98 -136.18 237.19 -135.91 237.3 -135.57 C 237.8 -136.29 238.44 -136.65 239.22 -136.65 C 239.85 -136.65 240.32 -136.48 240.65 -136.14 C 240.98 -135.8 241.14 -135.27 241.14 -134.55 L 241.14 -130.29 L 240.1 -130.29 L 240.1 -134.21 C 240.1 -134.62 240.06 -134.93 240 -135.11 C 239.93 -135.3 239.8 -135.45 239.63 -135.57 C 239.45 -135.68 239.24 -135.74 238.99 -135.74 C 238.55 -135.74 238.19 -135.59 237.9 -135.3 C 237.61 -135.01 237.47 -134.54 237.47 -133.9 L 237.47 -130.29 L 236.41 -130.29 L 236.41 -134.33 C 236.41 -134.8 236.32 -135.15 236.15 -135.39 C 235.98 -135.62 235.7 -135.74 235.32 -135.74 C 235.01 -135.74 234.74 -135.66 234.49 -135.5 C 234.24 -135.35 234.05 -135.12 233.94 -134.82 C 233.83 -134.52 233.77 -134.08 233.77 -133.52 L 233.77 -130.29 L 232.72 -130.29 Z M 242.3 -132.15 L 243.33 -132.3 C 243.39 -131.89 243.55 -131.57 243.82 -131.35 C 244.08 -131.13 244.46 -131.02 244.95 -131.02 C 245.43 -131.02 245.79 -131.12 246.02 -131.31 C 246.26 -131.5 246.37 -131.73 246.37 -132 C 246.37 -132.24 246.27 -132.43 246.06 -132.57 C 245.92 -132.66 245.56 -132.78 244.98 -132.93 C 244.21 -133.12 243.68 -133.29 243.38 -133.43 C 243.08 -133.58 242.86 -133.77 242.7 -134.02 C 242.55 -134.27 242.47 -134.55 242.47 -134.86 C 242.47 -135.14 242.53 -135.39 242.66 -135.63 C 242.78 -135.87 242.95 -136.07 243.17 -136.22 C 243.34 -136.34 243.56 -136.44 243.84 -136.52 C 244.12 -136.6 244.43 -136.65 244.76 -136.65 C 245.24 -136.65 245.67 -136.58 246.04 -136.43 C 246.41 -136.29 246.68 -136.1 246.86 -135.86 C 247.04 -135.62 247.16 -135.31 247.22 -134.91 L 246.19 -134.77 C 246.14 -135.08 246.01 -135.33 245.79 -135.51 C 245.56 -135.69 245.24 -135.79 244.83 -135.79 C 244.35 -135.79 244 -135.71 243.8 -135.54 C 243.59 -135.38 243.48 -135.19 243.48 -134.97 C 243.48 -134.84 243.52 -134.72 243.61 -134.61 C 243.7 -134.5 243.84 -134.41 244.01 -134.33 C 244.12 -134.29 244.43 -134.2 244.95 -134.07 C 245.7 -133.86 246.22 -133.69 246.51 -133.57 C 246.81 -133.44 247.04 -133.26 247.2 -133.02 C 247.37 -132.78 247.45 -132.48 247.45 -132.11 C 247.45 -131.76 247.35 -131.43 247.15 -131.12 C 246.94 -130.81 246.65 -130.58 246.26 -130.4 C 245.88 -130.23 245.44 -130.15 244.95 -130.15 C 244.14 -130.15 243.52 -130.31 243.1 -130.65 C 242.68 -130.99 242.41 -131.49 242.3 -132.15 Z "/>
<path transform="matrix(1,0,0,1,-8,225)" stroke-width="1" stroke-linecap="butt" stroke-miterlimit="1.45" stroke-linejoin="miter" fill="none" stroke="#000000" d="M 163.89 -150 L 266.6 -150 L 266.6 -120 L 163.89 -120 L 163.89 -150 Z "/>
<path transform="matrix(1,0,0,1,-8,225)" d="M 27.517 -210 L 141.55 -210 L 141.55 -180 L 27.517 -180 L 27.517 -210 Z " fill="#ffffff"/>
<path transform="matrix(1,0,0,1,-8,225)" d="M 39.47 -193.66 L 39.47 -194.66 L 43.095 -194.68 L 43.095 -191.49 C 42.543 -191.04 41.97 -190.71 41.377 -190.48 C 40.783 -190.26 40.174 -190.15 39.549 -190.15 C 38.705 -190.15 37.937 -190.33 37.244 -190.68 C 36.551 -191.04 36.03 -191.56 35.681 -192.25 C 35.332 -192.93 35.158 -193.69 35.158 -194.54 C 35.158 -195.38 35.332 -196.16 35.681 -196.89 C 36.03 -197.61 36.533 -198.15 37.189 -198.5 C 37.845 -198.85 38.601 -199.02 39.455 -199.02 C 40.08 -199.02 40.642 -198.92 41.142 -198.72 C 41.642 -198.53 42.036 -198.25 42.322 -197.89 C 42.609 -197.53 42.825 -197.06 42.97 -196.47 L 41.955 -196.19 C 41.819 -196.63 41.655 -196.97 41.463 -197.22 C 41.27 -197.47 40.997 -197.67 40.642 -197.83 C 40.288 -197.98 39.898 -198.05 39.47 -198.05 C 38.95 -198.05 38.499 -197.97 38.119 -197.82 C 37.739 -197.66 37.431 -197.45 37.197 -197.19 C 36.963 -196.93 36.783 -196.65 36.658 -196.33 C 36.439 -195.8 36.33 -195.23 36.33 -194.61 C 36.33 -193.84 36.463 -193.2 36.728 -192.68 C 36.994 -192.17 37.377 -191.79 37.877 -191.54 C 38.377 -191.29 38.913 -191.16 39.486 -191.16 C 39.976 -191.16 40.455 -191.26 40.924 -191.45 C 41.392 -191.64 41.747 -191.84 41.986 -192.05 L 41.986 -193.66 L 39.47 -193.66 Z M 48.711 -191.05 C 48.315 -190.72 47.937 -190.48 47.578 -190.35 C 47.219 -190.21 46.831 -190.15 46.414 -190.15 C 45.726 -190.15 45.2 -190.31 44.836 -190.65 C 44.471 -190.98 44.289 -191.41 44.289 -191.93 C 44.289 -192.23 44.357 -192.51 44.492 -192.76 C 44.627 -193.02 44.81 -193.22 45.039 -193.37 C 45.268 -193.52 45.523 -193.64 45.804 -193.71 C 46.002 -193.77 46.315 -193.83 46.742 -193.88 C 47.586 -193.97 48.211 -194.09 48.617 -194.24 C 48.617 -194.39 48.617 -194.47 48.617 -194.5 C 48.617 -194.94 48.518 -195.25 48.32 -195.43 C 48.049 -195.66 47.648 -195.77 47.117 -195.77 C 46.627 -195.77 46.263 -195.68 46.023 -195.51 C 45.784 -195.34 45.607 -195.04 45.492 -194.6 L 44.461 -194.74 C 44.554 -195.18 44.711 -195.53 44.929 -195.8 C 45.148 -196.07 45.461 -196.28 45.867 -196.43 C 46.273 -196.57 46.742 -196.65 47.273 -196.65 C 47.804 -196.65 48.237 -196.58 48.57 -196.46 C 48.903 -196.33 49.148 -196.18 49.304 -195.99 C 49.461 -195.8 49.57 -195.56 49.633 -195.27 C 49.664 -195.09 49.679 -194.77 49.679 -194.3 L 49.679 -192.9 C 49.679 -191.92 49.703 -191.3 49.75 -191.04 C 49.797 -190.78 49.888 -190.53 50.023 -190.29 L 48.914 -190.29 C 48.81 -190.5 48.742 -190.76 48.711 -191.05 Z M 48.617 -193.41 C 48.232 -193.25 47.659 -193.12 46.898 -193 C 46.461 -192.94 46.153 -192.87 45.976 -192.79 C 45.799 -192.72 45.661 -192.6 45.562 -192.46 C 45.463 -192.31 45.414 -192.15 45.414 -191.96 C 45.414 -191.68 45.521 -191.44 45.734 -191.25 C 45.948 -191.07 46.258 -190.97 46.664 -190.97 C 47.07 -190.97 47.432 -191.06 47.75 -191.24 C 48.067 -191.42 48.299 -191.66 48.445 -191.97 C 48.56 -192.21 48.617 -192.56 48.617 -193.02 L 48.617 -193.41 Z M 51.322 -190.29 L 51.322 -196.5 L 52.26 -196.5 L 52.26 -195.63 C 52.457 -195.94 52.718 -196.19 53.041 -196.37 C 53.364 -196.55 53.734 -196.65 54.15 -196.65 C 54.609 -196.65 54.986 -196.55 55.283 -196.36 C 55.58 -196.18 55.786 -195.91 55.9 -195.57 C 56.4 -196.29 57.041 -196.65 57.822 -196.65 C 58.447 -196.65 58.924 -196.48 59.252 -196.14 C 59.58 -195.8 59.744 -195.27 59.744 -194.55 L 59.744 -190.29 L 58.697 -190.29 L 58.697 -194.21 C 58.697 -194.62 58.663 -194.93 58.595 -195.11 C 58.528 -195.3 58.405 -195.45 58.228 -195.57 C 58.051 -195.68 57.838 -195.74 57.588 -195.74 C 57.15 -195.74 56.788 -195.59 56.502 -195.3 C 56.215 -195.01 56.072 -194.54 56.072 -193.9 L 56.072 -190.29 L 55.01 -190.29 L 55.01 -194.33 C 55.01 -194.8 54.924 -195.15 54.752 -195.39 C 54.58 -195.62 54.301 -195.74 53.916 -195.74 C 53.614 -195.74 53.338 -195.66 53.088 -195.5 C 52.838 -195.35 52.655 -195.12 52.541 -194.82 C 52.426 -194.52 52.369 -194.08 52.369 -193.52 L 52.369 -190.29 L 51.322 -190.29 Z M 65.568 -192.29 L 66.662 -192.16 C 66.495 -191.53 66.178 -191.03 65.709 -190.68 C 65.24 -190.32 64.646 -190.15 63.928 -190.15 C 63.021 -190.15 62.3 -190.43 61.763 -190.99 C 61.227 -191.55 60.959 -192.34 60.959 -193.35 C 60.959 -194.39 61.23 -195.2 61.771 -195.78 C 62.313 -196.36 63.011 -196.65 63.865 -196.65 C 64.698 -196.65 65.378 -196.36 65.904 -195.8 C 66.43 -195.24 66.693 -194.44 66.693 -193.41 C 66.693 -193.35 66.693 -193.25 66.693 -193.13 L 62.053 -193.13 C 62.094 -192.44 62.287 -191.92 62.631 -191.56 C 62.974 -191.2 63.407 -191.02 63.928 -191.02 C 64.313 -191.02 64.644 -191.12 64.92 -191.33 C 65.196 -191.53 65.412 -191.85 65.568 -192.29 Z M 62.115 -193.99 L 65.584 -193.99 C 65.542 -194.52 65.412 -194.92 65.193 -195.18 C 64.849 -195.58 64.412 -195.79 63.881 -195.79 C 63.391 -195.79 62.982 -195.62 62.654 -195.3 C 62.326 -194.98 62.146 -194.54 62.115 -193.99 Z M 70.513 -190.29 L 73.81 -198.88 L 75.029 -198.88 L 78.545 -190.29 L 77.263 -190.29 L 76.248 -192.9 L 72.67 -192.9 L 71.717 -190.29 L 70.513 -190.29 Z M 72.998 -193.82 L 75.904 -193.82 L 75.013 -196.19 C 74.732 -196.91 74.529 -197.5 74.404 -197.97 C 74.289 -197.42 74.133 -196.87 73.935 -196.33 L 72.998 -193.82 Z M 79.314 -190.29 L 79.314 -196.5 L 80.267 -196.5 L 80.267 -195.57 C 80.507 -196 80.728 -196.29 80.931 -196.43 C 81.135 -196.58 81.361 -196.65 81.611 -196.65 C 81.965 -196.65 82.325 -196.54 82.689 -196.32 L 82.33 -195.33 C 82.069 -195.49 81.814 -195.57 81.564 -195.57 C 81.325 -195.57 81.114 -195.5 80.931 -195.36 C 80.749 -195.22 80.622 -195.02 80.549 -194.77 C 80.424 -194.4 80.361 -193.99 80.361 -193.55 L 80.361 -190.29 L 79.314 -190.29 Z M 87.388 -192.57 L 88.42 -192.43 C 88.305 -191.72 88.013 -191.16 87.545 -190.75 C 87.076 -190.35 86.503 -190.15 85.826 -190.15 C 84.972 -190.15 84.287 -190.42 83.771 -190.98 C 83.256 -191.54 82.998 -192.34 82.998 -193.38 C 82.998 -194.05 83.11 -194.63 83.334 -195.14 C 83.558 -195.64 83.896 -196.02 84.349 -196.27 C 84.803 -196.52 85.3 -196.65 85.842 -196.65 C 86.508 -196.65 87.058 -196.48 87.49 -196.14 C 87.922 -195.8 88.201 -195.31 88.326 -194.68 L 87.295 -194.52 C 87.201 -194.94 87.029 -195.25 86.779 -195.47 C 86.529 -195.68 86.227 -195.79 85.873 -195.79 C 85.342 -195.79 84.909 -195.6 84.576 -195.22 C 84.243 -194.84 84.076 -194.23 84.076 -193.41 C 84.076 -192.57 84.237 -191.96 84.56 -191.58 C 84.883 -191.21 85.3 -191.02 85.81 -191.02 C 86.227 -191.02 86.573 -191.15 86.849 -191.4 C 87.125 -191.65 87.305 -192.04 87.388 -192.57 Z M 89.326 -190.29 L 89.326 -198.88 L 90.373 -198.88 L 90.373 -195.8 C 90.862 -196.36 91.482 -196.65 92.232 -196.65 C 92.701 -196.65 93.105 -196.55 93.443 -196.37 C 93.782 -196.19 94.024 -195.94 94.17 -195.62 C 94.316 -195.3 94.388 -194.84 94.388 -194.22 L 94.388 -190.29 L 93.342 -190.29 L 93.342 -194.22 C 93.342 -194.75 93.227 -195.14 92.998 -195.38 C 92.769 -195.62 92.446 -195.74 92.029 -195.74 C 91.717 -195.74 91.422 -195.66 91.146 -195.5 C 90.87 -195.34 90.672 -195.12 90.553 -194.84 C 90.433 -194.56 90.373 -194.18 90.373 -193.69 L 90.373 -190.29 L 89.326 -190.29 Z M 96 -197.66 L 96 -198.88 L 97.062 -198.88 L 97.062 -197.66 L 96 -197.66 Z M 96 -190.29 L 96 -196.5 L 97.062 -196.5 L 97.062 -190.29 L 96 -190.29 Z M 100.96 -191.22 L 101.12 -190.3 C 100.82 -190.24 100.55 -190.21 100.32 -190.21 C 99.937 -190.21 99.64 -190.27 99.431 -190.39 C 99.223 -190.51 99.075 -190.67 98.986 -190.86 C 98.898 -191.06 98.853 -191.48 98.853 -192.11 L 98.853 -195.69 L 98.088 -195.69 L 98.088 -196.5 L 98.853 -196.5 L 98.853 -198.05 L 99.9 -198.68 L 99.9 -196.5 L 100.96 -196.5 L 100.96 -195.69 L 99.9 -195.69 L 99.9 -192.05 C 99.9 -191.75 99.918 -191.56 99.955 -191.47 C 99.991 -191.39 100.05 -191.32 100.13 -191.27 C 100.22 -191.22 100.34 -191.19 100.49 -191.19 C 100.62 -191.19 100.78 -191.2 100.96 -191.22 Z M 106.25 -192.29 L 107.34 -192.16 C 107.18 -191.53 106.86 -191.03 106.39 -190.68 C 105.92 -190.32 105.33 -190.15 104.61 -190.15 C 103.7 -190.15 102.98 -190.43 102.45 -190.99 C 101.91 -191.55 101.64 -192.34 101.64 -193.35 C 101.64 -194.39 101.91 -195.2 102.45 -195.78 C 102.99 -196.36 103.69 -196.65 104.55 -196.65 C 105.38 -196.65 106.06 -196.36 106.59 -195.8 C 107.11 -195.24 107.37 -194.44 107.37 -193.41 C 107.37 -193.35 107.37 -193.25 107.37 -193.13 L 102.73 -193.13 C 102.78 -192.44 102.97 -191.92 103.31 -191.56 C 103.66 -191.2 104.09 -191.02 104.61 -191.02 C 104.99 -191.02 105.33 -191.12 105.6 -191.33 C 105.88 -191.53 106.09 -191.85 106.25 -192.29 Z M 102.8 -193.99 L 106.27 -193.99 C 106.22 -194.52 106.09 -194.92 105.87 -195.18 C 105.53 -195.58 105.09 -195.79 104.56 -195.79 C 104.07 -195.79 103.66 -195.62 103.34 -195.3 C 103.01 -194.98 102.83 -194.54 102.8 -193.99 Z M 112.74 -192.57 L 113.77 -192.43 C 113.65 -191.72 113.36 -191.16 112.89 -190.75 C 112.42 -190.35 111.85 -190.15 111.17 -190.15 C 110.32 -190.15 109.63 -190.42 109.12 -190.98 C 108.6 -191.54 108.35 -192.34 108.35 -193.38 C 108.35 -194.05 108.46 -194.63 108.68 -195.14 C 108.91 -195.64 109.24 -196.02 109.7 -196.27 C 110.15 -196.52 110.65 -196.65 111.19 -196.65 C 111.86 -196.65 112.41 -196.48 112.84 -196.14 C 113.27 -195.8 113.55 -195.31 113.67 -194.68 L 112.64 -194.52 C 112.55 -194.94 112.38 -195.25 112.13 -195.47 C 111.88 -195.68 111.57 -195.79 111.22 -195.79 C 110.69 -195.79 110.26 -195.6 109.92 -195.22 C 109.59 -194.84 109.42 -194.23 109.42 -193.41 C 109.42 -192.57 109.59 -191.96 109.91 -191.58 C 110.23 -191.21 110.65 -191.02 111.16 -191.02 C 111.57 -191.02 111.92 -191.15 112.2 -191.4 C 112.47 -191.65 112.65 -192.04 112.74 -192.57 Z M 116.97 -191.22 L 117.13 -190.3 C 116.82 -190.24 116.56 -190.21 116.33 -190.21 C 115.94 -190.21 115.65 -190.27 115.44 -190.39 C 115.23 -190.51 115.08 -190.67 114.99 -190.86 C 114.91 -191.06 114.86 -191.48 114.86 -192.11 L 114.86 -195.69 L 114.1 -195.69 L 114.1 -196.5 L 114.86 -196.5 L 114.86 -198.05 L 115.91 -198.68 L 115.91 -196.5 L 116.97 -196.5 L 116.97 -195.69 L 115.91 -195.69 L 115.91 -192.05 C 115.91 -191.75 115.93 -191.56 115.96 -191.47 C 116 -191.39 116.06 -191.32 116.14 -191.27 C 116.23 -191.22 116.35 -191.19 116.5 -191.19 C 116.63 -191.19 116.78 -191.2 116.97 -191.22 Z M 122.09 -190.29 L 122.09 -191.21 C 121.6 -190.5 120.93 -190.15 120.1 -190.15 C 119.74 -190.15 119.4 -190.22 119.08 -190.36 C 118.76 -190.5 118.52 -190.67 118.37 -190.89 C 118.21 -191.1 118.1 -191.36 118.04 -191.68 C 118 -191.87 117.98 -192.2 117.98 -192.66 L 117.98 -196.5 L 119.04 -196.5 L 119.04 -193.05 C 119.04 -192.51 119.06 -192.14 119.1 -191.94 C 119.16 -191.67 119.3 -191.46 119.52 -191.29 C 119.73 -191.13 120 -191.05 120.32 -191.05 C 120.63 -191.05 120.93 -191.13 121.2 -191.29 C 121.48 -191.46 121.68 -191.68 121.8 -191.96 C 121.92 -192.24 121.98 -192.65 121.98 -193.18 L 121.98 -196.5 L 123.02 -196.5 L 123.02 -190.29 L 122.09 -190.29 Z M 124.67 -190.29 L 124.67 -196.5 L 125.62 -196.5 L 125.62 -195.57 C 125.86 -196 126.08 -196.29 126.28 -196.43 C 126.49 -196.58 126.71 -196.65 126.96 -196.65 C 127.32 -196.65 127.68 -196.54 128.04 -196.32 L 127.68 -195.33 C 127.42 -195.49 127.17 -195.57 126.92 -195.57 C 126.68 -195.57 126.47 -195.5 126.28 -195.36 C 126.1 -195.22 125.97 -195.02 125.9 -194.77 C 125.78 -194.4 125.71 -193.99 125.71 -193.55 L 125.71 -190.29 L 124.67 -190.29 Z M 132.93 -192.29 L 134.02 -192.16 C 133.85 -191.53 133.54 -191.03 133.07 -190.68 C 132.6 -190.32 132.01 -190.15 131.29 -190.15 C 130.38 -190.15 129.66 -190.43 129.12 -190.99 C 128.59 -191.55 128.32 -192.34 128.32 -193.35 C 128.32 -194.39 128.59 -195.2 129.13 -195.78 C 129.67 -196.36 130.37 -196.65 131.22 -196.65 C 132.06 -196.65 132.74 -196.36 133.26 -195.8 C 133.79 -195.24 134.05 -194.44 134.05 -193.41 C 134.05 -193.35 134.05 -193.25 134.05 -193.13 L 129.41 -193.13 C 129.45 -192.44 129.65 -191.92 129.99 -191.56 C 130.33 -191.2 130.77 -191.02 131.29 -191.02 C 131.67 -191.02 132 -191.12 132.28 -191.33 C 132.56 -191.53 132.77 -191.85 132.93 -192.29 Z M 129.47 -193.99 L 132.94 -193.99 C 132.9 -194.52 132.77 -194.92 132.55 -195.18 C 132.21 -195.58 131.77 -195.79 131.24 -195.79 C 130.75 -195.79 130.34 -195.62 130.01 -195.3 C 129.69 -194.98 129.51 -194.54 129.47 -193.99 Z "/>
<path transform="matrix(1,0,0,1,-8,225)" stroke-width="1" stroke-linecap="butt" stroke-miterlimit="1.45" stroke-linejoin="miter" fill="none" stroke="#000000" d="M 27.517 -210 L 141.55 -210 L 141.55 -180 L 27.517 -180 L 27.517 -210 Z "/>
<path transform="matrix(1,0,0,1,-8,225)" d="M 23.507 -150 L 145.57 -150 L 145.57 -120 L 23.507 -120 L 23.507 -150 Z " fill="#ffffff"/>
<path transform="matrix(1,0,0,1,-8,225)" d="M 46.102 -134.47 C 46.102 -135.9 46.485 -137.02 47.251 -137.83 C 48.016 -138.63 49.003 -139.04 50.212 -139.04 C 51.014 -139.04 51.733 -138.85 52.368 -138.47 C 53.003 -138.09 53.488 -137.56 53.821 -136.88 C 54.154 -136.2 54.321 -135.43 54.321 -134.57 C 54.321 -133.7 54.144 -132.93 53.79 -132.24 C 53.436 -131.55 52.938 -131.03 52.298 -130.68 C 51.657 -130.32 50.962 -130.15 50.212 -130.15 C 49.399 -130.15 48.675 -130.34 48.04 -130.73 C 47.404 -131.12 46.923 -131.65 46.595 -132.33 C 46.266 -133 46.102 -133.71 46.102 -134.47 Z M 47.274 -134.46 C 47.274 -133.42 47.553 -132.6 48.11 -132 C 48.667 -131.41 49.368 -131.11 50.212 -131.11 C 51.066 -131.11 51.769 -131.41 52.321 -132.01 C 52.873 -132.61 53.149 -133.47 53.149 -134.58 C 53.149 -135.28 53.032 -135.89 52.798 -136.41 C 52.563 -136.93 52.217 -137.34 51.759 -137.62 C 51.3 -137.91 50.79 -138.05 50.227 -138.05 C 49.425 -138.05 48.733 -137.78 48.149 -137.22 C 47.566 -136.67 47.274 -135.75 47.274 -134.46 Z M 56.624 -130.29 L 55.639 -130.29 L 55.639 -138.88 L 56.702 -138.88 L 56.702 -135.82 C 57.15 -136.37 57.718 -136.65 58.405 -136.65 C 58.79 -136.65 59.152 -136.57 59.491 -136.42 C 59.83 -136.27 60.111 -136.05 60.335 -135.77 C 60.559 -135.49 60.733 -135.15 60.858 -134.75 C 60.983 -134.36 61.046 -133.94 61.046 -133.49 C 61.046 -132.43 60.78 -131.6 60.249 -131.02 C 59.718 -130.44 59.087 -130.15 58.358 -130.15 C 57.619 -130.15 57.04 -130.45 56.624 -131.07 L 56.624 -130.29 Z M 56.608 -133.44 C 56.608 -132.7 56.712 -132.17 56.921 -131.83 C 57.254 -131.29 57.702 -131.02 58.264 -131.02 C 58.723 -131.02 59.121 -131.22 59.46 -131.61 C 59.798 -132.01 59.968 -132.61 59.968 -133.41 C 59.968 -134.22 59.806 -134.82 59.483 -135.21 C 59.16 -135.59 58.77 -135.79 58.311 -135.79 C 57.853 -135.79 57.455 -135.59 57.116 -135.18 C 56.777 -134.78 56.608 -134.2 56.608 -133.44 Z M 62.313 -137.65 L 62.313 -138.88 L 63.376 -138.88 L 63.376 -137.65 L 62.313 -137.65 Z M 60.985 -127.86 L 61.173 -128.77 C 61.391 -128.72 61.558 -128.69 61.673 -128.69 C 61.891 -128.69 62.053 -128.76 62.157 -128.9 C 62.261 -129.04 62.313 -129.4 62.313 -129.97 L 62.313 -136.5 L 63.376 -136.5 L 63.376 -129.94 C 63.376 -129.18 63.277 -128.65 63.079 -128.35 C 62.818 -127.95 62.397 -127.75 61.813 -127.75 C 61.522 -127.75 61.246 -127.79 60.985 -127.86 Z M 69.245 -132.29 L 70.339 -132.16 C 70.172 -131.53 69.854 -131.03 69.386 -130.68 C 68.917 -130.32 68.323 -130.15 67.604 -130.15 C 66.698 -130.15 65.977 -130.43 65.44 -130.99 C 64.904 -131.55 64.636 -132.34 64.636 -133.35 C 64.636 -134.39 64.906 -135.2 65.448 -135.78 C 65.99 -136.36 66.688 -136.65 67.542 -136.65 C 68.375 -136.65 69.055 -136.36 69.581 -135.8 C 70.107 -135.24 70.37 -134.44 70.37 -133.41 C 70.37 -133.35 70.37 -133.25 70.37 -133.13 L 65.729 -133.13 C 65.771 -132.44 65.964 -131.92 66.307 -131.56 C 66.651 -131.2 67.083 -131.02 67.604 -131.02 C 67.99 -131.02 68.32 -131.12 68.596 -131.33 C 68.873 -131.53 69.089 -131.85 69.245 -132.29 Z M 65.792 -133.99 L 69.261 -133.99 C 69.219 -134.52 69.089 -134.92 68.87 -135.18 C 68.526 -135.58 68.089 -135.79 67.557 -135.79 C 67.068 -135.79 66.659 -135.62 66.331 -135.3 C 66.003 -134.98 65.823 -134.54 65.792 -133.99 Z M 75.731 -132.57 L 76.762 -132.43 C 76.648 -131.72 76.356 -131.16 75.887 -130.75 C 75.419 -130.35 74.846 -130.15 74.169 -130.15 C 73.315 -130.15 72.63 -130.42 72.114 -130.98 C 71.598 -131.54 71.341 -132.34 71.341 -133.38 C 71.341 -134.05 71.453 -134.63 71.677 -135.14 C 71.9 -135.64 72.239 -136.02 72.692 -136.27 C 73.145 -136.52 73.643 -136.65 74.184 -136.65 C 74.851 -136.65 75.4 -136.48 75.833 -136.14 C 76.265 -135.8 76.544 -135.31 76.669 -134.68 L 75.637 -134.52 C 75.544 -134.94 75.372 -135.25 75.122 -135.47 C 74.872 -135.68 74.57 -135.79 74.216 -135.79 C 73.684 -135.79 73.252 -135.6 72.919 -135.22 C 72.585 -134.84 72.419 -134.23 72.419 -133.41 C 72.419 -132.57 72.58 -131.96 72.903 -131.58 C 73.226 -131.21 73.643 -131.02 74.153 -131.02 C 74.57 -131.02 74.916 -131.15 75.192 -131.4 C 75.468 -131.65 75.648 -132.04 75.731 -132.57 Z M 79.966 -131.22 L 80.122 -130.3 C 79.82 -130.24 79.554 -130.21 79.325 -130.21 C 78.94 -130.21 78.643 -130.27 78.434 -130.39 C 78.226 -130.51 78.078 -130.67 77.989 -130.86 C 77.9 -131.06 77.856 -131.48 77.856 -132.11 L 77.856 -135.69 L 77.091 -135.69 L 77.091 -136.5 L 77.856 -136.5 L 77.856 -138.05 L 78.903 -138.68 L 78.903 -136.5 L 79.966 -136.5 L 79.966 -135.69 L 78.903 -135.69 L 78.903 -132.05 C 78.903 -131.75 78.921 -131.56 78.958 -131.47 C 78.994 -131.39 79.054 -131.32 79.137 -131.27 C 79.221 -131.22 79.341 -131.19 79.497 -131.19 C 79.622 -131.19 79.778 -131.2 79.966 -131.22 Z M 84.087 -133.05 L 85.149 -133.15 C 85.201 -132.71 85.321 -132.35 85.509 -132.08 C 85.696 -131.81 85.985 -131.59 86.376 -131.42 C 86.766 -131.25 87.206 -131.16 87.696 -131.16 C 88.123 -131.16 88.503 -131.23 88.837 -131.36 C 89.17 -131.49 89.417 -131.66 89.579 -131.89 C 89.74 -132.11 89.821 -132.35 89.821 -132.61 C 89.821 -132.89 89.743 -133.12 89.587 -133.33 C 89.43 -133.53 89.175 -133.7 88.821 -133.83 C 88.581 -133.93 88.068 -134.07 87.282 -134.25 C 86.496 -134.44 85.946 -134.62 85.634 -134.79 C 85.217 -135 84.91 -135.27 84.712 -135.59 C 84.514 -135.91 84.415 -136.27 84.415 -136.66 C 84.415 -137.09 84.537 -137.49 84.782 -137.87 C 85.027 -138.25 85.386 -138.54 85.86 -138.73 C 86.334 -138.92 86.858 -139.02 87.43 -139.02 C 88.066 -139.02 88.628 -138.92 89.118 -138.72 C 89.608 -138.51 89.983 -138.21 90.243 -137.81 C 90.503 -137.41 90.644 -136.96 90.665 -136.46 L 89.571 -136.38 C 89.509 -136.92 89.308 -137.33 88.97 -137.61 C 88.631 -137.88 88.134 -138.02 87.477 -138.02 C 86.79 -138.02 86.29 -137.9 85.977 -137.65 C 85.665 -137.4 85.509 -137.09 85.509 -136.74 C 85.509 -136.43 85.618 -136.17 85.837 -135.97 C 86.055 -135.78 86.626 -135.57 87.548 -135.36 C 88.47 -135.16 89.102 -134.97 89.446 -134.82 C 89.946 -134.58 90.316 -134.28 90.555 -133.93 C 90.795 -133.59 90.915 -133.18 90.915 -132.71 C 90.915 -132.25 90.785 -131.82 90.524 -131.42 C 90.264 -131.02 89.889 -130.71 89.399 -130.48 C 88.91 -130.26 88.358 -130.15 87.743 -130.15 C 86.962 -130.15 86.308 -130.26 85.782 -130.48 C 85.256 -130.71 84.845 -131.05 84.548 -131.5 C 84.251 -131.96 84.097 -132.48 84.087 -133.05 Z M 92.294 -127.9 L 92.169 -128.88 C 92.398 -128.82 92.601 -128.79 92.778 -128.79 C 93.007 -128.79 93.192 -128.83 93.333 -128.9 C 93.473 -128.98 93.591 -129.09 93.684 -129.22 C 93.747 -129.34 93.856 -129.6 94.012 -130.02 C 94.023 -130.07 94.054 -130.16 94.106 -130.27 L 91.731 -136.5 L 92.872 -136.5 L 94.169 -132.91 C 94.335 -132.45 94.486 -131.97 94.622 -131.46 C 94.747 -131.95 94.893 -132.42 95.059 -132.88 L 96.387 -136.5 L 97.434 -136.5 L 95.075 -130.18 C 94.815 -129.5 94.617 -129.03 94.481 -128.77 C 94.294 -128.42 94.078 -128.16 93.833 -128 C 93.588 -127.84 93.299 -127.75 92.966 -127.75 C 92.768 -127.75 92.544 -127.8 92.294 -127.9 Z M 97.919 -132.15 L 98.95 -132.3 C 99.012 -131.89 99.177 -131.57 99.442 -131.35 C 99.708 -131.13 100.09 -131.02 100.57 -131.02 C 101.05 -131.02 101.41 -131.12 101.65 -131.31 C 101.88 -131.5 102 -131.73 102 -132 C 102 -132.24 101.89 -132.43 101.68 -132.57 C 101.54 -132.66 101.18 -132.78 100.61 -132.93 C 99.835 -133.12 99.302 -133.29 99.005 -133.43 C 98.708 -133.58 98.481 -133.77 98.325 -134.02 C 98.169 -134.27 98.091 -134.55 98.091 -134.86 C 98.091 -135.14 98.153 -135.39 98.278 -135.63 C 98.403 -135.87 98.575 -136.07 98.794 -136.22 C 98.96 -136.34 99.184 -136.44 99.466 -136.52 C 99.747 -136.6 100.05 -136.65 100.39 -136.65 C 100.87 -136.65 101.29 -136.58 101.66 -136.43 C 102.03 -136.29 102.3 -136.1 102.48 -135.86 C 102.66 -135.62 102.78 -135.31 102.84 -134.91 L 101.81 -134.77 C 101.77 -135.08 101.63 -135.33 101.41 -135.51 C 101.19 -135.69 100.87 -135.79 100.45 -135.79 C 99.971 -135.79 99.627 -135.71 99.419 -135.54 C 99.21 -135.38 99.106 -135.19 99.106 -134.97 C 99.106 -134.84 99.148 -134.72 99.231 -134.61 C 99.325 -134.5 99.46 -134.41 99.637 -134.33 C 99.742 -134.29 100.05 -134.2 100.57 -134.07 C 101.32 -133.86 101.85 -133.69 102.14 -133.57 C 102.43 -133.44 102.66 -133.26 102.82 -133.02 C 102.99 -132.78 103.07 -132.48 103.07 -132.11 C 103.07 -131.76 102.97 -131.43 102.77 -131.12 C 102.57 -130.81 102.27 -130.58 101.89 -130.4 C 101.5 -130.23 101.06 -130.15 100.57 -130.15 C 99.762 -130.15 99.145 -130.31 98.723 -130.65 C 98.302 -130.99 98.033 -131.49 97.919 -132.15 Z M 106.64 -131.22 L 106.79 -130.3 C 106.49 -130.24 106.23 -130.21 106 -130.21 C 105.61 -130.21 105.31 -130.27 105.11 -130.39 C 104.9 -130.51 104.75 -130.67 104.66 -130.86 C 104.57 -131.06 104.53 -131.48 104.53 -132.11 L 104.53 -135.69 L 103.76 -135.69 L 103.76 -136.5 L 104.53 -136.5 L 104.53 -138.05 L 105.57 -138.68 L 105.57 -136.5 L 106.64 -136.5 L 106.64 -135.69 L 105.57 -135.69 L 105.57 -132.05 C 105.57 -131.75 105.59 -131.56 105.63 -131.47 C 105.67 -131.39 105.73 -131.32 105.81 -131.27 C 105.89 -131.22 106.01 -131.19 106.17 -131.19 C 106.29 -131.19 106.45 -131.2 106.64 -131.22 Z M 111.92 -132.29 L 113.02 -132.16 C 112.85 -131.53 112.53 -131.03 112.07 -130.68 C 111.6 -130.32 111 -130.15 110.28 -130.15 C 109.38 -130.15 108.66 -130.43 108.12 -130.99 C 107.58 -131.55 107.32 -132.34 107.32 -133.35 C 107.32 -134.39 107.59 -135.2 108.13 -135.78 C 108.67 -136.36 109.37 -136.65 110.22 -136.65 C 111.05 -136.65 111.73 -136.36 112.26 -135.8 C 112.79 -135.24 113.05 -134.44 113.05 -133.41 C 113.05 -133.35 113.05 -133.25 113.05 -133.13 L 108.41 -133.13 C 108.45 -132.44 108.64 -131.92 108.99 -131.56 C 109.33 -131.2 109.76 -131.02 110.28 -131.02 C 110.67 -131.02 111 -131.12 111.28 -131.33 C 111.55 -131.53 111.77 -131.85 111.92 -132.29 Z M 108.47 -133.99 L 111.94 -133.99 C 111.9 -134.52 111.77 -134.92 111.55 -135.18 C 111.21 -135.58 110.77 -135.79 110.24 -135.79 C 109.75 -135.79 109.34 -135.62 109.01 -135.3 C 108.68 -134.98 108.5 -134.54 108.47 -133.99 Z M 114.35 -130.29 L 114.35 -136.5 L 115.29 -136.5 L 115.29 -135.63 C 115.48 -135.94 115.74 -136.19 116.07 -136.37 C 116.39 -136.55 116.76 -136.65 117.18 -136.65 C 117.63 -136.65 118.01 -136.55 118.31 -136.36 C 118.61 -136.18 118.81 -135.91 118.93 -135.57 C 119.43 -136.29 120.07 -136.65 120.85 -136.65 C 121.47 -136.65 121.95 -136.48 122.28 -136.14 C 122.61 -135.8 122.77 -135.27 122.77 -134.55 L 122.77 -130.29 L 121.72 -130.29 L 121.72 -134.21 C 121.72 -134.62 121.69 -134.93 121.62 -135.11 C 121.55 -135.3 121.43 -135.45 121.25 -135.57 C 121.08 -135.68 120.86 -135.74 120.61 -135.74 C 120.18 -135.74 119.81 -135.59 119.53 -135.3 C 119.24 -135.01 119.1 -134.54 119.1 -133.9 L 119.1 -130.29 L 118.04 -130.29 L 118.04 -134.33 C 118.04 -134.8 117.95 -135.15 117.78 -135.39 C 117.61 -135.62 117.33 -135.74 116.94 -135.74 C 116.64 -135.74 116.36 -135.66 116.11 -135.5 C 115.86 -135.35 115.68 -135.12 115.57 -134.82 C 115.45 -134.52 115.4 -134.08 115.4 -133.52 L 115.4 -130.29 L 114.35 -130.29 Z "/>
<path transform="matrix(1,0,0,1,-8,225)" stroke-width="1" stroke-linecap="butt" stroke-miterlimit="1.45" stroke-linejoin="miter" fill="none" stroke="#000000" d="M 23.507 -150 L 145.57 -150 L 145.57 -120 L 23.507 -120 L 23.507 -150 Z "/>
<path transform="matrix(1,0,0,1,-8,225)" d="M 27.837 -90 L 141.24 -90 L 141.24 -60 L 27.837 -60 L 27.837 -90 Z " fill="#ffffff"/>
<path transform="matrix(1,0,0,1,-8,225)" d="M 41.568 -73.302 L 42.693 -73.005 C 42.454 -72.078 42.026 -71.369 41.412 -70.88 C 40.797 -70.39 40.042 -70.146 39.146 -70.146 C 38.219 -70.146 37.464 -70.333 36.881 -70.708 C 36.297 -71.083 35.855 -71.627 35.553 -72.341 C 35.25 -73.054 35.099 -73.823 35.099 -74.646 C 35.099 -75.541 35.271 -76.323 35.615 -76.989 C 35.959 -77.656 36.446 -78.161 37.076 -78.505 C 37.706 -78.849 38.401 -79.021 39.162 -79.021 C 40.016 -79.021 40.737 -78.802 41.326 -78.364 C 41.914 -77.927 42.323 -77.312 42.553 -76.521 L 41.428 -76.255 C 41.23 -76.88 40.941 -77.336 40.56 -77.622 C 40.18 -77.909 39.704 -78.052 39.131 -78.052 C 38.474 -78.052 37.925 -77.893 37.482 -77.575 C 37.039 -77.257 36.727 -76.833 36.545 -76.302 C 36.362 -75.771 36.271 -75.218 36.271 -74.646 C 36.271 -73.916 36.378 -73.281 36.592 -72.739 C 36.805 -72.198 37.136 -71.791 37.584 -71.521 C 38.032 -71.25 38.521 -71.114 39.053 -71.114 C 39.688 -71.114 40.227 -71.297 40.67 -71.661 C 41.112 -72.026 41.412 -72.573 41.568 -73.302 Z M 43.578 -73.396 C 43.578 -74.552 43.896 -75.406 44.531 -75.958 C 45.062 -76.416 45.713 -76.646 46.484 -76.646 C 47.338 -76.646 48.039 -76.367 48.586 -75.81 C 49.133 -75.252 49.406 -74.479 49.406 -73.489 C 49.406 -72.687 49.286 -72.057 49.047 -71.599 C 48.807 -71.14 48.456 -70.784 47.992 -70.528 C 47.528 -70.273 47.026 -70.146 46.484 -70.146 C 45.62 -70.146 44.919 -70.424 44.383 -70.981 C 43.846 -71.539 43.578 -72.343 43.578 -73.396 Z M 44.656 -73.396 C 44.656 -72.604 44.831 -72.01 45.179 -71.614 C 45.528 -71.218 45.963 -71.021 46.484 -71.021 C 47.015 -71.021 47.453 -71.218 47.797 -71.614 C 48.14 -72.01 48.312 -72.614 48.312 -73.427 C 48.312 -74.198 48.138 -74.781 47.789 -75.177 C 47.44 -75.573 47.005 -75.771 46.484 -75.771 C 45.963 -75.771 45.528 -75.575 45.179 -75.185 C 44.831 -74.794 44.656 -74.198 44.656 -73.396 Z M 50.642 -70.286 L 50.642 -76.505 L 51.58 -76.505 L 51.58 -75.63 C 51.778 -75.942 52.038 -76.19 52.361 -76.372 C 52.684 -76.554 53.054 -76.646 53.47 -76.646 C 53.929 -76.646 54.306 -76.552 54.603 -76.364 C 54.9 -76.177 55.106 -75.911 55.22 -75.567 C 55.72 -76.286 56.361 -76.646 57.142 -76.646 C 57.767 -76.646 58.244 -76.476 58.572 -76.138 C 58.9 -75.799 59.064 -75.271 59.064 -74.552 L 59.064 -70.286 L 58.017 -70.286 L 58.017 -74.208 C 58.017 -74.625 57.984 -74.927 57.916 -75.114 C 57.848 -75.302 57.726 -75.453 57.549 -75.567 C 57.372 -75.682 57.158 -75.739 56.908 -75.739 C 56.47 -75.739 56.109 -75.593 55.822 -75.302 C 55.536 -75.01 55.392 -74.541 55.392 -73.896 L 55.392 -70.286 L 54.33 -70.286 L 54.33 -74.333 C 54.33 -74.802 54.244 -75.153 54.072 -75.388 C 53.9 -75.622 53.622 -75.739 53.236 -75.739 C 52.934 -75.739 52.658 -75.661 52.408 -75.505 C 52.158 -75.349 51.976 -75.119 51.861 -74.817 C 51.747 -74.515 51.689 -74.083 51.689 -73.521 L 51.689 -70.286 L 50.642 -70.286 Z M 60.638 -67.896 L 60.638 -76.505 L 61.592 -76.505 L 61.592 -75.708 C 61.821 -76.021 62.079 -76.255 62.365 -76.411 C 62.651 -76.567 62.998 -76.646 63.404 -76.646 C 63.935 -76.646 64.404 -76.51 64.81 -76.239 C 65.217 -75.968 65.521 -75.583 65.724 -75.083 C 65.928 -74.583 66.029 -74.036 66.029 -73.442 C 66.029 -72.807 65.917 -72.234 65.693 -71.724 C 65.469 -71.213 65.138 -70.823 64.701 -70.552 C 64.263 -70.281 63.805 -70.146 63.326 -70.146 C 62.972 -70.146 62.654 -70.221 62.373 -70.372 C 62.092 -70.523 61.862 -70.708 61.685 -70.927 L 61.685 -67.896 L 60.638 -67.896 Z M 61.592 -73.364 C 61.592 -72.562 61.753 -71.971 62.076 -71.591 C 62.399 -71.211 62.789 -71.021 63.248 -71.021 C 63.717 -71.021 64.118 -71.218 64.451 -71.614 C 64.784 -72.01 64.951 -72.625 64.951 -73.458 C 64.951 -74.25 64.789 -74.841 64.467 -75.231 C 64.144 -75.622 63.753 -75.817 63.295 -75.817 C 62.847 -75.817 62.451 -75.609 62.107 -75.192 C 61.763 -74.776 61.592 -74.166 61.592 -73.364 Z M 66.922 -73.396 C 66.922 -74.552 67.239 -75.406 67.875 -75.958 C 68.406 -76.416 69.057 -76.646 69.828 -76.646 C 70.682 -76.646 71.383 -76.367 71.929 -75.81 C 72.476 -75.252 72.75 -74.479 72.75 -73.489 C 72.75 -72.687 72.63 -72.057 72.39 -71.599 C 72.151 -71.14 71.799 -70.784 71.336 -70.528 C 70.872 -70.273 70.37 -70.146 69.828 -70.146 C 68.963 -70.146 68.263 -70.424 67.726 -70.981 C 67.19 -71.539 66.922 -72.343 66.922 -73.396 Z M 68 -73.396 C 68 -72.604 68.174 -72.01 68.523 -71.614 C 68.872 -71.218 69.307 -71.021 69.828 -71.021 C 70.359 -71.021 70.797 -71.218 71.14 -71.614 C 71.484 -72.01 71.656 -72.614 71.656 -73.427 C 71.656 -74.198 71.482 -74.781 71.133 -75.177 C 70.784 -75.573 70.349 -75.771 69.828 -75.771 C 69.307 -75.771 68.872 -75.575 68.523 -75.185 C 68.174 -74.794 68 -74.198 68 -73.396 Z M 73.986 -70.286 L 73.986 -76.505 L 74.924 -76.505 L 74.924 -75.63 C 75.382 -76.307 76.043 -76.646 76.908 -76.646 C 77.283 -76.646 77.629 -76.578 77.947 -76.442 C 78.265 -76.307 78.502 -76.13 78.658 -75.911 C 78.814 -75.692 78.924 -75.437 78.986 -75.146 C 79.017 -74.948 79.033 -74.604 79.033 -74.114 L 79.033 -70.286 L 77.986 -70.286 L 77.986 -74.067 C 77.986 -74.505 77.944 -74.828 77.861 -75.036 C 77.778 -75.244 77.632 -75.414 77.424 -75.544 C 77.215 -75.674 76.97 -75.739 76.689 -75.739 C 76.241 -75.739 75.853 -75.596 75.525 -75.31 C 75.197 -75.023 75.033 -74.484 75.033 -73.692 L 75.033 -70.286 L 73.986 -70.286 Z M 84.91 -72.286 L 86.004 -72.161 C 85.837 -71.526 85.519 -71.031 85.051 -70.677 C 84.582 -70.323 83.988 -70.146 83.269 -70.146 C 82.363 -70.146 81.642 -70.427 81.105 -70.989 C 80.569 -71.552 80.301 -72.338 80.301 -73.349 C 80.301 -74.39 80.571 -75.2 81.113 -75.778 C 81.655 -76.356 82.353 -76.646 83.207 -76.646 C 84.04 -76.646 84.72 -76.364 85.246 -75.802 C 85.772 -75.239 86.035 -74.442 86.035 -73.411 C 86.035 -73.349 86.035 -73.255 86.035 -73.13 L 81.394 -73.13 C 81.436 -72.442 81.629 -71.919 81.972 -71.56 C 82.316 -71.2 82.748 -71.021 83.269 -71.021 C 83.655 -71.021 83.985 -71.122 84.261 -71.325 C 84.538 -71.528 84.754 -71.849 84.91 -72.286 Z M 81.457 -73.989 L 84.926 -73.989 C 84.884 -74.521 84.754 -74.916 84.535 -75.177 C 84.191 -75.583 83.754 -75.786 83.222 -75.786 C 82.733 -75.786 82.324 -75.625 81.996 -75.302 C 81.668 -74.979 81.488 -74.541 81.457 -73.989 Z M 87.334 -70.286 L 87.334 -76.505 L 88.271 -76.505 L 88.271 -75.63 C 88.73 -76.307 89.391 -76.646 90.256 -76.646 C 90.631 -76.646 90.977 -76.578 91.295 -76.442 C 91.612 -76.307 91.849 -76.13 92.006 -75.911 C 92.162 -75.692 92.271 -75.437 92.334 -75.146 C 92.365 -74.948 92.381 -74.604 92.381 -74.114 L 92.381 -70.286 L 91.334 -70.286 L 91.334 -74.067 C 91.334 -74.505 91.292 -74.828 91.209 -75.036 C 91.125 -75.244 90.98 -75.414 90.771 -75.544 C 90.563 -75.674 90.318 -75.739 90.037 -75.739 C 89.589 -75.739 89.201 -75.596 88.873 -75.31 C 88.545 -75.023 88.381 -74.484 88.381 -73.692 L 88.381 -70.286 L 87.334 -70.286 Z M 96.304 -71.224 L 96.461 -70.302 C 96.159 -70.239 95.893 -70.208 95.664 -70.208 C 95.278 -70.208 94.982 -70.268 94.773 -70.388 C 94.565 -70.507 94.416 -70.666 94.328 -70.864 C 94.239 -71.062 94.195 -71.479 94.195 -72.114 L 94.195 -75.692 L 93.429 -75.692 L 93.429 -76.505 L 94.195 -76.505 L 94.195 -78.052 L 95.242 -78.677 L 95.242 -76.505 L 96.304 -76.505 L 96.304 -75.692 L 95.242 -75.692 L 95.242 -72.052 C 95.242 -71.75 95.26 -71.557 95.297 -71.474 C 95.333 -71.39 95.393 -71.323 95.476 -71.271 C 95.56 -71.218 95.679 -71.192 95.836 -71.192 C 95.961 -71.192 96.117 -71.203 96.304 -71.224 Z M 96.92 -72.864 L 96.92 -73.927 L 100.17 -73.927 L 100.17 -72.864 L 96.92 -72.864 Z M 101.42 -70.286 L 101.42 -78.88 L 104.65 -78.88 C 105.31 -78.88 105.83 -78.791 106.23 -78.614 C 106.62 -78.437 106.93 -78.169 107.16 -77.81 C 107.38 -77.45 107.49 -77.073 107.49 -76.677 C 107.49 -76.312 107.39 -75.968 107.2 -75.646 C 107 -75.323 106.7 -75.062 106.29 -74.864 C 106.81 -74.708 107.21 -74.445 107.49 -74.075 C 107.76 -73.705 107.9 -73.271 107.9 -72.771 C 107.9 -72.375 107.82 -72.002 107.65 -71.653 C 107.48 -71.304 107.28 -71.036 107.03 -70.849 C 106.78 -70.661 106.46 -70.521 106.08 -70.427 C 105.7 -70.333 105.24 -70.286 104.7 -70.286 L 101.42 -70.286 Z M 102.56 -75.271 L 104.42 -75.271 C 104.92 -75.271 105.28 -75.302 105.49 -75.364 C 105.79 -75.448 106 -75.591 106.15 -75.794 C 106.3 -75.997 106.37 -76.25 106.37 -76.552 C 106.37 -76.833 106.3 -77.083 106.17 -77.302 C 106.03 -77.521 105.84 -77.669 105.58 -77.747 C 105.32 -77.825 104.89 -77.864 104.28 -77.864 L 102.56 -77.864 L 102.56 -75.271 Z M 102.56 -71.302 L 104.7 -71.302 C 105.06 -71.302 105.32 -71.317 105.46 -71.349 C 105.73 -71.39 105.95 -71.466 106.13 -71.575 C 106.3 -71.685 106.44 -71.843 106.56 -72.052 C 106.67 -72.26 106.73 -72.5 106.73 -72.771 C 106.73 -73.093 106.65 -73.375 106.49 -73.614 C 106.32 -73.854 106.1 -74.021 105.81 -74.114 C 105.51 -74.208 105.09 -74.255 104.54 -74.255 L 102.56 -74.255 L 102.56 -71.302 Z M 113.4 -71.052 C 113.01 -70.718 112.63 -70.484 112.27 -70.349 C 111.91 -70.213 111.52 -70.146 111.11 -70.146 C 110.42 -70.146 109.89 -70.312 109.53 -70.646 C 109.16 -70.979 108.98 -71.406 108.98 -71.927 C 108.98 -72.229 109.05 -72.507 109.19 -72.763 C 109.32 -73.018 109.5 -73.221 109.73 -73.372 C 109.96 -73.523 110.22 -73.635 110.5 -73.708 C 110.7 -73.771 111.01 -73.828 111.44 -73.88 C 112.28 -73.974 112.9 -74.093 113.31 -74.239 C 113.31 -74.385 113.31 -74.474 113.31 -74.505 C 113.31 -74.942 113.21 -75.25 113.01 -75.427 C 112.74 -75.656 112.34 -75.771 111.81 -75.771 C 111.32 -75.771 110.96 -75.685 110.72 -75.513 C 110.48 -75.341 110.3 -75.036 110.19 -74.599 L 109.15 -74.739 C 109.25 -75.177 109.4 -75.531 109.62 -75.802 C 109.84 -76.073 110.15 -76.281 110.56 -76.427 C 110.97 -76.573 111.44 -76.646 111.97 -76.646 C 112.5 -76.646 112.93 -76.583 113.26 -76.458 C 113.6 -76.333 113.84 -76.177 114 -75.989 C 114.15 -75.802 114.26 -75.562 114.33 -75.271 C 114.36 -75.093 114.37 -74.771 114.37 -74.302 L 114.37 -72.896 C 114.37 -71.916 114.4 -71.297 114.44 -71.036 C 114.49 -70.776 114.58 -70.526 114.72 -70.286 L 113.61 -70.286 C 113.5 -70.505 113.44 -70.76 113.4 -71.052 Z M 113.31 -73.411 C 112.92 -73.255 112.35 -73.119 111.59 -73.005 C 111.15 -72.942 110.85 -72.872 110.67 -72.794 C 110.49 -72.716 110.35 -72.604 110.26 -72.458 C 110.16 -72.312 110.11 -72.146 110.11 -71.958 C 110.11 -71.677 110.21 -71.442 110.43 -71.255 C 110.64 -71.067 110.95 -70.974 111.36 -70.974 C 111.76 -70.974 112.13 -71.062 112.44 -71.239 C 112.76 -71.416 112.99 -71.661 113.14 -71.974 C 113.25 -72.213 113.31 -72.562 113.31 -73.021 L 113.31 -73.411 Z M 115.59 -72.146 L 116.62 -72.302 C 116.69 -71.885 116.85 -71.567 117.12 -71.349 C 117.38 -71.13 117.76 -71.021 118.25 -71.021 C 118.73 -71.021 119.09 -71.117 119.32 -71.31 C 119.55 -71.502 119.67 -71.734 119.67 -72.005 C 119.67 -72.244 119.57 -72.432 119.36 -72.567 C 119.21 -72.661 118.85 -72.781 118.28 -72.927 C 117.51 -73.125 116.98 -73.294 116.68 -73.435 C 116.38 -73.575 116.16 -73.771 116 -74.021 C 115.84 -74.271 115.77 -74.552 115.77 -74.864 C 115.77 -75.135 115.83 -75.39 115.95 -75.63 C 116.08 -75.869 116.25 -76.067 116.47 -76.224 C 116.64 -76.338 116.86 -76.437 117.14 -76.521 C 117.42 -76.604 117.73 -76.646 118.06 -76.646 C 118.54 -76.646 118.97 -76.575 119.34 -76.435 C 119.71 -76.294 119.98 -76.104 120.16 -75.864 C 120.33 -75.625 120.45 -75.307 120.52 -74.911 L 119.48 -74.771 C 119.44 -75.083 119.31 -75.33 119.09 -75.513 C 118.86 -75.695 118.54 -75.786 118.12 -75.786 C 117.65 -75.786 117.3 -75.705 117.09 -75.544 C 116.89 -75.382 116.78 -75.192 116.78 -74.974 C 116.78 -74.838 116.82 -74.718 116.91 -74.614 C 117 -74.5 117.14 -74.406 117.31 -74.333 C 117.42 -74.291 117.73 -74.203 118.25 -74.067 C 119 -73.859 119.52 -73.692 119.81 -73.567 C 120.1 -73.442 120.33 -73.26 120.5 -73.021 C 120.67 -72.781 120.75 -72.479 120.75 -72.114 C 120.75 -71.76 120.65 -71.429 120.45 -71.122 C 120.24 -70.815 119.95 -70.575 119.56 -70.403 C 119.18 -70.231 118.74 -70.146 118.25 -70.146 C 117.44 -70.146 116.82 -70.315 116.4 -70.653 C 115.98 -70.992 115.71 -71.489 115.59 -72.146 Z M 126.27 -72.286 L 127.36 -72.161 C 127.19 -71.526 126.87 -71.031 126.41 -70.677 C 125.94 -70.323 125.34 -70.146 124.62 -70.146 C 123.72 -70.146 123 -70.427 122.46 -70.989 C 121.92 -71.552 121.66 -72.338 121.66 -73.349 C 121.66 -74.39 121.93 -75.2 122.47 -75.778 C 123.01 -76.356 123.71 -76.646 124.56 -76.646 C 125.4 -76.646 126.08 -76.364 126.6 -75.802 C 127.13 -75.239 127.39 -74.442 127.39 -73.411 C 127.39 -73.349 127.39 -73.255 127.39 -73.13 L 122.75 -73.13 C 122.79 -72.442 122.98 -71.919 123.33 -71.56 C 123.67 -71.2 124.1 -71.021 124.62 -71.021 C 125.01 -71.021 125.34 -71.122 125.62 -71.325 C 125.89 -71.528 126.11 -71.849 126.27 -72.286 Z M 122.81 -73.989 L 126.28 -73.989 C 126.24 -74.521 126.11 -74.916 125.89 -75.177 C 125.55 -75.583 125.11 -75.786 124.58 -75.786 C 124.09 -75.786 123.68 -75.625 123.35 -75.302 C 123.02 -74.979 122.84 -74.541 122.81 -73.989 Z M 132.72 -70.286 L 132.72 -71.067 C 132.32 -70.453 131.75 -70.146 130.99 -70.146 C 130.49 -70.146 130.03 -70.284 129.61 -70.56 C 129.19 -70.836 128.87 -71.218 128.64 -71.708 C 128.41 -72.198 128.3 -72.76 128.3 -73.396 C 128.3 -74.01 128.4 -74.573 128.61 -75.083 C 128.82 -75.593 129.13 -75.981 129.55 -76.247 C 129.97 -76.513 130.43 -76.646 130.94 -76.646 C 131.31 -76.646 131.65 -76.567 131.94 -76.411 C 132.23 -76.255 132.47 -76.052 132.66 -75.802 L 132.66 -78.88 L 133.7 -78.88 L 133.7 -70.286 L 132.72 -70.286 Z M 129.39 -73.396 C 129.39 -72.593 129.56 -71.997 129.89 -71.606 C 130.23 -71.216 130.62 -71.021 131.08 -71.021 C 131.54 -71.021 131.93 -71.208 132.25 -71.583 C 132.57 -71.958 132.74 -72.531 132.74 -73.302 C 132.74 -74.156 132.57 -74.781 132.24 -75.177 C 131.92 -75.573 131.51 -75.771 131.03 -75.771 C 130.56 -75.771 130.17 -75.58 129.86 -75.2 C 129.55 -74.82 129.39 -74.218 129.39 -73.396 Z "/>
<path transform="matrix(1,0,0,1,-8,225)" stroke-width="1" stroke-linecap="butt" stroke-miterlimit="1.45" stroke-linejoin="miter" fill="none" stroke="#000000" d="M 27.837 -90 L 141.24 -90 L 141.24 -60 L 27.837 -60 L 27.837 -90 Z "/>
<path transform="matrix(1,0,0,1,-8,225)" d="M 163.89 -90 L 266.6 -90 L 266.6 -60 L 163.89 -60 L 163.89 -90 Z " fill="#ffffff"/>
<path transform="matrix(1,0,0,1,-8,225)" d="M 171.53 -70.286 L 171.53 -78.88 L 172.65 -78.88 L 172.65 -75.349 L 177.12 -75.349 L 177.12 -78.88 L 178.26 -78.88 L 178.26 -70.286 L 177.12 -70.286 L 177.12 -74.333 L 172.65 -74.333 L 172.65 -70.286 L 171.53 -70.286 Z M 180.02 -77.661 L 180.02 -78.88 L 181.08 -78.88 L 181.08 -77.661 L 180.02 -77.661 Z M 180.02 -70.286 L 180.02 -76.505 L 181.08 -76.505 L 181.08 -70.286 L 180.02 -70.286 Z M 186.94 -72.286 L 188.03 -72.161 C 187.87 -71.526 187.55 -71.031 187.08 -70.677 C 186.61 -70.323 186.02 -70.146 185.3 -70.146 C 184.39 -70.146 183.67 -70.427 183.13 -70.989 C 182.6 -71.552 182.33 -72.338 182.33 -73.349 C 182.33 -74.39 182.6 -75.2 183.14 -75.778 C 183.68 -76.356 184.38 -76.646 185.24 -76.646 C 186.07 -76.646 186.75 -76.364 187.27 -75.802 C 187.8 -75.239 188.06 -74.442 188.06 -73.411 C 188.06 -73.349 188.06 -73.255 188.06 -73.13 L 183.42 -73.13 C 183.46 -72.442 183.66 -71.919 184 -71.56 C 184.34 -71.2 184.78 -71.021 185.3 -71.021 C 185.68 -71.021 186.01 -71.122 186.29 -71.325 C 186.57 -71.528 186.78 -71.849 186.94 -72.286 Z M 183.49 -73.989 L 186.95 -73.989 C 186.91 -74.521 186.78 -74.916 186.56 -75.177 C 186.22 -75.583 185.78 -75.786 185.25 -75.786 C 184.76 -75.786 184.35 -75.625 184.02 -75.302 C 183.7 -74.979 183.52 -74.541 183.49 -73.989 Z M 189.35 -70.286 L 189.35 -76.505 L 190.3 -76.505 L 190.3 -75.567 C 190.54 -76.005 190.76 -76.294 190.96 -76.435 C 191.17 -76.575 191.39 -76.646 191.64 -76.646 C 192 -76.646 192.36 -76.536 192.72 -76.317 L 192.36 -75.333 C 192.1 -75.489 191.85 -75.567 191.6 -75.567 C 191.36 -75.567 191.15 -75.497 190.96 -75.356 C 190.78 -75.216 190.65 -75.021 190.58 -74.771 C 190.46 -74.396 190.39 -73.989 190.39 -73.552 L 190.39 -70.286 L 189.35 -70.286 Z M 197.42 -71.052 C 197.02 -70.718 196.65 -70.484 196.29 -70.349 C 195.93 -70.213 195.54 -70.146 195.12 -70.146 C 194.44 -70.146 193.91 -70.312 193.55 -70.646 C 193.18 -70.979 193 -71.406 193 -71.927 C 193 -72.229 193.07 -72.507 193.2 -72.763 C 193.34 -73.018 193.52 -73.221 193.75 -73.372 C 193.98 -73.523 194.23 -73.635 194.51 -73.708 C 194.71 -73.771 195.02 -73.828 195.45 -73.88 C 196.3 -73.974 196.92 -74.093 197.33 -74.239 C 197.33 -74.385 197.33 -74.474 197.33 -74.505 C 197.33 -74.942 197.23 -75.25 197.03 -75.427 C 196.76 -75.656 196.36 -75.771 195.83 -75.771 C 195.34 -75.771 194.97 -75.685 194.73 -75.513 C 194.49 -75.341 194.32 -75.036 194.2 -74.599 L 193.17 -74.739 C 193.26 -75.177 193.42 -75.531 193.64 -75.802 C 193.86 -76.073 194.17 -76.281 194.58 -76.427 C 194.98 -76.573 195.45 -76.646 195.98 -76.646 C 196.51 -76.646 196.95 -76.583 197.28 -76.458 C 197.61 -76.333 197.86 -76.177 198.01 -75.989 C 198.17 -75.802 198.28 -75.562 198.34 -75.271 C 198.37 -75.093 198.39 -74.771 198.39 -74.302 L 198.39 -72.896 C 198.39 -71.916 198.41 -71.297 198.46 -71.036 C 198.51 -70.776 198.6 -70.526 198.73 -70.286 L 197.62 -70.286 C 197.52 -70.505 197.45 -70.76 197.42 -71.052 Z M 197.33 -73.411 C 196.94 -73.255 196.37 -73.119 195.61 -73.005 C 195.17 -72.942 194.86 -72.872 194.69 -72.794 C 194.51 -72.716 194.37 -72.604 194.27 -72.458 C 194.17 -72.312 194.12 -72.146 194.12 -71.958 C 194.12 -71.677 194.23 -71.442 194.44 -71.255 C 194.66 -71.067 194.97 -70.974 195.37 -70.974 C 195.78 -70.974 196.14 -71.062 196.46 -71.239 C 196.78 -71.416 197.01 -71.661 197.16 -71.974 C 197.27 -72.213 197.33 -72.562 197.33 -73.021 L 197.33 -73.411 Z M 200.02 -70.286 L 200.02 -76.505 L 200.97 -76.505 L 200.97 -75.567 C 201.21 -76.005 201.43 -76.294 201.63 -76.435 C 201.84 -76.575 202.06 -76.646 202.31 -76.646 C 202.67 -76.646 203.03 -76.536 203.39 -76.317 L 203.03 -75.333 C 202.77 -75.489 202.52 -75.567 202.27 -75.567 C 202.03 -75.567 201.82 -75.497 201.63 -75.356 C 201.45 -75.216 201.32 -75.021 201.25 -74.771 C 201.13 -74.396 201.06 -73.989 201.06 -73.552 L 201.06 -70.286 L 200.02 -70.286 Z M 208.09 -72.567 L 209.12 -72.427 C 209.01 -71.718 208.72 -71.161 208.25 -70.755 C 207.78 -70.349 207.21 -70.146 206.53 -70.146 C 205.67 -70.146 204.99 -70.424 204.47 -70.981 C 203.96 -71.539 203.7 -72.338 203.7 -73.38 C 203.7 -74.047 203.81 -74.632 204.04 -75.138 C 204.26 -75.643 204.6 -76.021 205.05 -76.271 C 205.5 -76.521 206 -76.646 206.54 -76.646 C 207.21 -76.646 207.76 -76.476 208.19 -76.138 C 208.62 -75.799 208.9 -75.312 209.03 -74.677 L 208 -74.521 C 207.9 -74.937 207.73 -75.252 207.48 -75.466 C 207.23 -75.679 206.93 -75.786 206.58 -75.786 C 206.04 -75.786 205.61 -75.596 205.28 -75.216 C 204.94 -74.836 204.78 -74.234 204.78 -73.411 C 204.78 -72.567 204.94 -71.958 205.26 -71.583 C 205.59 -71.208 206 -71.021 206.51 -71.021 C 206.93 -71.021 207.28 -71.146 207.55 -71.396 C 207.83 -71.646 208.01 -72.036 208.09 -72.567 Z M 210.03 -70.286 L 210.03 -78.88 L 211.08 -78.88 L 211.08 -75.802 C 211.56 -76.364 212.18 -76.646 212.93 -76.646 C 213.4 -76.646 213.81 -76.554 214.15 -76.372 C 214.48 -76.19 214.73 -75.94 214.87 -75.622 C 215.02 -75.304 215.09 -74.838 215.09 -74.224 L 215.09 -70.286 L 214.04 -70.286 L 214.04 -74.224 C 214.04 -74.755 213.93 -75.14 213.7 -75.38 C 213.47 -75.619 213.15 -75.739 212.73 -75.739 C 212.42 -75.739 212.12 -75.659 211.85 -75.497 C 211.57 -75.336 211.37 -75.117 211.25 -74.841 C 211.13 -74.565 211.08 -74.182 211.08 -73.692 L 211.08 -70.286 L 210.03 -70.286 Z M 216.66 -67.896 L 216.53 -68.88 C 216.76 -68.817 216.96 -68.786 217.14 -68.786 C 217.37 -68.786 217.55 -68.825 217.69 -68.903 C 217.83 -68.981 217.95 -69.088 218.05 -69.224 C 218.11 -69.338 218.22 -69.604 218.37 -70.021 C 218.38 -70.073 218.42 -70.156 218.47 -70.271 L 216.09 -76.505 L 217.23 -76.505 L 218.53 -72.911 C 218.7 -72.453 218.85 -71.968 218.98 -71.458 C 219.11 -71.948 219.25 -72.422 219.42 -72.88 L 220.75 -76.505 L 221.8 -76.505 L 219.44 -70.177 C 219.18 -69.5 218.98 -69.031 218.84 -68.771 C 218.66 -68.416 218.44 -68.159 218.19 -67.997 C 217.95 -67.836 217.66 -67.755 217.33 -67.755 C 217.13 -67.755 216.91 -67.802 216.66 -67.896 Z M 222.28 -72.864 L 222.28 -73.927 L 225.53 -73.927 L 225.53 -72.864 L 222.28 -72.864 Z M 226.78 -70.286 L 226.78 -78.88 L 230.01 -78.88 C 230.67 -78.88 231.19 -78.791 231.59 -78.614 C 231.98 -78.437 232.29 -78.169 232.52 -77.81 C 232.74 -77.45 232.85 -77.073 232.85 -76.677 C 232.85 -76.312 232.76 -75.968 232.56 -75.646 C 232.36 -75.323 232.06 -75.062 231.65 -74.864 C 232.17 -74.708 232.57 -74.445 232.85 -74.075 C 233.12 -73.705 233.26 -73.271 233.26 -72.771 C 233.26 -72.375 233.18 -72.002 233.01 -71.653 C 232.84 -71.304 232.64 -71.036 232.39 -70.849 C 232.14 -70.661 231.82 -70.521 231.44 -70.427 C 231.06 -70.333 230.6 -70.286 230.06 -70.286 L 226.78 -70.286 Z M 227.92 -75.271 L 229.78 -75.271 C 230.28 -75.271 230.64 -75.302 230.85 -75.364 C 231.15 -75.448 231.36 -75.591 231.51 -75.794 C 231.66 -75.997 231.73 -76.25 231.73 -76.552 C 231.73 -76.833 231.66 -77.083 231.53 -77.302 C 231.39 -77.521 231.2 -77.669 230.94 -77.747 C 230.69 -77.825 230.25 -77.864 229.64 -77.864 L 227.92 -77.864 L 227.92 -75.271 Z M 227.92 -71.302 L 230.06 -71.302 C 230.42 -71.302 230.68 -71.317 230.82 -71.349 C 231.09 -71.39 231.32 -71.466 231.49 -71.575 C 231.66 -71.685 231.8 -71.843 231.92 -72.052 C 232.03 -72.26 232.09 -72.5 232.09 -72.771 C 232.09 -73.093 232.01 -73.375 231.85 -73.614 C 231.69 -73.854 231.46 -74.021 231.17 -74.114 C 230.88 -74.208 230.45 -74.255 229.9 -74.255 L 227.92 -74.255 L 227.92 -71.302 Z M 238.76 -71.052 C 238.37 -70.718 237.99 -70.484 237.63 -70.349 C 237.27 -70.213 236.88 -70.146 236.47 -70.146 C 235.78 -70.146 235.25 -70.312 234.89 -70.646 C 234.52 -70.979 234.34 -71.406 234.34 -71.927 C 234.34 -72.229 234.41 -72.507 234.55 -72.763 C 234.68 -73.018 234.86 -73.221 235.09 -73.372 C 235.32 -73.523 235.58 -73.635 235.86 -73.708 C 236.06 -73.771 236.37 -73.828 236.8 -73.88 C 237.64 -73.974 238.26 -74.093 238.67 -74.239 C 238.67 -74.385 238.67 -74.474 238.67 -74.505 C 238.67 -74.942 238.57 -75.25 238.37 -75.427 C 238.1 -75.656 237.7 -75.771 237.17 -75.771 C 236.68 -75.771 236.32 -75.685 236.08 -75.513 C 235.84 -75.341 235.66 -75.036 235.55 -74.599 L 234.51 -74.739 C 234.61 -75.177 234.76 -75.531 234.98 -75.802 C 235.2 -76.073 235.51 -76.281 235.92 -76.427 C 236.33 -76.573 236.8 -76.646 237.33 -76.646 C 237.86 -76.646 238.29 -76.583 238.62 -76.458 C 238.96 -76.333 239.2 -76.177 239.36 -75.989 C 239.51 -75.802 239.62 -75.562 239.69 -75.271 C 239.72 -75.093 239.73 -74.771 239.73 -74.302 L 239.73 -72.896 C 239.73 -71.916 239.76 -71.297 239.8 -71.036 C 239.85 -70.776 239.94 -70.526 240.08 -70.286 L 238.97 -70.286 C 238.86 -70.505 238.8 -70.76 238.76 -71.052 Z M 238.67 -73.411 C 238.29 -73.255 237.71 -73.119 236.95 -73.005 C 236.51 -72.942 236.21 -72.872 236.03 -72.794 C 235.85 -72.716 235.72 -72.604 235.62 -72.458 C 235.52 -72.312 235.47 -72.146 235.47 -71.958 C 235.47 -71.677 235.57 -71.442 235.79 -71.255 C 236 -71.067 236.31 -70.974 236.72 -70.974 C 237.12 -70.974 237.49 -71.062 237.8 -71.239 C 238.12 -71.416 238.35 -71.661 238.5 -71.974 C 238.61 -72.213 238.67 -72.562 238.67 -73.021 L 238.67 -73.411 Z M 240.95 -72.146 L 241.99 -72.302 C 242.05 -71.885 242.21 -71.567 242.48 -71.349 C 242.74 -71.13 243.12 -71.021 243.61 -71.021 C 244.09 -71.021 244.45 -71.117 244.68 -71.31 C 244.91 -71.502 245.03 -71.734 245.03 -72.005 C 245.03 -72.244 244.93 -72.432 244.72 -72.567 C 244.57 -72.661 244.21 -72.781 243.64 -72.927 C 242.87 -73.125 242.34 -73.294 242.04 -73.435 C 241.74 -73.575 241.52 -73.771 241.36 -74.021 C 241.2 -74.271 241.13 -74.552 241.13 -74.864 C 241.13 -75.135 241.19 -75.39 241.31 -75.63 C 241.44 -75.869 241.61 -76.067 241.83 -76.224 C 242 -76.338 242.22 -76.437 242.5 -76.521 C 242.78 -76.604 243.09 -76.646 243.42 -76.646 C 243.9 -76.646 244.33 -76.575 244.7 -76.435 C 245.07 -76.294 245.34 -76.104 245.52 -75.864 C 245.69 -75.625 245.81 -75.307 245.88 -74.911 L 244.84 -74.771 C 244.8 -75.083 244.67 -75.33 244.45 -75.513 C 244.22 -75.695 243.9 -75.786 243.49 -75.786 C 243.01 -75.786 242.66 -75.705 242.45 -75.544 C 242.25 -75.382 242.14 -75.192 242.14 -74.974 C 242.14 -74.838 242.18 -74.718 242.27 -74.614 C 242.36 -74.5 242.5 -74.406 242.67 -74.333 C 242.78 -74.291 243.09 -74.203 243.61 -74.067 C 244.36 -73.859 244.88 -73.692 245.17 -73.567 C 245.46 -73.442 245.69 -73.26 245.86 -73.021 C 246.03 -72.781 246.11 -72.479 246.11 -72.114 C 246.11 -71.76 246.01 -71.429 245.81 -71.122 C 245.6 -70.815 245.31 -70.575 244.92 -70.403 C 244.54 -70.231 244.1 -70.146 243.61 -70.146 C 242.8 -70.146 242.18 -70.315 241.76 -70.653 C 241.34 -70.992 241.07 -71.489 240.95 -72.146 Z M 251.63 -72.286 L 252.72 -72.161 C 252.55 -71.526 252.24 -71.031 251.77 -70.677 C 251.3 -70.323 250.7 -70.146 249.99 -70.146 C 249.08 -70.146 248.36 -70.427 247.82 -70.989 C 247.28 -71.552 247.02 -72.338 247.02 -73.349 C 247.02 -74.39 247.29 -75.2 247.83 -75.778 C 248.37 -76.356 249.07 -76.646 249.92 -76.646 C 250.76 -76.646 251.44 -76.364 251.96 -75.802 C 252.49 -75.239 252.75 -74.442 252.75 -73.411 C 252.75 -73.349 252.75 -73.255 252.75 -73.13 L 248.11 -73.13 C 248.15 -72.442 248.34 -71.919 248.69 -71.56 C 249.03 -71.2 249.46 -71.021 249.99 -71.021 C 250.37 -71.021 250.7 -71.122 250.98 -71.325 C 251.25 -71.528 251.47 -71.849 251.63 -72.286 Z M 248.17 -73.989 L 251.64 -73.989 C 251.6 -74.521 251.47 -74.916 251.25 -75.177 C 250.91 -75.583 250.47 -75.786 249.94 -75.786 C 249.45 -75.786 249.04 -75.625 248.71 -75.302 C 248.38 -74.979 248.2 -74.541 248.17 -73.989 Z M 258.08 -70.286 L 258.08 -71.067 C 257.69 -70.453 257.11 -70.146 256.35 -70.146 C 255.85 -70.146 255.39 -70.284 254.97 -70.56 C 254.55 -70.836 254.23 -71.218 254 -71.708 C 253.77 -72.198 253.66 -72.76 253.66 -73.396 C 253.66 -74.01 253.76 -74.573 253.97 -75.083 C 254.18 -75.593 254.49 -75.981 254.91 -76.247 C 255.33 -76.513 255.79 -76.646 256.3 -76.646 C 256.67 -76.646 257.01 -76.567 257.3 -76.411 C 257.59 -76.255 257.83 -76.052 258.02 -75.802 L 258.02 -78.88 L 259.07 -78.88 L 259.07 -70.286 L 258.08 -70.286 Z M 254.75 -73.396 C 254.75 -72.593 254.92 -71.997 255.25 -71.606 C 255.59 -71.216 255.98 -71.021 256.44 -71.021 C 256.9 -71.021 257.29 -71.208 257.61 -71.583 C 257.94 -71.958 258.1 -72.531 258.1 -73.302 C 258.1 -74.156 257.93 -74.781 257.6 -75.177 C 257.28 -75.573 256.87 -75.771 256.39 -75.771 C 255.92 -75.771 255.53 -75.58 255.22 -75.2 C 254.91 -74.82 254.75 -74.218 254.75 -73.396 Z "/>
<path transform="matrix(1,0,0,1,-8,225)" stroke-width="1" stroke-linecap="butt" stroke-miterlimit="1.45" stroke-linejoin="miter" fill="none" stroke="#000000" d="M 163.89 -90 L 266.6 -90 L 266.6 -60 L 163.89 -60 L 163.89 -90 Z "/>
<path transform="matrix(1,0,0,1,-8,225)" d="M 25.513 -30 L 143.56 -30 L 143.56 0 L 25.513 0 L 25.513 -30 Z " fill="#ffffff"/>
<path transform="matrix(1,0,0,1,-8,225)" d="M 39.576 -13.302 L 40.701 -13.005 C 40.461 -12.078 40.034 -11.369 39.42 -10.88 C 38.805 -10.39 38.05 -10.146 37.154 -10.146 C 36.227 -10.146 35.472 -10.333 34.888 -10.708 C 34.305 -11.083 33.862 -11.627 33.56 -12.341 C 33.258 -13.054 33.107 -13.823 33.107 -14.646 C 33.107 -15.541 33.279 -16.323 33.623 -16.989 C 33.967 -17.656 34.454 -18.161 35.084 -18.505 C 35.714 -18.849 36.409 -19.021 37.17 -19.021 C 38.024 -19.021 38.745 -18.802 39.334 -18.364 C 39.922 -17.927 40.331 -17.312 40.56 -16.521 L 39.435 -16.255 C 39.237 -16.88 38.948 -17.336 38.568 -17.622 C 38.188 -17.909 37.711 -18.052 37.138 -18.052 C 36.482 -18.052 35.933 -17.893 35.49 -17.575 C 35.047 -17.257 34.735 -16.833 34.553 -16.302 C 34.37 -15.771 34.279 -15.218 34.279 -14.646 C 34.279 -13.916 34.386 -13.281 34.599 -12.739 C 34.813 -12.198 35.144 -11.791 35.592 -11.521 C 36.039 -11.25 36.529 -11.114 37.06 -11.114 C 37.696 -11.114 38.235 -11.297 38.678 -11.661 C 39.12 -12.026 39.42 -12.573 39.576 -13.302 Z M 41.586 -13.396 C 41.586 -14.552 41.903 -15.406 42.539 -15.958 C 43.07 -16.416 43.721 -16.646 44.492 -16.646 C 45.346 -16.646 46.047 -16.367 46.594 -15.81 C 47.14 -15.252 47.414 -14.479 47.414 -13.489 C 47.414 -12.687 47.294 -12.057 47.054 -11.599 C 46.815 -11.14 46.463 -10.784 46 -10.528 C 45.536 -10.273 45.034 -10.146 44.492 -10.146 C 43.627 -10.146 42.927 -10.424 42.39 -10.981 C 41.854 -11.539 41.586 -12.343 41.586 -13.396 Z M 42.664 -13.396 C 42.664 -12.604 42.838 -12.01 43.187 -11.614 C 43.536 -11.218 43.971 -11.021 44.492 -11.021 C 45.023 -11.021 45.461 -11.218 45.804 -11.614 C 46.148 -12.01 46.32 -12.614 46.32 -13.427 C 46.32 -14.198 46.146 -14.781 45.797 -15.177 C 45.448 -15.573 45.013 -15.771 44.492 -15.771 C 43.971 -15.771 43.536 -15.575 43.187 -15.185 C 42.838 -14.794 42.664 -14.198 42.664 -13.396 Z M 48.65 -10.286 L 48.65 -16.505 L 49.588 -16.505 L 49.588 -15.63 C 49.786 -15.942 50.046 -16.19 50.369 -16.372 C 50.692 -16.554 51.062 -16.646 51.478 -16.646 C 51.937 -16.646 52.314 -16.552 52.611 -16.364 C 52.908 -16.177 53.114 -15.911 53.228 -15.567 C 53.728 -16.286 54.369 -16.646 55.15 -16.646 C 55.775 -16.646 56.252 -16.476 56.58 -16.138 C 56.908 -15.799 57.072 -15.271 57.072 -14.552 L 57.072 -10.286 L 56.025 -10.286 L 56.025 -14.208 C 56.025 -14.625 55.991 -14.927 55.924 -15.114 C 55.856 -15.302 55.734 -15.453 55.556 -15.567 C 55.379 -15.682 55.166 -15.739 54.916 -15.739 C 54.478 -15.739 54.116 -15.593 53.83 -15.302 C 53.543 -15.01 53.4 -14.541 53.4 -13.896 L 53.4 -10.286 L 52.338 -10.286 L 52.338 -14.333 C 52.338 -14.802 52.252 -15.153 52.08 -15.388 C 51.908 -15.622 51.629 -15.739 51.244 -15.739 C 50.942 -15.739 50.666 -15.661 50.416 -15.505 C 50.166 -15.349 49.984 -15.119 49.869 -14.817 C 49.754 -14.515 49.697 -14.083 49.697 -13.521 L 49.697 -10.286 L 48.65 -10.286 Z M 58.646 -7.8955 L 58.646 -16.505 L 59.599 -16.505 L 59.599 -15.708 C 59.829 -16.021 60.086 -16.255 60.373 -16.411 C 60.659 -16.567 61.006 -16.646 61.412 -16.646 C 61.943 -16.646 62.412 -16.51 62.818 -16.239 C 63.224 -15.968 63.529 -15.583 63.732 -15.083 C 63.935 -14.583 64.037 -14.036 64.037 -13.442 C 64.037 -12.807 63.925 -12.234 63.701 -11.724 C 63.477 -11.213 63.146 -10.823 62.709 -10.552 C 62.271 -10.281 61.813 -10.146 61.334 -10.146 C 60.98 -10.146 60.662 -10.221 60.381 -10.372 C 60.099 -10.523 59.87 -10.708 59.693 -10.927 L 59.693 -7.8955 L 58.646 -7.8955 Z M 59.599 -13.364 C 59.599 -12.562 59.761 -11.971 60.084 -11.591 C 60.407 -11.211 60.797 -11.021 61.256 -11.021 C 61.724 -11.021 62.125 -11.218 62.459 -11.614 C 62.792 -12.01 62.959 -12.625 62.959 -13.458 C 62.959 -14.25 62.797 -14.841 62.474 -15.231 C 62.151 -15.622 61.761 -15.817 61.303 -15.817 C 60.855 -15.817 60.459 -15.609 60.115 -15.192 C 59.771 -14.776 59.599 -14.166 59.599 -13.364 Z M 64.929 -13.396 C 64.929 -14.552 65.247 -15.406 65.883 -15.958 C 66.414 -16.416 67.065 -16.646 67.836 -16.646 C 68.69 -16.646 69.39 -16.367 69.937 -15.81 C 70.484 -15.252 70.758 -14.479 70.758 -13.489 C 70.758 -12.687 70.638 -12.057 70.398 -11.599 C 70.159 -11.14 69.807 -10.784 69.344 -10.528 C 68.88 -10.273 68.377 -10.146 67.836 -10.146 C 66.971 -10.146 66.271 -10.424 65.734 -10.981 C 65.198 -11.539 64.929 -12.343 64.929 -13.396 Z M 66.008 -13.396 C 66.008 -12.604 66.182 -12.01 66.531 -11.614 C 66.88 -11.218 67.315 -11.021 67.836 -11.021 C 68.367 -11.021 68.804 -11.218 69.148 -11.614 C 69.492 -12.01 69.664 -12.614 69.664 -13.427 C 69.664 -14.198 69.489 -14.781 69.14 -15.177 C 68.791 -15.573 68.357 -15.771 67.836 -15.771 C 67.315 -15.771 66.88 -15.575 66.531 -15.185 C 66.182 -14.794 66.008 -14.198 66.008 -13.396 Z M 71.994 -10.286 L 71.994 -16.505 L 72.931 -16.505 L 72.931 -15.63 C 73.39 -16.307 74.051 -16.646 74.916 -16.646 C 75.291 -16.646 75.637 -16.578 75.955 -16.442 C 76.273 -16.307 76.51 -16.13 76.666 -15.911 C 76.822 -15.692 76.931 -15.437 76.994 -15.146 C 77.025 -14.948 77.041 -14.604 77.041 -14.114 L 77.041 -10.286 L 75.994 -10.286 L 75.994 -14.067 C 75.994 -14.505 75.952 -14.828 75.869 -15.036 C 75.786 -15.244 75.64 -15.414 75.431 -15.544 C 75.223 -15.674 74.978 -15.739 74.697 -15.739 C 74.249 -15.739 73.861 -15.596 73.533 -15.31 C 73.205 -15.023 73.041 -14.484 73.041 -13.692 L 73.041 -10.286 L 71.994 -10.286 Z M 82.918 -12.286 L 84.011 -12.161 C 83.845 -11.526 83.527 -11.031 83.058 -10.677 C 82.59 -10.323 81.996 -10.146 81.277 -10.146 C 80.371 -10.146 79.65 -10.427 79.113 -10.989 C 78.577 -11.552 78.308 -12.338 78.308 -13.349 C 78.308 -14.39 78.579 -15.2 79.121 -15.778 C 79.663 -16.356 80.36 -16.646 81.215 -16.646 C 82.048 -16.646 82.728 -16.364 83.254 -15.802 C 83.78 -15.239 84.043 -14.442 84.043 -13.411 C 84.043 -13.349 84.043 -13.255 84.043 -13.13 L 79.402 -13.13 C 79.444 -12.442 79.636 -11.919 79.98 -11.56 C 80.324 -11.2 80.756 -11.021 81.277 -11.021 C 81.663 -11.021 81.993 -11.122 82.269 -11.325 C 82.545 -11.528 82.761 -11.849 82.918 -12.286 Z M 79.465 -13.989 L 82.933 -13.989 C 82.892 -14.521 82.761 -14.916 82.543 -15.177 C 82.199 -15.583 81.761 -15.786 81.23 -15.786 C 80.741 -15.786 80.332 -15.625 80.004 -15.302 C 79.676 -14.979 79.496 -14.541 79.465 -13.989 Z M 85.342 -10.286 L 85.342 -16.505 L 86.279 -16.505 L 86.279 -15.63 C 86.737 -16.307 87.399 -16.646 88.263 -16.646 C 88.638 -16.646 88.985 -16.578 89.303 -16.442 C 89.62 -16.307 89.857 -16.13 90.013 -15.911 C 90.17 -15.692 90.279 -15.437 90.342 -15.146 C 90.373 -14.948 90.388 -14.604 90.388 -14.114 L 90.388 -10.286 L 89.342 -10.286 L 89.342 -14.067 C 89.342 -14.505 89.3 -14.828 89.217 -15.036 C 89.133 -15.244 88.987 -15.414 88.779 -15.544 C 88.571 -15.674 88.326 -15.739 88.045 -15.739 C 87.597 -15.739 87.209 -15.596 86.881 -15.31 C 86.553 -15.023 86.388 -14.484 86.388 -13.692 L 86.388 -10.286 L 85.342 -10.286 Z M 94.312 -11.224 L 94.469 -10.302 C 94.166 -10.239 93.901 -10.208 93.672 -10.208 C 93.286 -10.208 92.989 -10.268 92.781 -10.388 C 92.573 -10.507 92.424 -10.666 92.336 -10.864 C 92.247 -11.062 92.203 -11.479 92.203 -12.114 L 92.203 -15.692 L 91.437 -15.692 L 91.437 -16.505 L 92.203 -16.505 L 92.203 -18.052 L 93.25 -18.677 L 93.25 -16.505 L 94.312 -16.505 L 94.312 -15.692 L 93.25 -15.692 L 93.25 -12.052 C 93.25 -11.75 93.268 -11.557 93.304 -11.474 C 93.341 -11.39 93.401 -11.323 93.484 -11.271 C 93.567 -11.218 93.687 -11.192 93.844 -11.192 C 93.969 -11.192 94.125 -11.203 94.312 -11.224 Z M 94.928 -12.864 L 94.928 -13.927 L 98.178 -13.927 L 98.178 -12.864 L 94.928 -12.864 Z M 105.61 -13.302 L 106.74 -13.005 C 106.5 -12.078 106.07 -11.369 105.45 -10.88 C 104.84 -10.39 104.09 -10.146 103.19 -10.146 C 102.26 -10.146 101.51 -10.333 100.92 -10.708 C 100.34 -11.083 99.898 -11.627 99.595 -12.341 C 99.293 -13.054 99.142 -13.823 99.142 -14.646 C 99.142 -15.541 99.314 -16.323 99.658 -16.989 C 100 -17.656 100.49 -18.161 101.12 -18.505 C 101.75 -18.849 102.44 -19.021 103.2 -19.021 C 104.06 -19.021 104.78 -18.802 105.37 -18.364 C 105.96 -17.927 106.37 -17.312 106.6 -16.521 L 105.47 -16.255 C 105.27 -16.88 104.98 -17.336 104.6 -17.622 C 104.22 -17.909 103.75 -18.052 103.17 -18.052 C 102.52 -18.052 101.97 -17.893 101.53 -17.575 C 101.08 -17.257 100.77 -16.833 100.59 -16.302 C 100.41 -15.771 100.31 -15.218 100.31 -14.646 C 100.31 -13.916 100.42 -13.281 100.63 -12.739 C 100.85 -12.198 101.18 -11.791 101.63 -11.521 C 102.07 -11.25 102.56 -11.114 103.1 -11.114 C 103.73 -11.114 104.27 -11.297 104.71 -11.661 C 105.16 -12.026 105.45 -12.573 105.61 -13.302 Z M 112.26 -12.286 L 113.36 -12.161 C 113.19 -11.526 112.87 -11.031 112.4 -10.677 C 111.93 -10.323 111.34 -10.146 110.62 -10.146 C 109.71 -10.146 108.99 -10.427 108.46 -10.989 C 107.92 -11.552 107.65 -12.338 107.65 -13.349 C 107.65 -14.39 107.92 -15.2 108.46 -15.778 C 109.01 -16.356 109.7 -16.646 110.56 -16.646 C 111.39 -16.646 112.07 -16.364 112.6 -15.802 C 113.12 -15.239 113.39 -14.442 113.39 -13.411 C 113.39 -13.349 113.39 -13.255 113.39 -13.13 L 108.75 -13.13 C 108.79 -12.442 108.98 -11.919 109.32 -11.56 C 109.67 -11.2 110.1 -11.021 110.62 -11.021 C 111.01 -11.021 111.34 -11.122 111.61 -11.325 C 111.89 -11.528 112.11 -11.849 112.26 -12.286 Z M 108.81 -13.989 L 112.28 -13.989 C 112.24 -14.521 112.11 -14.916 111.89 -15.177 C 111.54 -15.583 111.11 -15.786 110.57 -15.786 C 110.08 -15.786 109.68 -15.625 109.35 -15.302 C 109.02 -14.979 108.84 -14.541 108.81 -13.989 Z M 114.69 -10.286 L 114.69 -16.505 L 115.62 -16.505 L 115.62 -15.63 C 116.08 -16.307 116.74 -16.646 117.61 -16.646 C 117.98 -16.646 118.33 -16.578 118.65 -16.442 C 118.96 -16.307 119.2 -16.13 119.36 -15.911 C 119.51 -15.692 119.62 -15.437 119.69 -15.146 C 119.72 -14.948 119.73 -14.604 119.73 -14.114 L 119.73 -10.286 L 118.69 -10.286 L 118.69 -14.067 C 118.69 -14.505 118.64 -14.828 118.56 -15.036 C 118.48 -15.244 118.33 -15.414 118.12 -15.544 C 117.91 -15.674 117.67 -15.739 117.39 -15.739 C 116.94 -15.739 116.55 -15.596 116.22 -15.31 C 115.9 -15.023 115.73 -14.484 115.73 -13.692 L 115.73 -10.286 L 114.69 -10.286 Z M 123.66 -11.224 L 123.81 -10.302 C 123.51 -10.239 123.24 -10.208 123.02 -10.208 C 122.63 -10.208 122.33 -10.268 122.12 -10.388 C 121.92 -10.507 121.77 -10.666 121.68 -10.864 C 121.59 -11.062 121.55 -11.479 121.55 -12.114 L 121.55 -15.692 L 120.78 -15.692 L 120.78 -16.505 L 121.55 -16.505 L 121.55 -18.052 L 122.59 -18.677 L 122.59 -16.505 L 123.66 -16.505 L 123.66 -15.692 L 122.59 -15.692 L 122.59 -12.052 C 122.59 -11.75 122.61 -11.557 122.65 -11.474 C 122.68 -11.39 122.74 -11.323 122.83 -11.271 C 122.91 -11.218 123.03 -11.192 123.19 -11.192 C 123.31 -11.192 123.47 -11.203 123.66 -11.224 Z M 124.68 -10.286 L 124.68 -16.505 L 125.63 -16.505 L 125.63 -15.567 C 125.87 -16.005 126.09 -16.294 126.29 -16.435 C 126.5 -16.575 126.72 -16.646 126.97 -16.646 C 127.33 -16.646 127.69 -16.536 128.05 -16.317 L 127.69 -15.333 C 127.43 -15.489 127.18 -15.567 126.93 -15.567 C 126.69 -15.567 126.48 -15.497 126.29 -15.356 C 126.11 -15.216 125.98 -15.021 125.91 -14.771 C 125.79 -14.396 125.72 -13.989 125.72 -13.552 L 125.72 -10.286 L 124.68 -10.286 Z M 128.69 -17.661 L 128.69 -18.88 L 129.75 -18.88 L 129.75 -17.661 L 128.69 -17.661 Z M 128.69 -10.286 L 128.69 -16.505 L 129.75 -16.505 L 129.75 -10.286 L 128.69 -10.286 Z M 135.42 -12.567 L 136.45 -12.427 C 136.33 -11.718 136.04 -11.161 135.57 -10.755 C 135.11 -10.349 134.53 -10.146 133.86 -10.146 C 133 -10.146 132.32 -10.424 131.8 -10.981 C 131.28 -11.539 131.03 -12.338 131.03 -13.38 C 131.03 -14.047 131.14 -14.632 131.36 -15.138 C 131.59 -15.643 131.93 -16.021 132.38 -16.271 C 132.83 -16.521 133.33 -16.646 133.87 -16.646 C 134.54 -16.646 135.09 -16.476 135.52 -16.138 C 135.95 -15.799 136.23 -15.312 136.36 -14.677 L 135.32 -14.521 C 135.23 -14.937 135.06 -15.252 134.81 -15.466 C 134.56 -15.679 134.26 -15.786 133.9 -15.786 C 133.37 -15.786 132.94 -15.596 132.61 -15.216 C 132.27 -14.836 132.11 -14.234 132.11 -13.411 C 132.11 -12.567 132.27 -11.958 132.59 -11.583 C 132.91 -11.208 133.33 -11.021 133.84 -11.021 C 134.26 -11.021 134.6 -11.146 134.88 -11.396 C 135.15 -11.646 135.33 -12.036 135.42 -12.567 Z "/>
<path transform="matrix(1,0,0,1,-8,225)" stroke-width="1" stroke-linecap="butt" stroke-miterlimit="1.45" stroke-linejoin="miter" fill="none" stroke="#000000" d="M 25.513 -30 L 143.56 -30 L 143.56 0 L 25.513 0 L 25.513 -30 Z "/>
<path transform="matrix(1,0,0,1,-8,225)" d="M 163.89 -30 L 266.6 -30 L 266.6 0 L 163.89 0 L 163.89 -30 Z " fill="#ffffff"/>
<path transform="matrix(1,0,0,1,-8,225)" d="M 177.48 -14.474 C 177.48 -15.901 177.86 -17.018 178.63 -17.825 C 179.39 -18.632 180.38 -19.036 181.59 -19.036 C 182.39 -19.036 183.11 -18.846 183.74 -18.466 C 184.38 -18.086 184.86 -17.557 185.2 -16.88 C 185.53 -16.203 185.7 -15.432 185.7 -14.567 C 185.7 -13.703 185.52 -12.927 185.16 -12.239 C 184.81 -11.552 184.31 -11.031 183.67 -10.677 C 183.03 -10.323 182.34 -10.146 181.59 -10.146 C 180.77 -10.146 180.05 -10.341 179.41 -10.731 C 178.78 -11.122 178.3 -11.653 177.97 -12.325 C 177.64 -12.997 177.48 -13.713 177.48 -14.474 Z M 178.65 -14.458 C 178.65 -13.416 178.93 -12.599 179.49 -12.005 C 180.04 -11.411 180.74 -11.114 181.59 -11.114 C 182.44 -11.114 183.14 -11.414 183.7 -12.013 C 184.25 -12.612 184.52 -13.468 184.52 -14.583 C 184.52 -15.281 184.41 -15.89 184.17 -16.411 C 183.94 -16.932 183.59 -17.336 183.13 -17.622 C 182.68 -17.909 182.16 -18.052 181.6 -18.052 C 180.8 -18.052 180.11 -17.776 179.52 -17.224 C 178.94 -16.672 178.65 -15.75 178.65 -14.458 Z M 188 -10.286 L 187.01 -10.286 L 187.01 -18.88 L 188.08 -18.88 L 188.08 -15.817 C 188.52 -16.369 189.09 -16.646 189.78 -16.646 C 190.17 -16.646 190.53 -16.57 190.87 -16.419 C 191.2 -16.268 191.49 -16.052 191.71 -15.771 C 191.93 -15.489 192.11 -15.151 192.23 -14.755 C 192.36 -14.359 192.42 -13.937 192.42 -13.489 C 192.42 -12.427 192.16 -11.604 191.62 -11.021 C 191.09 -10.437 190.46 -10.146 189.73 -10.146 C 188.99 -10.146 188.42 -10.453 188 -11.067 L 188 -10.286 Z M 187.98 -13.442 C 187.98 -12.703 188.09 -12.166 188.3 -11.833 C 188.63 -11.291 189.08 -11.021 189.64 -11.021 C 190.1 -11.021 190.5 -11.218 190.83 -11.614 C 191.17 -12.01 191.34 -12.609 191.34 -13.411 C 191.34 -14.224 191.18 -14.823 190.86 -15.208 C 190.54 -15.593 190.14 -15.786 189.69 -15.786 C 189.23 -15.786 188.83 -15.586 188.49 -15.185 C 188.15 -14.784 187.98 -14.203 187.98 -13.442 Z M 193.69 -17.646 L 193.69 -18.88 L 194.75 -18.88 L 194.75 -17.646 L 193.69 -17.646 Z M 192.36 -7.8643 L 192.55 -8.7705 C 192.77 -8.7184 192.93 -8.6924 193.05 -8.6924 C 193.27 -8.6924 193.43 -8.7627 193.53 -8.9033 C 193.64 -9.0439 193.69 -9.4007 193.69 -9.9736 L 193.69 -16.505 L 194.75 -16.505 L 194.75 -9.9424 C 194.75 -9.182 194.65 -8.6507 194.45 -8.3486 C 194.19 -7.9528 193.77 -7.7549 193.19 -7.7549 C 192.9 -7.7549 192.62 -7.7913 192.36 -7.8643 Z M 200.62 -12.286 L 201.71 -12.161 C 201.55 -11.526 201.23 -11.031 200.76 -10.677 C 200.29 -10.323 199.7 -10.146 198.98 -10.146 C 198.07 -10.146 197.35 -10.427 196.82 -10.989 C 196.28 -11.552 196.01 -12.338 196.01 -13.349 C 196.01 -14.39 196.28 -15.2 196.82 -15.778 C 197.36 -16.356 198.06 -16.646 198.92 -16.646 C 199.75 -16.646 200.43 -16.364 200.96 -15.802 C 201.48 -15.239 201.75 -14.442 201.75 -13.411 C 201.75 -13.349 201.75 -13.255 201.75 -13.13 L 197.1 -13.13 C 197.15 -12.442 197.34 -11.919 197.68 -11.56 C 198.03 -11.2 198.46 -11.021 198.98 -11.021 C 199.36 -11.021 199.7 -11.122 199.97 -11.325 C 200.25 -11.528 200.46 -11.849 200.62 -12.286 Z M 197.17 -13.989 L 200.64 -13.989 C 200.59 -14.521 200.46 -14.916 200.25 -15.177 C 199.9 -15.583 199.46 -15.786 198.93 -15.786 C 198.44 -15.786 198.03 -15.625 197.71 -15.302 C 197.38 -14.979 197.2 -14.541 197.17 -13.989 Z M 207.11 -12.567 L 208.14 -12.427 C 208.02 -11.718 207.73 -11.161 207.26 -10.755 C 206.79 -10.349 206.22 -10.146 205.54 -10.146 C 204.69 -10.146 204 -10.424 203.49 -10.981 C 202.97 -11.539 202.72 -12.338 202.72 -13.38 C 202.72 -14.047 202.83 -14.632 203.05 -15.138 C 203.28 -15.643 203.61 -16.021 204.07 -16.271 C 204.52 -16.521 205.02 -16.646 205.56 -16.646 C 206.23 -16.646 206.78 -16.476 207.21 -16.138 C 207.64 -15.799 207.92 -15.312 208.04 -14.677 L 207.01 -14.521 C 206.92 -14.937 206.75 -15.252 206.5 -15.466 C 206.25 -15.679 205.94 -15.786 205.59 -15.786 C 205.06 -15.786 204.63 -15.596 204.29 -15.216 C 203.96 -14.836 203.79 -14.234 203.79 -13.411 C 203.79 -12.567 203.96 -11.958 204.28 -11.583 C 204.6 -11.208 205.02 -11.021 205.53 -11.021 C 205.94 -11.021 206.29 -11.146 206.57 -11.396 C 206.84 -11.646 207.02 -12.036 207.11 -12.567 Z M 211.34 -11.224 L 211.5 -10.302 C 211.19 -10.239 210.93 -10.208 210.7 -10.208 C 210.31 -10.208 210.02 -10.268 209.81 -10.388 C 209.6 -10.507 209.45 -10.666 209.36 -10.864 C 209.28 -11.062 209.23 -11.479 209.23 -12.114 L 209.23 -15.692 L 208.47 -15.692 L 208.47 -16.505 L 209.23 -16.505 L 209.23 -18.052 L 210.28 -18.677 L 210.28 -16.505 L 211.34 -16.505 L 211.34 -15.692 L 210.28 -15.692 L 210.28 -12.052 C 210.28 -11.75 210.3 -11.557 210.33 -11.474 C 210.37 -11.39 210.43 -11.323 210.51 -11.271 C 210.6 -11.218 210.72 -11.192 210.87 -11.192 C 211 -11.192 211.15 -11.203 211.34 -11.224 Z M 211.96 -12.864 L 211.96 -13.927 L 215.21 -13.927 L 215.21 -12.864 L 211.96 -12.864 Z M 222.64 -13.302 L 223.76 -13.005 C 223.52 -12.078 223.1 -11.369 222.48 -10.88 C 221.87 -10.39 221.11 -10.146 220.22 -10.146 C 219.29 -10.146 218.54 -10.333 217.95 -10.708 C 217.37 -11.083 216.93 -11.627 216.62 -12.341 C 216.32 -13.054 216.17 -13.823 216.17 -14.646 C 216.17 -15.541 216.34 -16.323 216.69 -16.989 C 217.03 -17.656 217.52 -18.161 218.15 -18.505 C 218.78 -18.849 219.47 -19.021 220.23 -19.021 C 221.09 -19.021 221.81 -18.802 222.4 -18.364 C 222.99 -17.927 223.39 -17.312 223.62 -16.521 L 222.5 -16.255 C 222.3 -16.88 222.01 -17.336 221.63 -17.622 C 221.25 -17.909 220.77 -18.052 220.2 -18.052 C 219.55 -18.052 219 -17.893 218.55 -17.575 C 218.11 -17.257 217.8 -16.833 217.62 -16.302 C 217.43 -15.771 217.34 -15.218 217.34 -14.646 C 217.34 -13.916 217.45 -13.281 217.66 -12.739 C 217.88 -12.198 218.21 -11.791 218.66 -11.521 C 219.1 -11.25 219.59 -11.114 220.12 -11.114 C 220.76 -11.114 221.3 -11.297 221.74 -11.661 C 222.18 -12.026 222.48 -12.573 222.64 -13.302 Z M 229.29 -12.286 L 230.38 -12.161 C 230.22 -11.526 229.9 -11.031 229.43 -10.677 C 228.96 -10.323 228.37 -10.146 227.65 -10.146 C 226.74 -10.146 226.02 -10.427 225.49 -10.989 C 224.95 -11.552 224.68 -12.338 224.68 -13.349 C 224.68 -14.39 224.95 -15.2 225.49 -15.778 C 226.03 -16.356 226.73 -16.646 227.59 -16.646 C 228.42 -16.646 229.1 -16.364 229.63 -15.802 C 230.15 -15.239 230.41 -14.442 230.41 -13.411 C 230.41 -13.349 230.41 -13.255 230.41 -13.13 L 225.77 -13.13 C 225.82 -12.442 226.01 -11.919 226.35 -11.56 C 226.7 -11.2 227.13 -11.021 227.65 -11.021 C 228.03 -11.021 228.37 -11.122 228.64 -11.325 C 228.92 -11.528 229.13 -11.849 229.29 -12.286 Z M 225.84 -13.989 L 229.31 -13.989 C 229.26 -14.521 229.13 -14.916 228.91 -15.177 C 228.57 -15.583 228.13 -15.786 227.6 -15.786 C 227.11 -15.786 226.7 -15.625 226.38 -15.302 C 226.05 -14.979 225.87 -14.541 225.84 -13.989 Z M 231.71 -10.286 L 231.71 -16.505 L 232.65 -16.505 L 232.65 -15.63 C 233.11 -16.307 233.77 -16.646 234.64 -16.646 C 235.01 -16.646 235.36 -16.578 235.67 -16.442 C 235.99 -16.307 236.23 -16.13 236.39 -15.911 C 236.54 -15.692 236.65 -15.437 236.71 -15.146 C 236.75 -14.948 236.76 -14.604 236.76 -14.114 L 236.76 -10.286 L 235.71 -10.286 L 235.71 -14.067 C 235.71 -14.505 235.67 -14.828 235.59 -15.036 C 235.51 -15.244 235.36 -15.414 235.15 -15.544 C 234.94 -15.674 234.7 -15.739 234.42 -15.739 C 233.97 -15.739 233.58 -15.596 233.25 -15.31 C 232.92 -15.023 232.76 -14.484 232.76 -13.692 L 232.76 -10.286 L 231.71 -10.286 Z M 240.68 -11.224 L 240.84 -10.302 C 240.54 -10.239 240.27 -10.208 240.04 -10.208 C 239.66 -10.208 239.36 -10.268 239.15 -10.388 C 238.94 -10.507 238.8 -10.666 238.71 -10.864 C 238.62 -11.062 238.58 -11.479 238.58 -12.114 L 238.58 -15.692 L 237.81 -15.692 L 237.81 -16.505 L 238.58 -16.505 L 238.58 -18.052 L 239.62 -18.677 L 239.62 -16.505 L 240.68 -16.505 L 240.68 -15.692 L 239.62 -15.692 L 239.62 -12.052 C 239.62 -11.75 239.64 -11.557 239.68 -11.474 C 239.71 -11.39 239.77 -11.323 239.86 -11.271 C 239.94 -11.218 240.06 -11.192 240.22 -11.192 C 240.34 -11.192 240.5 -11.203 240.68 -11.224 Z M 241.71 -10.286 L 241.71 -16.505 L 242.66 -16.505 L 242.66 -15.567 C 242.9 -16.005 243.12 -16.294 243.32 -16.435 C 243.53 -16.575 243.75 -16.646 244 -16.646 C 244.36 -16.646 244.72 -16.536 245.08 -16.317 L 244.72 -15.333 C 244.46 -15.489 244.21 -15.567 243.96 -15.567 C 243.72 -15.567 243.51 -15.497 243.32 -15.356 C 243.14 -15.216 243.01 -15.021 242.94 -14.771 C 242.82 -14.396 242.75 -13.989 242.75 -13.552 L 242.75 -10.286 L 241.71 -10.286 Z M 245.72 -17.661 L 245.72 -18.88 L 246.78 -18.88 L 246.78 -17.661 L 245.72 -17.661 Z M 245.72 -10.286 L 245.72 -16.505 L 246.78 -16.505 L 246.78 -10.286 L 245.72 -10.286 Z M 252.45 -12.567 L 253.48 -12.427 C 253.36 -11.718 253.07 -11.161 252.6 -10.755 C 252.13 -10.349 251.56 -10.146 250.88 -10.146 C 250.03 -10.146 249.34 -10.424 248.83 -10.981 C 248.31 -11.539 248.06 -12.338 248.06 -13.38 C 248.06 -14.047 248.17 -14.632 248.39 -15.138 C 248.62 -15.643 248.95 -16.021 249.41 -16.271 C 249.86 -16.521 250.36 -16.646 250.9 -16.646 C 251.57 -16.646 252.12 -16.476 252.55 -16.138 C 252.98 -15.799 253.26 -15.312 253.38 -14.677 L 252.35 -14.521 C 252.26 -14.937 252.09 -15.252 251.84 -15.466 C 251.59 -15.679 251.28 -15.786 250.93 -15.786 C 250.4 -15.786 249.97 -15.596 249.63 -15.216 C 249.3 -14.836 249.13 -14.234 249.13 -13.411 C 249.13 -12.567 249.3 -11.958 249.62 -11.583 C 249.94 -11.208 250.36 -11.021 250.87 -11.021 C 251.28 -11.021 251.63 -11.146 251.91 -11.396 C 252.18 -11.646 252.36 -12.036 252.45 -12.567 Z "/>
<path transform="matrix(1,0,0,1,-8,225)" stroke-width="1" stroke-linecap="butt" stroke-miterlimit="1.45" stroke-linejoin="miter" fill="none" stroke="#000000" d="M 163.89 -30 L 266.6 -30 L 266.6 0 L 163.89 0 L 163.89 -30 Z "/>
<path transform="matrix(1,0,0,1,-8,225)" stroke-width="1" stroke-linecap="butt" stroke-miterlimit="1.45" stroke-linejoin="miter" fill="none" stroke="#000000" d="M 215.24 -150.03 L 215.24 -165 L 84.536 -165 L 84.536 -180 "/>
<path transform="matrix(1,0,0,1,-8,225)" stroke-width="1" stroke-linecap="butt" stroke-miterlimit="1.45" stroke-linejoin="miter" fill="none" stroke="#000000" d="M 84.536 -150.03 L 84.536 -165 L 84.536 -180 "/>
<path transform="matrix(1,0,0,1,-8,225)" stroke-width="1" stroke-linecap="butt" stroke-miterlimit="1.45" stroke-linejoin="miter" fill="none" stroke="#000000" d="M 84.536 -90.029 L 84.536 -105 L 84.536 -120 "/>
<path transform="matrix(1,0,0,1,-8,225)" stroke-width="1" stroke-linecap="butt" stroke-miterlimit="1.45" stroke-linejoin="miter" fill="none" stroke="#000000" d="M 215.24 -90.029 L 215.24 -105 L 84.536 -105 L 84.536 -120 "/>
<path transform="matrix(1,0,0,1,-8,225)" stroke-width="1" stroke-linecap="butt" stroke-miterlimit="1.45" stroke-linejoin="miter" fill="none" stroke="#000000" d="M 84.536 -30.029 L 84.536 -60 "/>
<path transform="matrix(1,0,0,1,-8,225)" stroke-width="1" stroke-linecap="butt" stroke-miterlimit="1.45" stroke-linejoin="miter" fill="none" stroke="#000000" d="M 215.24 -30.029 L 215.24 -45 L 84.536 -45 L 84.536 -60 "/>
</g>
</g>
<clipPath id="cp3">
<path d="M 0 0 L 0 240 L 274 240 L 274 0 Z "/>
</clipPath>
<g clip-path="url(#cp3)">
</g>
</g>
</g>
</svg>
